M48
; DRILL file {KiCad (6.0.2)} date Thu Jun  2 00:09:52 2022
; FORMAT={-:-/ absolute / metric / decimal}
; #@! TF.CreationDate,2022-06-02T00:09:52+03:00
; #@! TF.GenerationSoftware,Kicad,Pcbnew,(6.0.2)
; #@! TF.FileFunction,Plated,1,4,PTH
FMAT,2
METRIC
; #@! TA.AperFunction,Plated,PTH,ViaDrill
T1C0.400
; #@! TA.AperFunction,Plated,PTH,ComponentDrill
T2C0.914
; #@! TA.AperFunction,Plated,PTH,ComponentDrill
T3C1.000
; #@! TA.AperFunction,Plated,PTH,ComponentDrill
T4C2.200
%
G90
G05
T1
X118.55Y-106.55
X120.65Y-111.15
X122.05Y-100.45
X122.85Y-69.75
X122.95Y-83.55
X122.95Y-111.15
X127.55Y-74.55
X130.25Y-108.35
X130.35Y-110.15
X130.65Y-105.25
X130.85Y-85.35
X132.25Y-106.55
X132.35Y-104.35
X132.95Y-90.85
X133.35Y-115.75
X134.85Y-101.35
X135.85Y-96.65
X135.85Y-108.45
X136.05Y-81.45
X136.15Y-103.15
X136.15Y-104.05
X136.15Y-104.95
X136.85Y-98.25
X137.45Y-108.15
X137.55Y-90.65
X137.85Y-97.45
X137.95Y-101.95
X137.95Y-104.45
X137.95Y-107.15
X139.05Y-85.35
X141.65Y-103.95
X142.15Y-108.85
X142.45Y-75.65
X142.55Y-90.65
X142.65Y-95.55
X144.05Y-68.95
X144.55Y-90.45
X144.95Y-101.55
X144.95Y-107.05
X145.55Y-85.35
X151.85Y-93.35
X152.25Y-95.45
X153.65Y-103.15
X154.338Y-104.862
X154.55Y-106.15
X154.95Y-108.95
X156.85Y-90.15
X156.85Y-107.05
X157.45Y-108.95
X157.65Y-116.75
X157.75Y-110.95
X158.15Y-98.05
X158.75Y-115.55
X159.05Y-105.95
X159.75Y-98.05
X160.05Y-114.45
X160.45Y-100.65
X161.35Y-86.75
X161.35Y-94.45
X161.55Y-113.45
X161.85Y-106.0
X162.05Y-96.65
X162.15Y-101.15
X162.75Y-86.35
X162.95Y-114.35
X163.15Y-108.55
X163.75Y-101.35
X163.85Y-85.55
X163.85Y-102.85
X164.85Y-84.85
X165.05Y-111.75
X165.15Y-104.85
X166.35Y-94.85
X166.35Y-97.85
X166.35Y-100.85
X166.35Y-103.85
X166.35Y-106.85
X166.35Y-109.85
X166.35Y-112.85
X166.35Y-115.75
X170.45Y-117.45
X170.65Y-96.15
X170.65Y-99.15
X170.65Y-102.15
X170.65Y-105.15
X170.65Y-108.05
X170.65Y-111.15
X170.65Y-114.25
X172.55Y-95.35
X172.55Y-98.65
X172.55Y-101.55
X172.55Y-104.65
X172.55Y-107.65
X172.55Y-111.05
X172.55Y-113.45
X172.55Y-116.65
T2
X124.052Y-123.271
X126.425Y-123.271
X128.675Y-123.271
X131.048Y-123.271
T3
X175.75Y-87.35
X175.763Y-95.2
X175.763Y-97.74
X175.763Y-100.28
X175.763Y-102.82
X175.763Y-105.36
X175.763Y-107.9
X175.763Y-110.44
X175.763Y-112.98
X175.763Y-115.52
T4
X121.751Y-125.669
X133.349Y-125.669
T0
M30
