%TF.GenerationSoftware,KiCad,Pcbnew,(6.0.2)*%
%TF.CreationDate,2022-06-02T00:09:37+03:00*%
%TF.ProjectId,BYKR-C2-V00,42594b52-2d43-4322-9d56-30302e6b6963,rev?*%
%TF.SameCoordinates,Original*%
%TF.FileFunction,Legend,Bot*%
%TF.FilePolarity,Positive*%
%FSLAX46Y46*%
G04 Gerber Fmt 4.6, Leading zero omitted, Abs format (unit mm)*
G04 Created by KiCad (PCBNEW (6.0.2)) date 2022-06-02 00:09:37*
%MOMM*%
%LPD*%
G01*
G04 APERTURE LIST*
%ADD10C,0.150000*%
G04 APERTURE END LIST*
D10*
X117883333Y-126878571D02*
X117740476Y-126926190D01*
X117692857Y-126973809D01*
X117645238Y-127069047D01*
X117645238Y-127211904D01*
X117692857Y-127307142D01*
X117740476Y-127354761D01*
X117835714Y-127402380D01*
X118216666Y-127402380D01*
X118216666Y-126402380D01*
X117883333Y-126402380D01*
X117788095Y-126450000D01*
X117740476Y-126497619D01*
X117692857Y-126592857D01*
X117692857Y-126688095D01*
X117740476Y-126783333D01*
X117788095Y-126830952D01*
X117883333Y-126878571D01*
X118216666Y-126878571D01*
X117026190Y-126402380D02*
X116835714Y-126402380D01*
X116740476Y-126450000D01*
X116645238Y-126545238D01*
X116597619Y-126735714D01*
X116597619Y-127069047D01*
X116645238Y-127259523D01*
X116740476Y-127354761D01*
X116835714Y-127402380D01*
X117026190Y-127402380D01*
X117121428Y-127354761D01*
X117216666Y-127259523D01*
X117264285Y-127069047D01*
X117264285Y-126735714D01*
X117216666Y-126545238D01*
X117121428Y-126450000D01*
X117026190Y-126402380D01*
X116311904Y-126402380D02*
X115740476Y-126402380D01*
X116026190Y-127402380D02*
X116026190Y-126402380D01*
X178902380Y-126978571D02*
X178759523Y-127026190D01*
X178711904Y-127073809D01*
X178664285Y-127169047D01*
X178664285Y-127311904D01*
X178711904Y-127407142D01*
X178759523Y-127454761D01*
X178854761Y-127502380D01*
X179235714Y-127502380D01*
X179235714Y-126502380D01*
X178902380Y-126502380D01*
X178807142Y-126550000D01*
X178759523Y-126597619D01*
X178711904Y-126692857D01*
X178711904Y-126788095D01*
X178759523Y-126883333D01*
X178807142Y-126930952D01*
X178902380Y-126978571D01*
X179235714Y-126978571D01*
X178045238Y-127026190D02*
X178045238Y-127502380D01*
X178378571Y-126502380D02*
X178045238Y-127026190D01*
X177711904Y-126502380D01*
X177378571Y-127502380D02*
X177378571Y-126502380D01*
X176807142Y-127502380D02*
X177235714Y-126930952D01*
X176807142Y-126502380D02*
X177378571Y-127073809D01*
X175807142Y-127502380D02*
X176140476Y-127026190D01*
X176378571Y-127502380D02*
X176378571Y-126502380D01*
X175997619Y-126502380D01*
X175902380Y-126550000D01*
X175854761Y-126597619D01*
X175807142Y-126692857D01*
X175807142Y-126835714D01*
X175854761Y-126930952D01*
X175902380Y-126978571D01*
X175997619Y-127026190D01*
X176378571Y-127026190D01*
X175378571Y-127121428D02*
X174616666Y-127121428D01*
X173569047Y-127407142D02*
X173616666Y-127454761D01*
X173759523Y-127502380D01*
X173854761Y-127502380D01*
X173997619Y-127454761D01*
X174092857Y-127359523D01*
X174140476Y-127264285D01*
X174188095Y-127073809D01*
X174188095Y-126930952D01*
X174140476Y-126740476D01*
X174092857Y-126645238D01*
X173997619Y-126550000D01*
X173854761Y-126502380D01*
X173759523Y-126502380D01*
X173616666Y-126550000D01*
X173569047Y-126597619D01*
X173188095Y-126597619D02*
X173140476Y-126550000D01*
X173045238Y-126502380D01*
X172807142Y-126502380D01*
X172711904Y-126550000D01*
X172664285Y-126597619D01*
X172616666Y-126692857D01*
X172616666Y-126788095D01*
X172664285Y-126930952D01*
X173235714Y-127502380D01*
X172616666Y-127502380D01*
X172188095Y-127121428D02*
X171426190Y-127121428D01*
X171092857Y-126502380D02*
X170759523Y-127502380D01*
X170426190Y-126502380D01*
X169902380Y-126502380D02*
X169807142Y-126502380D01*
X169711904Y-126550000D01*
X169664285Y-126597619D01*
X169616666Y-126692857D01*
X169569047Y-126883333D01*
X169569047Y-127121428D01*
X169616666Y-127311904D01*
X169664285Y-127407142D01*
X169711904Y-127454761D01*
X169807142Y-127502380D01*
X169902380Y-127502380D01*
X169997619Y-127454761D01*
X170045238Y-127407142D01*
X170092857Y-127311904D01*
X170140476Y-127121428D01*
X170140476Y-126883333D01*
X170092857Y-126692857D01*
X170045238Y-126597619D01*
X169997619Y-126550000D01*
X169902380Y-126502380D01*
X168950000Y-126502380D02*
X168854761Y-126502380D01*
X168759523Y-126550000D01*
X168711904Y-126597619D01*
X168664285Y-126692857D01*
X168616666Y-126883333D01*
X168616666Y-127121428D01*
X168664285Y-127311904D01*
X168711904Y-127407142D01*
X168759523Y-127454761D01*
X168854761Y-127502380D01*
X168950000Y-127502380D01*
X169045238Y-127454761D01*
X169092857Y-127407142D01*
X169140476Y-127311904D01*
X169188095Y-127121428D01*
X169188095Y-126883333D01*
X169140476Y-126692857D01*
X169092857Y-126597619D01*
X169045238Y-126550000D01*
X168950000Y-126502380D01*
M02*
