%TF.GenerationSoftware,KiCad,Pcbnew,(6.0.2)*%
%TF.CreationDate,2022-06-02T00:09:37+03:00*%
%TF.ProjectId,BYKR-C2-V00,42594b52-2d43-4322-9d56-30302e6b6963,rev?*%
%TF.SameCoordinates,Original*%
%TF.FileFunction,Copper,L4,Bot*%
%TF.FilePolarity,Positive*%
%FSLAX46Y46*%
G04 Gerber Fmt 4.6, Leading zero omitted, Abs format (unit mm)*
G04 Created by KiCad (PCBNEW (6.0.2)) date 2022-06-02 00:09:37*
%MOMM*%
%LPD*%
G01*
G04 APERTURE LIST*
%TA.AperFunction,ComponentPad*%
%ADD10C,1.879600*%
%TD*%
%TA.AperFunction,ComponentPad*%
%ADD11C,3.215640*%
%TD*%
%TA.AperFunction,ComponentPad*%
%ADD12R,1.700000X1.700000*%
%TD*%
%TA.AperFunction,ComponentPad*%
%ADD13O,1.700000X1.700000*%
%TD*%
%TA.AperFunction,ViaPad*%
%ADD14C,0.800000*%
%TD*%
%TA.AperFunction,Conductor*%
%ADD15C,2.000000*%
%TD*%
%TA.AperFunction,Conductor*%
%ADD16C,0.500000*%
%TD*%
%TA.AperFunction,Conductor*%
%ADD17C,1.000000*%
%TD*%
G04 APERTURE END LIST*
D10*
%TO.P,J1,1,VBUS*%
%TO.N,Net-(J1-Pad1)*%
X131047580Y-123271330D03*
%TO.P,J1,2,D-*%
%TO.N,Net-(J1-Pad2)*%
X128675220Y-123271330D03*
%TO.P,J1,3,D+*%
%TO.N,Net-(J1-Pad3)*%
X126424780Y-123271330D03*
%TO.P,J1,4,GND*%
%TO.N,GND*%
X124052420Y-123271330D03*
D11*
%TO.P,J1,5,Shield*%
X133348820Y-125669090D03*
X121751180Y-125669090D03*
%TD*%
D12*
%TO.P,J3,1,Pin_1*%
%TO.N,MCU_S*%
X175750000Y-87350000D03*
%TD*%
%TO.P,J2,1,Pin_1*%
%TO.N,CAMERA_D2*%
X175762572Y-95200000D03*
D13*
%TO.P,J2,2,Pin_2*%
%TO.N,CAMERA_D3*%
X175762572Y-97740000D03*
%TO.P,J2,3,Pin_3*%
%TO.N,CAMERA_CMD*%
X175762572Y-100280000D03*
%TO.P,J2,4,Pin_4*%
%TO.N,CAMERA_VCC*%
X175762572Y-102820000D03*
%TO.P,J2,5,Pin_5*%
%TO.N,CAMERA_CLK*%
X175762572Y-105360000D03*
%TO.P,J2,6,Pin_6*%
%TO.N,GND*%
X175762572Y-107900000D03*
%TO.P,J2,7,Pin_7*%
%TO.N,CAMERA_D0*%
X175762572Y-110440000D03*
%TO.P,J2,8,Pin_8*%
%TO.N,CAMERA_D1*%
X175762572Y-112980000D03*
%TO.P,J2,9,Pin_9*%
%TO.N,CAMERA_CD*%
X175762572Y-115520000D03*
%TD*%
D14*
%TO.N,GND*%
X142450000Y-75650000D03*
X136050000Y-81450000D03*
X127550000Y-74550000D03*
X122950000Y-83550000D03*
%TO.N,USB_D3*%
X159750000Y-98050000D03*
X154550000Y-106150000D03*
%TO.N,USB_D2*%
X158150000Y-98050000D03*
X154337500Y-104862500D03*
%TO.N,USB_D0*%
X163150000Y-108550000D03*
%TO.N,USB_D1*%
X165050000Y-111750000D03*
%TO.N,USB_CD*%
X162950000Y-114350000D03*
X157750000Y-110950000D03*
%TO.N,USB_D1*%
X161850000Y-106000500D03*
X157450000Y-108950000D03*
%TO.N,USB_D0*%
X159050000Y-105950000D03*
X154950000Y-108950000D03*
%TO.N,USB_CMD*%
X160450000Y-100650000D03*
X156850000Y-107050000D03*
%TO.N,USB_VCC*%
X163850000Y-102850000D03*
X152250000Y-95450000D03*
X142650000Y-95550000D03*
X136850000Y-98250000D03*
%TO.N,SD_D2*%
X161350000Y-94450000D03*
X161350000Y-86750000D03*
%TO.N,SD_D3*%
X162050000Y-96650000D03*
X162750000Y-86350000D03*
%TO.N,SD_CMD*%
X163750000Y-101350000D03*
X163850000Y-85550000D03*
%TO.N,SD_CD*%
X157650000Y-116750000D03*
%TO.N,SD_VCC*%
X165150000Y-104850000D03*
X164850000Y-84850000D03*
%TO.N,SD_CLK*%
X158750000Y-115550000D03*
%TO.N,SD_D0*%
X160050000Y-114450000D03*
%TO.N,SD_D1*%
X161550000Y-113450000D03*
%TO.N,SD_CD*%
X132950000Y-90850000D03*
%TO.N,SD_CLK*%
X137550000Y-90650000D03*
%TO.N,SD_D0*%
X142550000Y-90650000D03*
%TO.N,SD_D1*%
X144550000Y-90450000D03*
%TO.N,+5V*%
X137450000Y-108150000D03*
%TO.N,DM*%
X130350000Y-110150000D03*
%TO.N,DP*%
X130650000Y-105250000D03*
%TO.N,Net-(C6-Pad1)*%
X132350000Y-104350000D03*
%TO.N,+3V3*%
X137850000Y-97450000D03*
%TO.N,Net-(C6-Pad1)*%
X136150000Y-103150000D03*
%TO.N,DP*%
X136150000Y-104050000D03*
%TO.N,DM*%
X136150000Y-104950000D03*
%TO.N,+5V*%
X133350000Y-115750000D03*
X122050000Y-100450000D03*
%TO.N,+3V3*%
X153650000Y-103150000D03*
X118550000Y-106550000D03*
X130250000Y-108350000D03*
X132250000Y-106550000D03*
X137950000Y-101950000D03*
X137950000Y-104450000D03*
X137950000Y-107150000D03*
X120650000Y-111150000D03*
%TO.N,GND*%
X151850000Y-93350000D03*
X135850000Y-96650000D03*
X134850000Y-101350000D03*
X135850000Y-108450000D03*
X122950000Y-111150000D03*
X145550000Y-85350000D03*
X139050000Y-85350000D03*
X130850000Y-85350000D03*
X144050000Y-68950000D03*
X122850000Y-69750000D03*
X156850000Y-90150000D03*
%TO.N,+3V3*%
X162150000Y-101150000D03*
X166350000Y-94850000D03*
X166350000Y-97850000D03*
X166350000Y-100850000D03*
X166350000Y-103850000D03*
X166350000Y-106850000D03*
X166350000Y-109850000D03*
X166350000Y-112850000D03*
X166350000Y-115750000D03*
%TO.N,GND*%
X142150000Y-108850000D03*
X144950000Y-107050000D03*
X144950000Y-101550000D03*
X141650000Y-103950000D03*
X172550000Y-116650000D03*
X172550000Y-113450000D03*
X172550000Y-111050000D03*
X172550000Y-107650000D03*
X172550000Y-104650000D03*
X172550000Y-101550000D03*
X172550000Y-98650000D03*
X172550000Y-95350000D03*
%TO.N,MCU_S*%
X170650000Y-96150000D03*
X170650000Y-99150000D03*
X170650000Y-102150000D03*
X170650000Y-105150000D03*
X170650000Y-108050000D03*
X170650000Y-111150000D03*
X170650000Y-114250000D03*
X170450000Y-117450000D03*
%TD*%
D15*
%TO.N,MCU_S*%
X172150000Y-87350000D02*
X175750000Y-87350000D01*
X170650000Y-88850000D02*
X172150000Y-87350000D01*
X170650000Y-92250000D02*
X170650000Y-88850000D01*
D16*
%TO.N,SD_D3*%
X162050000Y-96650000D02*
X162750000Y-95950000D01*
X162750000Y-95950000D02*
X162750000Y-86350000D01*
%TO.N,USB_D3*%
X159250000Y-98650000D02*
X159250000Y-98550000D01*
X159250000Y-98550000D02*
X159750000Y-98050000D01*
X159250000Y-101450000D02*
X159250000Y-98650000D01*
X154550000Y-106150000D02*
X159250000Y-101450000D01*
%TO.N,USB_D2*%
X158150000Y-101050000D02*
X158150000Y-98050000D01*
X154337500Y-104862500D02*
X158150000Y-101050000D01*
%TO.N,USB_D1*%
X161050000Y-108950000D02*
X161650000Y-108350000D01*
X161850000Y-108350000D02*
X161850000Y-106000500D01*
X161650000Y-108350000D02*
X161850000Y-108350000D01*
X161050000Y-108950000D02*
X161650000Y-108950000D01*
X161850000Y-109150000D02*
X161850000Y-108350000D01*
X157450000Y-108950000D02*
X161050000Y-108950000D01*
X161650000Y-108950000D02*
X163400000Y-110700000D01*
X163400000Y-110700000D02*
X161850000Y-109150000D01*
X164450000Y-111750000D02*
X163400000Y-110700000D01*
X165050000Y-111750000D02*
X164450000Y-111750000D01*
%TO.N,USB_CD*%
X162950000Y-112150000D02*
X162950000Y-114350000D01*
X162750000Y-111950000D02*
X162950000Y-112150000D01*
X161750000Y-110950000D02*
X162750000Y-111950000D01*
X157750000Y-110950000D02*
X161750000Y-110950000D01*
%TO.N,USB_D1*%
X161850000Y-106850000D02*
X161850000Y-106000500D01*
X161650000Y-107050000D02*
X161850000Y-106850000D01*
X160750000Y-107950000D02*
X161650000Y-107050000D01*
X159650000Y-107950000D02*
X160750000Y-107950000D01*
X158450000Y-107950000D02*
X159650000Y-107950000D01*
X157450000Y-108950000D02*
X158450000Y-107950000D01*
%TO.N,USB_D0*%
X156250000Y-105950000D02*
X159050000Y-105950000D01*
X154950000Y-108950000D02*
X154950000Y-107250000D01*
X154950000Y-107250000D02*
X156050000Y-106150000D01*
X156050000Y-106150000D02*
X156250000Y-105950000D01*
%TO.N,USB_CMD*%
X160450000Y-106750000D02*
X160450000Y-100650000D01*
X160150000Y-107050000D02*
X160450000Y-106750000D01*
X156850000Y-107050000D02*
X160150000Y-107050000D01*
%TO.N,USB_VCC*%
X161400489Y-101460459D02*
X162790030Y-102850000D01*
X160850000Y-96950000D02*
X161400489Y-97500489D01*
X162790030Y-102850000D02*
X163850000Y-102850000D01*
X153750000Y-96950000D02*
X160850000Y-96950000D01*
X161400489Y-97500489D02*
X161400489Y-101460459D01*
X152250000Y-95450000D02*
X153750000Y-96950000D01*
X137450000Y-95550000D02*
X142650000Y-95550000D01*
X137350000Y-95650000D02*
X137450000Y-95550000D01*
X136850000Y-98250000D02*
X136850000Y-96150000D01*
X136850000Y-96150000D02*
X137350000Y-95650000D01*
%TO.N,SD_D2*%
X161350000Y-86750000D02*
X161350000Y-94450000D01*
%TO.N,SD_CMD*%
X163850000Y-101250000D02*
X163750000Y-101350000D01*
X163850000Y-90750000D02*
X163850000Y-101250000D01*
X163850000Y-85550000D02*
X163850000Y-90750000D01*
%TO.N,SD_CD*%
X152150000Y-116750000D02*
X157650000Y-116750000D01*
X149150000Y-110250000D02*
X149150000Y-113750000D01*
X149150000Y-100350000D02*
X149150000Y-110250000D01*
X148750000Y-99950000D02*
X149150000Y-100350000D01*
X149150000Y-113750000D02*
X152150000Y-116750000D01*
X141050000Y-92250000D02*
X148750000Y-99950000D01*
X140250000Y-92250000D02*
X141050000Y-92250000D01*
X134350000Y-92250000D02*
X140250000Y-92250000D01*
X132950000Y-90850000D02*
X134350000Y-92250000D01*
%TO.N,SD_VCC*%
X164850000Y-104550000D02*
X165150000Y-104850000D01*
X164850000Y-84850000D02*
X164850000Y-104550000D01*
%TO.N,SD_CLK*%
X152550000Y-115550000D02*
X158750000Y-115550000D01*
X152450000Y-115450000D02*
X152550000Y-115550000D01*
X150050000Y-107050000D02*
X150050000Y-113050000D01*
X150050000Y-99650000D02*
X150050000Y-107050000D01*
X147550000Y-97150000D02*
X150050000Y-99650000D01*
X150050000Y-113050000D02*
X152450000Y-115450000D01*
X141650000Y-91250000D02*
X147550000Y-97150000D01*
X138150000Y-91250000D02*
X140850000Y-91250000D01*
X140850000Y-91250000D02*
X141650000Y-91250000D01*
X137550000Y-90650000D02*
X138150000Y-91250000D01*
%TO.N,SD_D0*%
X152850000Y-114450000D02*
X160050000Y-114450000D01*
X152550000Y-114150000D02*
X152850000Y-114450000D01*
X150950000Y-112550000D02*
X152550000Y-114150000D01*
X150950000Y-101150000D02*
X150950000Y-112550000D01*
X142550000Y-90650000D02*
X150950000Y-99050000D01*
X150950000Y-99050000D02*
X150950000Y-101150000D01*
%TO.N,SD_D1*%
X152950000Y-113350000D02*
X153050000Y-113450000D01*
X153050000Y-113450000D02*
X161550000Y-113450000D01*
X151750000Y-107050000D02*
X151750000Y-112150000D01*
X151750000Y-97650000D02*
X151750000Y-107050000D01*
X151750000Y-112150000D02*
X152950000Y-113350000D01*
X144550000Y-90450000D02*
X151750000Y-97650000D01*
D17*
%TO.N,+5V*%
X137350000Y-108250000D02*
X137450000Y-108150000D01*
D15*
X137350000Y-111750000D02*
X137350000Y-109450000D01*
D17*
X137350000Y-109450000D02*
X137350000Y-108250000D01*
D15*
X133350000Y-115750000D02*
X137350000Y-111750000D01*
D16*
%TO.N,DM*%
X130950000Y-110150000D02*
X130350000Y-110150000D01*
X136150000Y-104950000D02*
X130950000Y-110150000D01*
%TO.N,DP*%
X134150000Y-104050000D02*
X136150000Y-104050000D01*
X134050000Y-104150000D02*
X134150000Y-104050000D01*
D17*
X132750000Y-105450000D02*
X134050000Y-104150000D01*
X132450000Y-105450000D02*
X132750000Y-105450000D01*
X130650000Y-105250000D02*
X130850000Y-105450000D01*
X130850000Y-105450000D02*
X132450000Y-105450000D01*
D16*
%TO.N,Net-(C6-Pad1)*%
X133550000Y-103150000D02*
X132350000Y-104350000D01*
X136150000Y-103150000D02*
X133550000Y-103150000D01*
D15*
%TO.N,+5V*%
X131150000Y-113550000D02*
X133350000Y-115750000D01*
X130750000Y-113550000D02*
X131150000Y-113550000D01*
X127850000Y-113550000D02*
X130750000Y-113550000D01*
X126350000Y-112050000D02*
X127850000Y-113550000D01*
X126350000Y-111950000D02*
X126350000Y-112050000D01*
X125350000Y-101650000D02*
X126350000Y-102650000D01*
X124150000Y-100450000D02*
X125350000Y-101650000D01*
X122050000Y-100450000D02*
X124150000Y-100450000D01*
X126350000Y-102650000D02*
X126350000Y-111950000D01*
D17*
%TO.N,MCU_S*%
X170650000Y-96150000D02*
X170650000Y-92250000D01*
X170650000Y-102150000D02*
X170650000Y-96150000D01*
X170650000Y-108050000D02*
X170650000Y-102150000D01*
X170650000Y-111150000D02*
X170650000Y-108050000D01*
X170650000Y-114250000D02*
X170650000Y-111150000D01*
X170450000Y-114450000D02*
X170650000Y-114250000D01*
X170450000Y-117450000D02*
X170450000Y-114450000D01*
%TD*%
M02*
