%TF.GenerationSoftware,KiCad,Pcbnew,(6.0.2)*%
%TF.CreationDate,2022-06-02T00:09:37+03:00*%
%TF.ProjectId,BYKR-C2-V00,42594b52-2d43-4322-9d56-30302e6b6963,rev?*%
%TF.SameCoordinates,Original*%
%TF.FileFunction,Legend,Top*%
%TF.FilePolarity,Positive*%
%FSLAX46Y46*%
G04 Gerber Fmt 4.6, Leading zero omitted, Abs format (unit mm)*
G04 Created by KiCad (PCBNEW (6.0.2)) date 2022-06-02 00:09:37*
%MOMM*%
%LPD*%
G01*
G04 APERTURE LIST*
%ADD10C,0.250000*%
%ADD11C,0.300000*%
%ADD12C,0.150000*%
%ADD13C,0.125000*%
%ADD14C,0.254000*%
%ADD15C,0.203200*%
%ADD16C,0.120000*%
G04 APERTURE END LIST*
D10*
X177527380Y-88115476D02*
X177527380Y-86865476D01*
X177944047Y-87758333D01*
X178360713Y-86865476D01*
X178360713Y-88115476D01*
X179670237Y-87996428D02*
X179610713Y-88055952D01*
X179432142Y-88115476D01*
X179313094Y-88115476D01*
X179134523Y-88055952D01*
X179015475Y-87936904D01*
X178955951Y-87817857D01*
X178896428Y-87579761D01*
X178896428Y-87401190D01*
X178955951Y-87163095D01*
X179015475Y-87044047D01*
X179134523Y-86925000D01*
X179313094Y-86865476D01*
X179432142Y-86865476D01*
X179610713Y-86925000D01*
X179670237Y-86984523D01*
X180205951Y-86865476D02*
X180205951Y-87877380D01*
X180265475Y-87996428D01*
X180324999Y-88055952D01*
X180444047Y-88115476D01*
X180682142Y-88115476D01*
X180801189Y-88055952D01*
X180860713Y-87996428D01*
X180920237Y-87877380D01*
X180920237Y-86865476D01*
D11*
X178266666Y-115996428D02*
X178207142Y-116055952D01*
X178028571Y-116115476D01*
X177909523Y-116115476D01*
X177730952Y-116055952D01*
X177611904Y-115936904D01*
X177552381Y-115817857D01*
X177492857Y-115579761D01*
X177492857Y-115401190D01*
X177552381Y-115163095D01*
X177611904Y-115044047D01*
X177730952Y-114925000D01*
X177909523Y-114865476D01*
X178028571Y-114865476D01*
X178207142Y-114925000D01*
X178266666Y-114984523D01*
X178802381Y-116115476D02*
X178802381Y-114865476D01*
X179100000Y-114865476D01*
X179278571Y-114925000D01*
X179397619Y-115044047D01*
X179457142Y-115163095D01*
X179516666Y-115401190D01*
X179516666Y-115579761D01*
X179457142Y-115817857D01*
X179397619Y-115936904D01*
X179278571Y-116055952D01*
X179100000Y-116115476D01*
X178802381Y-116115476D01*
X177552380Y-113515476D02*
X177552380Y-112265476D01*
X177850000Y-112265476D01*
X178028571Y-112325000D01*
X178147619Y-112444047D01*
X178207142Y-112563095D01*
X178266666Y-112801190D01*
X178266666Y-112979761D01*
X178207142Y-113217857D01*
X178147619Y-113336904D01*
X178028571Y-113455952D01*
X177850000Y-113515476D01*
X177552380Y-113515476D01*
X179457142Y-113515476D02*
X178742857Y-113515476D01*
X179100000Y-113515476D02*
X179100000Y-112265476D01*
X178980952Y-112444047D01*
X178861904Y-112563095D01*
X178742857Y-112622619D01*
X177552380Y-111015476D02*
X177552380Y-109765476D01*
X177850000Y-109765476D01*
X178028571Y-109825000D01*
X178147619Y-109944047D01*
X178207142Y-110063095D01*
X178266666Y-110301190D01*
X178266666Y-110479761D01*
X178207142Y-110717857D01*
X178147619Y-110836904D01*
X178028571Y-110955952D01*
X177850000Y-111015476D01*
X177552380Y-111015476D01*
X179040476Y-109765476D02*
X179159523Y-109765476D01*
X179278571Y-109825000D01*
X179338095Y-109884523D01*
X179397619Y-110003571D01*
X179457142Y-110241666D01*
X179457142Y-110539285D01*
X179397619Y-110777380D01*
X179338095Y-110896428D01*
X179278571Y-110955952D01*
X179159523Y-111015476D01*
X179040476Y-111015476D01*
X178921428Y-110955952D01*
X178861904Y-110896428D01*
X178802380Y-110777380D01*
X178742857Y-110539285D01*
X178742857Y-110241666D01*
X178802380Y-110003571D01*
X178861904Y-109884523D01*
X178921428Y-109825000D01*
X179040476Y-109765476D01*
X177373809Y-107165476D02*
X177790475Y-108415476D01*
X178207142Y-107165476D01*
X178564285Y-108355952D02*
X178742856Y-108415476D01*
X179040475Y-108415476D01*
X179159523Y-108355952D01*
X179219047Y-108296428D01*
X179278571Y-108177380D01*
X179278571Y-108058333D01*
X179219047Y-107939285D01*
X179159523Y-107879761D01*
X179040475Y-107820238D01*
X178802380Y-107760714D01*
X178683332Y-107701190D01*
X178623809Y-107641666D01*
X178564285Y-107522619D01*
X178564285Y-107403571D01*
X178623809Y-107284523D01*
X178683332Y-107225000D01*
X178802380Y-107165476D01*
X179099999Y-107165476D01*
X179278571Y-107225000D01*
X179754761Y-108355952D02*
X179933332Y-108415476D01*
X180230952Y-108415476D01*
X180349999Y-108355952D01*
X180409523Y-108296428D01*
X180469047Y-108177380D01*
X180469047Y-108058333D01*
X180409523Y-107939285D01*
X180349999Y-107879761D01*
X180230952Y-107820238D01*
X179992856Y-107760714D01*
X179873809Y-107701190D01*
X179814285Y-107641666D01*
X179754761Y-107522619D01*
X179754761Y-107403571D01*
X179814285Y-107284523D01*
X179873809Y-107225000D01*
X179992856Y-107165476D01*
X180290475Y-107165476D01*
X180469047Y-107225000D01*
X178266666Y-105896428D02*
X178207142Y-105955952D01*
X178028571Y-106015476D01*
X177909523Y-106015476D01*
X177730952Y-105955952D01*
X177611904Y-105836904D01*
X177552380Y-105717857D01*
X177492856Y-105479761D01*
X177492856Y-105301190D01*
X177552380Y-105063095D01*
X177611904Y-104944047D01*
X177730952Y-104825000D01*
X177909523Y-104765476D01*
X178028571Y-104765476D01*
X178207142Y-104825000D01*
X178266666Y-104884523D01*
X179397618Y-106015476D02*
X178802380Y-106015476D01*
X178802380Y-104765476D01*
X179814285Y-106015476D02*
X179814285Y-104765476D01*
X180528571Y-106015476D02*
X179992856Y-105301190D01*
X180528571Y-104765476D02*
X179814285Y-105479761D01*
X177373809Y-102265476D02*
X177790476Y-103515476D01*
X178207142Y-102265476D01*
X179338095Y-103396428D02*
X179278571Y-103455952D01*
X179099999Y-103515476D01*
X178980952Y-103515476D01*
X178802380Y-103455952D01*
X178683333Y-103336904D01*
X178623809Y-103217857D01*
X178564285Y-102979761D01*
X178564285Y-102801190D01*
X178623809Y-102563095D01*
X178683333Y-102444047D01*
X178802380Y-102325000D01*
X178980952Y-102265476D01*
X179099999Y-102265476D01*
X179278571Y-102325000D01*
X179338095Y-102384523D01*
X180588095Y-103396428D02*
X180528571Y-103455952D01*
X180349999Y-103515476D01*
X180230952Y-103515476D01*
X180052380Y-103455952D01*
X179933333Y-103336904D01*
X179873809Y-103217857D01*
X179814285Y-102979761D01*
X179814285Y-102801190D01*
X179873809Y-102563095D01*
X179933333Y-102444047D01*
X180052380Y-102325000D01*
X180230952Y-102265476D01*
X180349999Y-102265476D01*
X180528571Y-102325000D01*
X180588095Y-102384523D01*
X178266666Y-100796428D02*
X178207142Y-100855952D01*
X178028570Y-100915476D01*
X177909523Y-100915476D01*
X177730951Y-100855952D01*
X177611904Y-100736904D01*
X177552380Y-100617857D01*
X177492856Y-100379761D01*
X177492856Y-100201190D01*
X177552380Y-99963095D01*
X177611904Y-99844047D01*
X177730951Y-99725000D01*
X177909523Y-99665476D01*
X178028570Y-99665476D01*
X178207142Y-99725000D01*
X178266666Y-99784523D01*
X178802380Y-100915476D02*
X178802380Y-99665476D01*
X179219047Y-100558333D01*
X179635713Y-99665476D01*
X179635713Y-100915476D01*
X180230951Y-100915476D02*
X180230951Y-99665476D01*
X180528570Y-99665476D01*
X180707142Y-99725000D01*
X180826189Y-99844047D01*
X180885713Y-99963095D01*
X180945237Y-100201190D01*
X180945237Y-100379761D01*
X180885713Y-100617857D01*
X180826189Y-100736904D01*
X180707142Y-100855952D01*
X180528570Y-100915476D01*
X180230951Y-100915476D01*
X177552380Y-98215476D02*
X177552380Y-96965476D01*
X177850000Y-96965476D01*
X178028571Y-97025000D01*
X178147619Y-97144047D01*
X178207142Y-97263095D01*
X178266666Y-97501190D01*
X178266666Y-97679761D01*
X178207142Y-97917857D01*
X178147619Y-98036904D01*
X178028571Y-98155952D01*
X177850000Y-98215476D01*
X177552380Y-98215476D01*
X178683333Y-96965476D02*
X179457142Y-96965476D01*
X179040476Y-97441666D01*
X179219047Y-97441666D01*
X179338095Y-97501190D01*
X179397619Y-97560714D01*
X179457142Y-97679761D01*
X179457142Y-97977380D01*
X179397619Y-98096428D01*
X179338095Y-98155952D01*
X179219047Y-98215476D01*
X178861904Y-98215476D01*
X178742857Y-98155952D01*
X178683333Y-98096428D01*
D10*
X177527380Y-95715476D02*
X177527380Y-94465476D01*
X177825000Y-94465476D01*
X178003571Y-94525000D01*
X178122619Y-94644047D01*
X178182142Y-94763095D01*
X178241666Y-95001190D01*
X178241666Y-95179761D01*
X178182142Y-95417857D01*
X178122619Y-95536904D01*
X178003571Y-95655952D01*
X177825000Y-95715476D01*
X177527380Y-95715476D01*
X178717857Y-94584523D02*
X178777380Y-94525000D01*
X178896428Y-94465476D01*
X179194047Y-94465476D01*
X179313095Y-94525000D01*
X179372619Y-94584523D01*
X179432142Y-94703571D01*
X179432142Y-94822619D01*
X179372619Y-95001190D01*
X178658333Y-95715476D01*
X179432142Y-95715476D01*
D12*
X156073809Y-74964285D02*
X155978571Y-75059523D01*
X155692857Y-75154761D01*
X155502380Y-75154761D01*
X155216666Y-75059523D01*
X155026190Y-74869047D01*
X154930952Y-74678571D01*
X154835714Y-74297619D01*
X154835714Y-74011904D01*
X154930952Y-73630952D01*
X155026190Y-73440476D01*
X155216666Y-73250000D01*
X155502380Y-73154761D01*
X155692857Y-73154761D01*
X155978571Y-73250000D01*
X156073809Y-73345238D01*
X156930952Y-75154761D02*
X156930952Y-73154761D01*
X156930952Y-74107142D02*
X158073809Y-74107142D01*
X158073809Y-75154761D02*
X158073809Y-73154761D01*
X158930952Y-74583333D02*
X159883333Y-74583333D01*
X158740476Y-75154761D02*
X159407142Y-73154761D01*
X160073809Y-75154761D01*
X161692857Y-75154761D02*
X160740476Y-75154761D01*
X160740476Y-73154761D01*
X163311904Y-75154761D02*
X162359523Y-75154761D01*
X162359523Y-73154761D01*
X163978571Y-74107142D02*
X164645238Y-74107142D01*
X164930952Y-75154761D02*
X163978571Y-75154761D01*
X163978571Y-73154761D01*
X164930952Y-73154761D01*
X165788095Y-75154761D02*
X165788095Y-73154761D01*
X166930952Y-75154761D01*
X166930952Y-73154761D01*
X168930952Y-73250000D02*
X168740476Y-73154761D01*
X168454761Y-73154761D01*
X168169047Y-73250000D01*
X167978571Y-73440476D01*
X167883333Y-73630952D01*
X167788095Y-74011904D01*
X167788095Y-74297619D01*
X167883333Y-74678571D01*
X167978571Y-74869047D01*
X168169047Y-75059523D01*
X168454761Y-75154761D01*
X168645238Y-75154761D01*
X168930952Y-75059523D01*
X169026190Y-74964285D01*
X169026190Y-74297619D01*
X168645238Y-74297619D01*
X169883333Y-74107142D02*
X170550000Y-74107142D01*
X170835714Y-75154761D02*
X169883333Y-75154761D01*
X169883333Y-73154761D01*
X170835714Y-73154761D01*
X173121428Y-73345238D02*
X173216666Y-73250000D01*
X173407142Y-73154761D01*
X173883333Y-73154761D01*
X174073809Y-73250000D01*
X174169047Y-73345238D01*
X174264285Y-73535714D01*
X174264285Y-73726190D01*
X174169047Y-74011904D01*
X173026190Y-75154761D01*
X174264285Y-75154761D01*
X115740476Y-126402380D02*
X116311904Y-126402380D01*
X116026190Y-127402380D02*
X116026190Y-126402380D01*
X116835714Y-126402380D02*
X117026190Y-126402380D01*
X117121428Y-126450000D01*
X117216666Y-126545238D01*
X117264285Y-126735714D01*
X117264285Y-127069047D01*
X117216666Y-127259523D01*
X117121428Y-127354761D01*
X117026190Y-127402380D01*
X116835714Y-127402380D01*
X116740476Y-127354761D01*
X116645238Y-127259523D01*
X116597619Y-127069047D01*
X116597619Y-126735714D01*
X116645238Y-126545238D01*
X116740476Y-126450000D01*
X116835714Y-126402380D01*
X117692857Y-127402380D02*
X117692857Y-126402380D01*
X118073809Y-126402380D01*
X118169047Y-126450000D01*
X118216666Y-126497619D01*
X118264285Y-126592857D01*
X118264285Y-126735714D01*
X118216666Y-126830952D01*
X118169047Y-126878571D01*
X118073809Y-126926190D01*
X117692857Y-126926190D01*
X168997619Y-126978571D02*
X169140476Y-127026190D01*
X169188095Y-127073809D01*
X169235714Y-127169047D01*
X169235714Y-127311904D01*
X169188095Y-127407142D01*
X169140476Y-127454761D01*
X169045238Y-127502380D01*
X168664285Y-127502380D01*
X168664285Y-126502380D01*
X168997619Y-126502380D01*
X169092857Y-126550000D01*
X169140476Y-126597619D01*
X169188095Y-126692857D01*
X169188095Y-126788095D01*
X169140476Y-126883333D01*
X169092857Y-126930952D01*
X168997619Y-126978571D01*
X168664285Y-126978571D01*
X169854761Y-127026190D02*
X169854761Y-127502380D01*
X169521428Y-126502380D02*
X169854761Y-127026190D01*
X170188095Y-126502380D01*
X170521428Y-127502380D02*
X170521428Y-126502380D01*
X171092857Y-127502380D02*
X170664285Y-126930952D01*
X171092857Y-126502380D02*
X170521428Y-127073809D01*
X172092857Y-127502380D02*
X171759523Y-127026190D01*
X171521428Y-127502380D02*
X171521428Y-126502380D01*
X171902380Y-126502380D01*
X171997619Y-126550000D01*
X172045238Y-126597619D01*
X172092857Y-126692857D01*
X172092857Y-126835714D01*
X172045238Y-126930952D01*
X171997619Y-126978571D01*
X171902380Y-127026190D01*
X171521428Y-127026190D01*
X172521428Y-127121428D02*
X173283333Y-127121428D01*
X174330952Y-127407142D02*
X174283333Y-127454761D01*
X174140476Y-127502380D01*
X174045238Y-127502380D01*
X173902380Y-127454761D01*
X173807142Y-127359523D01*
X173759523Y-127264285D01*
X173711904Y-127073809D01*
X173711904Y-126930952D01*
X173759523Y-126740476D01*
X173807142Y-126645238D01*
X173902380Y-126550000D01*
X174045238Y-126502380D01*
X174140476Y-126502380D01*
X174283333Y-126550000D01*
X174330952Y-126597619D01*
X174711904Y-126597619D02*
X174759523Y-126550000D01*
X174854761Y-126502380D01*
X175092857Y-126502380D01*
X175188095Y-126550000D01*
X175235714Y-126597619D01*
X175283333Y-126692857D01*
X175283333Y-126788095D01*
X175235714Y-126930952D01*
X174664285Y-127502380D01*
X175283333Y-127502380D01*
X175711904Y-127121428D02*
X176473809Y-127121428D01*
X176807142Y-126502380D02*
X177140476Y-127502380D01*
X177473809Y-126502380D01*
X177997619Y-126502380D02*
X178092857Y-126502380D01*
X178188095Y-126550000D01*
X178235714Y-126597619D01*
X178283333Y-126692857D01*
X178330952Y-126883333D01*
X178330952Y-127121428D01*
X178283333Y-127311904D01*
X178235714Y-127407142D01*
X178188095Y-127454761D01*
X178092857Y-127502380D01*
X177997619Y-127502380D01*
X177902380Y-127454761D01*
X177854761Y-127407142D01*
X177807142Y-127311904D01*
X177759523Y-127121428D01*
X177759523Y-126883333D01*
X177807142Y-126692857D01*
X177854761Y-126597619D01*
X177902380Y-126550000D01*
X177997619Y-126502380D01*
X178950000Y-126502380D02*
X179045238Y-126502380D01*
X179140476Y-126550000D01*
X179188095Y-126597619D01*
X179235714Y-126692857D01*
X179283333Y-126883333D01*
X179283333Y-127121428D01*
X179235714Y-127311904D01*
X179188095Y-127407142D01*
X179140476Y-127454761D01*
X179045238Y-127502380D01*
X178950000Y-127502380D01*
X178854761Y-127454761D01*
X178807142Y-127407142D01*
X178759523Y-127311904D01*
X178711904Y-127121428D01*
X178711904Y-126883333D01*
X178759523Y-126692857D01*
X178807142Y-126597619D01*
X178854761Y-126550000D01*
X178950000Y-126502380D01*
X155114285Y-77600000D02*
X155828571Y-77600000D01*
X154971428Y-78028571D02*
X155471428Y-76528571D01*
X155971428Y-78028571D01*
X157185714Y-78028571D02*
X156471428Y-78028571D01*
X156471428Y-76528571D01*
X157685714Y-78028571D02*
X157685714Y-76528571D01*
X158257142Y-76528571D01*
X158400000Y-76600000D01*
X158471428Y-76671428D01*
X158542857Y-76814285D01*
X158542857Y-77028571D01*
X158471428Y-77171428D01*
X158400000Y-77242857D01*
X158257142Y-77314285D01*
X157685714Y-77314285D01*
X159185714Y-77242857D02*
X159685714Y-77242857D01*
X159900000Y-78028571D02*
X159185714Y-78028571D01*
X159185714Y-76528571D01*
X159900000Y-76528571D01*
X161400000Y-78028571D02*
X160900000Y-77314285D01*
X160542857Y-78028571D02*
X160542857Y-76528571D01*
X161114285Y-76528571D01*
X161257142Y-76600000D01*
X161328571Y-76671428D01*
X161400000Y-76814285D01*
X161400000Y-77028571D01*
X161328571Y-77171428D01*
X161257142Y-77242857D01*
X161114285Y-77314285D01*
X160542857Y-77314285D01*
X162042857Y-77242857D02*
X162542857Y-77242857D01*
X162757142Y-78028571D02*
X162042857Y-78028571D01*
X162042857Y-76528571D01*
X162757142Y-76528571D01*
X163400000Y-78028571D02*
X163400000Y-76528571D01*
X164257142Y-78028571D01*
X164257142Y-76528571D01*
X166114285Y-77242857D02*
X166614285Y-77242857D01*
X166828571Y-78028571D02*
X166114285Y-78028571D01*
X166114285Y-76528571D01*
X166828571Y-76528571D01*
X168328571Y-78028571D02*
X167828571Y-77314285D01*
X167471428Y-78028571D02*
X167471428Y-76528571D01*
X168042857Y-76528571D01*
X168185714Y-76600000D01*
X168257142Y-76671428D01*
X168328571Y-76814285D01*
X168328571Y-77028571D01*
X168257142Y-77171428D01*
X168185714Y-77242857D01*
X168042857Y-77314285D01*
X167471428Y-77314285D01*
X169257142Y-76528571D02*
X169542857Y-76528571D01*
X169685714Y-76600000D01*
X169828571Y-76742857D01*
X169900000Y-77028571D01*
X169900000Y-77528571D01*
X169828571Y-77814285D01*
X169685714Y-77957142D01*
X169542857Y-78028571D01*
X169257142Y-78028571D01*
X169114285Y-77957142D01*
X168971428Y-77814285D01*
X168900000Y-77528571D01*
X168900000Y-77028571D01*
X168971428Y-76742857D01*
X169114285Y-76600000D01*
X169257142Y-76528571D01*
X171328571Y-76600000D02*
X171185714Y-76528571D01*
X170971428Y-76528571D01*
X170757142Y-76600000D01*
X170614285Y-76742857D01*
X170542857Y-76885714D01*
X170471428Y-77171428D01*
X170471428Y-77385714D01*
X170542857Y-77671428D01*
X170614285Y-77814285D01*
X170757142Y-77957142D01*
X170971428Y-78028571D01*
X171114285Y-78028571D01*
X171328571Y-77957142D01*
X171400000Y-77885714D01*
X171400000Y-77385714D01*
X171114285Y-77385714D01*
X170757142Y-75957142D02*
X170828571Y-76100000D01*
X170971428Y-76171428D01*
X171114285Y-76171428D01*
X171257142Y-76100000D01*
X171328571Y-75957142D01*
X172757142Y-78028571D02*
X172042857Y-78028571D01*
X172042857Y-76528571D01*
X173257142Y-76528571D02*
X173257142Y-77742857D01*
X173328571Y-77885714D01*
X173400000Y-77957142D01*
X173542857Y-78028571D01*
X173828571Y-78028571D01*
X173971428Y-77957142D01*
X174042857Y-77885714D01*
X174114285Y-77742857D01*
X174114285Y-76528571D01*
D13*
%TO.C,G\u002A\u002A\u002A*%
X165909523Y-66800000D02*
X165861904Y-66776190D01*
X165790476Y-66776190D01*
X165719047Y-66800000D01*
X165671428Y-66847619D01*
X165647619Y-66895238D01*
X165623809Y-66990476D01*
X165623809Y-67061904D01*
X165647619Y-67157142D01*
X165671428Y-67204761D01*
X165719047Y-67252380D01*
X165790476Y-67276190D01*
X165838095Y-67276190D01*
X165909523Y-67252380D01*
X165933333Y-67228571D01*
X165933333Y-67061904D01*
X165838095Y-67061904D01*
X166219047Y-66776190D02*
X166219047Y-66895238D01*
X166100000Y-66847619D02*
X166219047Y-66895238D01*
X166338095Y-66847619D01*
X166147619Y-66990476D02*
X166219047Y-66895238D01*
X166290476Y-66990476D01*
X166600000Y-66776190D02*
X166600000Y-66895238D01*
X166480952Y-66847619D02*
X166600000Y-66895238D01*
X166719047Y-66847619D01*
X166528571Y-66990476D02*
X166600000Y-66895238D01*
X166671428Y-66990476D01*
X166980952Y-66776190D02*
X166980952Y-66895238D01*
X166861904Y-66847619D02*
X166980952Y-66895238D01*
X167100000Y-66847619D01*
X166909523Y-66990476D02*
X166980952Y-66895238D01*
X167052380Y-66990476D01*
D12*
%TO.C,U2*%
X148188095Y-59502380D02*
X148188095Y-60311904D01*
X148235714Y-60407142D01*
X148283333Y-60454761D01*
X148378571Y-60502380D01*
X148569047Y-60502380D01*
X148664285Y-60454761D01*
X148711904Y-60407142D01*
X148759523Y-60311904D01*
X148759523Y-59502380D01*
X149188095Y-59597619D02*
X149235714Y-59550000D01*
X149330952Y-59502380D01*
X149569047Y-59502380D01*
X149664285Y-59550000D01*
X149711904Y-59597619D01*
X149759523Y-59692857D01*
X149759523Y-59788095D01*
X149711904Y-59930952D01*
X149140476Y-60502380D01*
X149759523Y-60502380D01*
%TO.C,Y1*%
X134426190Y-100126190D02*
X134902380Y-100126190D01*
X133902380Y-100459523D02*
X134426190Y-100126190D01*
X133902380Y-99792857D01*
X134902380Y-98935714D02*
X134902380Y-99507142D01*
X134902380Y-99221428D02*
X133902380Y-99221428D01*
X134045238Y-99316666D01*
X134140476Y-99411904D01*
X134188095Y-99507142D01*
%TO.C,U11*%
X164311904Y-96402380D02*
X164311904Y-97211904D01*
X164359523Y-97307142D01*
X164407142Y-97354761D01*
X164502380Y-97402380D01*
X164692857Y-97402380D01*
X164788095Y-97354761D01*
X164835714Y-97307142D01*
X164883333Y-97211904D01*
X164883333Y-96402380D01*
X165883333Y-97402380D02*
X165311904Y-97402380D01*
X165597619Y-97402380D02*
X165597619Y-96402380D01*
X165502380Y-96545238D01*
X165407142Y-96640476D01*
X165311904Y-96688095D01*
X166835714Y-97402380D02*
X166264285Y-97402380D01*
X166550000Y-97402380D02*
X166550000Y-96402380D01*
X166454761Y-96545238D01*
X166359523Y-96640476D01*
X166264285Y-96688095D01*
%TO.C,U10*%
X164311904Y-93202380D02*
X164311904Y-94011904D01*
X164359523Y-94107142D01*
X164407142Y-94154761D01*
X164502380Y-94202380D01*
X164692857Y-94202380D01*
X164788095Y-94154761D01*
X164835714Y-94107142D01*
X164883333Y-94011904D01*
X164883333Y-93202380D01*
X165883333Y-94202380D02*
X165311904Y-94202380D01*
X165597619Y-94202380D02*
X165597619Y-93202380D01*
X165502380Y-93345238D01*
X165407142Y-93440476D01*
X165311904Y-93488095D01*
X166502380Y-93202380D02*
X166597619Y-93202380D01*
X166692857Y-93250000D01*
X166740476Y-93297619D01*
X166788095Y-93392857D01*
X166835714Y-93583333D01*
X166835714Y-93821428D01*
X166788095Y-94011904D01*
X166740476Y-94107142D01*
X166692857Y-94154761D01*
X166597619Y-94202380D01*
X166502380Y-94202380D01*
X166407142Y-94154761D01*
X166359523Y-94107142D01*
X166311904Y-94011904D01*
X166264285Y-93821428D01*
X166264285Y-93583333D01*
X166311904Y-93392857D01*
X166359523Y-93297619D01*
X166407142Y-93250000D01*
X166502380Y-93202380D01*
%TO.C,U9*%
X165188095Y-111302380D02*
X165188095Y-112111904D01*
X165235714Y-112207142D01*
X165283333Y-112254761D01*
X165378571Y-112302380D01*
X165569047Y-112302380D01*
X165664285Y-112254761D01*
X165711904Y-112207142D01*
X165759523Y-112111904D01*
X165759523Y-111302380D01*
X166283333Y-112302380D02*
X166473809Y-112302380D01*
X166569047Y-112254761D01*
X166616666Y-112207142D01*
X166711904Y-112064285D01*
X166759523Y-111873809D01*
X166759523Y-111492857D01*
X166711904Y-111397619D01*
X166664285Y-111350000D01*
X166569047Y-111302380D01*
X166378571Y-111302380D01*
X166283333Y-111350000D01*
X166235714Y-111397619D01*
X166188095Y-111492857D01*
X166188095Y-111730952D01*
X166235714Y-111826190D01*
X166283333Y-111873809D01*
X166378571Y-111921428D01*
X166569047Y-111921428D01*
X166664285Y-111873809D01*
X166711904Y-111826190D01*
X166759523Y-111730952D01*
%TO.C,U8*%
X165188095Y-108302380D02*
X165188095Y-109111904D01*
X165235714Y-109207142D01*
X165283333Y-109254761D01*
X165378571Y-109302380D01*
X165569047Y-109302380D01*
X165664285Y-109254761D01*
X165711904Y-109207142D01*
X165759523Y-109111904D01*
X165759523Y-108302380D01*
X166378571Y-108730952D02*
X166283333Y-108683333D01*
X166235714Y-108635714D01*
X166188095Y-108540476D01*
X166188095Y-108492857D01*
X166235714Y-108397619D01*
X166283333Y-108350000D01*
X166378571Y-108302380D01*
X166569047Y-108302380D01*
X166664285Y-108350000D01*
X166711904Y-108397619D01*
X166759523Y-108492857D01*
X166759523Y-108540476D01*
X166711904Y-108635714D01*
X166664285Y-108683333D01*
X166569047Y-108730952D01*
X166378571Y-108730952D01*
X166283333Y-108778571D01*
X166235714Y-108826190D01*
X166188095Y-108921428D01*
X166188095Y-109111904D01*
X166235714Y-109207142D01*
X166283333Y-109254761D01*
X166378571Y-109302380D01*
X166569047Y-109302380D01*
X166664285Y-109254761D01*
X166711904Y-109207142D01*
X166759523Y-109111904D01*
X166759523Y-108921428D01*
X166711904Y-108826190D01*
X166664285Y-108778571D01*
X166569047Y-108730952D01*
%TO.C,U7*%
X165088095Y-105402380D02*
X165088095Y-106211904D01*
X165135714Y-106307142D01*
X165183333Y-106354761D01*
X165278571Y-106402380D01*
X165469047Y-106402380D01*
X165564285Y-106354761D01*
X165611904Y-106307142D01*
X165659523Y-106211904D01*
X165659523Y-105402380D01*
X166040476Y-105402380D02*
X166707142Y-105402380D01*
X166278571Y-106402380D01*
%TO.C,U6*%
X165088095Y-102402380D02*
X165088095Y-103211904D01*
X165135714Y-103307142D01*
X165183333Y-103354761D01*
X165278571Y-103402380D01*
X165469047Y-103402380D01*
X165564285Y-103354761D01*
X165611904Y-103307142D01*
X165659523Y-103211904D01*
X165659523Y-102402380D01*
X166564285Y-102402380D02*
X166373809Y-102402380D01*
X166278571Y-102450000D01*
X166230952Y-102497619D01*
X166135714Y-102640476D01*
X166088095Y-102830952D01*
X166088095Y-103211904D01*
X166135714Y-103307142D01*
X166183333Y-103354761D01*
X166278571Y-103402380D01*
X166469047Y-103402380D01*
X166564285Y-103354761D01*
X166611904Y-103307142D01*
X166659523Y-103211904D01*
X166659523Y-102973809D01*
X166611904Y-102878571D01*
X166564285Y-102830952D01*
X166469047Y-102783333D01*
X166278571Y-102783333D01*
X166183333Y-102830952D01*
X166135714Y-102878571D01*
X166088095Y-102973809D01*
%TO.C,U5*%
X165088095Y-99302380D02*
X165088095Y-100111904D01*
X165135714Y-100207142D01*
X165183333Y-100254761D01*
X165278571Y-100302380D01*
X165469047Y-100302380D01*
X165564285Y-100254761D01*
X165611904Y-100207142D01*
X165659523Y-100111904D01*
X165659523Y-99302380D01*
X166611904Y-99302380D02*
X166135714Y-99302380D01*
X166088095Y-99778571D01*
X166135714Y-99730952D01*
X166230952Y-99683333D01*
X166469047Y-99683333D01*
X166564285Y-99730952D01*
X166611904Y-99778571D01*
X166659523Y-99873809D01*
X166659523Y-100111904D01*
X166611904Y-100207142D01*
X166564285Y-100254761D01*
X166469047Y-100302380D01*
X166230952Y-100302380D01*
X166135714Y-100254761D01*
X166088095Y-100207142D01*
%TO.C,U4*%
X165188095Y-114402380D02*
X165188095Y-115211904D01*
X165235714Y-115307142D01*
X165283333Y-115354761D01*
X165378571Y-115402380D01*
X165569047Y-115402380D01*
X165664285Y-115354761D01*
X165711904Y-115307142D01*
X165759523Y-115211904D01*
X165759523Y-114402380D01*
X166664285Y-114735714D02*
X166664285Y-115402380D01*
X166426190Y-114354761D02*
X166188095Y-115069047D01*
X166807142Y-115069047D01*
D14*
%TO.C,U3*%
X144282380Y-97754523D02*
X144282380Y-98782619D01*
X144342857Y-98903571D01*
X144403333Y-98964047D01*
X144524285Y-99024523D01*
X144766190Y-99024523D01*
X144887142Y-98964047D01*
X144947619Y-98903571D01*
X145008095Y-98782619D01*
X145008095Y-97754523D01*
X145491904Y-97754523D02*
X146278095Y-97754523D01*
X145854761Y-98238333D01*
X146036190Y-98238333D01*
X146157142Y-98298809D01*
X146217619Y-98359285D01*
X146278095Y-98480238D01*
X146278095Y-98782619D01*
X146217619Y-98903571D01*
X146157142Y-98964047D01*
X146036190Y-99024523D01*
X145673333Y-99024523D01*
X145552380Y-98964047D01*
X145491904Y-98903571D01*
X143964047Y-109113571D02*
X144024523Y-108932142D01*
X144024523Y-108629761D01*
X143964047Y-108508809D01*
X143903571Y-108448333D01*
X143782619Y-108387857D01*
X143661666Y-108387857D01*
X143540714Y-108448333D01*
X143480238Y-108508809D01*
X143419761Y-108629761D01*
X143359285Y-108871666D01*
X143298809Y-108992619D01*
X143238333Y-109053095D01*
X143117380Y-109113571D01*
X142996428Y-109113571D01*
X142875476Y-109053095D01*
X142815000Y-108992619D01*
X142754523Y-108871666D01*
X142754523Y-108569285D01*
X142815000Y-108387857D01*
X143964047Y-107904047D02*
X144024523Y-107722619D01*
X144024523Y-107420238D01*
X143964047Y-107299285D01*
X143903571Y-107238809D01*
X143782619Y-107178333D01*
X143661666Y-107178333D01*
X143540714Y-107238809D01*
X143480238Y-107299285D01*
X143419761Y-107420238D01*
X143359285Y-107662142D01*
X143298809Y-107783095D01*
X143238333Y-107843571D01*
X143117380Y-107904047D01*
X142996428Y-107904047D01*
X142875476Y-107843571D01*
X142815000Y-107783095D01*
X142754523Y-107662142D01*
X142754523Y-107359761D01*
X142815000Y-107178333D01*
X142754523Y-106392142D02*
X142754523Y-106150238D01*
X142815000Y-106029285D01*
X142935952Y-105908333D01*
X143177857Y-105847857D01*
X143601190Y-105847857D01*
X143843095Y-105908333D01*
X143964047Y-106029285D01*
X144024523Y-106150238D01*
X144024523Y-106392142D01*
X143964047Y-106513095D01*
X143843095Y-106634047D01*
X143601190Y-106694523D01*
X143177857Y-106694523D01*
X142935952Y-106634047D01*
X142815000Y-106513095D01*
X142754523Y-106392142D01*
X144024523Y-105303571D02*
X142754523Y-105303571D01*
X142754523Y-104819761D01*
X142815000Y-104698809D01*
X142875476Y-104638333D01*
X142996428Y-104577857D01*
X143177857Y-104577857D01*
X143298809Y-104638333D01*
X143359285Y-104698809D01*
X143419761Y-104819761D01*
X143419761Y-105303571D01*
X143540714Y-104033571D02*
X143540714Y-103065952D01*
X142875476Y-102521666D02*
X142815000Y-102461190D01*
X142754523Y-102340238D01*
X142754523Y-102037857D01*
X142815000Y-101916904D01*
X142875476Y-101856428D01*
X142996428Y-101795952D01*
X143117380Y-101795952D01*
X143298809Y-101856428D01*
X144024523Y-102582142D01*
X144024523Y-101795952D01*
X143298809Y-101070238D02*
X143238333Y-101191190D01*
X143177857Y-101251666D01*
X143056904Y-101312142D01*
X142996428Y-101312142D01*
X142875476Y-101251666D01*
X142815000Y-101191190D01*
X142754523Y-101070238D01*
X142754523Y-100828333D01*
X142815000Y-100707380D01*
X142875476Y-100646904D01*
X142996428Y-100586428D01*
X143056904Y-100586428D01*
X143177857Y-100646904D01*
X143238333Y-100707380D01*
X143298809Y-100828333D01*
X143298809Y-101070238D01*
X143359285Y-101191190D01*
X143419761Y-101251666D01*
X143540714Y-101312142D01*
X143782619Y-101312142D01*
X143903571Y-101251666D01*
X143964047Y-101191190D01*
X144024523Y-101070238D01*
X144024523Y-100828333D01*
X143964047Y-100707380D01*
X143903571Y-100646904D01*
X143782619Y-100586428D01*
X143540714Y-100586428D01*
X143419761Y-100646904D01*
X143359285Y-100707380D01*
X143298809Y-100828333D01*
D12*
%TO.C,U1*%
X132152380Y-118111904D02*
X132961904Y-118111904D01*
X133057142Y-118064285D01*
X133104761Y-118016666D01*
X133152380Y-117921428D01*
X133152380Y-117730952D01*
X133104761Y-117635714D01*
X133057142Y-117588095D01*
X132961904Y-117540476D01*
X132152380Y-117540476D01*
X133152380Y-116540476D02*
X133152380Y-117111904D01*
X133152380Y-116826190D02*
X132152380Y-116826190D01*
X132295238Y-116921428D01*
X132390476Y-117016666D01*
X132438095Y-117111904D01*
%TO.C,R11*%
X162602380Y-101392857D02*
X162126190Y-101726190D01*
X162602380Y-101964285D02*
X161602380Y-101964285D01*
X161602380Y-101583333D01*
X161650000Y-101488095D01*
X161697619Y-101440476D01*
X161792857Y-101392857D01*
X161935714Y-101392857D01*
X162030952Y-101440476D01*
X162078571Y-101488095D01*
X162126190Y-101583333D01*
X162126190Y-101964285D01*
X162602380Y-100440476D02*
X162602380Y-101011904D01*
X162602380Y-100726190D02*
X161602380Y-100726190D01*
X161745238Y-100821428D01*
X161840476Y-100916666D01*
X161888095Y-101011904D01*
X162602380Y-99488095D02*
X162602380Y-100059523D01*
X162602380Y-99773809D02*
X161602380Y-99773809D01*
X161745238Y-99869047D01*
X161840476Y-99964285D01*
X161888095Y-100059523D01*
%TO.C,R10*%
X160502380Y-101392857D02*
X160026190Y-101726190D01*
X160502380Y-101964285D02*
X159502380Y-101964285D01*
X159502380Y-101583333D01*
X159550000Y-101488095D01*
X159597619Y-101440476D01*
X159692857Y-101392857D01*
X159835714Y-101392857D01*
X159930952Y-101440476D01*
X159978571Y-101488095D01*
X160026190Y-101583333D01*
X160026190Y-101964285D01*
X160502380Y-100440476D02*
X160502380Y-101011904D01*
X160502380Y-100726190D02*
X159502380Y-100726190D01*
X159645238Y-100821428D01*
X159740476Y-100916666D01*
X159788095Y-101011904D01*
X159502380Y-99821428D02*
X159502380Y-99726190D01*
X159550000Y-99630952D01*
X159597619Y-99583333D01*
X159692857Y-99535714D01*
X159883333Y-99488095D01*
X160121428Y-99488095D01*
X160311904Y-99535714D01*
X160407142Y-99583333D01*
X160454761Y-99630952D01*
X160502380Y-99726190D01*
X160502380Y-99821428D01*
X160454761Y-99916666D01*
X160407142Y-99964285D01*
X160311904Y-100011904D01*
X160121428Y-100059523D01*
X159883333Y-100059523D01*
X159692857Y-100011904D01*
X159597619Y-99964285D01*
X159550000Y-99916666D01*
X159502380Y-99821428D01*
%TO.C,R9*%
X158402380Y-101416666D02*
X157926190Y-101750000D01*
X158402380Y-101988095D02*
X157402380Y-101988095D01*
X157402380Y-101607142D01*
X157450000Y-101511904D01*
X157497619Y-101464285D01*
X157592857Y-101416666D01*
X157735714Y-101416666D01*
X157830952Y-101464285D01*
X157878571Y-101511904D01*
X157926190Y-101607142D01*
X157926190Y-101988095D01*
X158402380Y-100940476D02*
X158402380Y-100750000D01*
X158354761Y-100654761D01*
X158307142Y-100607142D01*
X158164285Y-100511904D01*
X157973809Y-100464285D01*
X157592857Y-100464285D01*
X157497619Y-100511904D01*
X157450000Y-100559523D01*
X157402380Y-100654761D01*
X157402380Y-100845238D01*
X157450000Y-100940476D01*
X157497619Y-100988095D01*
X157592857Y-101035714D01*
X157830952Y-101035714D01*
X157926190Y-100988095D01*
X157973809Y-100940476D01*
X158021428Y-100845238D01*
X158021428Y-100654761D01*
X157973809Y-100559523D01*
X157926190Y-100511904D01*
X157830952Y-100464285D01*
%TO.C,R8*%
X156302380Y-101416666D02*
X155826190Y-101750000D01*
X156302380Y-101988095D02*
X155302380Y-101988095D01*
X155302380Y-101607142D01*
X155350000Y-101511904D01*
X155397619Y-101464285D01*
X155492857Y-101416666D01*
X155635714Y-101416666D01*
X155730952Y-101464285D01*
X155778571Y-101511904D01*
X155826190Y-101607142D01*
X155826190Y-101988095D01*
X155730952Y-100845238D02*
X155683333Y-100940476D01*
X155635714Y-100988095D01*
X155540476Y-101035714D01*
X155492857Y-101035714D01*
X155397619Y-100988095D01*
X155350000Y-100940476D01*
X155302380Y-100845238D01*
X155302380Y-100654761D01*
X155350000Y-100559523D01*
X155397619Y-100511904D01*
X155492857Y-100464285D01*
X155540476Y-100464285D01*
X155635714Y-100511904D01*
X155683333Y-100559523D01*
X155730952Y-100654761D01*
X155730952Y-100845238D01*
X155778571Y-100940476D01*
X155826190Y-100988095D01*
X155921428Y-101035714D01*
X156111904Y-101035714D01*
X156207142Y-100988095D01*
X156254761Y-100940476D01*
X156302380Y-100845238D01*
X156302380Y-100654761D01*
X156254761Y-100559523D01*
X156207142Y-100511904D01*
X156111904Y-100464285D01*
X155921428Y-100464285D01*
X155826190Y-100511904D01*
X155778571Y-100559523D01*
X155730952Y-100654761D01*
%TO.C,R7*%
X149383333Y-101202380D02*
X149050000Y-100726190D01*
X148811904Y-101202380D02*
X148811904Y-100202380D01*
X149192857Y-100202380D01*
X149288095Y-100250000D01*
X149335714Y-100297619D01*
X149383333Y-100392857D01*
X149383333Y-100535714D01*
X149335714Y-100630952D01*
X149288095Y-100678571D01*
X149192857Y-100726190D01*
X148811904Y-100726190D01*
X149716666Y-100202380D02*
X150383333Y-100202380D01*
X149954761Y-101202380D01*
%TO.C,R6*%
X149383333Y-99102380D02*
X149050000Y-98626190D01*
X148811904Y-99102380D02*
X148811904Y-98102380D01*
X149192857Y-98102380D01*
X149288095Y-98150000D01*
X149335714Y-98197619D01*
X149383333Y-98292857D01*
X149383333Y-98435714D01*
X149335714Y-98530952D01*
X149288095Y-98578571D01*
X149192857Y-98626190D01*
X148811904Y-98626190D01*
X150240476Y-98102380D02*
X150050000Y-98102380D01*
X149954761Y-98150000D01*
X149907142Y-98197619D01*
X149811904Y-98340476D01*
X149764285Y-98530952D01*
X149764285Y-98911904D01*
X149811904Y-99007142D01*
X149859523Y-99054761D01*
X149954761Y-99102380D01*
X150145238Y-99102380D01*
X150240476Y-99054761D01*
X150288095Y-99007142D01*
X150335714Y-98911904D01*
X150335714Y-98673809D01*
X150288095Y-98578571D01*
X150240476Y-98530952D01*
X150145238Y-98483333D01*
X149954761Y-98483333D01*
X149859523Y-98530952D01*
X149811904Y-98578571D01*
X149764285Y-98673809D01*
%TO.C,R5*%
X132383333Y-106502380D02*
X132050000Y-106026190D01*
X131811904Y-106502380D02*
X131811904Y-105502380D01*
X132192857Y-105502380D01*
X132288095Y-105550000D01*
X132335714Y-105597619D01*
X132383333Y-105692857D01*
X132383333Y-105835714D01*
X132335714Y-105930952D01*
X132288095Y-105978571D01*
X132192857Y-106026190D01*
X131811904Y-106026190D01*
X133288095Y-105502380D02*
X132811904Y-105502380D01*
X132764285Y-105978571D01*
X132811904Y-105930952D01*
X132907142Y-105883333D01*
X133145238Y-105883333D01*
X133240476Y-105930952D01*
X133288095Y-105978571D01*
X133335714Y-106073809D01*
X133335714Y-106311904D01*
X133288095Y-106407142D01*
X133240476Y-106454761D01*
X133145238Y-106502380D01*
X132907142Y-106502380D01*
X132811904Y-106454761D01*
X132764285Y-106407142D01*
%TO.C,R4*%
X139283333Y-95102380D02*
X138950000Y-94626190D01*
X138711904Y-95102380D02*
X138711904Y-94102380D01*
X139092857Y-94102380D01*
X139188095Y-94150000D01*
X139235714Y-94197619D01*
X139283333Y-94292857D01*
X139283333Y-94435714D01*
X139235714Y-94530952D01*
X139188095Y-94578571D01*
X139092857Y-94626190D01*
X138711904Y-94626190D01*
X140140476Y-94435714D02*
X140140476Y-95102380D01*
X139902380Y-94054761D02*
X139664285Y-94769047D01*
X140283333Y-94769047D01*
%TO.C,R3*%
X134383333Y-112202380D02*
X134050000Y-111726190D01*
X133811904Y-112202380D02*
X133811904Y-111202380D01*
X134192857Y-111202380D01*
X134288095Y-111250000D01*
X134335714Y-111297619D01*
X134383333Y-111392857D01*
X134383333Y-111535714D01*
X134335714Y-111630952D01*
X134288095Y-111678571D01*
X134192857Y-111726190D01*
X133811904Y-111726190D01*
X134716666Y-111202380D02*
X135335714Y-111202380D01*
X135002380Y-111583333D01*
X135145238Y-111583333D01*
X135240476Y-111630952D01*
X135288095Y-111678571D01*
X135335714Y-111773809D01*
X135335714Y-112011904D01*
X135288095Y-112107142D01*
X135240476Y-112154761D01*
X135145238Y-112202380D01*
X134859523Y-112202380D01*
X134764285Y-112154761D01*
X134716666Y-112107142D01*
%TO.C,R2*%
X127552380Y-117529166D02*
X127076190Y-117862500D01*
X127552380Y-118100595D02*
X126552380Y-118100595D01*
X126552380Y-117719642D01*
X126600000Y-117624404D01*
X126647619Y-117576785D01*
X126742857Y-117529166D01*
X126885714Y-117529166D01*
X126980952Y-117576785D01*
X127028571Y-117624404D01*
X127076190Y-117719642D01*
X127076190Y-118100595D01*
X126647619Y-117148214D02*
X126600000Y-117100595D01*
X126552380Y-117005357D01*
X126552380Y-116767261D01*
X126600000Y-116672023D01*
X126647619Y-116624404D01*
X126742857Y-116576785D01*
X126838095Y-116576785D01*
X126980952Y-116624404D01*
X127552380Y-117195833D01*
X127552380Y-116576785D01*
%TO.C,R1*%
X125252380Y-117516666D02*
X124776190Y-117850000D01*
X125252380Y-118088095D02*
X124252380Y-118088095D01*
X124252380Y-117707142D01*
X124300000Y-117611904D01*
X124347619Y-117564285D01*
X124442857Y-117516666D01*
X124585714Y-117516666D01*
X124680952Y-117564285D01*
X124728571Y-117611904D01*
X124776190Y-117707142D01*
X124776190Y-118088095D01*
X125252380Y-116564285D02*
X125252380Y-117135714D01*
X125252380Y-116850000D02*
X124252380Y-116850000D01*
X124395238Y-116945238D01*
X124490476Y-117040476D01*
X124538095Y-117135714D01*
%TO.C,D2*%
X157302380Y-91888095D02*
X156302380Y-91888095D01*
X156302380Y-91650000D01*
X156350000Y-91507142D01*
X156445238Y-91411904D01*
X156540476Y-91364285D01*
X156730952Y-91316666D01*
X156873809Y-91316666D01*
X157064285Y-91364285D01*
X157159523Y-91411904D01*
X157254761Y-91507142D01*
X157302380Y-91650000D01*
X157302380Y-91888095D01*
X156397619Y-90935714D02*
X156350000Y-90888095D01*
X156302380Y-90792857D01*
X156302380Y-90554761D01*
X156350000Y-90459523D01*
X156397619Y-90411904D01*
X156492857Y-90364285D01*
X156588095Y-90364285D01*
X156730952Y-90411904D01*
X157302380Y-90983333D01*
X157302380Y-90364285D01*
%TO.C,D1*%
X154602380Y-91888095D02*
X153602380Y-91888095D01*
X153602380Y-91650000D01*
X153650000Y-91507142D01*
X153745238Y-91411904D01*
X153840476Y-91364285D01*
X154030952Y-91316666D01*
X154173809Y-91316666D01*
X154364285Y-91364285D01*
X154459523Y-91411904D01*
X154554761Y-91507142D01*
X154602380Y-91650000D01*
X154602380Y-91888095D01*
X154602380Y-90364285D02*
X154602380Y-90935714D01*
X154602380Y-90650000D02*
X153602380Y-90650000D01*
X153745238Y-90745238D01*
X153840476Y-90840476D01*
X153888095Y-90935714D01*
%TO.C,C7*%
X132083333Y-112107142D02*
X132035714Y-112154761D01*
X131892857Y-112202380D01*
X131797619Y-112202380D01*
X131654761Y-112154761D01*
X131559523Y-112059523D01*
X131511904Y-111964285D01*
X131464285Y-111773809D01*
X131464285Y-111630952D01*
X131511904Y-111440476D01*
X131559523Y-111345238D01*
X131654761Y-111250000D01*
X131797619Y-111202380D01*
X131892857Y-111202380D01*
X132035714Y-111250000D01*
X132083333Y-111297619D01*
X132416666Y-111202380D02*
X133083333Y-111202380D01*
X132654761Y-112202380D01*
%TO.C,C6*%
X130483333Y-103307142D02*
X130435714Y-103354761D01*
X130292857Y-103402380D01*
X130197619Y-103402380D01*
X130054761Y-103354761D01*
X129959523Y-103259523D01*
X129911904Y-103164285D01*
X129864285Y-102973809D01*
X129864285Y-102830952D01*
X129911904Y-102640476D01*
X129959523Y-102545238D01*
X130054761Y-102450000D01*
X130197619Y-102402380D01*
X130292857Y-102402380D01*
X130435714Y-102450000D01*
X130483333Y-102497619D01*
X131340476Y-102402380D02*
X131150000Y-102402380D01*
X131054761Y-102450000D01*
X131007142Y-102497619D01*
X130911904Y-102640476D01*
X130864285Y-102830952D01*
X130864285Y-103211904D01*
X130911904Y-103307142D01*
X130959523Y-103354761D01*
X131054761Y-103402380D01*
X131245238Y-103402380D01*
X131340476Y-103354761D01*
X131388095Y-103307142D01*
X131435714Y-103211904D01*
X131435714Y-102973809D01*
X131388095Y-102878571D01*
X131340476Y-102830952D01*
X131245238Y-102783333D01*
X131054761Y-102783333D01*
X130959523Y-102830952D01*
X130911904Y-102878571D01*
X130864285Y-102973809D01*
%TO.C,C5*%
X133183333Y-95157142D02*
X133135714Y-95204761D01*
X132992857Y-95252380D01*
X132897619Y-95252380D01*
X132754761Y-95204761D01*
X132659523Y-95109523D01*
X132611904Y-95014285D01*
X132564285Y-94823809D01*
X132564285Y-94680952D01*
X132611904Y-94490476D01*
X132659523Y-94395238D01*
X132754761Y-94300000D01*
X132897619Y-94252380D01*
X132992857Y-94252380D01*
X133135714Y-94300000D01*
X133183333Y-94347619D01*
X134088095Y-94252380D02*
X133611904Y-94252380D01*
X133564285Y-94728571D01*
X133611904Y-94680952D01*
X133707142Y-94633333D01*
X133945238Y-94633333D01*
X134040476Y-94680952D01*
X134088095Y-94728571D01*
X134135714Y-94823809D01*
X134135714Y-95061904D01*
X134088095Y-95157142D01*
X134040476Y-95204761D01*
X133945238Y-95252380D01*
X133707142Y-95252380D01*
X133611904Y-95204761D01*
X133564285Y-95157142D01*
%TO.C,C4*%
X124583333Y-109707142D02*
X124535714Y-109754761D01*
X124392857Y-109802380D01*
X124297619Y-109802380D01*
X124154761Y-109754761D01*
X124059523Y-109659523D01*
X124011904Y-109564285D01*
X123964285Y-109373809D01*
X123964285Y-109230952D01*
X124011904Y-109040476D01*
X124059523Y-108945238D01*
X124154761Y-108850000D01*
X124297619Y-108802380D01*
X124392857Y-108802380D01*
X124535714Y-108850000D01*
X124583333Y-108897619D01*
X125440476Y-109135714D02*
X125440476Y-109802380D01*
X125202380Y-108754761D02*
X124964285Y-109469047D01*
X125583333Y-109469047D01*
%TO.C,C3*%
X124595833Y-107607142D02*
X124548214Y-107654761D01*
X124405357Y-107702380D01*
X124310119Y-107702380D01*
X124167261Y-107654761D01*
X124072023Y-107559523D01*
X124024404Y-107464285D01*
X123976785Y-107273809D01*
X123976785Y-107130952D01*
X124024404Y-106940476D01*
X124072023Y-106845238D01*
X124167261Y-106750000D01*
X124310119Y-106702380D01*
X124405357Y-106702380D01*
X124548214Y-106750000D01*
X124595833Y-106797619D01*
X124929166Y-106702380D02*
X125548214Y-106702380D01*
X125214880Y-107083333D01*
X125357738Y-107083333D01*
X125452976Y-107130952D01*
X125500595Y-107178571D01*
X125548214Y-107273809D01*
X125548214Y-107511904D01*
X125500595Y-107607142D01*
X125452976Y-107654761D01*
X125357738Y-107702380D01*
X125072023Y-107702380D01*
X124976785Y-107654761D01*
X124929166Y-107607142D01*
%TO.C,C2*%
X124595833Y-105507142D02*
X124548214Y-105554761D01*
X124405357Y-105602380D01*
X124310119Y-105602380D01*
X124167261Y-105554761D01*
X124072023Y-105459523D01*
X124024404Y-105364285D01*
X123976785Y-105173809D01*
X123976785Y-105030952D01*
X124024404Y-104840476D01*
X124072023Y-104745238D01*
X124167261Y-104650000D01*
X124310119Y-104602380D01*
X124405357Y-104602380D01*
X124548214Y-104650000D01*
X124595833Y-104697619D01*
X124976785Y-104697619D02*
X125024404Y-104650000D01*
X125119642Y-104602380D01*
X125357738Y-104602380D01*
X125452976Y-104650000D01*
X125500595Y-104697619D01*
X125548214Y-104792857D01*
X125548214Y-104888095D01*
X125500595Y-105030952D01*
X124929166Y-105602380D01*
X125548214Y-105602380D01*
%TO.C,C1*%
X124583333Y-103407142D02*
X124535714Y-103454761D01*
X124392857Y-103502380D01*
X124297619Y-103502380D01*
X124154761Y-103454761D01*
X124059523Y-103359523D01*
X124011904Y-103264285D01*
X123964285Y-103073809D01*
X123964285Y-102930952D01*
X124011904Y-102740476D01*
X124059523Y-102645238D01*
X124154761Y-102550000D01*
X124297619Y-102502380D01*
X124392857Y-102502380D01*
X124535714Y-102550000D01*
X124583333Y-102597619D01*
X125535714Y-103502380D02*
X124964285Y-103502380D01*
X125250000Y-103502380D02*
X125250000Y-102502380D01*
X125154761Y-102645238D01*
X125059523Y-102740476D01*
X124964285Y-102788095D01*
%TO.C,G\u002A\u002A\u002A*%
G36*
X164019433Y-69972197D02*
G01*
X164063754Y-70023724D01*
X164100616Y-70066052D01*
X164130466Y-70099665D01*
X164153754Y-70125047D01*
X164170925Y-70142681D01*
X164182428Y-70153051D01*
X164188711Y-70156641D01*
X164189828Y-70156324D01*
X164195241Y-70150096D01*
X164207673Y-70135315D01*
X164226208Y-70113083D01*
X164249929Y-70084507D01*
X164277919Y-70050690D01*
X164309262Y-70012738D01*
X164343040Y-69971754D01*
X164347005Y-69966939D01*
X164497296Y-69784375D01*
X164595504Y-69782653D01*
X164638166Y-69782316D01*
X164668866Y-69783001D01*
X164687437Y-69784702D01*
X164693712Y-69787409D01*
X164693712Y-69787427D01*
X164689755Y-69793287D01*
X164678389Y-69807706D01*
X164660372Y-69829777D01*
X164636462Y-69858593D01*
X164607416Y-69893250D01*
X164573992Y-69932839D01*
X164536948Y-69976454D01*
X164497041Y-70023189D01*
X164481160Y-70041722D01*
X164268607Y-70289522D01*
X164268607Y-70675000D01*
X164087313Y-70675000D01*
X164087176Y-70482812D01*
X164087038Y-70290625D01*
X163871620Y-70040625D01*
X163830500Y-69992819D01*
X163791947Y-69947837D01*
X163756718Y-69906571D01*
X163725566Y-69869913D01*
X163699248Y-69838755D01*
X163678519Y-69813989D01*
X163664132Y-69796508D01*
X163656843Y-69787204D01*
X163656080Y-69785937D01*
X163661939Y-69784354D01*
X163678211Y-69783000D01*
X163702808Y-69781972D01*
X163733639Y-69781368D01*
X163755940Y-69781250D01*
X163855923Y-69781250D01*
X164019433Y-69972197D01*
G37*
G36*
X166268173Y-70224203D02*
G01*
X166300173Y-70164109D01*
X166331577Y-70105186D01*
X166361846Y-70048451D01*
X166390437Y-69994920D01*
X166416810Y-69945610D01*
X166440425Y-69901536D01*
X166460740Y-69863715D01*
X166477215Y-69833163D01*
X166489309Y-69810896D01*
X166496480Y-69797931D01*
X166498015Y-69795312D01*
X166502265Y-69789625D01*
X166507982Y-69785721D01*
X166517362Y-69783265D01*
X166532601Y-69781925D01*
X166555895Y-69781364D01*
X166589441Y-69781250D01*
X166590433Y-69781250D01*
X166628896Y-69781693D01*
X166655972Y-69783086D01*
X166672750Y-69785523D01*
X166680285Y-69789062D01*
X166684232Y-69795707D01*
X166693643Y-69812470D01*
X166708039Y-69838473D01*
X166726939Y-69872837D01*
X166749861Y-69914683D01*
X166776327Y-69963134D01*
X166805855Y-70017310D01*
X166837965Y-70076334D01*
X166872176Y-70139326D01*
X166906770Y-70203125D01*
X166942956Y-70269890D01*
X166977788Y-70334122D01*
X167010750Y-70394869D01*
X167041326Y-70451181D01*
X167068998Y-70502107D01*
X167093249Y-70546697D01*
X167113564Y-70584000D01*
X167129425Y-70613066D01*
X167140316Y-70632944D01*
X167145437Y-70642187D01*
X167163987Y-70675000D01*
X167068192Y-70674874D01*
X166972398Y-70674748D01*
X166866512Y-70468750D01*
X166307581Y-70468750D01*
X166255138Y-70570312D01*
X166202695Y-70671875D01*
X166117118Y-70673613D01*
X166086044Y-70674008D01*
X166060008Y-70673887D01*
X166041271Y-70673296D01*
X166032093Y-70672280D01*
X166031541Y-70671899D01*
X166034398Y-70665993D01*
X166042609Y-70650080D01*
X166055632Y-70625175D01*
X166072926Y-70592295D01*
X166093952Y-70552456D01*
X166118168Y-70506675D01*
X166145034Y-70455968D01*
X166174007Y-70401351D01*
X166204549Y-70343840D01*
X166221121Y-70312665D01*
X166382669Y-70312665D01*
X166388175Y-70314445D01*
X166405657Y-70315939D01*
X166434592Y-70317133D01*
X166474455Y-70318009D01*
X166524722Y-70318553D01*
X166584870Y-70318749D01*
X166587928Y-70318750D01*
X166650343Y-70318566D01*
X166701921Y-70318022D01*
X166742324Y-70317128D01*
X166771218Y-70315894D01*
X166788267Y-70314330D01*
X166793187Y-70312553D01*
X166789424Y-70304410D01*
X166780743Y-70287150D01*
X166767956Y-70262302D01*
X166751872Y-70231395D01*
X166733304Y-70195960D01*
X166713062Y-70157526D01*
X166691957Y-70117622D01*
X166670799Y-70077777D01*
X166650400Y-70039523D01*
X166631571Y-70004387D01*
X166615123Y-69973900D01*
X166601866Y-69949590D01*
X166592611Y-69932989D01*
X166588170Y-69925624D01*
X166587928Y-69925394D01*
X166584579Y-69930674D01*
X166576252Y-69945504D01*
X166563757Y-69968355D01*
X166547904Y-69997698D01*
X166529504Y-70032005D01*
X166509367Y-70069746D01*
X166488304Y-70109393D01*
X166467125Y-70149415D01*
X166446641Y-70188284D01*
X166427661Y-70224472D01*
X166410997Y-70256448D01*
X166397458Y-70282684D01*
X166387856Y-70301651D01*
X166383000Y-70311820D01*
X166382669Y-70312665D01*
X166221121Y-70312665D01*
X166236118Y-70284452D01*
X166268173Y-70224203D01*
G37*
G36*
X165051613Y-69782640D02*
G01*
X165140697Y-69784375D01*
X165142356Y-69964062D01*
X165142867Y-70010003D01*
X165143499Y-70051605D01*
X165144213Y-70087309D01*
X165144973Y-70115553D01*
X165145741Y-70134778D01*
X165146479Y-70143422D01*
X165146641Y-70143750D01*
X165152081Y-70140213D01*
X165166689Y-70130065D01*
X165189489Y-70114000D01*
X165219504Y-70092715D01*
X165255756Y-70066902D01*
X165297269Y-70037256D01*
X165343065Y-70004473D01*
X165392169Y-69969246D01*
X165401296Y-69962691D01*
X165653323Y-69781632D01*
X165767414Y-69781441D01*
X165803613Y-69781623D01*
X165835065Y-69782247D01*
X165859813Y-69783235D01*
X165875902Y-69784509D01*
X165881385Y-69785937D01*
X165876346Y-69790215D01*
X165861871Y-69800901D01*
X165838862Y-69817364D01*
X165808216Y-69838977D01*
X165770834Y-69865111D01*
X165727614Y-69895136D01*
X165679456Y-69928424D01*
X165627260Y-69964346D01*
X165575247Y-70000000D01*
X165520090Y-70037789D01*
X165468129Y-70073490D01*
X165420261Y-70106478D01*
X165377385Y-70136130D01*
X165340398Y-70161823D01*
X165310199Y-70182932D01*
X165287685Y-70198834D01*
X165273754Y-70208904D01*
X165269289Y-70212500D01*
X165274271Y-70216710D01*
X165288227Y-70226851D01*
X165309725Y-70241927D01*
X165337331Y-70260938D01*
X165369615Y-70282889D01*
X165392569Y-70298354D01*
X165426243Y-70320970D01*
X165468244Y-70349190D01*
X165516526Y-70381640D01*
X165569044Y-70416944D01*
X165623753Y-70453727D01*
X165678607Y-70490615D01*
X165731560Y-70526231D01*
X165734252Y-70528042D01*
X165952714Y-70675000D01*
X165818648Y-70674948D01*
X165684581Y-70674897D01*
X165416935Y-70487448D01*
X165365572Y-70451511D01*
X165317343Y-70417836D01*
X165273209Y-70387088D01*
X165234129Y-70359932D01*
X165201063Y-70337035D01*
X165174972Y-70319062D01*
X165156815Y-70306679D01*
X165147552Y-70300551D01*
X165146556Y-70300000D01*
X165145871Y-70305995D01*
X165145249Y-70322962D01*
X165144712Y-70349375D01*
X165144283Y-70383704D01*
X165143983Y-70424422D01*
X165143835Y-70470002D01*
X165143823Y-70487500D01*
X165143823Y-70675000D01*
X164962528Y-70675000D01*
X164962528Y-69780906D01*
X165051613Y-69782640D01*
G37*
G36*
X161295451Y-69937106D02*
G01*
X161296001Y-69784375D01*
X161674219Y-69784375D01*
X161753024Y-69784396D01*
X161820349Y-69784481D01*
X161877214Y-69784656D01*
X161924643Y-69784951D01*
X161963656Y-69785393D01*
X161995278Y-69786011D01*
X162020528Y-69786833D01*
X162040430Y-69787887D01*
X162056006Y-69789201D01*
X162068277Y-69790805D01*
X162078266Y-69792725D01*
X162086994Y-69794991D01*
X162089946Y-69795872D01*
X162125374Y-69812014D01*
X162156061Y-69836088D01*
X162179360Y-69865514D01*
X162192085Y-69895447D01*
X162195071Y-69914251D01*
X162197248Y-69941808D01*
X162198615Y-69975212D01*
X162199169Y-70011558D01*
X162198909Y-70047940D01*
X162197832Y-70081451D01*
X162195938Y-70109187D01*
X162193224Y-70128242D01*
X162192233Y-70131879D01*
X162174829Y-70166340D01*
X162149048Y-70193322D01*
X162130842Y-70204683D01*
X162105518Y-70217209D01*
X162124552Y-70225092D01*
X162145967Y-70239029D01*
X162167288Y-70261442D01*
X162185511Y-70288649D01*
X162196436Y-70313142D01*
X162200426Y-70328078D01*
X162203090Y-70346125D01*
X162204566Y-70369587D01*
X162204996Y-70400768D01*
X162204520Y-70441971D01*
X162204461Y-70445075D01*
X162203555Y-70483913D01*
X162202380Y-70512648D01*
X162200627Y-70533678D01*
X162197992Y-70549402D01*
X162194167Y-70562216D01*
X162188846Y-70574519D01*
X162187594Y-70577092D01*
X162166081Y-70607746D01*
X162134505Y-70634652D01*
X162095157Y-70655969D01*
X162083827Y-70660408D01*
X162076540Y-70662778D01*
X162068071Y-70664807D01*
X162057419Y-70666529D01*
X162043584Y-70667976D01*
X162025563Y-70669179D01*
X162002355Y-70670172D01*
X161972960Y-70670986D01*
X161936375Y-70671653D01*
X161891600Y-70672206D01*
X161837632Y-70672677D01*
X161773472Y-70673097D01*
X161698116Y-70673500D01*
X161672614Y-70673625D01*
X161292792Y-70675458D01*
X161293331Y-70525647D01*
X161474170Y-70525647D01*
X161728920Y-70523761D01*
X161798084Y-70523136D01*
X161855533Y-70522358D01*
X161902054Y-70521399D01*
X161938433Y-70520230D01*
X161965457Y-70518825D01*
X161983915Y-70517153D01*
X161994591Y-70515188D01*
X161997079Y-70514194D01*
X162008628Y-70503666D01*
X162016710Y-70486388D01*
X162021714Y-70460769D01*
X162024032Y-70425218D01*
X162024305Y-70403125D01*
X162023362Y-70363454D01*
X162020225Y-70334411D01*
X162014430Y-70314246D01*
X162005512Y-70301205D01*
X161995568Y-70294611D01*
X161985902Y-70292584D01*
X161966305Y-70290915D01*
X161936327Y-70289591D01*
X161895518Y-70288600D01*
X161843429Y-70287932D01*
X161779608Y-70287573D01*
X161727063Y-70287500D01*
X161474170Y-70287500D01*
X161474170Y-70525647D01*
X161293331Y-70525647D01*
X161294396Y-70229916D01*
X161294727Y-70138021D01*
X161474170Y-70138021D01*
X161733392Y-70136198D01*
X161797446Y-70135715D01*
X161850160Y-70135214D01*
X161892695Y-70134641D01*
X161926214Y-70133939D01*
X161951878Y-70133052D01*
X161970849Y-70131925D01*
X161984291Y-70130501D01*
X161993365Y-70128725D01*
X161999233Y-70126542D01*
X162003057Y-70123895D01*
X162003771Y-70123214D01*
X162008546Y-70116751D01*
X162011760Y-70107134D01*
X162013701Y-70092055D01*
X162014660Y-70069205D01*
X162014927Y-70036277D01*
X162014928Y-70034464D01*
X162014434Y-69997316D01*
X162012874Y-69971380D01*
X162010128Y-69955403D01*
X162006806Y-69948749D01*
X162002114Y-69946647D01*
X161991951Y-69944868D01*
X161975364Y-69943379D01*
X161951398Y-69942144D01*
X161919099Y-69941129D01*
X161877512Y-69940298D01*
X161825683Y-69939617D01*
X161762656Y-69939052D01*
X161736427Y-69938865D01*
X161474170Y-69937106D01*
X161474170Y-70138021D01*
X161294727Y-70138021D01*
X161295451Y-69937106D01*
G37*
G36*
X162022742Y-62395197D02*
G01*
X162139598Y-62395497D01*
X162244502Y-62395831D01*
X162338006Y-62396206D01*
X162420662Y-62396627D01*
X162493022Y-62397103D01*
X162555638Y-62397640D01*
X162609061Y-62398245D01*
X162653843Y-62398925D01*
X162690535Y-62399688D01*
X162719690Y-62400540D01*
X162741858Y-62401487D01*
X162757593Y-62402538D01*
X162767445Y-62403699D01*
X162771364Y-62404671D01*
X162784383Y-62409534D01*
X162806350Y-62417184D01*
X162834302Y-62426609D01*
X162865274Y-62436796D01*
X162868263Y-62437766D01*
X162958194Y-62471728D01*
X163049384Y-62515216D01*
X163138191Y-62566257D01*
X163220969Y-62622877D01*
X163246481Y-62642561D01*
X163341175Y-62725731D01*
X163426184Y-62816314D01*
X163501279Y-62913542D01*
X163566231Y-63016649D01*
X163620810Y-63124868D01*
X163664787Y-63237432D01*
X163697932Y-63353575D01*
X163720016Y-63472529D01*
X163730810Y-63593529D01*
X163730084Y-63715808D01*
X163717608Y-63838598D01*
X163693154Y-63961133D01*
X163667601Y-64050000D01*
X163652199Y-64092258D01*
X163631674Y-64141319D01*
X163607752Y-64193528D01*
X163582161Y-64245231D01*
X163556628Y-64292773D01*
X163537776Y-64324755D01*
X163471154Y-64420809D01*
X163394603Y-64511351D01*
X163309536Y-64595193D01*
X163217363Y-64671151D01*
X163119497Y-64738038D01*
X163017348Y-64794669D01*
X162934843Y-64831261D01*
X162898272Y-64845708D01*
X162794183Y-64829060D01*
X162730764Y-64819250D01*
X162675894Y-64811575D01*
X162625884Y-64805599D01*
X162577047Y-64800886D01*
X162525695Y-64797000D01*
X162519740Y-64796604D01*
X162455661Y-64792401D01*
X162455661Y-65581250D01*
X162524606Y-65581250D01*
X162575125Y-65582612D01*
X162633712Y-65586426D01*
X162696262Y-65592281D01*
X162758673Y-65599766D01*
X162816841Y-65608472D01*
X162842400Y-65613030D01*
X163001226Y-65649320D01*
X163154662Y-65696747D01*
X163302419Y-65755162D01*
X163444209Y-65824418D01*
X163579747Y-65904368D01*
X163708744Y-65994863D01*
X163830913Y-66095755D01*
X163892058Y-66152678D01*
X163987339Y-66249922D01*
X164072093Y-66347145D01*
X164148066Y-66446713D01*
X164217003Y-66550990D01*
X164280651Y-66662343D01*
X164309219Y-66717763D01*
X164371421Y-66854711D01*
X164423112Y-66995711D01*
X164464638Y-67141939D01*
X164496343Y-67294567D01*
X164513707Y-67412500D01*
X164517377Y-67452471D01*
X164519968Y-67502106D01*
X164521500Y-67558616D01*
X164521994Y-67619214D01*
X164521471Y-67681112D01*
X164519951Y-67741520D01*
X164517454Y-67797652D01*
X164514001Y-67846720D01*
X164510268Y-67881250D01*
X164483599Y-68039891D01*
X164447162Y-68191289D01*
X164400589Y-68336444D01*
X164343512Y-68476353D01*
X164275562Y-68612017D01*
X164196372Y-68744434D01*
X164186775Y-68759124D01*
X164092629Y-68891104D01*
X163990361Y-69013585D01*
X163879922Y-69126609D01*
X163761263Y-69230218D01*
X163634335Y-69324456D01*
X163499089Y-69409365D01*
X163355476Y-69484986D01*
X163346388Y-69489326D01*
X163271253Y-69525000D01*
X161292875Y-69525000D01*
X161292875Y-62393498D01*
X162022742Y-62395197D01*
G37*
G36*
X168419629Y-69525000D02*
G01*
X166099787Y-69525000D01*
X165901983Y-69524984D01*
X165711174Y-69524939D01*
X165527637Y-69524864D01*
X165351647Y-69524760D01*
X165183481Y-69524627D01*
X165023414Y-69524468D01*
X164871723Y-69524281D01*
X164728683Y-69524069D01*
X164594571Y-69523831D01*
X164469663Y-69523568D01*
X164354234Y-69523282D01*
X164248561Y-69522971D01*
X164152920Y-69522639D01*
X164067586Y-69522284D01*
X163992836Y-69521907D01*
X163928946Y-69521511D01*
X163876191Y-69521094D01*
X163834848Y-69520658D01*
X163805193Y-69520203D01*
X163787502Y-69519730D01*
X163782029Y-69519263D01*
X163787610Y-69513724D01*
X163801510Y-69502441D01*
X163821835Y-69486884D01*
X163846694Y-69468525D01*
X163856006Y-69461788D01*
X163986926Y-69362021D01*
X164107445Y-69258354D01*
X164219493Y-69148962D01*
X164324997Y-69032024D01*
X164375020Y-68971255D01*
X164481886Y-68827652D01*
X164578072Y-68677692D01*
X164663408Y-68521783D01*
X164737728Y-68360335D01*
X164800864Y-68193754D01*
X164852649Y-68022450D01*
X164892915Y-67846830D01*
X164921495Y-67667303D01*
X164926109Y-67628125D01*
X164928854Y-67595205D01*
X164931049Y-67552590D01*
X164932694Y-67502527D01*
X164933788Y-67447260D01*
X164934330Y-67389035D01*
X164934320Y-67330099D01*
X164933755Y-67272698D01*
X164932636Y-67219077D01*
X164930961Y-67171481D01*
X164928730Y-67132158D01*
X164926314Y-67106250D01*
X164907133Y-66970417D01*
X164884013Y-66843881D01*
X164856344Y-66723886D01*
X164823518Y-66607682D01*
X164799757Y-66534720D01*
X164735970Y-66367253D01*
X164661482Y-66205931D01*
X164576699Y-66051150D01*
X164482023Y-65903309D01*
X164377858Y-65762805D01*
X164264607Y-65630034D01*
X164142674Y-65505396D01*
X164012462Y-65389287D01*
X163874376Y-65282104D01*
X163728818Y-65184246D01*
X163576192Y-65096110D01*
X163416902Y-65018094D01*
X163251351Y-64950594D01*
X163158959Y-64918482D01*
X163128751Y-64908369D01*
X163102725Y-64899209D01*
X163083255Y-64891872D01*
X163072718Y-64887226D01*
X163071744Y-64886575D01*
X163073582Y-64881481D01*
X163085414Y-64873897D01*
X163099876Y-64867290D01*
X163183274Y-64829710D01*
X163268975Y-64784741D01*
X163353409Y-64734523D01*
X163433003Y-64681196D01*
X163504186Y-64626900D01*
X163512171Y-64620272D01*
X163588416Y-64550917D01*
X163663158Y-64472612D01*
X163733421Y-64388805D01*
X163796228Y-64302944D01*
X163826420Y-64256250D01*
X163884760Y-64150774D01*
X163935615Y-64036944D01*
X163978221Y-63916946D01*
X164011816Y-63792967D01*
X164035636Y-63667191D01*
X164038088Y-63650000D01*
X164042057Y-63610375D01*
X164044688Y-63561527D01*
X164046003Y-63506657D01*
X164046029Y-63448967D01*
X164044790Y-63391659D01*
X164042310Y-63337935D01*
X164038613Y-63290996D01*
X164035108Y-63262500D01*
X164008200Y-63124296D01*
X163970123Y-62991185D01*
X163921073Y-62863574D01*
X163861246Y-62741872D01*
X163790838Y-62626489D01*
X163710046Y-62517832D01*
X163639684Y-62437737D01*
X163598178Y-62393750D01*
X168419629Y-62393750D01*
X168419629Y-69525000D01*
G37*
G36*
X162657290Y-70236432D02*
G01*
X162691961Y-70171394D01*
X162701701Y-70153125D01*
X162898294Y-69784375D01*
X163075204Y-69784375D01*
X163315568Y-70227457D01*
X163352857Y-70296221D01*
X163388375Y-70361772D01*
X163421677Y-70423287D01*
X163452319Y-70479940D01*
X163479856Y-70530907D01*
X163503842Y-70575365D01*
X163523833Y-70612489D01*
X163539384Y-70641454D01*
X163550050Y-70661438D01*
X163555387Y-70671614D01*
X163555932Y-70672769D01*
X163550042Y-70673547D01*
X163533815Y-70674207D01*
X163509417Y-70674697D01*
X163479015Y-70674965D01*
X163462612Y-70675000D01*
X163369291Y-70675000D01*
X163261391Y-70468750D01*
X162981994Y-70468875D01*
X162702597Y-70469001D01*
X162649654Y-70572000D01*
X162596711Y-70675000D01*
X162423706Y-70675000D01*
X162464407Y-70598437D01*
X162474482Y-70579502D01*
X162489814Y-70550707D01*
X162509781Y-70513223D01*
X162533757Y-70468220D01*
X162561120Y-70416869D01*
X162591246Y-70360340D01*
X162617666Y-70310768D01*
X162778804Y-70310768D01*
X162780220Y-70313139D01*
X162785181Y-70314989D01*
X162794886Y-70316382D01*
X162810536Y-70317382D01*
X162833333Y-70318055D01*
X162864477Y-70318463D01*
X162905168Y-70318671D01*
X162956608Y-70318744D01*
X162984293Y-70318750D01*
X163194536Y-70318750D01*
X163176191Y-70285937D01*
X163168550Y-70271944D01*
X163156028Y-70248629D01*
X163139555Y-70217739D01*
X163120059Y-70181020D01*
X163098470Y-70140220D01*
X163075716Y-70097084D01*
X163071390Y-70088867D01*
X163049515Y-70047731D01*
X163029386Y-70010687D01*
X163011751Y-69979049D01*
X162997358Y-69954128D01*
X162986956Y-69937239D01*
X162981292Y-69929694D01*
X162980578Y-69929492D01*
X162976975Y-69935703D01*
X162968336Y-69951507D01*
X162955441Y-69975433D01*
X162939073Y-70006011D01*
X162920010Y-70041768D01*
X162899036Y-70081233D01*
X162876931Y-70122935D01*
X162854475Y-70165404D01*
X162832450Y-70207167D01*
X162811637Y-70246754D01*
X162792818Y-70282693D01*
X162779731Y-70307812D01*
X162778804Y-70310768D01*
X162617666Y-70310768D01*
X162623510Y-70299804D01*
X162657290Y-70236432D01*
G37*
G36*
X167806978Y-69784375D02*
G01*
X167889965Y-69784432D01*
X167961320Y-69784617D01*
X168021916Y-69784947D01*
X168072624Y-69785440D01*
X168114316Y-69786113D01*
X168147862Y-69786985D01*
X168174135Y-69788073D01*
X168194006Y-69789396D01*
X168208346Y-69790971D01*
X168217901Y-69792783D01*
X168259117Y-69808897D01*
X168291632Y-69833926D01*
X168315758Y-69868121D01*
X168318586Y-69873870D01*
X168323857Y-69885398D01*
X168327878Y-69895828D01*
X168330819Y-69907011D01*
X168332848Y-69920800D01*
X168334135Y-69939048D01*
X168334848Y-69963608D01*
X168335158Y-69996331D01*
X168335231Y-70039071D01*
X168335233Y-70056250D01*
X168334996Y-70110809D01*
X168334100Y-70154553D01*
X168332269Y-70189158D01*
X168329226Y-70216303D01*
X168324693Y-70237665D01*
X168318393Y-70254921D01*
X168310051Y-70269751D01*
X168299388Y-70283831D01*
X168297257Y-70286351D01*
X168278067Y-70305390D01*
X168256102Y-70319742D01*
X168229251Y-70330093D01*
X168195406Y-70337134D01*
X168152459Y-70341552D01*
X168123262Y-70343153D01*
X168036322Y-70346875D01*
X168228634Y-70510937D01*
X168420947Y-70675000D01*
X168178945Y-70674952D01*
X168007027Y-70509607D01*
X167835110Y-70344263D01*
X167721019Y-70344006D01*
X167606929Y-70343750D01*
X167606929Y-70675000D01*
X167425551Y-70675000D01*
X167427155Y-70229687D01*
X167427285Y-70193750D01*
X167606929Y-70193750D01*
X168120123Y-70193750D01*
X168135468Y-70178409D01*
X168141271Y-70172145D01*
X168145389Y-70165418D01*
X168148112Y-70156104D01*
X168149726Y-70142079D01*
X168150522Y-70121217D01*
X168150788Y-70091396D01*
X168150813Y-70065498D01*
X168150433Y-70031050D01*
X168149387Y-70000411D01*
X168147812Y-69976043D01*
X168145847Y-69960406D01*
X168144693Y-69956496D01*
X168140596Y-69950447D01*
X168134625Y-69945441D01*
X168125655Y-69941380D01*
X168112561Y-69938168D01*
X168094219Y-69935707D01*
X168069503Y-69933900D01*
X168037291Y-69932650D01*
X167996455Y-69931858D01*
X167945873Y-69931429D01*
X167884418Y-69931263D01*
X167852932Y-69931250D01*
X167606929Y-69931250D01*
X167606929Y-70193750D01*
X167427285Y-70193750D01*
X167428760Y-69784375D01*
X167806978Y-69784375D01*
G37*
D15*
%TO.C,J1*%
X133549480Y-128668830D02*
X133549480Y-127668070D01*
X121550520Y-128668830D02*
X121550520Y-127668070D01*
X131547960Y-124670870D02*
X123552040Y-124670870D01*
X121550520Y-128668830D02*
X133549480Y-128668830D01*
D14*
%TO.C,U2*%
X147586700Y-87842420D02*
X147675600Y-87842420D01*
X118932960Y-87842420D02*
X118932960Y-82510960D01*
X147675600Y-58861020D02*
X146697700Y-58861020D01*
X147675600Y-64738580D02*
X147675600Y-58861020D01*
X119032020Y-58861020D02*
X120451880Y-58850860D01*
X123332240Y-87842420D02*
X118932960Y-87842420D01*
X119032020Y-65901900D02*
X119032020Y-58861020D01*
X147675600Y-87842420D02*
X147675600Y-82510960D01*
D16*
%TO.C,Y1*%
X133600000Y-97700000D02*
X133600000Y-101600000D01*
X131700000Y-97700000D02*
X131700000Y-101600000D01*
%TO.C,U11*%
X169250000Y-96690000D02*
X167850000Y-96690000D01*
X167850000Y-99010000D02*
X169750000Y-99010000D01*
%TO.C,U10*%
X169250000Y-93690000D02*
X167850000Y-93690000D01*
X167850000Y-96010000D02*
X169750000Y-96010000D01*
%TO.C,U9*%
X169250000Y-111690000D02*
X167850000Y-111690000D01*
X167850000Y-114010000D02*
X169750000Y-114010000D01*
%TO.C,U8*%
X169250000Y-108690000D02*
X167850000Y-108690000D01*
X167850000Y-111010000D02*
X169750000Y-111010000D01*
%TO.C,U7*%
X169250000Y-105690000D02*
X167850000Y-105690000D01*
X167850000Y-108010000D02*
X169750000Y-108010000D01*
%TO.C,U6*%
X167850000Y-105010000D02*
X169750000Y-105010000D01*
X169250000Y-102690000D02*
X167850000Y-102690000D01*
%TO.C,U5*%
X169250000Y-99690000D02*
X167850000Y-99690000D01*
X167850000Y-102010000D02*
X169750000Y-102010000D01*
%TO.C,U4*%
X169250000Y-114690000D02*
X167850000Y-114690000D01*
X167850000Y-117010000D02*
X169750000Y-117010000D01*
D14*
%TO.C,U3*%
X139950000Y-99650000D02*
G75*
G03*
X139950000Y-99650000I-300000J0D01*
G01*
X140650000Y-99600000D02*
X146250000Y-99600000D01*
X146250000Y-99600000D02*
X146250000Y-110100000D01*
X146250000Y-110100000D02*
X140650000Y-110100000D01*
X140650000Y-110100000D02*
X140650000Y-99600000D01*
D16*
%TO.C,U1*%
X131785000Y-117122936D02*
X131785000Y-117577064D01*
X130315000Y-117122936D02*
X130315000Y-117577064D01*
%TO.C,R11*%
X161415000Y-104177064D02*
X161415000Y-103722936D01*
X162885000Y-104177064D02*
X162885000Y-103722936D01*
%TO.C,R10*%
X159315000Y-104177064D02*
X159315000Y-103722936D01*
X160785000Y-104177064D02*
X160785000Y-103722936D01*
%TO.C,R9*%
X157215000Y-104177064D02*
X157215000Y-103722936D01*
X158685000Y-104177064D02*
X158685000Y-103722936D01*
%TO.C,R8*%
X155115000Y-104177064D02*
X155115000Y-103722936D01*
X156585000Y-104177064D02*
X156585000Y-103722936D01*
%TO.C,R7*%
X152022936Y-100115000D02*
X152477064Y-100115000D01*
X152022936Y-101585000D02*
X152477064Y-101585000D01*
%TO.C,R6*%
X152022936Y-98015000D02*
X152477064Y-98015000D01*
X152022936Y-99485000D02*
X152477064Y-99485000D01*
%TO.C,R5*%
X134922936Y-105715000D02*
X135377064Y-105715000D01*
X134922936Y-107185000D02*
X135377064Y-107185000D01*
%TO.C,R4*%
X140185000Y-96822936D02*
X140185000Y-97277064D01*
X138715000Y-96822936D02*
X138715000Y-97277064D01*
%TO.C,R3*%
X133085000Y-109122936D02*
X133085000Y-109577064D01*
X131615000Y-109122936D02*
X131615000Y-109577064D01*
%TO.C,R2*%
X128015000Y-117589564D02*
X128015000Y-117135436D01*
X129485000Y-117589564D02*
X129485000Y-117135436D01*
%TO.C,R1*%
X125715000Y-117577064D02*
X125715000Y-117122936D01*
X127185000Y-117577064D02*
X127185000Y-117122936D01*
%TO.C,J3*%
X174420000Y-86020000D02*
X175750000Y-86020000D01*
X174420000Y-88620000D02*
X177080000Y-88620000D01*
X174420000Y-88680000D02*
X177080000Y-88680000D01*
X177080000Y-88620000D02*
X177080000Y-88680000D01*
X174420000Y-88620000D02*
X174420000Y-88680000D01*
X174420000Y-87350000D02*
X174420000Y-86020000D01*
%TO.C,J2*%
X174272715Y-95190000D02*
G75*
G03*
X174272715Y-95190000I-350143J0D01*
G01*
X174072572Y-95190000D02*
G75*
G03*
X174072572Y-95190000I-150000J0D01*
G01*
X173982572Y-95190000D02*
G75*
G03*
X173982572Y-95190000I-60000J0D01*
G01*
X174172772Y-95190000D02*
G75*
G03*
X174172772Y-95190000I-250200J0D01*
G01*
X174432572Y-96470000D02*
X177092572Y-96470000D01*
X177092572Y-96470000D02*
X177092572Y-116850000D01*
X174432572Y-96470000D02*
X174432572Y-116850000D01*
X174432572Y-116850000D02*
X177092572Y-116850000D01*
%TO.C,D2*%
X157985000Y-92365000D02*
X155715000Y-92365000D01*
X157985000Y-96250000D02*
X157985000Y-92365000D01*
X155715000Y-92365000D02*
X155715000Y-96250000D01*
%TO.C,D1*%
X155285000Y-92365000D02*
X153015000Y-92365000D01*
X155285000Y-96250000D02*
X155285000Y-92365000D01*
X153015000Y-92365000D02*
X153015000Y-96250000D01*
%TO.C,C7*%
X135185000Y-109577064D02*
X135185000Y-109122936D01*
X133715000Y-109577064D02*
X133715000Y-109122936D01*
%TO.C,C6*%
X133122936Y-103585000D02*
X133577064Y-103585000D01*
X133122936Y-102115000D02*
X133577064Y-102115000D01*
%TO.C,C5*%
X133122936Y-97185000D02*
X133577064Y-97185000D01*
X133122936Y-95715000D02*
X133577064Y-95715000D01*
%TO.C,C4*%
X121810436Y-109985000D02*
X122264564Y-109985000D01*
X121810436Y-108515000D02*
X122264564Y-108515000D01*
%TO.C,C3*%
X121822936Y-107885000D02*
X122277064Y-107885000D01*
X121822936Y-106415000D02*
X122277064Y-106415000D01*
%TO.C,C2*%
X121822936Y-105785000D02*
X122277064Y-105785000D01*
X121822936Y-104315000D02*
X122277064Y-104315000D01*
%TO.C,C1*%
X121810436Y-103685000D02*
X122264564Y-103685000D01*
X121810436Y-102215000D02*
X122264564Y-102215000D01*
%TD*%
M02*
