%TF.GenerationSoftware,KiCad,Pcbnew,(6.0.2)*%
%TF.CreationDate,2022-06-02T00:09:36+03:00*%
%TF.ProjectId,BYKR-C2-V00,42594b52-2d43-4322-9d56-30302e6b6963,rev?*%
%TF.SameCoordinates,Original*%
%TF.FileFunction,Copper,L1,Top*%
%TF.FilePolarity,Positive*%
%FSLAX46Y46*%
G04 Gerber Fmt 4.6, Leading zero omitted, Abs format (unit mm)*
G04 Created by KiCad (PCBNEW (6.0.2)) date 2022-06-02 00:09:36*
%MOMM*%
%LPD*%
G01*
G04 APERTURE LIST*
G04 Aperture macros list*
%AMRoundRect*
0 Rectangle with rounded corners*
0 $1 Rounding radius*
0 $2 $3 $4 $5 $6 $7 $8 $9 X,Y pos of 4 corners*
0 Add a 4 corners polygon primitive as box body*
4,1,4,$2,$3,$4,$5,$6,$7,$8,$9,$2,$3,0*
0 Add four circle primitives for the rounded corners*
1,1,$1+$1,$2,$3*
1,1,$1+$1,$4,$5*
1,1,$1+$1,$6,$7*
1,1,$1+$1,$8,$9*
0 Add four rect primitives between the rounded corners*
20,1,$1+$1,$2,$3,$4,$5,0*
20,1,$1+$1,$4,$5,$6,$7,0*
20,1,$1+$1,$6,$7,$8,$9,0*
20,1,$1+$1,$8,$9,$2,$3,0*%
G04 Aperture macros list end*
%TA.AperFunction,ComponentPad*%
%ADD10C,1.879600*%
%TD*%
%TA.AperFunction,ComponentPad*%
%ADD11C,3.215640*%
%TD*%
%TA.AperFunction,SMDPad,CuDef*%
%ADD12R,0.899160X1.798320*%
%TD*%
%TA.AperFunction,SMDPad,CuDef*%
%ADD13R,1.099820X1.798320*%
%TD*%
%TA.AperFunction,SMDPad,CuDef*%
%ADD14R,1.399540X1.998980*%
%TD*%
%TA.AperFunction,SMDPad,CuDef*%
%ADD15R,1.526540X1.998980*%
%TD*%
%TA.AperFunction,SMDPad,CuDef*%
%ADD16R,1.500000X1.400000*%
%TD*%
%TA.AperFunction,SMDPad,CuDef*%
%ADD17R,0.650000X0.400000*%
%TD*%
%TA.AperFunction,SMDPad,CuDef*%
%ADD18R,1.600000X0.325000*%
%TD*%
%TA.AperFunction,SMDPad,CuDef*%
%ADD19RoundRect,0.250000X-0.450000X0.262500X-0.450000X-0.262500X0.450000X-0.262500X0.450000X0.262500X0*%
%TD*%
%TA.AperFunction,SMDPad,CuDef*%
%ADD20RoundRect,0.250000X0.450000X-0.262500X0.450000X0.262500X-0.450000X0.262500X-0.450000X-0.262500X0*%
%TD*%
%TA.AperFunction,SMDPad,CuDef*%
%ADD21RoundRect,0.250000X-0.262500X-0.450000X0.262500X-0.450000X0.262500X0.450000X-0.262500X0.450000X0*%
%TD*%
%TA.AperFunction,ComponentPad*%
%ADD22R,1.700000X1.700000*%
%TD*%
%TA.AperFunction,ComponentPad*%
%ADD23O,1.700000X1.700000*%
%TD*%
%TA.AperFunction,SMDPad,CuDef*%
%ADD24RoundRect,0.250000X-0.625000X0.375000X-0.625000X-0.375000X0.625000X-0.375000X0.625000X0.375000X0*%
%TD*%
%TA.AperFunction,ViaPad*%
%ADD25C,0.800000*%
%TD*%
%TA.AperFunction,Conductor*%
%ADD26C,0.500000*%
%TD*%
%TA.AperFunction,Conductor*%
%ADD27C,0.200000*%
%TD*%
%TA.AperFunction,Conductor*%
%ADD28C,1.000000*%
%TD*%
%TA.AperFunction,Conductor*%
%ADD29C,2.000000*%
%TD*%
G04 APERTURE END LIST*
D10*
%TO.P,J1,1,VBUS*%
%TO.N,Net-(J1-Pad1)*%
X131047580Y-123271330D03*
%TO.P,J1,2,D-*%
%TO.N,Net-(J1-Pad2)*%
X128675220Y-123271330D03*
%TO.P,J1,3,D+*%
%TO.N,Net-(J1-Pad3)*%
X126424780Y-123271330D03*
%TO.P,J1,4,GND*%
%TO.N,GND*%
X124052420Y-123271330D03*
D11*
%TO.P,J1,5,Shield*%
X133348820Y-125669090D03*
X121751180Y-125669090D03*
%TD*%
D12*
%TO.P,U2,1,CD/DAT3*%
%TO.N,SD_D3*%
X126580900Y-88746660D03*
%TO.P,U2,2,CMD*%
%TO.N,SD_CMD*%
X129080260Y-88746660D03*
%TO.P,U2,3,VSS*%
%TO.N,GND*%
X130830320Y-88746660D03*
%TO.P,U2,4,VDD*%
%TO.N,SD_VCC*%
X134078980Y-88746660D03*
%TO.P,U2,5,CLK*%
%TO.N,SD_CLK*%
X136578340Y-88746660D03*
%TO.P,U2,6,VSS*%
%TO.N,GND*%
X139077700Y-88746660D03*
%TO.P,U2,7,DAT0*%
%TO.N,SD_D0*%
X141498320Y-88746660D03*
%TO.P,U2,8,DAT1*%
%TO.N,SD_D1*%
X143197580Y-88746660D03*
%TO.P,U2,9,DAT2*%
%TO.N,SD_D2*%
X124081540Y-88746660D03*
%TO.P,U2,10,CARD_DETECT*%
%TO.N,SD_CD*%
X132331460Y-88746660D03*
D13*
%TO.P,U2,11,WRITE_PROTECT*%
%TO.N,GND*%
X146349720Y-88746660D03*
D14*
%TO.P,U2,12,SHELL1*%
X118854220Y-67748480D03*
D15*
%TO.P,U2,13,SHELL2*%
X146939000Y-66600400D03*
%TD*%
D16*
%TO.P,Y1,1,1*%
%TO.N,Net-(C5-Pad1)*%
X132650000Y-98600000D03*
%TO.P,Y1,2,2*%
%TO.N,Net-(C6-Pad1)*%
X132650000Y-100700000D03*
%TD*%
D17*
%TO.P,U11,1*%
%TO.N,MCU_S*%
X169500000Y-98500000D03*
%TO.P,U11,2,GND*%
%TO.N,GND*%
X169500000Y-97850000D03*
%TO.P,U11,3*%
%TO.N,CAMERA_D3*%
X169500000Y-97200000D03*
%TO.P,U11,4*%
%TO.N,USB_D3*%
X167600000Y-97200000D03*
%TO.P,U11,5,VCC*%
%TO.N,+3V3*%
X167600000Y-97850000D03*
%TO.P,U11,6*%
%TO.N,SD_D3*%
X167600000Y-98500000D03*
%TD*%
%TO.P,U10,1*%
%TO.N,MCU_S*%
X169500000Y-95500000D03*
%TO.P,U10,2,GND*%
%TO.N,GND*%
X169500000Y-94850000D03*
%TO.P,U10,3*%
%TO.N,CAMERA_D2*%
X169500000Y-94200000D03*
%TO.P,U10,4*%
%TO.N,USB_D2*%
X167600000Y-94200000D03*
%TO.P,U10,5,VCC*%
%TO.N,+3V3*%
X167600000Y-94850000D03*
%TO.P,U10,6*%
%TO.N,SD_D2*%
X167600000Y-95500000D03*
%TD*%
%TO.P,U9,1*%
%TO.N,MCU_S*%
X169500000Y-113500000D03*
%TO.P,U9,2,GND*%
%TO.N,GND*%
X169500000Y-112850000D03*
%TO.P,U9,3*%
%TO.N,CAMERA_D1*%
X169500000Y-112200000D03*
%TO.P,U9,4*%
%TO.N,USB_D1*%
X167600000Y-112200000D03*
%TO.P,U9,5,VCC*%
%TO.N,+3V3*%
X167600000Y-112850000D03*
%TO.P,U9,6*%
%TO.N,SD_D1*%
X167600000Y-113500000D03*
%TD*%
%TO.P,U8,1*%
%TO.N,MCU_S*%
X169500000Y-110500000D03*
%TO.P,U8,2,GND*%
%TO.N,GND*%
X169500000Y-109850000D03*
%TO.P,U8,3*%
%TO.N,CAMERA_D0*%
X169500000Y-109200000D03*
%TO.P,U8,4*%
%TO.N,USB_D0*%
X167600000Y-109200000D03*
%TO.P,U8,5,VCC*%
%TO.N,+3V3*%
X167600000Y-109850000D03*
%TO.P,U8,6*%
%TO.N,SD_D0*%
X167600000Y-110500000D03*
%TD*%
%TO.P,U7,1*%
%TO.N,MCU_S*%
X169500000Y-107500000D03*
%TO.P,U7,2,GND*%
%TO.N,GND*%
X169500000Y-106850000D03*
%TO.P,U7,3*%
%TO.N,CAMERA_CLK*%
X169500000Y-106200000D03*
%TO.P,U7,4*%
%TO.N,USB_CLK*%
X167600000Y-106200000D03*
%TO.P,U7,5,VCC*%
%TO.N,+3V3*%
X167600000Y-106850000D03*
%TO.P,U7,6*%
%TO.N,SD_CLK*%
X167600000Y-107500000D03*
%TD*%
%TO.P,U6,6*%
%TO.N,SD_VCC*%
X167600000Y-104500000D03*
%TO.P,U6,5,VCC*%
%TO.N,+3V3*%
X167600000Y-103850000D03*
%TO.P,U6,4*%
%TO.N,USB_VCC*%
X167600000Y-103200000D03*
%TO.P,U6,3*%
%TO.N,CAMERA_VCC*%
X169500000Y-103200000D03*
%TO.P,U6,2,GND*%
%TO.N,GND*%
X169500000Y-103850000D03*
%TO.P,U6,1*%
%TO.N,MCU_S*%
X169500000Y-104500000D03*
%TD*%
%TO.P,U5,1*%
%TO.N,MCU_S*%
X169500000Y-101500000D03*
%TO.P,U5,2,GND*%
%TO.N,GND*%
X169500000Y-100850000D03*
%TO.P,U5,3*%
%TO.N,CAMERA_CMD*%
X169500000Y-100200000D03*
%TO.P,U5,4*%
%TO.N,USB_CMD*%
X167600000Y-100200000D03*
%TO.P,U5,5,VCC*%
%TO.N,+3V3*%
X167600000Y-100850000D03*
%TO.P,U5,6*%
%TO.N,SD_CMD*%
X167600000Y-101500000D03*
%TD*%
%TO.P,U4,1*%
%TO.N,MCU_S*%
X169500000Y-116500000D03*
%TO.P,U4,2,GND*%
%TO.N,GND*%
X169500000Y-115850000D03*
%TO.P,U4,3*%
%TO.N,CAMERA_CD*%
X169500000Y-115200000D03*
%TO.P,U4,4*%
%TO.N,USB_CD*%
X167600000Y-115200000D03*
%TO.P,U4,5,VCC*%
%TO.N,+3V3*%
X167600000Y-115850000D03*
%TO.P,U4,6*%
%TO.N,SD_CD*%
X167600000Y-116500000D03*
%TD*%
D18*
%TO.P,U3,1,GPIO1*%
%TO.N,Net-(R4-Pad2)*%
X139550000Y-100625000D03*
%TO.P,U3,2,PMOSO*%
%TO.N,USB_VCC*%
X139550000Y-101275000D03*
%TO.P,U3,3,DVDD*%
%TO.N,+3V3*%
X139550000Y-101925000D03*
%TO.P,U3,4,X1*%
%TO.N,Net-(C5-Pad1)*%
X139550000Y-102575000D03*
%TO.P,U3,5,X2*%
%TO.N,Net-(C6-Pad1)*%
X139550000Y-103225000D03*
%TO.P,U3,6,GND*%
%TO.N,GND*%
X139550000Y-103875000D03*
%TO.P,U3,7,AVDD*%
%TO.N,+3V3*%
X139550000Y-104525000D03*
%TO.P,U3,8,DP*%
%TO.N,DP*%
X139550000Y-105175000D03*
%TO.P,U3,9,DM*%
%TO.N,DM*%
X139550000Y-105825000D03*
%TO.P,U3,10,RREF*%
%TO.N,Net-(R5-Pad2)*%
X139550000Y-106475000D03*
%TO.P,U3,11,DVDD*%
%TO.N,+3V3*%
X139550000Y-107125000D03*
%TO.P,U3,12,VP5*%
%TO.N,+5V*%
X139550000Y-107775000D03*
%TO.P,U3,13,EXTRSTZ*%
%TO.N,Net-(C7-Pad1)*%
X139550000Y-108425000D03*
%TO.P,U3,14,SD_WP*%
%TO.N,unconnected-(U3-Pad14)*%
X139550000Y-109075000D03*
%TO.P,U3,15,SD_CDZ*%
%TO.N,USB_CD*%
X147350000Y-109075000D03*
%TO.P,U3,16,D1*%
%TO.N,USB_D1*%
X147350000Y-108425000D03*
%TO.P,U3,17,D0*%
%TO.N,USB_D0*%
X147350000Y-107775000D03*
%TO.P,U3,18,D7*%
%TO.N,unconnected-(U3-Pad18)*%
X147350000Y-107125000D03*
%TO.P,U3,19,D6*%
%TO.N,unconnected-(U3-Pad19)*%
X147350000Y-106475000D03*
%TO.P,U3,20,SD_CLK*%
%TO.N,USB_CLK*%
X147350000Y-105825000D03*
%TO.P,U3,21,D5*%
%TO.N,unconnected-(U3-Pad21)*%
X147350000Y-105175000D03*
%TO.P,U3,22,SD_CMD*%
%TO.N,USB_CMD*%
X147350000Y-104525000D03*
%TO.P,U3,23,D4*%
%TO.N,unconnected-(U3-Pad23)*%
X147350000Y-103875000D03*
%TO.P,U3,24,D3*%
%TO.N,USB_D3*%
X147350000Y-103225000D03*
%TO.P,U3,25,D2*%
%TO.N,USB_D2*%
X147350000Y-102575000D03*
%TO.P,U3,26,MS_INS*%
%TO.N,unconnected-(U3-Pad26)*%
X147350000Y-101925000D03*
%TO.P,U3,27,GPIO3*%
%TO.N,Net-(R7-Pad1)*%
X147350000Y-101275000D03*
%TO.P,U3,28,GPIO0*%
%TO.N,Net-(R6-Pad1)*%
X147350000Y-100625000D03*
%TD*%
D19*
%TO.P,U1,1*%
%TO.N,+5V*%
X131050000Y-116437500D03*
%TO.P,U1,2*%
%TO.N,Net-(J1-Pad1)*%
X131050000Y-118262500D03*
%TD*%
D20*
%TO.P,R11,1*%
%TO.N,USB_D1*%
X162150000Y-104862500D03*
%TO.P,R11,2*%
%TO.N,+3V3*%
X162150000Y-103037500D03*
%TD*%
%TO.P,R10,1*%
%TO.N,USB_D0*%
X160050000Y-104862500D03*
%TO.P,R10,2*%
%TO.N,+3V3*%
X160050000Y-103037500D03*
%TD*%
%TO.P,R9,1*%
%TO.N,USB_D3*%
X157950000Y-104862500D03*
%TO.P,R9,2*%
%TO.N,+3V3*%
X157950000Y-103037500D03*
%TD*%
%TO.P,R8,1*%
%TO.N,USB_D2*%
X155850000Y-104862500D03*
%TO.P,R8,2*%
%TO.N,+3V3*%
X155850000Y-103037500D03*
%TD*%
D21*
%TO.P,R7,1*%
%TO.N,Net-(R7-Pad1)*%
X151337500Y-100850000D03*
%TO.P,R7,2*%
%TO.N,Net-(D2-Pad2)*%
X153162500Y-100850000D03*
%TD*%
%TO.P,R6,1*%
%TO.N,Net-(R6-Pad1)*%
X151337500Y-98750000D03*
%TO.P,R6,2*%
%TO.N,Net-(D1-Pad2)*%
X153162500Y-98750000D03*
%TD*%
%TO.P,R5,1*%
%TO.N,GND*%
X134237500Y-106450000D03*
%TO.P,R5,2*%
%TO.N,Net-(R5-Pad2)*%
X136062500Y-106450000D03*
%TD*%
D19*
%TO.P,R4,1*%
%TO.N,+3V3*%
X139450000Y-96137500D03*
%TO.P,R4,2*%
%TO.N,Net-(R4-Pad2)*%
X139450000Y-97962500D03*
%TD*%
%TO.P,R3,1*%
%TO.N,+3V3*%
X132350000Y-108437500D03*
%TO.P,R3,2*%
%TO.N,Net-(C7-Pad1)*%
X132350000Y-110262500D03*
%TD*%
D20*
%TO.P,R2,1*%
%TO.N,Net-(J1-Pad2)*%
X128750000Y-118275000D03*
%TO.P,R2,2*%
%TO.N,DM*%
X128750000Y-116450000D03*
%TD*%
%TO.P,R1,1*%
%TO.N,Net-(J1-Pad3)*%
X126450000Y-118262500D03*
%TO.P,R1,2*%
%TO.N,DP*%
X126450000Y-116437500D03*
%TD*%
D22*
%TO.P,J3,1,Pin_1*%
%TO.N,MCU_S*%
X175750000Y-87350000D03*
%TD*%
%TO.P,J2,1,Pin_1*%
%TO.N,CAMERA_D2*%
X175762572Y-95200000D03*
D23*
%TO.P,J2,2,Pin_2*%
%TO.N,CAMERA_D3*%
X175762572Y-97740000D03*
%TO.P,J2,3,Pin_3*%
%TO.N,CAMERA_CMD*%
X175762572Y-100280000D03*
%TO.P,J2,4,Pin_4*%
%TO.N,CAMERA_VCC*%
X175762572Y-102820000D03*
%TO.P,J2,5,Pin_5*%
%TO.N,CAMERA_CLK*%
X175762572Y-105360000D03*
%TO.P,J2,6,Pin_6*%
%TO.N,GND*%
X175762572Y-107900000D03*
%TO.P,J2,7,Pin_7*%
%TO.N,CAMERA_D0*%
X175762572Y-110440000D03*
%TO.P,J2,8,Pin_8*%
%TO.N,CAMERA_D1*%
X175762572Y-112980000D03*
%TO.P,J2,9,Pin_9*%
%TO.N,CAMERA_CD*%
X175762572Y-115520000D03*
%TD*%
D24*
%TO.P,D2,1,K*%
%TO.N,GND*%
X156850000Y-93250000D03*
%TO.P,D2,2,A*%
%TO.N,Net-(D2-Pad2)*%
X156850000Y-96050000D03*
%TD*%
%TO.P,D1,1,K*%
%TO.N,GND*%
X154150000Y-93250000D03*
%TO.P,D1,2,A*%
%TO.N,Net-(D1-Pad2)*%
X154150000Y-96050000D03*
%TD*%
D20*
%TO.P,C7,1*%
%TO.N,Net-(C7-Pad1)*%
X134450000Y-110262500D03*
%TO.P,C7,2*%
%TO.N,GND*%
X134450000Y-108437500D03*
%TD*%
D21*
%TO.P,C6,1*%
%TO.N,Net-(C6-Pad1)*%
X132437500Y-102850000D03*
%TO.P,C6,2*%
%TO.N,GND*%
X134262500Y-102850000D03*
%TD*%
%TO.P,C5,1*%
%TO.N,Net-(C5-Pad1)*%
X132437500Y-96450000D03*
%TO.P,C5,2*%
%TO.N,GND*%
X134262500Y-96450000D03*
%TD*%
%TO.P,C4,1*%
%TO.N,+3V3*%
X121125000Y-109250000D03*
%TO.P,C4,2*%
%TO.N,GND*%
X122950000Y-109250000D03*
%TD*%
%TO.P,C3,1*%
%TO.N,+3V3*%
X121137500Y-107150000D03*
%TO.P,C3,2*%
%TO.N,GND*%
X122962500Y-107150000D03*
%TD*%
%TO.P,C2,1*%
%TO.N,+5V*%
X121137500Y-105050000D03*
%TO.P,C2,2*%
%TO.N,GND*%
X122962500Y-105050000D03*
%TD*%
%TO.P,C1,1*%
%TO.N,+5V*%
X121125000Y-102950000D03*
%TO.P,C1,2*%
%TO.N,GND*%
X122950000Y-102950000D03*
%TD*%
D25*
%TO.N,GND*%
X142450000Y-75650000D03*
X136050000Y-81450000D03*
X127550000Y-74550000D03*
X122950000Y-83550000D03*
%TO.N,USB_D3*%
X159750000Y-98050000D03*
X154550000Y-106150000D03*
%TO.N,USB_D2*%
X158150000Y-98050000D03*
X154337500Y-104862500D03*
%TO.N,USB_D0*%
X163150000Y-108550000D03*
%TO.N,USB_D1*%
X165050000Y-111750000D03*
%TO.N,USB_CD*%
X162950000Y-114350000D03*
X157750000Y-110950000D03*
%TO.N,USB_D1*%
X161850000Y-106000500D03*
X157450000Y-108950000D03*
%TO.N,USB_D0*%
X159050000Y-105950000D03*
X154950000Y-108950000D03*
%TO.N,USB_CMD*%
X160450000Y-100650000D03*
X156850000Y-107050000D03*
%TO.N,USB_VCC*%
X163850000Y-102850000D03*
X152250000Y-95450000D03*
X142650000Y-95550000D03*
X136850000Y-98250000D03*
%TO.N,SD_D2*%
X161350000Y-94450000D03*
X161350000Y-86750000D03*
%TO.N,SD_D3*%
X162050000Y-96650000D03*
X162750000Y-86350000D03*
%TO.N,SD_CMD*%
X163750000Y-101350000D03*
X163850000Y-85550000D03*
%TO.N,SD_CD*%
X157650000Y-116750000D03*
%TO.N,SD_VCC*%
X165150000Y-104850000D03*
X164850000Y-84850000D03*
%TO.N,SD_CLK*%
X158750000Y-115550000D03*
%TO.N,SD_D0*%
X160050000Y-114450000D03*
%TO.N,SD_D1*%
X161550000Y-113450000D03*
%TO.N,SD_CD*%
X132950000Y-90850000D03*
%TO.N,SD_CLK*%
X137550000Y-90650000D03*
%TO.N,SD_D0*%
X142550000Y-90650000D03*
%TO.N,SD_D1*%
X144550000Y-90450000D03*
%TO.N,+5V*%
X137450000Y-108150000D03*
%TO.N,DM*%
X130350000Y-110150000D03*
%TO.N,DP*%
X130650000Y-105250000D03*
%TO.N,Net-(C6-Pad1)*%
X132350000Y-104350000D03*
%TO.N,+3V3*%
X137850000Y-97450000D03*
%TO.N,Net-(C6-Pad1)*%
X136150000Y-103150000D03*
%TO.N,DP*%
X136150000Y-104050000D03*
%TO.N,DM*%
X136150000Y-104950000D03*
%TO.N,+5V*%
X133350000Y-115750000D03*
X122050000Y-100450000D03*
%TO.N,+3V3*%
X153650000Y-103150000D03*
X118550000Y-106550000D03*
X130250000Y-108350000D03*
X132250000Y-106550000D03*
X137950000Y-101950000D03*
X137950000Y-104450000D03*
X137950000Y-107150000D03*
X120650000Y-111150000D03*
%TO.N,GND*%
X151850000Y-93350000D03*
X135850000Y-96650000D03*
X134850000Y-101350000D03*
X135850000Y-108450000D03*
X122950000Y-111150000D03*
X145550000Y-85350000D03*
X139050000Y-85350000D03*
X130850000Y-85350000D03*
X144050000Y-68950000D03*
X122850000Y-69750000D03*
X156850000Y-90150000D03*
%TO.N,+3V3*%
X162150000Y-101150000D03*
X166350000Y-94850000D03*
X166350000Y-97850000D03*
X166350000Y-100850000D03*
X166350000Y-103850000D03*
X166350000Y-106850000D03*
X166350000Y-109850000D03*
X166350000Y-112850000D03*
X166350000Y-115750000D03*
%TO.N,GND*%
X142150000Y-108850000D03*
X144950000Y-107050000D03*
X144950000Y-101550000D03*
X141650000Y-103950000D03*
X172550000Y-116650000D03*
X172550000Y-113450000D03*
X172550000Y-111050000D03*
X172550000Y-107650000D03*
X172550000Y-104650000D03*
X172550000Y-101550000D03*
X172550000Y-98650000D03*
X172550000Y-95350000D03*
%TO.N,MCU_S*%
X170650000Y-96150000D03*
X170650000Y-99150000D03*
X170650000Y-102150000D03*
X170650000Y-105150000D03*
X170650000Y-108050000D03*
X170650000Y-111150000D03*
X170650000Y-114250000D03*
X170450000Y-117450000D03*
%TD*%
D26*
%TO.N,USB_D3*%
X159750000Y-96150000D02*
X159750000Y-98050000D01*
X160350000Y-95550000D02*
X159750000Y-96150000D01*
X163750000Y-95550000D02*
X160350000Y-95550000D01*
X165050000Y-96850000D02*
X163750000Y-95550000D01*
X167250000Y-96850000D02*
X165050000Y-96850000D01*
X167600000Y-97200000D02*
X167250000Y-96850000D01*
%TO.N,SD_D2*%
X165600000Y-95850000D02*
X167250000Y-95850000D01*
X164200000Y-94450000D02*
X165600000Y-95850000D01*
X161350000Y-94450000D02*
X164200000Y-94450000D01*
X167250000Y-95850000D02*
X167600000Y-95500000D01*
%TO.N,SD_D3*%
X167250000Y-98850000D02*
X167600000Y-98500000D01*
X165550000Y-98850000D02*
X167250000Y-98850000D01*
X163350000Y-96650000D02*
X165550000Y-98850000D01*
X162050000Y-96650000D02*
X163350000Y-96650000D01*
%TO.N,USB_D3*%
X157950000Y-105350000D02*
X157950000Y-104862500D01*
X157150000Y-106150000D02*
X157950000Y-105350000D01*
X152650000Y-106150000D02*
X157150000Y-106150000D01*
X149750000Y-103250000D02*
X152650000Y-106150000D01*
%TO.N,USB_D2*%
X167600000Y-93600000D02*
X167600000Y-94200000D01*
X159450000Y-93250000D02*
X167250000Y-93250000D01*
X158850000Y-93850000D02*
X159450000Y-93250000D01*
X158850000Y-97350000D02*
X158850000Y-93850000D01*
X167250000Y-93250000D02*
X167600000Y-93600000D01*
X158150000Y-98050000D02*
X158850000Y-97350000D01*
X155850000Y-104862500D02*
X154337500Y-104862500D01*
X152862500Y-104862500D02*
X154337500Y-104862500D01*
%TO.N,USB_D0*%
X166950000Y-108550000D02*
X167600000Y-109200000D01*
X163150000Y-108550000D02*
X166950000Y-108550000D01*
%TO.N,USB_D1*%
X166550000Y-111750000D02*
X165050000Y-111750000D01*
X167000000Y-112200000D02*
X166550000Y-111750000D01*
X167600000Y-112200000D02*
X167000000Y-112200000D01*
%TO.N,USB_CD*%
X167350000Y-114950000D02*
X167600000Y-115200000D01*
X164750000Y-114950000D02*
X167350000Y-114950000D01*
X164150000Y-114350000D02*
X164750000Y-114950000D01*
X162950000Y-114350000D02*
X164150000Y-114350000D01*
X149150000Y-110050000D02*
X150050000Y-110950000D01*
D27*
X148175000Y-109075000D02*
X149150000Y-110050000D01*
D26*
X150050000Y-110950000D02*
X157750000Y-110950000D01*
D27*
X147350000Y-109075000D02*
X148175000Y-109075000D01*
D26*
%TO.N,USB_D1*%
X161850000Y-105162500D02*
X162150000Y-104862500D01*
X161850000Y-106000500D02*
X161850000Y-105162500D01*
X156450000Y-109950000D02*
X157450000Y-108950000D01*
X150450000Y-109950000D02*
X154550000Y-109950000D01*
X154550000Y-109950000D02*
X156450000Y-109950000D01*
X149150000Y-108650000D02*
X150450000Y-109950000D01*
D27*
X148925000Y-108425000D02*
X149150000Y-108650000D01*
X147350000Y-108425000D02*
X148925000Y-108425000D01*
D26*
%TO.N,USB_D0*%
X159050000Y-105862500D02*
X160050000Y-104862500D01*
X159050000Y-105950000D02*
X159050000Y-105862500D01*
X150950000Y-108950000D02*
X154950000Y-108950000D01*
X149850000Y-107850000D02*
X150950000Y-108950000D01*
D27*
X149775000Y-107775000D02*
X149850000Y-107850000D01*
X147350000Y-107775000D02*
X149775000Y-107775000D01*
D26*
%TO.N,USB_CMD*%
X167350000Y-99950000D02*
X167600000Y-100200000D01*
X164450000Y-99450000D02*
X164950000Y-99950000D01*
X164950000Y-99950000D02*
X167350000Y-99950000D01*
X161050000Y-99450000D02*
X164450000Y-99450000D01*
X160450000Y-100050000D02*
X161050000Y-99450000D01*
X160450000Y-100650000D02*
X160450000Y-100050000D01*
%TO.N,USB_CLK*%
X167350000Y-105950000D02*
X167600000Y-106200000D01*
X165650000Y-105950000D02*
X167350000Y-105950000D01*
X164850000Y-106750000D02*
X165650000Y-105950000D01*
X157550000Y-107950000D02*
X158750000Y-106750000D01*
X151650000Y-107950000D02*
X157550000Y-107950000D01*
X158750000Y-106750000D02*
X164850000Y-106750000D01*
X149550000Y-105850000D02*
X151650000Y-107950000D01*
D27*
X149525000Y-105825000D02*
X149550000Y-105850000D01*
X147350000Y-105825000D02*
X149525000Y-105825000D01*
D26*
%TO.N,USB_CMD*%
X149750000Y-104550000D02*
X151850000Y-106650000D01*
X151850000Y-106650000D02*
X152250000Y-107050000D01*
X149250000Y-104550000D02*
X149750000Y-104550000D01*
X152250000Y-107050000D02*
X156850000Y-107050000D01*
D27*
X149225000Y-104525000D02*
X149250000Y-104550000D01*
X147350000Y-104525000D02*
X149225000Y-104525000D01*
%TO.N,USB_D3*%
X149725000Y-103225000D02*
X149750000Y-103250000D01*
X147350000Y-103225000D02*
X149725000Y-103225000D01*
D26*
%TO.N,USB_D2*%
X150550000Y-102550000D02*
X152862500Y-104862500D01*
X149550000Y-102550000D02*
X150550000Y-102550000D01*
D27*
X149525000Y-102575000D02*
X149550000Y-102550000D01*
X147350000Y-102575000D02*
X149525000Y-102575000D01*
D26*
%TO.N,USB_VCC*%
X167250000Y-102850000D02*
X167600000Y-103200000D01*
X163850000Y-102850000D02*
X167250000Y-102850000D01*
X152150000Y-95550000D02*
X152250000Y-95450000D01*
X142650000Y-95550000D02*
X152150000Y-95550000D01*
X137850000Y-99250000D02*
X136850000Y-98250000D01*
X137850000Y-100650000D02*
X137850000Y-99650000D01*
X138475000Y-101275000D02*
X137850000Y-100650000D01*
X137850000Y-99650000D02*
X137850000Y-99250000D01*
X139550000Y-101275000D02*
X138475000Y-101275000D01*
%TO.N,SD_D2*%
X153350000Y-86850000D02*
X153450000Y-86750000D01*
X152450000Y-87750000D02*
X153350000Y-86850000D01*
X152450000Y-88050000D02*
X152450000Y-87750000D01*
X150950000Y-91350000D02*
X152450000Y-89850000D01*
X153450000Y-86750000D02*
X160050000Y-86750000D01*
X152450000Y-89850000D02*
X152450000Y-88050000D01*
X147650000Y-94650000D02*
X150950000Y-91350000D01*
X128350000Y-94650000D02*
X132250000Y-94650000D01*
X132250000Y-94650000D02*
X147650000Y-94650000D01*
X160050000Y-86750000D02*
X161350000Y-86750000D01*
X125150000Y-91450000D02*
X128350000Y-94650000D01*
%TO.N,SD_D3*%
X162250000Y-85850000D02*
X162750000Y-86350000D01*
X153650000Y-85850000D02*
X162250000Y-85850000D01*
X152750000Y-85850000D02*
X153650000Y-85850000D01*
X151350000Y-87250000D02*
X152750000Y-85850000D01*
X151350000Y-89550000D02*
X151350000Y-87250000D01*
X149650000Y-91250000D02*
X151350000Y-89550000D01*
X130050000Y-93750000D02*
X133850000Y-93750000D01*
X133850000Y-93750000D02*
X147150000Y-93750000D01*
X127550000Y-91250000D02*
X130050000Y-93750000D01*
X147150000Y-93750000D02*
X149650000Y-91250000D01*
%TO.N,SD_CMD*%
X164350000Y-101950000D02*
X167150000Y-101950000D01*
X163750000Y-101350000D02*
X164350000Y-101950000D01*
X167150000Y-101950000D02*
X167600000Y-101500000D01*
X163250000Y-84950000D02*
X163850000Y-85550000D01*
X152350000Y-84950000D02*
X163250000Y-84950000D01*
X152250000Y-84950000D02*
X152350000Y-84950000D01*
X150250000Y-86950000D02*
X152250000Y-84950000D01*
X150350000Y-87050000D02*
X150250000Y-86950000D01*
X150350000Y-89050000D02*
X150350000Y-87050000D01*
X146550000Y-92850000D02*
X150350000Y-89050000D01*
X138950000Y-92850000D02*
X146550000Y-92850000D01*
X131850000Y-92850000D02*
X138950000Y-92850000D01*
X129950000Y-90950000D02*
X131850000Y-92850000D01*
%TO.N,SD_CD*%
X157650000Y-116750000D02*
X167350000Y-116750000D01*
X167350000Y-116750000D02*
X167600000Y-116500000D01*
%TO.N,SD_VCC*%
X167250000Y-104850000D02*
X167600000Y-104500000D01*
X165150000Y-104850000D02*
X167250000Y-104850000D01*
X163950000Y-83950000D02*
X164850000Y-84850000D01*
X156250000Y-83950000D02*
X163950000Y-83950000D01*
X149350000Y-86450000D02*
X151850000Y-83950000D01*
X149350000Y-88750000D02*
X149350000Y-86450000D01*
X148250000Y-89850000D02*
X149350000Y-88750000D01*
X151850000Y-83950000D02*
X156250000Y-83950000D01*
X146150000Y-91950000D02*
X148250000Y-89850000D01*
X142850000Y-91950000D02*
X146150000Y-91950000D01*
X136150000Y-91950000D02*
X142850000Y-91950000D01*
X134950000Y-90750000D02*
X136150000Y-91950000D01*
%TO.N,SD_CLK*%
X167450000Y-107650000D02*
X167600000Y-107500000D01*
X159250000Y-107650000D02*
X167450000Y-107650000D01*
X158750000Y-108150000D02*
X159250000Y-107650000D01*
X158750000Y-115550000D02*
X158750000Y-108150000D01*
%TO.N,SD_D0*%
X160050000Y-111250000D02*
X160450000Y-110850000D01*
X167250000Y-110850000D02*
X167600000Y-110500000D01*
X160050000Y-114450000D02*
X160050000Y-111250000D01*
X160450000Y-110850000D02*
X167250000Y-110850000D01*
%TO.N,SD_D1*%
X167150000Y-113950000D02*
X167600000Y-113500000D01*
X164650000Y-113450000D02*
X165150000Y-113950000D01*
X165150000Y-113950000D02*
X167150000Y-113950000D01*
X161550000Y-113450000D02*
X164650000Y-113450000D01*
D28*
%TO.N,SD_D2*%
X124081540Y-90381540D02*
X125150000Y-91450000D01*
X124081540Y-88746660D02*
X124081540Y-90381540D01*
%TO.N,SD_D3*%
X126580900Y-90280900D02*
X127550000Y-91250000D01*
X126580900Y-88746660D02*
X126580900Y-90280900D01*
%TO.N,SD_CMD*%
X129080260Y-90080260D02*
X129950000Y-90950000D01*
X129080260Y-88746660D02*
X129080260Y-90080260D01*
%TO.N,SD_CD*%
X132331460Y-90231460D02*
X132950000Y-90850000D01*
X132331460Y-88746660D02*
X132331460Y-90231460D01*
%TO.N,SD_VCC*%
X134078980Y-89878980D02*
X134950000Y-90750000D01*
X134078980Y-88746660D02*
X134078980Y-89878980D01*
%TO.N,SD_CLK*%
X136578340Y-89678340D02*
X137550000Y-90650000D01*
X136578340Y-88746660D02*
X136578340Y-89678340D01*
%TO.N,SD_D0*%
X141498320Y-89598320D02*
X142550000Y-90650000D01*
X141498320Y-88746660D02*
X141498320Y-89598320D01*
%TO.N,SD_D1*%
X143197580Y-89097580D02*
X144550000Y-90450000D01*
X143197580Y-88746660D02*
X143197580Y-89097580D01*
D26*
%TO.N,+5V*%
X139425489Y-107899511D02*
X137700489Y-107899511D01*
X137700489Y-107899511D02*
X137450000Y-108150000D01*
X139550000Y-107775000D02*
X139425489Y-107899511D01*
D28*
%TO.N,GND*%
X134462500Y-108450000D02*
X134450000Y-108437500D01*
X135850000Y-108450000D02*
X134462500Y-108450000D01*
%TO.N,DM*%
X128650000Y-116350000D02*
X128750000Y-116450000D01*
X128650000Y-111850000D02*
X128650000Y-116350000D01*
X130350000Y-110150000D02*
X128650000Y-111850000D01*
%TO.N,DP*%
X130450000Y-105050000D02*
X130650000Y-105250000D01*
X127450000Y-105050000D02*
X130450000Y-105050000D01*
X126450000Y-116437500D02*
X126450000Y-106050000D01*
X126450000Y-106050000D02*
X127450000Y-105050000D01*
D26*
%TO.N,Net-(C6-Pad1)*%
X132350000Y-102937500D02*
X132437500Y-102850000D01*
X132350000Y-104350000D02*
X132350000Y-102937500D01*
%TO.N,Net-(C5-Pad1)*%
X135500000Y-98600000D02*
X132650000Y-98600000D01*
X136250000Y-99350000D02*
X135500000Y-98600000D01*
X136250000Y-102150000D02*
X136250000Y-99350000D01*
D28*
%TO.N,+3V3*%
X137850000Y-96650000D02*
X138362500Y-96137500D01*
X138362500Y-96137500D02*
X139450000Y-96137500D01*
X137850000Y-97450000D02*
X137850000Y-96650000D01*
D26*
%TO.N,Net-(R4-Pad2)*%
X139550000Y-98062500D02*
X139450000Y-97962500D01*
X139550000Y-100625000D02*
X139550000Y-98062500D01*
D27*
%TO.N,Net-(C5-Pad1)*%
X136675000Y-102575000D02*
X136250000Y-102150000D01*
X139550000Y-102575000D02*
X136675000Y-102575000D01*
D26*
%TO.N,Net-(C6-Pad1)*%
X136225000Y-103225000D02*
X136150000Y-103150000D01*
X139550000Y-103225000D02*
X136225000Y-103225000D01*
%TO.N,DP*%
X136550000Y-104050000D02*
X136150000Y-104050000D01*
X136950000Y-104450000D02*
X136550000Y-104050000D01*
D27*
X137675000Y-105175000D02*
X136950000Y-104450000D01*
X139550000Y-105175000D02*
X137675000Y-105175000D01*
%TO.N,DM*%
X136550000Y-104950000D02*
X136150000Y-104950000D01*
X137350000Y-105750000D02*
X136550000Y-104950000D01*
D26*
X137400969Y-105800969D02*
X137350000Y-105750000D01*
X139525969Y-105800969D02*
X137400969Y-105800969D01*
X139550000Y-105825000D02*
X139525969Y-105800969D01*
%TO.N,Net-(R5-Pad2)*%
X138260459Y-106400489D02*
X136112011Y-106400489D01*
X136112011Y-106400489D02*
X136062500Y-106450000D01*
X138334970Y-106475000D02*
X138260459Y-106400489D01*
X139550000Y-106475000D02*
X138334970Y-106475000D01*
%TO.N,Net-(C7-Pad1)*%
X136537500Y-110262500D02*
X134450000Y-110262500D01*
D27*
X138375000Y-108425000D02*
X138250000Y-108550000D01*
X139550000Y-108425000D02*
X138375000Y-108425000D01*
D26*
X138250000Y-108550000D02*
X136537500Y-110262500D01*
D29*
%TO.N,+5V*%
X133350000Y-115750000D02*
X131737500Y-115750000D01*
X131737500Y-115750000D02*
X131050000Y-116437500D01*
D28*
X121125000Y-101375000D02*
X122050000Y-100450000D01*
X121125000Y-102950000D02*
X121125000Y-101375000D01*
D29*
%TO.N,+3V3*%
X153762500Y-103037500D02*
X155850000Y-103037500D01*
X153650000Y-103150000D02*
X153762500Y-103037500D01*
D28*
X119250000Y-107250000D02*
X119250000Y-107375000D01*
X119250000Y-107375000D02*
X120550000Y-108675000D01*
X120550000Y-108675000D02*
X120550000Y-107250000D01*
X121125000Y-109250000D02*
X120550000Y-108675000D01*
X120550000Y-107250000D02*
X121037500Y-107250000D01*
X119250000Y-107250000D02*
X120550000Y-107250000D01*
X121037500Y-107250000D02*
X121137500Y-107150000D01*
X118550000Y-106550000D02*
X119250000Y-107250000D01*
X130337500Y-108437500D02*
X130250000Y-108350000D01*
X132350000Y-108437500D02*
X130337500Y-108437500D01*
X132250000Y-106550000D02*
X132250000Y-108337500D01*
X132250000Y-108337500D02*
X132350000Y-108437500D01*
D26*
X137975000Y-101925000D02*
X137950000Y-101950000D01*
X139550000Y-101925000D02*
X137975000Y-101925000D01*
X138025000Y-104525000D02*
X137950000Y-104450000D01*
X139550000Y-104525000D02*
X138025000Y-104525000D01*
X137975000Y-107125000D02*
X137950000Y-107150000D01*
X139550000Y-107125000D02*
X137975000Y-107125000D01*
D28*
X121125000Y-110675000D02*
X120650000Y-111150000D01*
X121125000Y-109250000D02*
X121125000Y-110675000D01*
D29*
%TO.N,GND*%
X151950000Y-93250000D02*
X151850000Y-93350000D01*
X154150000Y-93250000D02*
X151950000Y-93250000D01*
D28*
X134462500Y-96650000D02*
X134262500Y-96450000D01*
X135850000Y-96650000D02*
X134462500Y-96650000D01*
X134262500Y-101937500D02*
X134850000Y-101350000D01*
X134262500Y-102850000D02*
X134262500Y-101937500D01*
X122950000Y-109250000D02*
X122950000Y-111150000D01*
X146349720Y-86149720D02*
X145550000Y-85350000D01*
X146349720Y-88746660D02*
X146349720Y-86149720D01*
X139077700Y-85377700D02*
X139050000Y-85350000D01*
X139077700Y-88746660D02*
X139077700Y-85377700D01*
X130830320Y-85369680D02*
X130850000Y-85350000D01*
X130830320Y-88746660D02*
X130830320Y-85369680D01*
D29*
X146399600Y-66600400D02*
X144050000Y-68950000D01*
X146939000Y-66600400D02*
X146399600Y-66600400D01*
X120848480Y-67748480D02*
X122850000Y-69750000D01*
X118854220Y-67748480D02*
X120848480Y-67748480D01*
X156850000Y-90150000D02*
X156850000Y-93250000D01*
%TO.N,+3V3*%
X162150000Y-103037500D02*
X162150000Y-101150000D01*
D26*
X167600000Y-94850000D02*
X166350000Y-94850000D01*
X167600000Y-97850000D02*
X166350000Y-97850000D01*
X167600000Y-100850000D02*
X166350000Y-100850000D01*
X167600000Y-103850000D02*
X166350000Y-103850000D01*
X167600000Y-106850000D02*
X166350000Y-106850000D01*
X167600000Y-109850000D02*
X166350000Y-109850000D01*
X167600000Y-112850000D02*
X166350000Y-112850000D01*
D27*
X166450000Y-115850000D02*
X166350000Y-115750000D01*
D26*
X167600000Y-115850000D02*
X166450000Y-115850000D01*
D27*
%TO.N,GND*%
X141575000Y-103875000D02*
X141650000Y-103950000D01*
X139550000Y-103875000D02*
X141575000Y-103875000D01*
D28*
%TO.N,Net-(C5-Pad1)*%
X132650000Y-96662500D02*
X132437500Y-96450000D01*
X132650000Y-98600000D02*
X132650000Y-96662500D01*
%TO.N,Net-(C6-Pad1)*%
X132437500Y-100912500D02*
X132650000Y-100700000D01*
X132437500Y-102850000D02*
X132437500Y-100912500D01*
%TO.N,GND*%
X134237500Y-102875000D02*
X134262500Y-102850000D01*
X134237500Y-106450000D02*
X134237500Y-102875000D01*
X134450000Y-106662500D02*
X134237500Y-106450000D01*
X134450000Y-108437500D02*
X134450000Y-106662500D01*
%TO.N,Net-(C7-Pad1)*%
X132350000Y-110262500D02*
X134450000Y-110262500D01*
%TO.N,Net-(J1-Pad3)*%
X126424780Y-118287720D02*
X126450000Y-118262500D01*
X126424780Y-123271330D02*
X126424780Y-118287720D01*
%TO.N,Net-(J1-Pad2)*%
X128675220Y-123271330D02*
X128675220Y-118349780D01*
X128675220Y-118349780D02*
X128750000Y-118275000D01*
%TO.N,Net-(J1-Pad1)*%
X131050000Y-123268910D02*
X131047580Y-123271330D01*
X131050000Y-118262500D02*
X131050000Y-123268910D01*
%TO.N,+3V3*%
X121137500Y-109237500D02*
X121125000Y-109250000D01*
X121137500Y-107150000D02*
X121137500Y-109237500D01*
%TO.N,+5V*%
X121137500Y-102962500D02*
X121125000Y-102950000D01*
X121137500Y-105050000D02*
X121137500Y-102962500D01*
%TO.N,GND*%
X122950000Y-105062500D02*
X122962500Y-105050000D01*
X122950000Y-109250000D02*
X122950000Y-105062500D01*
X122950000Y-105037500D02*
X122962500Y-105050000D01*
X122950000Y-102950000D02*
X122950000Y-105037500D01*
%TO.N,Net-(D2-Pad2)*%
X156850000Y-100250000D02*
X156850000Y-96050000D01*
X156250000Y-100850000D02*
X156850000Y-100250000D01*
X153162500Y-100850000D02*
X156250000Y-100850000D01*
%TO.N,Net-(R7-Pad1)*%
X149050000Y-101250000D02*
X149450000Y-100850000D01*
D26*
X149025000Y-101275000D02*
X149050000Y-101250000D01*
X147350000Y-101275000D02*
X149025000Y-101275000D01*
D28*
X149450000Y-100850000D02*
X151337500Y-100850000D01*
D26*
%TO.N,Net-(R6-Pad1)*%
X147450000Y-100150000D02*
X147350000Y-100250000D01*
X147350000Y-100250000D02*
X147350000Y-100625000D01*
D28*
X148850000Y-98750000D02*
X147450000Y-100150000D01*
X151337500Y-98750000D02*
X148850000Y-98750000D01*
%TO.N,Net-(D1-Pad2)*%
X153162500Y-97037500D02*
X154150000Y-96050000D01*
X153162500Y-98750000D02*
X153162500Y-97037500D01*
D29*
%TO.N,GND*%
X154150000Y-93250000D02*
X156850000Y-93250000D01*
%TO.N,+3V3*%
X162150000Y-103037500D02*
X155850000Y-103037500D01*
D26*
%TO.N,GND*%
X170874022Y-116650000D02*
X172550000Y-116650000D01*
X170074022Y-115850000D02*
X170874022Y-116650000D01*
X169500000Y-115850000D02*
X170074022Y-115850000D01*
X170950000Y-113450000D02*
X172550000Y-113450000D01*
X170650000Y-113150000D02*
X170950000Y-113450000D01*
X170350000Y-112850000D02*
X170650000Y-113150000D01*
X169500000Y-112850000D02*
X170350000Y-112850000D01*
X171750000Y-110250000D02*
X172550000Y-111050000D01*
X170750000Y-110250000D02*
X171050000Y-110250000D01*
X171050000Y-110250000D02*
X171750000Y-110250000D01*
X170350000Y-109850000D02*
X170750000Y-110250000D01*
X169500000Y-109850000D02*
X170350000Y-109850000D01*
X171450000Y-107650000D02*
X172550000Y-107650000D01*
X170950000Y-107150000D02*
X171450000Y-107650000D01*
X170650000Y-106850000D02*
X170950000Y-107150000D01*
X169500000Y-106850000D02*
X170650000Y-106850000D01*
X171350000Y-104650000D02*
X172550000Y-104650000D01*
X171050000Y-104350000D02*
X171350000Y-104650000D01*
X169500000Y-103850000D02*
X170550000Y-103850000D01*
X170550000Y-103850000D02*
X171050000Y-104350000D01*
X171250000Y-101550000D02*
X172550000Y-101550000D01*
X170750000Y-101050000D02*
X171250000Y-101550000D01*
X170550000Y-100850000D02*
X170750000Y-101050000D01*
X169500000Y-100850000D02*
X170550000Y-100850000D01*
X171250000Y-98650000D02*
X172550000Y-98650000D01*
X170850000Y-98250000D02*
X171250000Y-98650000D01*
X169500000Y-97850000D02*
X170450000Y-97850000D01*
X170450000Y-97850000D02*
X170850000Y-98250000D01*
X170850000Y-95350000D02*
X172550000Y-95350000D01*
X170550000Y-95050000D02*
X170850000Y-95350000D01*
X170350000Y-94850000D02*
X170550000Y-95050000D01*
X169500000Y-94850000D02*
X170350000Y-94850000D01*
%TO.N,MCU_S*%
X170000000Y-95500000D02*
X170650000Y-96150000D01*
X169500000Y-95500000D02*
X170000000Y-95500000D01*
X170000000Y-98500000D02*
X170650000Y-99150000D01*
X169500000Y-98500000D02*
X170000000Y-98500000D01*
X170000000Y-101500000D02*
X170650000Y-102150000D01*
X169500000Y-101500000D02*
X170000000Y-101500000D01*
X170000000Y-104500000D02*
X170650000Y-105150000D01*
X169500000Y-104500000D02*
X170000000Y-104500000D01*
X170100000Y-107500000D02*
X170650000Y-108050000D01*
X169500000Y-107500000D02*
X170100000Y-107500000D01*
X170000000Y-110500000D02*
X170650000Y-111150000D01*
X169500000Y-110500000D02*
X170000000Y-110500000D01*
X169900000Y-113500000D02*
X170650000Y-114250000D01*
X169500000Y-113500000D02*
X169900000Y-113500000D01*
X169500000Y-116500000D02*
X170450000Y-117450000D01*
%TO.N,CAMERA_CD*%
X171100000Y-115200000D02*
X169500000Y-115200000D01*
D28*
X172950000Y-115250000D02*
X171150000Y-115250000D01*
D26*
X171150000Y-115250000D02*
X171100000Y-115200000D01*
D28*
X173220000Y-115520000D02*
X172950000Y-115250000D01*
X175762572Y-115520000D02*
X173220000Y-115520000D01*
D26*
%TO.N,CAMERA_D1*%
X171050000Y-112250000D02*
X171000000Y-112200000D01*
D28*
X173050000Y-112250000D02*
X171050000Y-112250000D01*
X175762572Y-112980000D02*
X173780000Y-112980000D01*
X173780000Y-112980000D02*
X173050000Y-112250000D01*
D26*
X171000000Y-112200000D02*
X169500000Y-112200000D01*
%TO.N,CAMERA_D0*%
X170900000Y-109200000D02*
X169500000Y-109200000D01*
X170950000Y-109150000D02*
X170900000Y-109200000D01*
D28*
X172450000Y-109250000D02*
X172350000Y-109150000D01*
X173640000Y-110440000D02*
X172450000Y-109250000D01*
X172350000Y-109150000D02*
X170950000Y-109150000D01*
X175762572Y-110440000D02*
X173640000Y-110440000D01*
D26*
%TO.N,CAMERA_CLK*%
X171450000Y-106150000D02*
X171400000Y-106200000D01*
D28*
X173150000Y-106150000D02*
X171450000Y-106150000D01*
X173940000Y-105360000D02*
X173150000Y-106150000D01*
D26*
X171400000Y-106200000D02*
X169500000Y-106200000D01*
D28*
X175762572Y-105360000D02*
X173940000Y-105360000D01*
D26*
%TO.N,CAMERA_VCC*%
X171400000Y-103200000D02*
X169500000Y-103200000D01*
D28*
X172650000Y-103150000D02*
X171450000Y-103150000D01*
X175762572Y-102820000D02*
X172980000Y-102820000D01*
X172980000Y-102820000D02*
X172650000Y-103150000D01*
D26*
X171450000Y-103150000D02*
X171400000Y-103200000D01*
%TO.N,CAMERA_CMD*%
X171250000Y-100150000D02*
X171200000Y-100200000D01*
D28*
X173850000Y-100150000D02*
X171250000Y-100150000D01*
X175762572Y-100280000D02*
X173980000Y-100280000D01*
X173980000Y-100280000D02*
X173850000Y-100150000D01*
D26*
X171200000Y-100200000D02*
X169500000Y-100200000D01*
%TO.N,CAMERA_D3*%
X171200000Y-97200000D02*
X169500000Y-97200000D01*
D28*
X173840000Y-97740000D02*
X173350000Y-97250000D01*
D26*
X171250000Y-97150000D02*
X171200000Y-97200000D01*
D28*
X173250000Y-97150000D02*
X171250000Y-97150000D01*
X173350000Y-97250000D02*
X173250000Y-97150000D01*
X175762572Y-97740000D02*
X173840000Y-97740000D01*
%TO.N,CAMERA_D2*%
X173350000Y-94150000D02*
X171050000Y-94150000D01*
D26*
X171000000Y-94200000D02*
X169500000Y-94200000D01*
D28*
X173450000Y-94250000D02*
X173350000Y-94150000D01*
X174400000Y-95200000D02*
X173450000Y-94250000D01*
X175762572Y-95200000D02*
X174400000Y-95200000D01*
D26*
X171050000Y-94150000D02*
X171000000Y-94200000D01*
%TD*%
%TA.AperFunction,Conductor*%
%TO.N,GND*%
G36*
X179587156Y-59651838D02*
G01*
X179633649Y-59705494D01*
X179645035Y-59757836D01*
X179645035Y-127505836D01*
X179625033Y-127573957D01*
X179571377Y-127620450D01*
X179519035Y-127631836D01*
X134639592Y-127631836D01*
X134571471Y-127611834D01*
X134524978Y-127558178D01*
X134514874Y-127487904D01*
X134544368Y-127423324D01*
X134561845Y-127406682D01*
X134640275Y-127345185D01*
X134648743Y-127333329D01*
X134642226Y-127321706D01*
X133361632Y-126041112D01*
X133347688Y-126033498D01*
X133345855Y-126033629D01*
X133339240Y-126037880D01*
X132055186Y-127321934D01*
X132047894Y-127335288D01*
X132054949Y-127345261D01*
X132098971Y-127382069D01*
X132105898Y-127387102D01*
X132125023Y-127399099D01*
X132172100Y-127452243D01*
X132182972Y-127522402D01*
X132154188Y-127587302D01*
X132094885Y-127626336D01*
X132058066Y-127631836D01*
X123041952Y-127631836D01*
X122973831Y-127611834D01*
X122927338Y-127558178D01*
X122917234Y-127487904D01*
X122946728Y-127423324D01*
X122964205Y-127406682D01*
X123042635Y-127345185D01*
X123051103Y-127333329D01*
X123044586Y-127321706D01*
X121763992Y-126041112D01*
X121750048Y-126033498D01*
X121748215Y-126033629D01*
X121741600Y-126037880D01*
X120457546Y-127321934D01*
X120450254Y-127335288D01*
X120457309Y-127345261D01*
X120501331Y-127382069D01*
X120508258Y-127387102D01*
X120527383Y-127399099D01*
X120574460Y-127452243D01*
X120585332Y-127522402D01*
X120556548Y-127587302D01*
X120497245Y-127626336D01*
X120460426Y-127631836D01*
X115771035Y-127631836D01*
X115702914Y-127611834D01*
X115656421Y-127558178D01*
X115645035Y-127505836D01*
X115645035Y-125651162D01*
X119630779Y-125651162D01*
X119646892Y-125930604D01*
X119647965Y-125939105D01*
X119701854Y-126213777D01*
X119704067Y-126222039D01*
X119794737Y-126486863D01*
X119798053Y-126494750D01*
X119923822Y-126744816D01*
X119928179Y-126752182D01*
X120072988Y-126962880D01*
X120083241Y-126971224D01*
X120096982Y-126964078D01*
X121379158Y-125681902D01*
X121385536Y-125670222D01*
X122115588Y-125670222D01*
X122115719Y-125672055D01*
X122119970Y-125678670D01*
X123404038Y-126962738D01*
X123416248Y-126969405D01*
X123427747Y-126960716D01*
X123539262Y-126808907D01*
X123543846Y-126801684D01*
X123677405Y-126555699D01*
X123680973Y-126547905D01*
X123779913Y-126286070D01*
X123782386Y-126277879D01*
X123844877Y-126005031D01*
X123846215Y-125996577D01*
X123871259Y-125715968D01*
X123871505Y-125711031D01*
X123871918Y-125671575D01*
X123871775Y-125666609D01*
X123852614Y-125385546D01*
X123851453Y-125377072D01*
X123794691Y-125102981D01*
X123792388Y-125094732D01*
X123714554Y-124874935D01*
X123710670Y-124804044D01*
X123745728Y-124742308D01*
X123808599Y-124709325D01*
X123858449Y-124709405D01*
X123875334Y-124712841D01*
X123885583Y-124714063D01*
X124113158Y-124722407D01*
X124123444Y-124721940D01*
X124349335Y-124693003D01*
X124359421Y-124690860D01*
X124577548Y-124625418D01*
X124587143Y-124621658D01*
X124791657Y-124521467D01*
X124800503Y-124516193D01*
X124866051Y-124469438D01*
X124874452Y-124458738D01*
X124867465Y-124445586D01*
X124065231Y-123643351D01*
X124051288Y-123635738D01*
X124049454Y-123635869D01*
X124042840Y-123640120D01*
X123419732Y-124263228D01*
X123412118Y-124277172D01*
X123414033Y-124303946D01*
X123398942Y-124373320D01*
X123377449Y-124402031D01*
X122123202Y-125656278D01*
X122115588Y-125670222D01*
X121385536Y-125670222D01*
X121386772Y-125667958D01*
X121386641Y-125666125D01*
X121382390Y-125659510D01*
X120097737Y-124374857D01*
X120085727Y-124368299D01*
X120073987Y-124377267D01*
X119951264Y-124548054D01*
X119946752Y-124555330D01*
X119815771Y-124802711D01*
X119812292Y-124810525D01*
X119716099Y-125073385D01*
X119713710Y-125081608D01*
X119654080Y-125355096D01*
X119652831Y-125363552D01*
X119630868Y-125642612D01*
X119630779Y-125651162D01*
X115645035Y-125651162D01*
X115645035Y-124004886D01*
X120451059Y-124004886D01*
X120457455Y-124016155D01*
X121738368Y-125297068D01*
X121752312Y-125304682D01*
X121754145Y-125304551D01*
X121760760Y-125300300D01*
X122856230Y-124204830D01*
X122863844Y-124190886D01*
X122861929Y-124164112D01*
X122877020Y-124094738D01*
X122898513Y-124066026D01*
X123680399Y-123284141D01*
X123688012Y-123270198D01*
X123687881Y-123268364D01*
X123683630Y-123261750D01*
X122877640Y-122455761D01*
X122866108Y-122449464D01*
X122853826Y-122459087D01*
X122792167Y-122549476D01*
X122787074Y-122558440D01*
X122691188Y-122765009D01*
X122687631Y-122774677D01*
X122626772Y-122994127D01*
X122624841Y-123004246D01*
X122600641Y-123230703D01*
X122600389Y-123240992D01*
X122613498Y-123468347D01*
X122614934Y-123478564D01*
X122625247Y-123524324D01*
X122620711Y-123595176D01*
X122578590Y-123652328D01*
X122512257Y-123677634D01*
X122467811Y-123673205D01*
X122196242Y-123595847D01*
X122187864Y-123594065D01*
X121910752Y-123554626D01*
X121902205Y-123553999D01*
X121622303Y-123552533D01*
X121613768Y-123553070D01*
X121336251Y-123589606D01*
X121327853Y-123591299D01*
X121057876Y-123665157D01*
X121049781Y-123667976D01*
X120792315Y-123777794D01*
X120784693Y-123781678D01*
X120544516Y-123925421D01*
X120537478Y-123930312D01*
X120459529Y-123992761D01*
X120451059Y-124004886D01*
X115645035Y-124004886D01*
X115645035Y-122083615D01*
X123229501Y-122083615D01*
X123236245Y-122095944D01*
X124039609Y-122899309D01*
X124053552Y-122906922D01*
X124055386Y-122906791D01*
X124062000Y-122902540D01*
X124869751Y-122094788D01*
X124876768Y-122081937D01*
X124868994Y-122071267D01*
X124860424Y-122064499D01*
X124851837Y-122058794D01*
X124652475Y-121948740D01*
X124643063Y-121944510D01*
X124428391Y-121868490D01*
X124418434Y-121865860D01*
X124194225Y-121825921D01*
X124183974Y-121824952D01*
X123956250Y-121822170D01*
X123945966Y-121822890D01*
X123720857Y-121857336D01*
X123710830Y-121859725D01*
X123494371Y-121930474D01*
X123484862Y-121934471D01*
X123282871Y-122039622D01*
X123274136Y-122045123D01*
X123237955Y-122072288D01*
X123229501Y-122083615D01*
X115645035Y-122083615D01*
X115645035Y-106539388D01*
X117536676Y-106539388D01*
X117553913Y-106736413D01*
X117555632Y-106742330D01*
X117555633Y-106742335D01*
X117585237Y-106844232D01*
X117609091Y-106926336D01*
X117700108Y-107101926D01*
X117703948Y-107106736D01*
X117794542Y-107220223D01*
X117794549Y-107220230D01*
X117796738Y-107222973D01*
X118281209Y-107707444D01*
X118308268Y-107748504D01*
X118309091Y-107751336D01*
X118311544Y-107756068D01*
X118313084Y-107761169D01*
X118315978Y-107766612D01*
X118356731Y-107843260D01*
X118357343Y-107844426D01*
X118394225Y-107915576D01*
X118400108Y-107926926D01*
X118403431Y-107931089D01*
X118405934Y-107935796D01*
X118464755Y-108007918D01*
X118465446Y-108008774D01*
X118496738Y-108047973D01*
X118499242Y-108050477D01*
X118499884Y-108051195D01*
X118503585Y-108055528D01*
X118530935Y-108089062D01*
X118535682Y-108092989D01*
X118535684Y-108092991D01*
X118566262Y-108118287D01*
X118575042Y-108126277D01*
X119795931Y-109347165D01*
X119804479Y-109356624D01*
X119830935Y-109389062D01*
X119858056Y-109411498D01*
X119866258Y-109418283D01*
X119875040Y-109426274D01*
X120067096Y-109618331D01*
X120101121Y-109680643D01*
X120104000Y-109707426D01*
X120104000Y-109750400D01*
X120104337Y-109753646D01*
X120104337Y-109753650D01*
X120114974Y-109856166D01*
X120114693Y-109856195D01*
X120116500Y-109873120D01*
X120116500Y-110205076D01*
X120096498Y-110273197D01*
X120079595Y-110294171D01*
X119901691Y-110472075D01*
X119807897Y-110586261D01*
X119714438Y-110760563D01*
X119699227Y-110810316D01*
X119660099Y-110938297D01*
X119656613Y-110949698D01*
X119655657Y-110959107D01*
X119637543Y-111137438D01*
X119636626Y-111146462D01*
X119645349Y-111238739D01*
X119652964Y-111319292D01*
X119655239Y-111343362D01*
X119662801Y-111368728D01*
X119708360Y-111521553D01*
X119711741Y-111532896D01*
X119803982Y-111707846D01*
X119807858Y-111712632D01*
X119807859Y-111712634D01*
X119855418Y-111771364D01*
X119928447Y-111861547D01*
X119933182Y-111865492D01*
X120044723Y-111958424D01*
X120080396Y-111988146D01*
X120254041Y-112082822D01*
X120348405Y-112112394D01*
X120436886Y-112140122D01*
X120436889Y-112140123D01*
X120442768Y-112141965D01*
X120448891Y-112142630D01*
X120448895Y-112142631D01*
X120633263Y-112162659D01*
X120633267Y-112162659D01*
X120639388Y-112163324D01*
X120836413Y-112146087D01*
X120842330Y-112144368D01*
X120842335Y-112144367D01*
X120973064Y-112106386D01*
X121026336Y-112090909D01*
X121201926Y-111999892D01*
X121251103Y-111960635D01*
X121320223Y-111905458D01*
X121320230Y-111905451D01*
X121322973Y-111903262D01*
X121794384Y-111431851D01*
X121804527Y-111422749D01*
X121829218Y-111402897D01*
X121834025Y-111399032D01*
X121866312Y-111360554D01*
X121869467Y-111356938D01*
X121871123Y-111355112D01*
X121873309Y-111352926D01*
X121875264Y-111350546D01*
X121875273Y-111350536D01*
X121900576Y-111319732D01*
X121901418Y-111318717D01*
X121939579Y-111273238D01*
X121961154Y-111247526D01*
X121963723Y-111242852D01*
X121967102Y-111238739D01*
X121979079Y-111216403D01*
X122004995Y-111168069D01*
X122010975Y-111156915D01*
X122011584Y-111155793D01*
X122016816Y-111146277D01*
X122046025Y-111093145D01*
X122053464Y-111079614D01*
X122053465Y-111079612D01*
X122056433Y-111074213D01*
X122058045Y-111069131D01*
X122060562Y-111064437D01*
X122087762Y-110975469D01*
X122088108Y-110974358D01*
X122094632Y-110953794D01*
X122116235Y-110885694D01*
X122116829Y-110880398D01*
X122118387Y-110875302D01*
X122127787Y-110782768D01*
X122127924Y-110781480D01*
X122130271Y-110760563D01*
X122133500Y-110731773D01*
X122133500Y-110728247D01*
X122133555Y-110727262D01*
X122134002Y-110721581D01*
X122138374Y-110678538D01*
X122134059Y-110632891D01*
X122133500Y-110621033D01*
X122133500Y-110474657D01*
X122153502Y-110406536D01*
X122207158Y-110360043D01*
X122277432Y-110349939D01*
X122325615Y-110367397D01*
X122358738Y-110387814D01*
X122371924Y-110393963D01*
X122526210Y-110445138D01*
X122539586Y-110448005D01*
X122633938Y-110457672D01*
X122640354Y-110458000D01*
X122677885Y-110458000D01*
X122693124Y-110453525D01*
X122694329Y-110452135D01*
X122696000Y-110444452D01*
X122696000Y-110439884D01*
X123204000Y-110439884D01*
X123208475Y-110455123D01*
X123209865Y-110456328D01*
X123217548Y-110457999D01*
X123259595Y-110457999D01*
X123266114Y-110457662D01*
X123361706Y-110447743D01*
X123375100Y-110444851D01*
X123529284Y-110393412D01*
X123542462Y-110387239D01*
X123680307Y-110301937D01*
X123691708Y-110292901D01*
X123806239Y-110178171D01*
X123815251Y-110166760D01*
X123900316Y-110028757D01*
X123906463Y-110015576D01*
X123957638Y-109861290D01*
X123960505Y-109847914D01*
X123970172Y-109753562D01*
X123970500Y-109747146D01*
X123970500Y-109522115D01*
X123966025Y-109506876D01*
X123964635Y-109505671D01*
X123956952Y-109504000D01*
X123222115Y-109504000D01*
X123206876Y-109508475D01*
X123205671Y-109509865D01*
X123204000Y-109517548D01*
X123204000Y-110439884D01*
X122696000Y-110439884D01*
X122696000Y-108977885D01*
X123204000Y-108977885D01*
X123208475Y-108993124D01*
X123209865Y-108994329D01*
X123217548Y-108996000D01*
X123952384Y-108996000D01*
X123967623Y-108991525D01*
X123968828Y-108990135D01*
X123970499Y-108982452D01*
X123970499Y-108752905D01*
X123970162Y-108746386D01*
X123960243Y-108650794D01*
X123957351Y-108637400D01*
X123905912Y-108483216D01*
X123899739Y-108470038D01*
X123814437Y-108332193D01*
X123805401Y-108320792D01*
X123779945Y-108295381D01*
X123745865Y-108233099D01*
X123750868Y-108162279D01*
X123779789Y-108117189D01*
X123818739Y-108078171D01*
X123827751Y-108066760D01*
X123912816Y-107928757D01*
X123918963Y-107915576D01*
X123970138Y-107761290D01*
X123973005Y-107747914D01*
X123982672Y-107653562D01*
X123983000Y-107647146D01*
X123983000Y-107422115D01*
X123978525Y-107406876D01*
X123977135Y-107405671D01*
X123969452Y-107404000D01*
X123234615Y-107404000D01*
X123219376Y-107408475D01*
X123218171Y-107409865D01*
X123216500Y-107417548D01*
X123216500Y-108344372D01*
X123208513Y-108371572D01*
X123212507Y-108372441D01*
X123204000Y-108411548D01*
X123204000Y-108977885D01*
X122696000Y-108977885D01*
X122696000Y-108055628D01*
X122703987Y-108028428D01*
X122699993Y-108027559D01*
X122708500Y-107988452D01*
X122708500Y-106877885D01*
X123216500Y-106877885D01*
X123220975Y-106893124D01*
X123222365Y-106894329D01*
X123230048Y-106896000D01*
X123964884Y-106896000D01*
X123980123Y-106891525D01*
X123981328Y-106890135D01*
X123982999Y-106882452D01*
X123982999Y-106652905D01*
X123982662Y-106646386D01*
X123972743Y-106550794D01*
X123969851Y-106537400D01*
X123918412Y-106383216D01*
X123912239Y-106370038D01*
X123826937Y-106232193D01*
X123817901Y-106220792D01*
X123786183Y-106189129D01*
X123752104Y-106126846D01*
X123757107Y-106056026D01*
X123786029Y-106010937D01*
X123818739Y-105978171D01*
X123827751Y-105966760D01*
X123912816Y-105828757D01*
X123918963Y-105815576D01*
X123970138Y-105661290D01*
X123973005Y-105647914D01*
X123982672Y-105553562D01*
X123983000Y-105547146D01*
X123983000Y-105322115D01*
X123978525Y-105306876D01*
X123977135Y-105305671D01*
X123969452Y-105304000D01*
X123234615Y-105304000D01*
X123219376Y-105308475D01*
X123218171Y-105309865D01*
X123216500Y-105317548D01*
X123216500Y-106877885D01*
X122708500Y-106877885D01*
X122708500Y-104216115D01*
X122701104Y-104190927D01*
X122696000Y-104155429D01*
X122696000Y-103783885D01*
X123204000Y-103783885D01*
X123211396Y-103809073D01*
X123216500Y-103844571D01*
X123216500Y-104777885D01*
X123220975Y-104793124D01*
X123222365Y-104794329D01*
X123230048Y-104796000D01*
X123964884Y-104796000D01*
X123980123Y-104791525D01*
X123981328Y-104790135D01*
X123982999Y-104782452D01*
X123982999Y-104552905D01*
X123982662Y-104546386D01*
X123972743Y-104450794D01*
X123969851Y-104437400D01*
X123918412Y-104283216D01*
X123912239Y-104270038D01*
X123826937Y-104132193D01*
X123817900Y-104120791D01*
X123779922Y-104082878D01*
X123745844Y-104020595D01*
X123750848Y-103949775D01*
X123779768Y-103904688D01*
X123806239Y-103878171D01*
X123815251Y-103866760D01*
X123900316Y-103728757D01*
X123906463Y-103715576D01*
X123957638Y-103561290D01*
X123960505Y-103547914D01*
X123970172Y-103453562D01*
X123970500Y-103447146D01*
X123970500Y-103222115D01*
X123966025Y-103206876D01*
X123964635Y-103205671D01*
X123956952Y-103204000D01*
X123222115Y-103204000D01*
X123206876Y-103208475D01*
X123205671Y-103209865D01*
X123204000Y-103217548D01*
X123204000Y-103783885D01*
X122696000Y-103783885D01*
X122696000Y-102677885D01*
X123204000Y-102677885D01*
X123208475Y-102693124D01*
X123209865Y-102694329D01*
X123217548Y-102696000D01*
X123952384Y-102696000D01*
X123967623Y-102691525D01*
X123968828Y-102690135D01*
X123970499Y-102682452D01*
X123970499Y-102452905D01*
X123970162Y-102446386D01*
X123960243Y-102350794D01*
X123957351Y-102337400D01*
X123905912Y-102183216D01*
X123899739Y-102170038D01*
X123814437Y-102032193D01*
X123805401Y-102020792D01*
X123690671Y-101906261D01*
X123679260Y-101897249D01*
X123541257Y-101812184D01*
X123528076Y-101806037D01*
X123373790Y-101754862D01*
X123360414Y-101751995D01*
X123266062Y-101742328D01*
X123259645Y-101742000D01*
X123222115Y-101742000D01*
X123206876Y-101746475D01*
X123205671Y-101747865D01*
X123204000Y-101755548D01*
X123204000Y-102677885D01*
X122696000Y-102677885D01*
X122696000Y-101760116D01*
X122691525Y-101744877D01*
X122690135Y-101743672D01*
X122682452Y-101742001D01*
X122640405Y-101742001D01*
X122633886Y-101742338D01*
X122538294Y-101752257D01*
X122524897Y-101755150D01*
X122500553Y-101763271D01*
X122429603Y-101765855D01*
X122368520Y-101729671D01*
X122336696Y-101666206D01*
X122344235Y-101595611D01*
X122371583Y-101554652D01*
X122798310Y-101127925D01*
X122892103Y-101013738D01*
X122895010Y-101008316D01*
X122895013Y-101008312D01*
X122982651Y-100844868D01*
X122982651Y-100844867D01*
X122985563Y-100839437D01*
X123043388Y-100650302D01*
X123049987Y-100585333D01*
X123062752Y-100459665D01*
X123062752Y-100459661D01*
X123063374Y-100453537D01*
X123048013Y-100291030D01*
X123045342Y-100262770D01*
X123045341Y-100262766D01*
X123044762Y-100256638D01*
X123042011Y-100247407D01*
X122990020Y-100073006D01*
X122990019Y-100073004D01*
X122988260Y-100067103D01*
X122896018Y-99892153D01*
X122889984Y-99884701D01*
X122775432Y-99743242D01*
X122775431Y-99743241D01*
X122771553Y-99738452D01*
X122619605Y-99611853D01*
X122445960Y-99517178D01*
X122257232Y-99458035D01*
X122251109Y-99457370D01*
X122251105Y-99457369D01*
X122066737Y-99437340D01*
X122066733Y-99437340D01*
X122060612Y-99436675D01*
X121863587Y-99453912D01*
X121769729Y-99481181D01*
X121679579Y-99507372D01*
X121679574Y-99507374D01*
X121673664Y-99509091D01*
X121498074Y-99600108D01*
X121493255Y-99603955D01*
X121385985Y-99689588D01*
X121377028Y-99696738D01*
X120455621Y-100618145D01*
X120445478Y-100627247D01*
X120424479Y-100644131D01*
X120415975Y-100650968D01*
X120399054Y-100671134D01*
X120383709Y-100689421D01*
X120380528Y-100693069D01*
X120378885Y-100694881D01*
X120376691Y-100697075D01*
X120349358Y-100730349D01*
X120348696Y-100731147D01*
X120288846Y-100802474D01*
X120286278Y-100807144D01*
X120282897Y-100811261D01*
X120251860Y-100869145D01*
X120239023Y-100893086D01*
X120238394Y-100894245D01*
X120196538Y-100970381D01*
X120196535Y-100970389D01*
X120193567Y-100975787D01*
X120191955Y-100980869D01*
X120189438Y-100985563D01*
X120162238Y-101074531D01*
X120161918Y-101075559D01*
X120133765Y-101164306D01*
X120133171Y-101169602D01*
X120131613Y-101174698D01*
X120122944Y-101260043D01*
X120122218Y-101267187D01*
X120122089Y-101268393D01*
X120116500Y-101318227D01*
X120116500Y-101321754D01*
X120116445Y-101322739D01*
X120115998Y-101328419D01*
X120111626Y-101371462D01*
X120114252Y-101399242D01*
X120115941Y-101417109D01*
X120116500Y-101428967D01*
X120116500Y-102326973D01*
X120114576Y-102345126D01*
X120114703Y-102345139D01*
X120104000Y-102449600D01*
X120104000Y-103450400D01*
X120104337Y-103453646D01*
X120104337Y-103453650D01*
X120114118Y-103547914D01*
X120114974Y-103556166D01*
X120117155Y-103562702D01*
X120117155Y-103562704D01*
X120122524Y-103578796D01*
X120129000Y-103618672D01*
X120129000Y-104426973D01*
X120127076Y-104445126D01*
X120127203Y-104445139D01*
X120116500Y-104549600D01*
X120116500Y-105550400D01*
X120116837Y-105553646D01*
X120116837Y-105553650D01*
X120126634Y-105648069D01*
X120127474Y-105656166D01*
X120129655Y-105662702D01*
X120129655Y-105662704D01*
X120145391Y-105709870D01*
X120183450Y-105823946D01*
X120276522Y-105974348D01*
X120281704Y-105979521D01*
X120281708Y-105979526D01*
X120313108Y-106010871D01*
X120347188Y-106073153D01*
X120342185Y-106143973D01*
X120313264Y-106189062D01*
X120297835Y-106204518D01*
X120235553Y-106238597D01*
X120208662Y-106241500D01*
X119719924Y-106241500D01*
X119651803Y-106221498D01*
X119630829Y-106204595D01*
X119227925Y-105801691D01*
X119113739Y-105707897D01*
X118991402Y-105642301D01*
X118944870Y-105617351D01*
X118944869Y-105617351D01*
X118939437Y-105614438D01*
X118787828Y-105568086D01*
X118756200Y-105558416D01*
X118756198Y-105558416D01*
X118750302Y-105556613D01*
X118689138Y-105550400D01*
X118559666Y-105537248D01*
X118559661Y-105537248D01*
X118553538Y-105536626D01*
X118442378Y-105547134D01*
X118362771Y-105554659D01*
X118362769Y-105554659D01*
X118356638Y-105555239D01*
X118298633Y-105572531D01*
X118173007Y-105609981D01*
X118173005Y-105609982D01*
X118167104Y-105611741D01*
X117992154Y-105703982D01*
X117987368Y-105707858D01*
X117987366Y-105707859D01*
X117852591Y-105816998D01*
X117838453Y-105828447D01*
X117832212Y-105835938D01*
X117717764Y-105973303D01*
X117711854Y-105980396D01*
X117617178Y-106154041D01*
X117594737Y-106225652D01*
X117582605Y-106264366D01*
X117558035Y-106342768D01*
X117557370Y-106348891D01*
X117557369Y-106348895D01*
X117538790Y-106519926D01*
X117536676Y-106539388D01*
X115645035Y-106539388D01*
X115645035Y-90370928D01*
X123068216Y-90370928D01*
X123068753Y-90377063D01*
X123072590Y-90420928D01*
X123072919Y-90425754D01*
X123073040Y-90428226D01*
X123073040Y-90431309D01*
X123073341Y-90434377D01*
X123077230Y-90474046D01*
X123077352Y-90475359D01*
X123085453Y-90567953D01*
X123086940Y-90573072D01*
X123087460Y-90578373D01*
X123114331Y-90667374D01*
X123114666Y-90668507D01*
X123123735Y-90699720D01*
X123140631Y-90757876D01*
X123143084Y-90762608D01*
X123144624Y-90767709D01*
X123147518Y-90773152D01*
X123188271Y-90849800D01*
X123188883Y-90850966D01*
X123218269Y-90907655D01*
X123231648Y-90933466D01*
X123234971Y-90937629D01*
X123237474Y-90942336D01*
X123241368Y-90947111D01*
X123241369Y-90947112D01*
X123296247Y-91014399D01*
X123297075Y-91015426D01*
X123328278Y-91054513D01*
X123330772Y-91057007D01*
X123331423Y-91057735D01*
X123335140Y-91062086D01*
X123358580Y-91090827D01*
X123358583Y-91090830D01*
X123362475Y-91095602D01*
X123367222Y-91099529D01*
X123367224Y-91099531D01*
X123397802Y-91124827D01*
X123406582Y-91132817D01*
X124472075Y-92198309D01*
X124586262Y-92292103D01*
X124591689Y-92295013D01*
X124591692Y-92295015D01*
X124638899Y-92320327D01*
X124760563Y-92385563D01*
X124896798Y-92427215D01*
X124943800Y-92441585D01*
X124943802Y-92441585D01*
X124949698Y-92443388D01*
X125039752Y-92452535D01*
X125105502Y-92479318D01*
X125116114Y-92488795D01*
X127766230Y-95138911D01*
X127778616Y-95153323D01*
X127787149Y-95164918D01*
X127787154Y-95164923D01*
X127791492Y-95170818D01*
X127797070Y-95175557D01*
X127797073Y-95175560D01*
X127831768Y-95205035D01*
X127839284Y-95211965D01*
X127844979Y-95217660D01*
X127847861Y-95219940D01*
X127867251Y-95235281D01*
X127870655Y-95238072D01*
X127919048Y-95279185D01*
X127926285Y-95285333D01*
X127932801Y-95288661D01*
X127937850Y-95292028D01*
X127942979Y-95295195D01*
X127948716Y-95299734D01*
X128014875Y-95330655D01*
X128018769Y-95332558D01*
X128083808Y-95365769D01*
X128090916Y-95367508D01*
X128096559Y-95369607D01*
X128102322Y-95371524D01*
X128108950Y-95374622D01*
X128116112Y-95376112D01*
X128116113Y-95376112D01*
X128180412Y-95389486D01*
X128184696Y-95390456D01*
X128255610Y-95407808D01*
X128261212Y-95408156D01*
X128261215Y-95408156D01*
X128266764Y-95408500D01*
X128266762Y-95408536D01*
X128270755Y-95408775D01*
X128274947Y-95409149D01*
X128282115Y-95410640D01*
X128359520Y-95408546D01*
X128362928Y-95408500D01*
X131422870Y-95408500D01*
X131490991Y-95428502D01*
X131537484Y-95482158D01*
X131547588Y-95552432D01*
X131530130Y-95600616D01*
X131515966Y-95623595D01*
X131482885Y-95677262D01*
X131427203Y-95845139D01*
X131416500Y-95949600D01*
X131416500Y-96950400D01*
X131416837Y-96953646D01*
X131416837Y-96953650D01*
X131426618Y-97047914D01*
X131427474Y-97056166D01*
X131429655Y-97062702D01*
X131429655Y-97062704D01*
X131437268Y-97085522D01*
X131483450Y-97223946D01*
X131571920Y-97366911D01*
X131590758Y-97435363D01*
X131569597Y-97503132D01*
X131549560Y-97524299D01*
X131550269Y-97525008D01*
X131543919Y-97531358D01*
X131536739Y-97536739D01*
X131449385Y-97653295D01*
X131398255Y-97789684D01*
X131391500Y-97851866D01*
X131391500Y-99348134D01*
X131398255Y-99410316D01*
X131449385Y-99546705D01*
X131464783Y-99567251D01*
X131470168Y-99574436D01*
X131495015Y-99640943D01*
X131479961Y-99710325D01*
X131470168Y-99725564D01*
X131449385Y-99753295D01*
X131398255Y-99889684D01*
X131391500Y-99951866D01*
X131391500Y-101448134D01*
X131398255Y-101510316D01*
X131409368Y-101539960D01*
X131420982Y-101570940D01*
X131429000Y-101615170D01*
X131429000Y-102226973D01*
X131427076Y-102245126D01*
X131427203Y-102245139D01*
X131416500Y-102349600D01*
X131416500Y-103350400D01*
X131416837Y-103353646D01*
X131416837Y-103353650D01*
X131426641Y-103448134D01*
X131427474Y-103456166D01*
X131429655Y-103462702D01*
X131429655Y-103462704D01*
X131444176Y-103506229D01*
X131483450Y-103623946D01*
X131560013Y-103747670D01*
X131566257Y-103757760D01*
X131585095Y-103826212D01*
X131568232Y-103887063D01*
X131531827Y-103950119D01*
X131515473Y-103978444D01*
X131456458Y-104160072D01*
X131455768Y-104166633D01*
X131455768Y-104166635D01*
X131451520Y-104207056D01*
X131440242Y-104314366D01*
X131439356Y-104322792D01*
X131412343Y-104388449D01*
X131354122Y-104429079D01*
X131283176Y-104431782D01*
X131224951Y-104398717D01*
X131206855Y-104380621D01*
X131197753Y-104370478D01*
X131177897Y-104345782D01*
X131174032Y-104340975D01*
X131135578Y-104308708D01*
X131131931Y-104305528D01*
X131130119Y-104303885D01*
X131127925Y-104301691D01*
X131094651Y-104274358D01*
X131093853Y-104273696D01*
X131022526Y-104213846D01*
X131017856Y-104211278D01*
X131013739Y-104207897D01*
X130951341Y-104174440D01*
X130931914Y-104164023D01*
X130930755Y-104163394D01*
X130854619Y-104121538D01*
X130854611Y-104121535D01*
X130849213Y-104118567D01*
X130844131Y-104116955D01*
X130839437Y-104114438D01*
X130750469Y-104087238D01*
X130749435Y-104086916D01*
X130660694Y-104058765D01*
X130655398Y-104058171D01*
X130650302Y-104056613D01*
X130557743Y-104047210D01*
X130556607Y-104047089D01*
X130519844Y-104042966D01*
X130510270Y-104041892D01*
X130510266Y-104041892D01*
X130506773Y-104041500D01*
X130503246Y-104041500D01*
X130502261Y-104041445D01*
X130496581Y-104040998D01*
X130467175Y-104038011D01*
X130459663Y-104037248D01*
X130459661Y-104037248D01*
X130453538Y-104036626D01*
X130411259Y-104040623D01*
X130407891Y-104040941D01*
X130396033Y-104041500D01*
X127511850Y-104041500D01*
X127498242Y-104040763D01*
X127497662Y-104040700D01*
X127460612Y-104036675D01*
X127410570Y-104041053D01*
X127405788Y-104041379D01*
X127403310Y-104041500D01*
X127400231Y-104041500D01*
X127397177Y-104041799D01*
X127397166Y-104041800D01*
X127357529Y-104045687D01*
X127356215Y-104045809D01*
X127320688Y-104048917D01*
X127263587Y-104053913D01*
X127258468Y-104055400D01*
X127253167Y-104055920D01*
X127164166Y-104082791D01*
X127163033Y-104083126D01*
X127079586Y-104107370D01*
X127079582Y-104107372D01*
X127073664Y-104109091D01*
X127068932Y-104111544D01*
X127063831Y-104113084D01*
X127058388Y-104115978D01*
X126981740Y-104156731D01*
X126980574Y-104157343D01*
X126915786Y-104190927D01*
X126898074Y-104200108D01*
X126893911Y-104203431D01*
X126889204Y-104205934D01*
X126884429Y-104209828D01*
X126884428Y-104209829D01*
X126817102Y-104264739D01*
X126816075Y-104265567D01*
X126779792Y-104294531D01*
X126779787Y-104294536D01*
X126777028Y-104296738D01*
X126774527Y-104299239D01*
X126773809Y-104299881D01*
X126769461Y-104303594D01*
X126763190Y-104308709D01*
X126735938Y-104330935D01*
X126732015Y-104335677D01*
X126732013Y-104335679D01*
X126706703Y-104366273D01*
X126698713Y-104375053D01*
X125780621Y-105293145D01*
X125770478Y-105302247D01*
X125740975Y-105325968D01*
X125737008Y-105330696D01*
X125708709Y-105364421D01*
X125705528Y-105368069D01*
X125703885Y-105369881D01*
X125701691Y-105372075D01*
X125674358Y-105405349D01*
X125673696Y-105406147D01*
X125613846Y-105477474D01*
X125611278Y-105482144D01*
X125607897Y-105486261D01*
X125587686Y-105523955D01*
X125564023Y-105568086D01*
X125563394Y-105569245D01*
X125521538Y-105645381D01*
X125521535Y-105645389D01*
X125518567Y-105650787D01*
X125516955Y-105655869D01*
X125514438Y-105660563D01*
X125487238Y-105749531D01*
X125486918Y-105750559D01*
X125458765Y-105839306D01*
X125458171Y-105844602D01*
X125456613Y-105849698D01*
X125447320Y-105941186D01*
X125447218Y-105942187D01*
X125447089Y-105943393D01*
X125444469Y-105966760D01*
X125442017Y-105988621D01*
X125441500Y-105993227D01*
X125441500Y-105996754D01*
X125441445Y-105997739D01*
X125440998Y-106003419D01*
X125436626Y-106046462D01*
X125438102Y-106062077D01*
X125440941Y-106092109D01*
X125441500Y-106103967D01*
X125441500Y-115608694D01*
X125421498Y-115676815D01*
X125410317Y-115690702D01*
X125410404Y-115690771D01*
X125405866Y-115696517D01*
X125400695Y-115701697D01*
X125396855Y-115707927D01*
X125396854Y-115707928D01*
X125323726Y-115826564D01*
X125307885Y-115852262D01*
X125297394Y-115883891D01*
X125267502Y-115974015D01*
X125252203Y-116020139D01*
X125241500Y-116124600D01*
X125241500Y-116750400D01*
X125241837Y-116753646D01*
X125241837Y-116753650D01*
X125249766Y-116830062D01*
X125252474Y-116856166D01*
X125254655Y-116862702D01*
X125254655Y-116862704D01*
X125298728Y-116994806D01*
X125308450Y-117023946D01*
X125401522Y-117174348D01*
X125485619Y-117258298D01*
X125488109Y-117260784D01*
X125522188Y-117323066D01*
X125517185Y-117393886D01*
X125488264Y-117438975D01*
X125427891Y-117499454D01*
X125400695Y-117526697D01*
X125396855Y-117532927D01*
X125396854Y-117532928D01*
X125334944Y-117633365D01*
X125307885Y-117677262D01*
X125252203Y-117845139D01*
X125241500Y-117949600D01*
X125241500Y-118575400D01*
X125252474Y-118681166D01*
X125308450Y-118848946D01*
X125382039Y-118967863D01*
X125397424Y-118992726D01*
X125416280Y-119059029D01*
X125416280Y-122179725D01*
X125396278Y-122247846D01*
X125381374Y-122266775D01*
X125295382Y-122356761D01*
X125292468Y-122361033D01*
X125292467Y-122361034D01*
X125235892Y-122443970D01*
X125220899Y-122462062D01*
X124424441Y-123258519D01*
X124416828Y-123272462D01*
X124416959Y-123274296D01*
X124421210Y-123280910D01*
X125213207Y-124072906D01*
X125231544Y-124096167D01*
X125252054Y-124129636D01*
X125407984Y-124309647D01*
X125591222Y-124461774D01*
X125595674Y-124464376D01*
X125595679Y-124464379D01*
X125690480Y-124519776D01*
X125739203Y-124571415D01*
X125752274Y-124641198D01*
X125725542Y-124706970D01*
X125667495Y-124747848D01*
X125596562Y-124750855D01*
X125588810Y-124748666D01*
X125529091Y-124729722D01*
X125529090Y-124729722D01*
X125523221Y-124727860D01*
X125361677Y-124709740D01*
X125249873Y-124709740D01*
X125246818Y-124710040D01*
X125246809Y-124710040D01*
X125181205Y-124716473D01*
X125095526Y-124724874D01*
X125089625Y-124726656D01*
X125089623Y-124726656D01*
X125037782Y-124742308D01*
X124896820Y-124784867D01*
X124713551Y-124882312D01*
X124552700Y-125013500D01*
X124420393Y-125173431D01*
X124321670Y-125356015D01*
X124260291Y-125554297D01*
X124259647Y-125560422D01*
X124259647Y-125560423D01*
X124248538Y-125666125D01*
X124238595Y-125760725D01*
X124240504Y-125781704D01*
X124254829Y-125939105D01*
X124257407Y-125967436D01*
X124259145Y-125973342D01*
X124259146Y-125973346D01*
X124279091Y-126041112D01*
X124316011Y-126166556D01*
X124318865Y-126172015D01*
X124409320Y-126345040D01*
X124409323Y-126345044D01*
X124412175Y-126350500D01*
X124542236Y-126512264D01*
X124701240Y-126645684D01*
X124706632Y-126648648D01*
X124706636Y-126648651D01*
X124854047Y-126729690D01*
X124883131Y-126745679D01*
X124888998Y-126747540D01*
X124889000Y-126747541D01*
X125059681Y-126801684D01*
X125080979Y-126808440D01*
X125242523Y-126826560D01*
X125354327Y-126826560D01*
X125357382Y-126826260D01*
X125357391Y-126826260D01*
X125428399Y-126819297D01*
X125508674Y-126811426D01*
X125514575Y-126809644D01*
X125514577Y-126809644D01*
X125591809Y-126786326D01*
X125707380Y-126751433D01*
X125890649Y-126653988D01*
X126051500Y-126522800D01*
X126083028Y-126484690D01*
X126179878Y-126367618D01*
X126183807Y-126362869D01*
X126282530Y-126180285D01*
X126343909Y-125982003D01*
X126365605Y-125775575D01*
X126346793Y-125568864D01*
X126288189Y-125369744D01*
X126254107Y-125304551D01*
X126194880Y-125191260D01*
X126194877Y-125191256D01*
X126192025Y-125185800D01*
X126061964Y-125024036D01*
X125902960Y-124890616D01*
X125897563Y-124887649D01*
X125893481Y-124884854D01*
X125848574Y-124829864D01*
X125840526Y-124759326D01*
X125871892Y-124695633D01*
X125932713Y-124659009D01*
X126009614Y-124663180D01*
X126014492Y-124665042D01*
X126014494Y-124665043D01*
X126019332Y-124666890D01*
X126024398Y-124667921D01*
X126024399Y-124667921D01*
X126078736Y-124678976D01*
X126252708Y-124714371D01*
X126386901Y-124719292D01*
X126485540Y-124722909D01*
X126485544Y-124722909D01*
X126490704Y-124723098D01*
X126495824Y-124722442D01*
X126495826Y-124722442D01*
X126721803Y-124693494D01*
X126721804Y-124693494D01*
X126726931Y-124692837D01*
X126809980Y-124667921D01*
X126950096Y-124625884D01*
X126950097Y-124625883D01*
X126955042Y-124624400D01*
X127168913Y-124519625D01*
X127173116Y-124516627D01*
X127173121Y-124516624D01*
X127358596Y-124384326D01*
X127358598Y-124384324D01*
X127362800Y-124381327D01*
X127376442Y-124367733D01*
X127459079Y-124285384D01*
X127521451Y-124251468D01*
X127592258Y-124256656D01*
X127643256Y-124292137D01*
X127655038Y-124305739D01*
X127655043Y-124305744D01*
X127658424Y-124309647D01*
X127841662Y-124461774D01*
X127846114Y-124464376D01*
X127846119Y-124464379D01*
X128001763Y-124555330D01*
X128047285Y-124581931D01*
X128269772Y-124666890D01*
X128274838Y-124667921D01*
X128274839Y-124667921D01*
X128329176Y-124678976D01*
X128503148Y-124714371D01*
X128637341Y-124719292D01*
X128735980Y-124722909D01*
X128735984Y-124722909D01*
X128741144Y-124723098D01*
X128746264Y-124722442D01*
X128746266Y-124722442D01*
X128972243Y-124693494D01*
X128972244Y-124693494D01*
X128977371Y-124692837D01*
X128982322Y-124691352D01*
X128982325Y-124691351D01*
X129109943Y-124653064D01*
X129180938Y-124652648D01*
X129240889Y-124690680D01*
X129270760Y-124755087D01*
X129261069Y-124825419D01*
X129215876Y-124878699D01*
X129214793Y-124879418D01*
X129209351Y-124882312D01*
X129204579Y-124886204D01*
X129204576Y-124886206D01*
X129204575Y-124886207D01*
X129048500Y-125013500D01*
X128916193Y-125173431D01*
X128817470Y-125356015D01*
X128756091Y-125554297D01*
X128755447Y-125560422D01*
X128755447Y-125560423D01*
X128744338Y-125666125D01*
X128734395Y-125760725D01*
X128736304Y-125781704D01*
X128750629Y-125939105D01*
X128753207Y-125967436D01*
X128754945Y-125973342D01*
X128754946Y-125973346D01*
X128774891Y-126041112D01*
X128811811Y-126166556D01*
X128814665Y-126172015D01*
X128905120Y-126345040D01*
X128905123Y-126345044D01*
X128907975Y-126350500D01*
X129038036Y-126512264D01*
X129197040Y-126645684D01*
X129202432Y-126648648D01*
X129202436Y-126648651D01*
X129349847Y-126729690D01*
X129378931Y-126745679D01*
X129384798Y-126747540D01*
X129384800Y-126747541D01*
X129555481Y-126801684D01*
X129576779Y-126808440D01*
X129738323Y-126826560D01*
X129850127Y-126826560D01*
X129853182Y-126826260D01*
X129853191Y-126826260D01*
X129924199Y-126819297D01*
X130004474Y-126811426D01*
X130010375Y-126809644D01*
X130010377Y-126809644D01*
X130087609Y-126786326D01*
X130203180Y-126751433D01*
X130386449Y-126653988D01*
X130547300Y-126522800D01*
X130578828Y-126484690D01*
X130675678Y-126367618D01*
X130679607Y-126362869D01*
X130778330Y-126180285D01*
X130839709Y-125982003D01*
X130861405Y-125775575D01*
X130842593Y-125568864D01*
X130783989Y-125369744D01*
X130749907Y-125304551D01*
X130690680Y-125191260D01*
X130690677Y-125191256D01*
X130687825Y-125185800D01*
X130557764Y-125024036D01*
X130398760Y-124890616D01*
X130393368Y-124887652D01*
X130393364Y-124887649D01*
X130222264Y-124793587D01*
X130222265Y-124793587D01*
X130216869Y-124790621D01*
X130211002Y-124788760D01*
X130211000Y-124788759D01*
X130024891Y-124729722D01*
X130024890Y-124729722D01*
X130019021Y-124727860D01*
X129857477Y-124709740D01*
X129745673Y-124709740D01*
X129742618Y-124710040D01*
X129742609Y-124710040D01*
X129677005Y-124716473D01*
X129591326Y-124724874D01*
X129525934Y-124744617D01*
X129454941Y-124745158D01*
X129394924Y-124707231D01*
X129364940Y-124642876D01*
X129374508Y-124572528D01*
X129420337Y-124521005D01*
X129419353Y-124519625D01*
X129609036Y-124384326D01*
X129609038Y-124384324D01*
X129613240Y-124381327D01*
X129774954Y-124220176D01*
X129837327Y-124186260D01*
X129908134Y-124191448D01*
X129959132Y-124226929D01*
X130030784Y-124309647D01*
X130214022Y-124461774D01*
X130218474Y-124464376D01*
X130218479Y-124464379D01*
X130374123Y-124555330D01*
X130419645Y-124581931D01*
X130642132Y-124666890D01*
X130647198Y-124667921D01*
X130647199Y-124667921D01*
X130701536Y-124678976D01*
X130875508Y-124714371D01*
X131009701Y-124719292D01*
X131108340Y-124722909D01*
X131108344Y-124722909D01*
X131113504Y-124723098D01*
X131118624Y-124722442D01*
X131118626Y-124722442D01*
X131180154Y-124714560D01*
X131252526Y-124705289D01*
X131322635Y-124716473D01*
X131375569Y-124763787D01*
X131394520Y-124832207D01*
X131386861Y-124873569D01*
X131313739Y-125073385D01*
X131311350Y-125081608D01*
X131251720Y-125355096D01*
X131250471Y-125363552D01*
X131228508Y-125642612D01*
X131228419Y-125651162D01*
X131244532Y-125930604D01*
X131245605Y-125939105D01*
X131299494Y-126213777D01*
X131301707Y-126222039D01*
X131392377Y-126486863D01*
X131395693Y-126494750D01*
X131521462Y-126744816D01*
X131525819Y-126752182D01*
X131670628Y-126962880D01*
X131680881Y-126971224D01*
X131694622Y-126964078D01*
X132988478Y-125670222D01*
X133713228Y-125670222D01*
X133713359Y-125672055D01*
X133717610Y-125678670D01*
X135001678Y-126962738D01*
X135013888Y-126969405D01*
X135025387Y-126960716D01*
X135136902Y-126808907D01*
X135141486Y-126801684D01*
X135275045Y-126555699D01*
X135278613Y-126547905D01*
X135377553Y-126286070D01*
X135380026Y-126277879D01*
X135442517Y-126005031D01*
X135443855Y-125996577D01*
X135468899Y-125715968D01*
X135469145Y-125711031D01*
X135469558Y-125671575D01*
X135469415Y-125666609D01*
X135450254Y-125385546D01*
X135449093Y-125377072D01*
X135392331Y-125102981D01*
X135390026Y-125094727D01*
X135296592Y-124830874D01*
X135293196Y-124823026D01*
X135164811Y-124574284D01*
X135160383Y-124566972D01*
X135026245Y-124376113D01*
X135015723Y-124367733D01*
X135002335Y-124374785D01*
X133720842Y-125656278D01*
X133713228Y-125670222D01*
X132988478Y-125670222D01*
X134642044Y-124016656D01*
X134649236Y-124003486D01*
X134641914Y-123993251D01*
X134580656Y-123943111D01*
X134573687Y-123938158D01*
X134335012Y-123791898D01*
X134327442Y-123787940D01*
X134071132Y-123675429D01*
X134063072Y-123672527D01*
X133793882Y-123595847D01*
X133785504Y-123594065D01*
X133508392Y-123554626D01*
X133499845Y-123553999D01*
X133219943Y-123552533D01*
X133211408Y-123553070D01*
X132933891Y-123589606D01*
X132925493Y-123591299D01*
X132655516Y-123665157D01*
X132643371Y-123669386D01*
X132642995Y-123668308D01*
X132577527Y-123676032D01*
X132513715Y-123644910D01*
X132476859Y-123584230D01*
X132473694Y-123535365D01*
X132499109Y-123342322D01*
X132500844Y-123271330D01*
X132481330Y-123033974D01*
X132423311Y-122802993D01*
X132328347Y-122584589D01*
X132311431Y-122558440D01*
X132201796Y-122388971D01*
X132201794Y-122388968D01*
X132198986Y-122384628D01*
X132091306Y-122266289D01*
X132060254Y-122202444D01*
X132058500Y-122181490D01*
X132058500Y-119091306D01*
X132078502Y-119023185D01*
X132089683Y-119009298D01*
X132089596Y-119009229D01*
X132094134Y-119003483D01*
X132099305Y-118998303D01*
X132192115Y-118847738D01*
X132247797Y-118679861D01*
X132258500Y-118575400D01*
X132258500Y-117949600D01*
X132247526Y-117843834D01*
X132240094Y-117821556D01*
X132193868Y-117683002D01*
X132191550Y-117676054D01*
X132149724Y-117608464D01*
X132130887Y-117540013D01*
X132152049Y-117472243D01*
X132167774Y-117453067D01*
X132325436Y-117295405D01*
X132387748Y-117261379D01*
X132414531Y-117258500D01*
X133411001Y-117258500D01*
X133413509Y-117258298D01*
X133413514Y-117258298D01*
X133586924Y-117244346D01*
X133586929Y-117244345D01*
X133591965Y-117243940D01*
X133596873Y-117242734D01*
X133596876Y-117242734D01*
X133822792Y-117187244D01*
X133827706Y-117186037D01*
X133832358Y-117184062D01*
X133832362Y-117184061D01*
X133968171Y-117126413D01*
X134051156Y-117091188D01*
X134187924Y-117005060D01*
X134252288Y-116964528D01*
X134252291Y-116964526D01*
X134256567Y-116961833D01*
X134348145Y-116881097D01*
X134434858Y-116804650D01*
X134434861Y-116804647D01*
X134438655Y-116801302D01*
X134480795Y-116750000D01*
X134589526Y-116617628D01*
X134589528Y-116617625D01*
X134592734Y-116613722D01*
X134668965Y-116482744D01*
X134712299Y-116408290D01*
X134712300Y-116408288D01*
X134714841Y-116403922D01*
X134729776Y-116365014D01*
X134800020Y-116182022D01*
X134800021Y-116182018D01*
X134801833Y-116177298D01*
X134802868Y-116172345D01*
X134850440Y-115944631D01*
X134850440Y-115944627D01*
X134851474Y-115939680D01*
X134862486Y-115697183D01*
X134861647Y-115689931D01*
X134835167Y-115461071D01*
X134835166Y-115461067D01*
X134834585Y-115456044D01*
X134806595Y-115357127D01*
X134769866Y-115227331D01*
X134768490Y-115222468D01*
X134766356Y-115217892D01*
X134766354Y-115217886D01*
X134668038Y-115007046D01*
X134668036Y-115007042D01*
X134665901Y-115002464D01*
X134529456Y-114801693D01*
X134362668Y-114625319D01*
X134337319Y-114605938D01*
X134173846Y-114480953D01*
X134173842Y-114480950D01*
X134169826Y-114477880D01*
X134125934Y-114454345D01*
X133960352Y-114365561D01*
X133955891Y-114363169D01*
X133726369Y-114284138D01*
X133609184Y-114263897D01*
X133491074Y-114243496D01*
X133491068Y-114243495D01*
X133487164Y-114242821D01*
X133483203Y-114242641D01*
X133483202Y-114242641D01*
X133459494Y-114241564D01*
X133459475Y-114241564D01*
X133458075Y-114241500D01*
X131761516Y-114241500D01*
X131757998Y-114241451D01*
X131663350Y-114238807D01*
X131663347Y-114238807D01*
X131658295Y-114238666D01*
X131580402Y-114249059D01*
X131573861Y-114249758D01*
X131548520Y-114251797D01*
X131500577Y-114255654D01*
X131500573Y-114255655D01*
X131495535Y-114256060D01*
X131463622Y-114263899D01*
X131450242Y-114266426D01*
X131417680Y-114270771D01*
X131412839Y-114272232D01*
X131412837Y-114272233D01*
X131342471Y-114293478D01*
X131336110Y-114295219D01*
X131259794Y-114313963D01*
X131255134Y-114315941D01*
X131229549Y-114326801D01*
X131216739Y-114331438D01*
X131185292Y-114340933D01*
X131180744Y-114343151D01*
X131180737Y-114343154D01*
X131114682Y-114375371D01*
X131108680Y-114378107D01*
X131076761Y-114391656D01*
X131036344Y-114408812D01*
X131022064Y-114417805D01*
X131008544Y-114426319D01*
X130996640Y-114432945D01*
X130967112Y-114447346D01*
X130911949Y-114486260D01*
X130902903Y-114492641D01*
X130897414Y-114496301D01*
X130848872Y-114526870D01*
X130830933Y-114538167D01*
X130827144Y-114541508D01*
X130827138Y-114541512D01*
X130806283Y-114559898D01*
X130795588Y-114568344D01*
X130768753Y-114587274D01*
X130747250Y-114606909D01*
X130707534Y-114646625D01*
X130701764Y-114652044D01*
X130652642Y-114695350D01*
X130652639Y-114695353D01*
X130648845Y-114698698D01*
X130645635Y-114702606D01*
X130645634Y-114702607D01*
X130622321Y-114730989D01*
X130614051Y-114740108D01*
X129940195Y-115413964D01*
X129938569Y-115415874D01*
X129938563Y-115415881D01*
X129880454Y-115484159D01*
X129821071Y-115523072D01*
X129750077Y-115523703D01*
X129690012Y-115485851D01*
X129659947Y-115421535D01*
X129658500Y-115402496D01*
X129658500Y-112319925D01*
X129678502Y-112251804D01*
X129695405Y-112230830D01*
X130369603Y-111556632D01*
X131045800Y-110880434D01*
X131108112Y-110846409D01*
X131178927Y-110851473D01*
X131235763Y-110894020D01*
X131242039Y-110903225D01*
X131301522Y-110999348D01*
X131426697Y-111124305D01*
X131432927Y-111128145D01*
X131432928Y-111128146D01*
X131570090Y-111212694D01*
X131577262Y-111217115D01*
X131641836Y-111238533D01*
X131738611Y-111270632D01*
X131738613Y-111270632D01*
X131745139Y-111272797D01*
X131751975Y-111273497D01*
X131751978Y-111273498D01*
X131790786Y-111277474D01*
X131849600Y-111283500D01*
X132850400Y-111283500D01*
X132853646Y-111283163D01*
X132853650Y-111283163D01*
X132956166Y-111272526D01*
X132956195Y-111272807D01*
X132973120Y-111271000D01*
X133826973Y-111271000D01*
X133845126Y-111272924D01*
X133845139Y-111272797D01*
X133949600Y-111283500D01*
X134950400Y-111283500D01*
X134953646Y-111283163D01*
X134953650Y-111283163D01*
X135049308Y-111273238D01*
X135049312Y-111273237D01*
X135056166Y-111272526D01*
X135062702Y-111270345D01*
X135062704Y-111270345D01*
X135209115Y-111221498D01*
X135223946Y-111216550D01*
X135374348Y-111123478D01*
X135439731Y-111057982D01*
X135502013Y-111023903D01*
X135528903Y-111021000D01*
X136470430Y-111021000D01*
X136489380Y-111022433D01*
X136503615Y-111024599D01*
X136503619Y-111024599D01*
X136510849Y-111025699D01*
X136518141Y-111025106D01*
X136518144Y-111025106D01*
X136563518Y-111021415D01*
X136573733Y-111021000D01*
X136581793Y-111021000D01*
X136595083Y-111019451D01*
X136610007Y-111017711D01*
X136614382Y-111017278D01*
X136679839Y-111011954D01*
X136679842Y-111011953D01*
X136687137Y-111011360D01*
X136694101Y-111009104D01*
X136700060Y-111007913D01*
X136705915Y-111006529D01*
X136713181Y-111005682D01*
X136781827Y-110980765D01*
X136785955Y-110979348D01*
X136848436Y-110959107D01*
X136848438Y-110959106D01*
X136855399Y-110956851D01*
X136861654Y-110953055D01*
X136867128Y-110950549D01*
X136872558Y-110947830D01*
X136879437Y-110945333D01*
X136940476Y-110905314D01*
X136944180Y-110902977D01*
X137006607Y-110865095D01*
X137014984Y-110857697D01*
X137015008Y-110857724D01*
X137018000Y-110855071D01*
X137021233Y-110852368D01*
X137027352Y-110848356D01*
X137080628Y-110792117D01*
X137083006Y-110789675D01*
X138243863Y-109628818D01*
X138306175Y-109594792D01*
X138376990Y-109599857D01*
X138408522Y-109617086D01*
X138503295Y-109688115D01*
X138639684Y-109739245D01*
X138701866Y-109746000D01*
X140398134Y-109746000D01*
X140460316Y-109739245D01*
X140596705Y-109688115D01*
X140713261Y-109600761D01*
X140800615Y-109484205D01*
X140851745Y-109347816D01*
X140858500Y-109285634D01*
X140858500Y-108864366D01*
X140851745Y-108802184D01*
X140848764Y-108794232D01*
X140848730Y-108793771D01*
X140847144Y-108787100D01*
X140848223Y-108786843D01*
X140843579Y-108723425D01*
X140848764Y-108705768D01*
X140848971Y-108705215D01*
X140851745Y-108697816D01*
X140858500Y-108635634D01*
X140858500Y-108214366D01*
X140851745Y-108152184D01*
X140848764Y-108144232D01*
X140848730Y-108143771D01*
X140847144Y-108137100D01*
X140848223Y-108136843D01*
X140843579Y-108073425D01*
X140848764Y-108055768D01*
X140848971Y-108055215D01*
X140851745Y-108047816D01*
X140858500Y-107985634D01*
X140858500Y-107564366D01*
X140851745Y-107502184D01*
X140848764Y-107494232D01*
X140848730Y-107493771D01*
X140847144Y-107487100D01*
X140848223Y-107486843D01*
X140843579Y-107423425D01*
X140848764Y-107405768D01*
X140848971Y-107405215D01*
X140851745Y-107397816D01*
X140858500Y-107335634D01*
X140858500Y-106914366D01*
X140851745Y-106852184D01*
X140848764Y-106844232D01*
X140848730Y-106843771D01*
X140847144Y-106837100D01*
X140848223Y-106836843D01*
X140843579Y-106773425D01*
X140848764Y-106755768D01*
X140848971Y-106755215D01*
X140851745Y-106747816D01*
X140858500Y-106685634D01*
X140858500Y-106264366D01*
X140851745Y-106202184D01*
X140848764Y-106194232D01*
X140848730Y-106193771D01*
X140847144Y-106187100D01*
X140848223Y-106186843D01*
X140843579Y-106123425D01*
X140848764Y-106105768D01*
X140848971Y-106105215D01*
X140851745Y-106097816D01*
X140858500Y-106035634D01*
X140858500Y-105614366D01*
X140851745Y-105552184D01*
X140848764Y-105544232D01*
X140848730Y-105543771D01*
X140847144Y-105537100D01*
X140848223Y-105536843D01*
X140843579Y-105473425D01*
X140848764Y-105455768D01*
X140848971Y-105455215D01*
X140851745Y-105447816D01*
X140858500Y-105385634D01*
X140858500Y-104964366D01*
X140851745Y-104902184D01*
X140848764Y-104894232D01*
X140848730Y-104893771D01*
X140847144Y-104887100D01*
X140848223Y-104886843D01*
X140843579Y-104823425D01*
X140848764Y-104805768D01*
X140848971Y-104805215D01*
X140851745Y-104797816D01*
X140858500Y-104735634D01*
X140858500Y-104314366D01*
X140851745Y-104252184D01*
X140848497Y-104243520D01*
X140848420Y-104242465D01*
X140847144Y-104237100D01*
X140848012Y-104236894D01*
X140843312Y-104172714D01*
X140848462Y-104155173D01*
X140852105Y-104139851D01*
X140857631Y-104088986D01*
X140858000Y-104082172D01*
X140858000Y-104055615D01*
X140853525Y-104040376D01*
X140852135Y-104039171D01*
X140844452Y-104037500D01*
X140801913Y-104037500D01*
X140733792Y-104017498D01*
X140716503Y-104003565D01*
X140713261Y-103999239D01*
X140682021Y-103975826D01*
X140639506Y-103918967D01*
X140634480Y-103848149D01*
X140668540Y-103785855D01*
X140682021Y-103774174D01*
X140703922Y-103757760D01*
X140713261Y-103750761D01*
X140715288Y-103748056D01*
X140775130Y-103715379D01*
X140801913Y-103712500D01*
X140839884Y-103712500D01*
X140855123Y-103708025D01*
X140856328Y-103706635D01*
X140857999Y-103698952D01*
X140857999Y-103667831D01*
X140857629Y-103661010D01*
X140852105Y-103610148D01*
X140846651Y-103587207D01*
X140847908Y-103586908D01*
X140843312Y-103524138D01*
X140848497Y-103506479D01*
X140848972Y-103505212D01*
X140851745Y-103497816D01*
X140858500Y-103435634D01*
X140858500Y-103014366D01*
X140851745Y-102952184D01*
X140848764Y-102944232D01*
X140848730Y-102943771D01*
X140847144Y-102937100D01*
X140848223Y-102936843D01*
X140843579Y-102873425D01*
X140848764Y-102855768D01*
X140848971Y-102855215D01*
X140851745Y-102847816D01*
X140858500Y-102785634D01*
X140858500Y-102364366D01*
X140851745Y-102302184D01*
X140848764Y-102294232D01*
X140848730Y-102293771D01*
X140847144Y-102287100D01*
X140848223Y-102286843D01*
X140843579Y-102223425D01*
X140848764Y-102205768D01*
X140848971Y-102205215D01*
X140851745Y-102197816D01*
X140858500Y-102135634D01*
X140858500Y-101714366D01*
X140851745Y-101652184D01*
X140848764Y-101644232D01*
X140848730Y-101643771D01*
X140847144Y-101637100D01*
X140848223Y-101636843D01*
X140843579Y-101573425D01*
X140848764Y-101555768D01*
X140848971Y-101555215D01*
X140851745Y-101547816D01*
X140858500Y-101485634D01*
X140858500Y-101064366D01*
X140851745Y-101002184D01*
X140848764Y-100994232D01*
X140848730Y-100993771D01*
X140847144Y-100987100D01*
X140848223Y-100986843D01*
X140843579Y-100923425D01*
X140848764Y-100905768D01*
X140848971Y-100905215D01*
X140851745Y-100897816D01*
X140858500Y-100835634D01*
X140858500Y-100414366D01*
X140851745Y-100352184D01*
X140800615Y-100215795D01*
X140713261Y-100099239D01*
X140596705Y-100011885D01*
X140460316Y-99960755D01*
X140433086Y-99957797D01*
X140420892Y-99956472D01*
X140355330Y-99929230D01*
X140314904Y-99870866D01*
X140308500Y-99831209D01*
X140308500Y-98934428D01*
X140328502Y-98866307D01*
X140362888Y-98832505D01*
X140362388Y-98831875D01*
X140368120Y-98827332D01*
X140374348Y-98823478D01*
X140499305Y-98698303D01*
X140503146Y-98692072D01*
X140588275Y-98553968D01*
X140588276Y-98553966D01*
X140592115Y-98547738D01*
X140623541Y-98452992D01*
X140645632Y-98386389D01*
X140645632Y-98386387D01*
X140647797Y-98379861D01*
X140649947Y-98358882D01*
X140658172Y-98278598D01*
X140658500Y-98275400D01*
X140658500Y-97649600D01*
X140658138Y-97646109D01*
X140648238Y-97550692D01*
X140648237Y-97550688D01*
X140647526Y-97543834D01*
X140641243Y-97525000D01*
X140593868Y-97383002D01*
X140591550Y-97376054D01*
X140498478Y-97225652D01*
X140411891Y-97139216D01*
X140377812Y-97076934D01*
X140382815Y-97006114D01*
X140411736Y-96961025D01*
X140494134Y-96878483D01*
X140499305Y-96873303D01*
X140519878Y-96839928D01*
X140588275Y-96728968D01*
X140588276Y-96728966D01*
X140592115Y-96722738D01*
X140622761Y-96630342D01*
X140645632Y-96561389D01*
X140645632Y-96561387D01*
X140647797Y-96554861D01*
X140649029Y-96542843D01*
X140654289Y-96491500D01*
X140658500Y-96450400D01*
X140658500Y-95824600D01*
X140653117Y-95772721D01*
X140648238Y-95725692D01*
X140648237Y-95725688D01*
X140647526Y-95718834D01*
X140633657Y-95677262D01*
X140599331Y-95574376D01*
X140596747Y-95503427D01*
X140632930Y-95442343D01*
X140696395Y-95410518D01*
X140718855Y-95408500D01*
X141611431Y-95408500D01*
X141679552Y-95428502D01*
X141726045Y-95482158D01*
X141734970Y-95536830D01*
X141737186Y-95536830D01*
X141737186Y-95543435D01*
X141736496Y-95550000D01*
X141737186Y-95556565D01*
X141749872Y-95677262D01*
X141756458Y-95739928D01*
X141815473Y-95921556D01*
X141818776Y-95927278D01*
X141818777Y-95927279D01*
X141833572Y-95952905D01*
X141910960Y-96086944D01*
X141915378Y-96091851D01*
X141915379Y-96091852D01*
X142015326Y-96202854D01*
X142038747Y-96228866D01*
X142132119Y-96296705D01*
X142187904Y-96337235D01*
X142193248Y-96341118D01*
X142199276Y-96343802D01*
X142199278Y-96343803D01*
X142361681Y-96416109D01*
X142367712Y-96418794D01*
X142436602Y-96433437D01*
X142548056Y-96457128D01*
X142548061Y-96457128D01*
X142554513Y-96458500D01*
X142745487Y-96458500D01*
X142751939Y-96457128D01*
X142751944Y-96457128D01*
X142863398Y-96433437D01*
X142932288Y-96418794D01*
X142938319Y-96416109D01*
X143100722Y-96343803D01*
X143100724Y-96343802D01*
X143106752Y-96341118D01*
X143112091Y-96337239D01*
X143112098Y-96337235D01*
X143118528Y-96332563D01*
X143192587Y-96308500D01*
X151918307Y-96308500D01*
X151957244Y-96314667D01*
X151961681Y-96316109D01*
X151967712Y-96318794D01*
X151974164Y-96320166D01*
X151974169Y-96320167D01*
X152148056Y-96357128D01*
X152148061Y-96357128D01*
X152154513Y-96358500D01*
X152171670Y-96358500D01*
X152239791Y-96378502D01*
X152286284Y-96432158D01*
X152296388Y-96502432D01*
X152282714Y-96544041D01*
X152276912Y-96554861D01*
X152276521Y-96555591D01*
X152275894Y-96556745D01*
X152234038Y-96632881D01*
X152234035Y-96632889D01*
X152231067Y-96638287D01*
X152229455Y-96643369D01*
X152226938Y-96648063D01*
X152199738Y-96737031D01*
X152199418Y-96738059D01*
X152171265Y-96826806D01*
X152170671Y-96832102D01*
X152169113Y-96837198D01*
X152162282Y-96904450D01*
X152159718Y-96929687D01*
X152159589Y-96930893D01*
X152154000Y-96980727D01*
X152154000Y-96984254D01*
X152153945Y-96985239D01*
X152153498Y-96990919D01*
X152149126Y-97033962D01*
X152151843Y-97062704D01*
X152153441Y-97079609D01*
X152154000Y-97091467D01*
X152154000Y-97524755D01*
X152133998Y-97592876D01*
X152080342Y-97639369D01*
X152010068Y-97649473D01*
X151961884Y-97632015D01*
X151928968Y-97611725D01*
X151928966Y-97611724D01*
X151922738Y-97607885D01*
X151800230Y-97567251D01*
X151761389Y-97554368D01*
X151761387Y-97554368D01*
X151754861Y-97552203D01*
X151748025Y-97551503D01*
X151748022Y-97551502D01*
X151701757Y-97546762D01*
X151650400Y-97541500D01*
X151024600Y-97541500D01*
X151021354Y-97541837D01*
X151021350Y-97541837D01*
X150925692Y-97551762D01*
X150925688Y-97551763D01*
X150918834Y-97552474D01*
X150912298Y-97554655D01*
X150912296Y-97554655D01*
X150874542Y-97567251D01*
X150751054Y-97608450D01*
X150647194Y-97672721D01*
X150607042Y-97697568D01*
X150600652Y-97701522D01*
X150595479Y-97706704D01*
X150589745Y-97711249D01*
X150588419Y-97709576D01*
X150535375Y-97738598D01*
X150508489Y-97741500D01*
X148911843Y-97741500D01*
X148898236Y-97740763D01*
X148866738Y-97737341D01*
X148866733Y-97737341D01*
X148860612Y-97736676D01*
X148834362Y-97738973D01*
X148810612Y-97741050D01*
X148805786Y-97741379D01*
X148803314Y-97741500D01*
X148800231Y-97741500D01*
X148788262Y-97742674D01*
X148757494Y-97745690D01*
X148756181Y-97745812D01*
X148711916Y-97749685D01*
X148663587Y-97753913D01*
X148658468Y-97755400D01*
X148653167Y-97755920D01*
X148564166Y-97782791D01*
X148563033Y-97783126D01*
X148479586Y-97807370D01*
X148479582Y-97807372D01*
X148473664Y-97809091D01*
X148468932Y-97811544D01*
X148463831Y-97813084D01*
X148458388Y-97815978D01*
X148381740Y-97856731D01*
X148380574Y-97857343D01*
X148328703Y-97884231D01*
X148298074Y-97900108D01*
X148293911Y-97903431D01*
X148289204Y-97905934D01*
X148217082Y-97964755D01*
X148216226Y-97965446D01*
X148177027Y-97996738D01*
X148174523Y-97999242D01*
X148173805Y-97999884D01*
X148169472Y-98003585D01*
X148135938Y-98030935D01*
X148132011Y-98035682D01*
X148132009Y-98035684D01*
X148106713Y-98066262D01*
X148098723Y-98075042D01*
X146701691Y-99472075D01*
X146699738Y-99474452D01*
X146699734Y-99474457D01*
X146668957Y-99511926D01*
X146607897Y-99586261D01*
X146514438Y-99760563D01*
X146474207Y-99892153D01*
X146473134Y-99895662D01*
X146434090Y-99954958D01*
X146396870Y-99976805D01*
X146318016Y-100006366D01*
X146303295Y-100011885D01*
X146186739Y-100099239D01*
X146099385Y-100215795D01*
X146048255Y-100352184D01*
X146041500Y-100414366D01*
X146041500Y-100835634D01*
X146048255Y-100897816D01*
X146051029Y-100905215D01*
X146051236Y-100905768D01*
X146051270Y-100906229D01*
X146052856Y-100912900D01*
X146051777Y-100913157D01*
X146056421Y-100976575D01*
X146051236Y-100994232D01*
X146048255Y-101002184D01*
X146041500Y-101064366D01*
X146041500Y-101485634D01*
X146048255Y-101547816D01*
X146051029Y-101555215D01*
X146051236Y-101555768D01*
X146051270Y-101556229D01*
X146052856Y-101562900D01*
X146051777Y-101563157D01*
X146056421Y-101626575D01*
X146051236Y-101644232D01*
X146048255Y-101652184D01*
X146041500Y-101714366D01*
X146041500Y-102135634D01*
X146048255Y-102197816D01*
X146051029Y-102205215D01*
X146051236Y-102205768D01*
X146051270Y-102206229D01*
X146052856Y-102212900D01*
X146051777Y-102213157D01*
X146056421Y-102276575D01*
X146051236Y-102294232D01*
X146048255Y-102302184D01*
X146041500Y-102364366D01*
X146041500Y-102785634D01*
X146048255Y-102847816D01*
X146051029Y-102855215D01*
X146051236Y-102855768D01*
X146051270Y-102856229D01*
X146052856Y-102862900D01*
X146051777Y-102863157D01*
X146056421Y-102926575D01*
X146051236Y-102944232D01*
X146048255Y-102952184D01*
X146041500Y-103014366D01*
X146041500Y-103435634D01*
X146048255Y-103497816D01*
X146051028Y-103505212D01*
X146051029Y-103505215D01*
X146051236Y-103505768D01*
X146051270Y-103506229D01*
X146052856Y-103512900D01*
X146051777Y-103513157D01*
X146056421Y-103576575D01*
X146051236Y-103594232D01*
X146048255Y-103602184D01*
X146041500Y-103664366D01*
X146041500Y-104085634D01*
X146048255Y-104147816D01*
X146051029Y-104155215D01*
X146051236Y-104155768D01*
X146051270Y-104156229D01*
X146052856Y-104162900D01*
X146051777Y-104163157D01*
X146056421Y-104226575D01*
X146051236Y-104244232D01*
X146048255Y-104252184D01*
X146041500Y-104314366D01*
X146041500Y-104735634D01*
X146048255Y-104797816D01*
X146051029Y-104805215D01*
X146051236Y-104805768D01*
X146051270Y-104806229D01*
X146052856Y-104812900D01*
X146051777Y-104813157D01*
X146056421Y-104876575D01*
X146051236Y-104894232D01*
X146048255Y-104902184D01*
X146041500Y-104964366D01*
X146041500Y-105385634D01*
X146048255Y-105447816D01*
X146051029Y-105455215D01*
X146051236Y-105455768D01*
X146051270Y-105456229D01*
X146052856Y-105462900D01*
X146051777Y-105463157D01*
X146056421Y-105526575D01*
X146051236Y-105544232D01*
X146048255Y-105552184D01*
X146041500Y-105614366D01*
X146041500Y-106035634D01*
X146048255Y-106097816D01*
X146051029Y-106105215D01*
X146051236Y-106105768D01*
X146051270Y-106106229D01*
X146052856Y-106112900D01*
X146051777Y-106113157D01*
X146056421Y-106176575D01*
X146051236Y-106194232D01*
X146048255Y-106202184D01*
X146041500Y-106264366D01*
X146041500Y-106685634D01*
X146048255Y-106747816D01*
X146051029Y-106755215D01*
X146051236Y-106755768D01*
X146051270Y-106756229D01*
X146052856Y-106762900D01*
X146051777Y-106763157D01*
X146056421Y-106826575D01*
X146051236Y-106844232D01*
X146048255Y-106852184D01*
X146041500Y-106914366D01*
X146041500Y-107335634D01*
X146048255Y-107397816D01*
X146051029Y-107405215D01*
X146051236Y-107405768D01*
X146051270Y-107406229D01*
X146052856Y-107412900D01*
X146051777Y-107413157D01*
X146056421Y-107476575D01*
X146051236Y-107494232D01*
X146048255Y-107502184D01*
X146041500Y-107564366D01*
X146041500Y-107985634D01*
X146048255Y-108047816D01*
X146051029Y-108055215D01*
X146051236Y-108055768D01*
X146051270Y-108056229D01*
X146052856Y-108062900D01*
X146051777Y-108063157D01*
X146056421Y-108126575D01*
X146051236Y-108144232D01*
X146048255Y-108152184D01*
X146041500Y-108214366D01*
X146041500Y-108635634D01*
X146048255Y-108697816D01*
X146051029Y-108705215D01*
X146051236Y-108705768D01*
X146051270Y-108706229D01*
X146052856Y-108712900D01*
X146051777Y-108713157D01*
X146056421Y-108776575D01*
X146051236Y-108794232D01*
X146048255Y-108802184D01*
X146041500Y-108864366D01*
X146041500Y-109285634D01*
X146048255Y-109347816D01*
X146099385Y-109484205D01*
X146186739Y-109600761D01*
X146303295Y-109688115D01*
X146439684Y-109739245D01*
X146501866Y-109746000D01*
X147933261Y-109746000D01*
X148001382Y-109766002D01*
X148022356Y-109782905D01*
X148365759Y-110126308D01*
X148400221Y-110190713D01*
X148400547Y-110192343D01*
X148401140Y-110199637D01*
X148405256Y-110212342D01*
X148443441Y-110330213D01*
X148455649Y-110367899D01*
X148459445Y-110374154D01*
X148459446Y-110374157D01*
X148544496Y-110514314D01*
X148544499Y-110514318D01*
X148547405Y-110519107D01*
X148551114Y-110523306D01*
X148551117Y-110523311D01*
X148553509Y-110526019D01*
X148554803Y-110527484D01*
X149466230Y-111438911D01*
X149478616Y-111453323D01*
X149487149Y-111464918D01*
X149487154Y-111464923D01*
X149491492Y-111470818D01*
X149497070Y-111475557D01*
X149497073Y-111475560D01*
X149531768Y-111505035D01*
X149539284Y-111511965D01*
X149544979Y-111517660D01*
X149547861Y-111519940D01*
X149567251Y-111535281D01*
X149570655Y-111538072D01*
X149595574Y-111559242D01*
X149626285Y-111585333D01*
X149632801Y-111588661D01*
X149637850Y-111592028D01*
X149642979Y-111595195D01*
X149648716Y-111599734D01*
X149714875Y-111630655D01*
X149718769Y-111632558D01*
X149783808Y-111665769D01*
X149790916Y-111667508D01*
X149796559Y-111669607D01*
X149802322Y-111671524D01*
X149808950Y-111674622D01*
X149816112Y-111676112D01*
X149816113Y-111676112D01*
X149880412Y-111689486D01*
X149884696Y-111690456D01*
X149955610Y-111707808D01*
X149961212Y-111708156D01*
X149961215Y-111708156D01*
X149966764Y-111708500D01*
X149966762Y-111708536D01*
X149970755Y-111708775D01*
X149974947Y-111709149D01*
X149982115Y-111710640D01*
X150059520Y-111708546D01*
X150062928Y-111708500D01*
X157207413Y-111708500D01*
X157281472Y-111732563D01*
X157287902Y-111737235D01*
X157287909Y-111737239D01*
X157293248Y-111741118D01*
X157299276Y-111743802D01*
X157299278Y-111743803D01*
X157461681Y-111816109D01*
X157467712Y-111818794D01*
X157561113Y-111838647D01*
X157648056Y-111857128D01*
X157648061Y-111857128D01*
X157654513Y-111858500D01*
X157845487Y-111858500D01*
X157851942Y-111857128D01*
X157852332Y-111857087D01*
X157922170Y-111869860D01*
X157974016Y-111918363D01*
X157991500Y-111982397D01*
X157991500Y-115013001D01*
X157974619Y-115076000D01*
X157915473Y-115178444D01*
X157856458Y-115360072D01*
X157855768Y-115366633D01*
X157855768Y-115366635D01*
X157846657Y-115453323D01*
X157836496Y-115550000D01*
X157837186Y-115556565D01*
X157852506Y-115702330D01*
X157839734Y-115772168D01*
X157791232Y-115824015D01*
X157727196Y-115841500D01*
X157554513Y-115841500D01*
X157548061Y-115842872D01*
X157548056Y-115842872D01*
X157471199Y-115859209D01*
X157367712Y-115881206D01*
X157361682Y-115883891D01*
X157361681Y-115883891D01*
X157199278Y-115956197D01*
X157199276Y-115956198D01*
X157193248Y-115958882D01*
X157187907Y-115962762D01*
X157187906Y-115962763D01*
X157172419Y-115974015D01*
X157038747Y-116071134D01*
X157034326Y-116076044D01*
X157034325Y-116076045D01*
X156943157Y-116177298D01*
X156910960Y-116213056D01*
X156879060Y-116268309D01*
X156826860Y-116358722D01*
X156815473Y-116378444D01*
X156756458Y-116560072D01*
X156755768Y-116566633D01*
X156755768Y-116566635D01*
X156748411Y-116636632D01*
X156736496Y-116750000D01*
X156737186Y-116756565D01*
X156754235Y-116918774D01*
X156756458Y-116939928D01*
X156815473Y-117121556D01*
X156910960Y-117286944D01*
X156915378Y-117291851D01*
X156915379Y-117291852D01*
X157006286Y-117392814D01*
X157038747Y-117428866D01*
X157091025Y-117466848D01*
X157187904Y-117537235D01*
X157193248Y-117541118D01*
X157199276Y-117543802D01*
X157199278Y-117543803D01*
X157361681Y-117616109D01*
X157367712Y-117618794D01*
X157436263Y-117633365D01*
X157548056Y-117657128D01*
X157548061Y-117657128D01*
X157554513Y-117658500D01*
X157745487Y-117658500D01*
X157751939Y-117657128D01*
X157751944Y-117657128D01*
X157863737Y-117633365D01*
X157932288Y-117618794D01*
X157938319Y-117616109D01*
X158100722Y-117543803D01*
X158100724Y-117543802D01*
X158106752Y-117541118D01*
X158112091Y-117537239D01*
X158112098Y-117537235D01*
X158118528Y-117532563D01*
X158192587Y-117508500D01*
X167282930Y-117508500D01*
X167301880Y-117509933D01*
X167316115Y-117512099D01*
X167316119Y-117512099D01*
X167323349Y-117513199D01*
X167330641Y-117512606D01*
X167330644Y-117512606D01*
X167376018Y-117508915D01*
X167386233Y-117508500D01*
X167394293Y-117508500D01*
X167407583Y-117506951D01*
X167422507Y-117505211D01*
X167426882Y-117504778D01*
X167492339Y-117499454D01*
X167492342Y-117499453D01*
X167499637Y-117498860D01*
X167506601Y-117496604D01*
X167512560Y-117495413D01*
X167518415Y-117494029D01*
X167525681Y-117493182D01*
X167594327Y-117468265D01*
X167598455Y-117466848D01*
X167660936Y-117446607D01*
X167660938Y-117446606D01*
X167667899Y-117444351D01*
X167674154Y-117440555D01*
X167679628Y-117438049D01*
X167685058Y-117435330D01*
X167691937Y-117432833D01*
X167705478Y-117423955D01*
X167752976Y-117392814D01*
X167756680Y-117390477D01*
X167819107Y-117352595D01*
X167827484Y-117345197D01*
X167827508Y-117345224D01*
X167830500Y-117342571D01*
X167833733Y-117339868D01*
X167839852Y-117335856D01*
X167893128Y-117279617D01*
X167895506Y-117277175D01*
X167931714Y-117240967D01*
X167994026Y-117206941D01*
X168007200Y-117204799D01*
X168035316Y-117201745D01*
X168171705Y-117150615D01*
X168288261Y-117063261D01*
X168375615Y-116946705D01*
X168426745Y-116810316D01*
X168427539Y-116803010D01*
X168462635Y-116741576D01*
X168525590Y-116708756D01*
X168596295Y-116715182D01*
X168652302Y-116758814D01*
X168672454Y-116802940D01*
X168673255Y-116810316D01*
X168724385Y-116946705D01*
X168811739Y-117063261D01*
X168928295Y-117150615D01*
X169064684Y-117201745D01*
X169092798Y-117204799D01*
X169158360Y-117232040D01*
X169168286Y-117240967D01*
X169529875Y-117602556D01*
X169560613Y-117652714D01*
X169615473Y-117821556D01*
X169618776Y-117827278D01*
X169618777Y-117827279D01*
X169625320Y-117838611D01*
X169710960Y-117986944D01*
X169838747Y-118128866D01*
X169993248Y-118241118D01*
X169999276Y-118243802D01*
X169999278Y-118243803D01*
X170161681Y-118316109D01*
X170167712Y-118318794D01*
X170261112Y-118338647D01*
X170348056Y-118357128D01*
X170348061Y-118357128D01*
X170354513Y-118358500D01*
X170545487Y-118358500D01*
X170551939Y-118357128D01*
X170551944Y-118357128D01*
X170638888Y-118338647D01*
X170732288Y-118318794D01*
X170738319Y-118316109D01*
X170900722Y-118243803D01*
X170900724Y-118243802D01*
X170906752Y-118241118D01*
X171061253Y-118128866D01*
X171189040Y-117986944D01*
X171274680Y-117838611D01*
X171281223Y-117827279D01*
X171281224Y-117827278D01*
X171284527Y-117821556D01*
X171343542Y-117639928D01*
X171346046Y-117616109D01*
X171362814Y-117456565D01*
X171363504Y-117450000D01*
X171355825Y-117376934D01*
X171344232Y-117266635D01*
X171344232Y-117266633D01*
X171343542Y-117260072D01*
X171284527Y-117078444D01*
X171189040Y-116913056D01*
X171111722Y-116827185D01*
X171065675Y-116776045D01*
X171065674Y-116776044D01*
X171061253Y-116771134D01*
X170906752Y-116658882D01*
X170900724Y-116656198D01*
X170900722Y-116656197D01*
X170738319Y-116583891D01*
X170738318Y-116583891D01*
X170732288Y-116581206D01*
X170725833Y-116579834D01*
X170725824Y-116579831D01*
X170669228Y-116567801D01*
X170606331Y-116533650D01*
X170365967Y-116293286D01*
X170331941Y-116230974D01*
X170329799Y-116217798D01*
X170326745Y-116189683D01*
X170328884Y-116189451D01*
X170328834Y-116160490D01*
X170326252Y-116160210D01*
X170329126Y-116133749D01*
X170356366Y-116068186D01*
X170414728Y-116027759D01*
X170485683Y-116025302D01*
X170535377Y-116050831D01*
X170577474Y-116086154D01*
X170582872Y-116089121D01*
X170582877Y-116089125D01*
X170726180Y-116167905D01*
X170750787Y-116181433D01*
X170756654Y-116183294D01*
X170756656Y-116183295D01*
X170906959Y-116230974D01*
X170939306Y-116241235D01*
X171093227Y-116258500D01*
X172485019Y-116258500D01*
X172553140Y-116278502D01*
X172564990Y-116287132D01*
X172575283Y-116295587D01*
X172576150Y-116296307D01*
X172647474Y-116356154D01*
X172652144Y-116358722D01*
X172656261Y-116362103D01*
X172738120Y-116405995D01*
X172739280Y-116406624D01*
X172815389Y-116448466D01*
X172815394Y-116448468D01*
X172820787Y-116451433D01*
X172825865Y-116453044D01*
X172830563Y-116455563D01*
X172919498Y-116482753D01*
X172920702Y-116483128D01*
X173009306Y-116511235D01*
X173014597Y-116511828D01*
X173019698Y-116513388D01*
X173112311Y-116522795D01*
X173113431Y-116522915D01*
X173163227Y-116528500D01*
X173166756Y-116528500D01*
X173167739Y-116528555D01*
X173173426Y-116529003D01*
X173193683Y-116531060D01*
X173210336Y-116532752D01*
X173210339Y-116532752D01*
X173216463Y-116533374D01*
X173262112Y-116529059D01*
X173273969Y-116528500D01*
X174804965Y-116528500D01*
X174873086Y-116548502D01*
X174885449Y-116557555D01*
X174980698Y-116636632D01*
X175173572Y-116749338D01*
X175178397Y-116751180D01*
X175178398Y-116751181D01*
X175198387Y-116758814D01*
X175382264Y-116829030D01*
X175387332Y-116830061D01*
X175387335Y-116830062D01*
X175481933Y-116849308D01*
X175601169Y-116873567D01*
X175606344Y-116873757D01*
X175606346Y-116873757D01*
X175819245Y-116881564D01*
X175819249Y-116881564D01*
X175824409Y-116881753D01*
X175829529Y-116881097D01*
X175829531Y-116881097D01*
X176040860Y-116854025D01*
X176040861Y-116854025D01*
X176045988Y-116853368D01*
X176059521Y-116849308D01*
X176255001Y-116790661D01*
X176255006Y-116790659D01*
X176259956Y-116789174D01*
X176460566Y-116690896D01*
X176642432Y-116561173D01*
X176655148Y-116548502D01*
X176750742Y-116453241D01*
X176800668Y-116403489D01*
X176814149Y-116384729D01*
X176928007Y-116226277D01*
X176931025Y-116222077D01*
X176935484Y-116213056D01*
X177027708Y-116026453D01*
X177027709Y-116026451D01*
X177030002Y-116021811D01*
X177077717Y-115864762D01*
X177093437Y-115813023D01*
X177093437Y-115813021D01*
X177094942Y-115808069D01*
X177124101Y-115586590D01*
X177124995Y-115550000D01*
X177125646Y-115523365D01*
X177125646Y-115523361D01*
X177125728Y-115520000D01*
X177107424Y-115297361D01*
X177053003Y-115080702D01*
X176963926Y-114875840D01*
X176913579Y-114798016D01*
X176845394Y-114692617D01*
X176845392Y-114692614D01*
X176842586Y-114688277D01*
X176692242Y-114523051D01*
X176688191Y-114519852D01*
X176688187Y-114519848D01*
X176520986Y-114387800D01*
X176520982Y-114387798D01*
X176516931Y-114384598D01*
X176475625Y-114361796D01*
X176425656Y-114311364D01*
X176410884Y-114241921D01*
X176436000Y-114175516D01*
X176463352Y-114148909D01*
X176507175Y-114117650D01*
X176642432Y-114021173D01*
X176655148Y-114008502D01*
X176750788Y-113913195D01*
X176800668Y-113863489D01*
X176834682Y-113816154D01*
X176928007Y-113686277D01*
X176931025Y-113682077D01*
X176947184Y-113649383D01*
X177027708Y-113486453D01*
X177027709Y-113486451D01*
X177030002Y-113481811D01*
X177067170Y-113359477D01*
X177093437Y-113273023D01*
X177093437Y-113273021D01*
X177094942Y-113268069D01*
X177124101Y-113046590D01*
X177125728Y-112980000D01*
X177107424Y-112757361D01*
X177053003Y-112540702D01*
X176963926Y-112335840D01*
X176895992Y-112230830D01*
X176845394Y-112152617D01*
X176845392Y-112152614D01*
X176842586Y-112148277D01*
X176692242Y-111983051D01*
X176688191Y-111979852D01*
X176688187Y-111979848D01*
X176520986Y-111847800D01*
X176520982Y-111847798D01*
X176516931Y-111844598D01*
X176475625Y-111821796D01*
X176425656Y-111771364D01*
X176410884Y-111701921D01*
X176436000Y-111635516D01*
X176463352Y-111608909D01*
X176519808Y-111568639D01*
X176642432Y-111481173D01*
X176650000Y-111473632D01*
X176786880Y-111337229D01*
X176800668Y-111323489D01*
X176803721Y-111319241D01*
X176928007Y-111146277D01*
X176931025Y-111142077D01*
X176938313Y-111127332D01*
X177027708Y-110946453D01*
X177027709Y-110946451D01*
X177030002Y-110941811D01*
X177078522Y-110782115D01*
X177093437Y-110733023D01*
X177093437Y-110733021D01*
X177094942Y-110728069D01*
X177124101Y-110506590D01*
X177125296Y-110457672D01*
X177125646Y-110443365D01*
X177125646Y-110443361D01*
X177125728Y-110440000D01*
X177107424Y-110217361D01*
X177053003Y-110000702D01*
X176963926Y-109795840D01*
X176889402Y-109680643D01*
X176845394Y-109612617D01*
X176845392Y-109612614D01*
X176842586Y-109608277D01*
X176692242Y-109443051D01*
X176688191Y-109439852D01*
X176688187Y-109439848D01*
X176520986Y-109307800D01*
X176520982Y-109307798D01*
X176516931Y-109304598D01*
X176508798Y-109300108D01*
X176484159Y-109286507D01*
X176475141Y-109281529D01*
X176425170Y-109231097D01*
X176410398Y-109161654D01*
X176435514Y-109095248D01*
X176462866Y-109068641D01*
X176637900Y-108943792D01*
X176645772Y-108937139D01*
X176796624Y-108786812D01*
X176803302Y-108778965D01*
X176927575Y-108606020D01*
X176932885Y-108597183D01*
X177027242Y-108406267D01*
X177031041Y-108396672D01*
X177092949Y-108192910D01*
X177095127Y-108182837D01*
X177096558Y-108171962D01*
X177094347Y-108157778D01*
X177081189Y-108154000D01*
X174445797Y-108154000D01*
X174432266Y-108157973D01*
X174430829Y-108167966D01*
X174461137Y-108302446D01*
X174464217Y-108312275D01*
X174544342Y-108509603D01*
X174548985Y-108518794D01*
X174660266Y-108700388D01*
X174666349Y-108708699D01*
X174805785Y-108869667D01*
X174813152Y-108876883D01*
X174977006Y-109012916D01*
X174985453Y-109018831D01*
X175054541Y-109059203D01*
X175103265Y-109110842D01*
X175116336Y-109180625D01*
X175089605Y-109246396D01*
X175049156Y-109279752D01*
X175036179Y-109286507D01*
X175032046Y-109289610D01*
X175032043Y-109289612D01*
X174954314Y-109347973D01*
X174899589Y-109389062D01*
X174876683Y-109406260D01*
X174810198Y-109431166D01*
X174801030Y-109431500D01*
X174109926Y-109431500D01*
X174041805Y-109411498D01*
X174020831Y-109394596D01*
X173203266Y-108577032D01*
X173203262Y-108577027D01*
X173156506Y-108530271D01*
X173106845Y-108480611D01*
X173097743Y-108470466D01*
X173077896Y-108445780D01*
X173077892Y-108445776D01*
X173074032Y-108440975D01*
X173035578Y-108408708D01*
X173031931Y-108405528D01*
X173030119Y-108403885D01*
X173027925Y-108401691D01*
X172994651Y-108374358D01*
X172993853Y-108373696D01*
X172922526Y-108313846D01*
X172917856Y-108311278D01*
X172913739Y-108307897D01*
X172831914Y-108264023D01*
X172830755Y-108263394D01*
X172754619Y-108221538D01*
X172754611Y-108221535D01*
X172749213Y-108218567D01*
X172744131Y-108216955D01*
X172739437Y-108214438D01*
X172650469Y-108187238D01*
X172649441Y-108186918D01*
X172560694Y-108158765D01*
X172555398Y-108158171D01*
X172550302Y-108156613D01*
X172457743Y-108147210D01*
X172456607Y-108147089D01*
X172422992Y-108143319D01*
X172410270Y-108141892D01*
X172410266Y-108141892D01*
X172406773Y-108141500D01*
X172403246Y-108141500D01*
X172402261Y-108141445D01*
X172396581Y-108140998D01*
X172367175Y-108138011D01*
X172359663Y-108137248D01*
X172359661Y-108137248D01*
X172353538Y-108136626D01*
X172311259Y-108140623D01*
X172307891Y-108140941D01*
X172296033Y-108141500D01*
X171686572Y-108141500D01*
X171618451Y-108121498D01*
X171571958Y-108067842D01*
X171561262Y-108028670D01*
X171559183Y-108008884D01*
X171543542Y-107860072D01*
X171484527Y-107678444D01*
X171470536Y-107654210D01*
X171418664Y-107564366D01*
X171389040Y-107513056D01*
X171365438Y-107486843D01*
X171265676Y-107376046D01*
X171265675Y-107376045D01*
X171261253Y-107371134D01*
X171261436Y-107370969D01*
X171225938Y-107313349D01*
X171227290Y-107242365D01*
X171266804Y-107183381D01*
X171331935Y-107155124D01*
X171361533Y-107154945D01*
X171393227Y-107158500D01*
X173088157Y-107158500D01*
X173101764Y-107159237D01*
X173133262Y-107162659D01*
X173133267Y-107162659D01*
X173139388Y-107163324D01*
X173167518Y-107160863D01*
X173189388Y-107158950D01*
X173194214Y-107158621D01*
X173196686Y-107158500D01*
X173199769Y-107158500D01*
X173211738Y-107157326D01*
X173242506Y-107154310D01*
X173243819Y-107154188D01*
X173288084Y-107150315D01*
X173336413Y-107146087D01*
X173341532Y-107144600D01*
X173346833Y-107144080D01*
X173435834Y-107117209D01*
X173436967Y-107116874D01*
X173520414Y-107092630D01*
X173520418Y-107092628D01*
X173526336Y-107090909D01*
X173531068Y-107088456D01*
X173536169Y-107086916D01*
X173594003Y-107056166D01*
X173618260Y-107043269D01*
X173619426Y-107042657D01*
X173696453Y-107002729D01*
X173701926Y-106999892D01*
X173706089Y-106996569D01*
X173710796Y-106994066D01*
X173782918Y-106935245D01*
X173783774Y-106934554D01*
X173822973Y-106903262D01*
X173825477Y-106900758D01*
X173826195Y-106900116D01*
X173830528Y-106896415D01*
X173864062Y-106869065D01*
X173893291Y-106833733D01*
X173901272Y-106824963D01*
X174103990Y-106622245D01*
X174320829Y-106405405D01*
X174383142Y-106371380D01*
X174409925Y-106368500D01*
X174804965Y-106368500D01*
X174873086Y-106388502D01*
X174885449Y-106397555D01*
X174980698Y-106476632D01*
X175054527Y-106519774D01*
X175103251Y-106571412D01*
X175116322Y-106641195D01*
X175089591Y-106706967D01*
X175049134Y-106740327D01*
X175041029Y-106744546D01*
X175032310Y-106750036D01*
X174862005Y-106877905D01*
X174854298Y-106884748D01*
X174707162Y-107038717D01*
X174700676Y-107046727D01*
X174580670Y-107222649D01*
X174575572Y-107231623D01*
X174485910Y-107424783D01*
X174482347Y-107434470D01*
X174426961Y-107634183D01*
X174428484Y-107642607D01*
X174440864Y-107646000D01*
X177080916Y-107646000D01*
X177094447Y-107642027D01*
X177095752Y-107632947D01*
X177053786Y-107465875D01*
X177050466Y-107456124D01*
X176965544Y-107260814D01*
X176960677Y-107251739D01*
X176844998Y-107072926D01*
X176838708Y-107064757D01*
X176695378Y-106907240D01*
X176687845Y-106900215D01*
X176520711Y-106768222D01*
X176512128Y-106762520D01*
X176475174Y-106742120D01*
X176425203Y-106691687D01*
X176410431Y-106622245D01*
X176435547Y-106555839D01*
X176462899Y-106529232D01*
X176518283Y-106489727D01*
X176642432Y-106401173D01*
X176655148Y-106388502D01*
X176781295Y-106262794D01*
X176800668Y-106243489D01*
X176816978Y-106220792D01*
X176928007Y-106066277D01*
X176931025Y-106062077D01*
X176935713Y-106052593D01*
X177027708Y-105866453D01*
X177027709Y-105866451D01*
X177030002Y-105861811D01*
X177081649Y-105691822D01*
X177093437Y-105653023D01*
X177093437Y-105653021D01*
X177094942Y-105648069D01*
X177124101Y-105426590D01*
X177124599Y-105406200D01*
X177125646Y-105363365D01*
X177125646Y-105363350D01*
X177125728Y-105360000D01*
X177107424Y-105137361D01*
X177053003Y-104920702D01*
X176963926Y-104715840D01*
X176891917Y-104604531D01*
X176845394Y-104532617D01*
X176845392Y-104532614D01*
X176842586Y-104528277D01*
X176692242Y-104363051D01*
X176688191Y-104359852D01*
X176688187Y-104359848D01*
X176520986Y-104227800D01*
X176520982Y-104227798D01*
X176516931Y-104224598D01*
X176475625Y-104201796D01*
X176425656Y-104151364D01*
X176410884Y-104081921D01*
X176436000Y-104015516D01*
X176463352Y-103988909D01*
X176518216Y-103949775D01*
X176642432Y-103861173D01*
X176646293Y-103857326D01*
X176747831Y-103756142D01*
X176800668Y-103703489D01*
X176843557Y-103643803D01*
X176928007Y-103526277D01*
X176931025Y-103522077D01*
X176939086Y-103505768D01*
X177027708Y-103326453D01*
X177027709Y-103326451D01*
X177030002Y-103321811D01*
X177094942Y-103108069D01*
X177124101Y-102886590D01*
X177124868Y-102855215D01*
X177125646Y-102823365D01*
X177125646Y-102823361D01*
X177125728Y-102820000D01*
X177107424Y-102597361D01*
X177053003Y-102380702D01*
X176963926Y-102175840D01*
X176894892Y-102069130D01*
X176845394Y-101992617D01*
X176845392Y-101992614D01*
X176842586Y-101988277D01*
X176692242Y-101823051D01*
X176688191Y-101819852D01*
X176688187Y-101819848D01*
X176520986Y-101687800D01*
X176520982Y-101687798D01*
X176516931Y-101684598D01*
X176475625Y-101661796D01*
X176425656Y-101611364D01*
X176410884Y-101541921D01*
X176436000Y-101475516D01*
X176463352Y-101448909D01*
X176513616Y-101413056D01*
X176642432Y-101321173D01*
X176649726Y-101313905D01*
X176750742Y-101213241D01*
X176800668Y-101163489D01*
X176807533Y-101153936D01*
X176928007Y-100986277D01*
X176931025Y-100982077D01*
X176933745Y-100976575D01*
X177027708Y-100786453D01*
X177027709Y-100786451D01*
X177030002Y-100781811D01*
X177070049Y-100650000D01*
X177093437Y-100573023D01*
X177093437Y-100573021D01*
X177094942Y-100568069D01*
X177124101Y-100346590D01*
X177124183Y-100343240D01*
X177125646Y-100283365D01*
X177125646Y-100283361D01*
X177125728Y-100280000D01*
X177107424Y-100057361D01*
X177053003Y-99840702D01*
X176963926Y-99635840D01*
X176886263Y-99515791D01*
X176845394Y-99452617D01*
X176845392Y-99452614D01*
X176842586Y-99448277D01*
X176692242Y-99283051D01*
X176688191Y-99279852D01*
X176688187Y-99279848D01*
X176520986Y-99147800D01*
X176520982Y-99147798D01*
X176516931Y-99144598D01*
X176475625Y-99121796D01*
X176425656Y-99071364D01*
X176410884Y-99001921D01*
X176436000Y-98935516D01*
X176463352Y-98908909D01*
X176526110Y-98864144D01*
X176642432Y-98781173D01*
X176651119Y-98772517D01*
X176728684Y-98695222D01*
X176800668Y-98623489D01*
X176834682Y-98576154D01*
X176928007Y-98446277D01*
X176931025Y-98442077D01*
X176944274Y-98415271D01*
X177027708Y-98246453D01*
X177027709Y-98246451D01*
X177030002Y-98241811D01*
X177078729Y-98081433D01*
X177093437Y-98033023D01*
X177093437Y-98033021D01*
X177094942Y-98028069D01*
X177124101Y-97806590D01*
X177124678Y-97782965D01*
X177125646Y-97743365D01*
X177125646Y-97743361D01*
X177125728Y-97740000D01*
X177107424Y-97517361D01*
X177053003Y-97300702D01*
X176963926Y-97095840D01*
X176869837Y-96950400D01*
X176845394Y-96912617D01*
X176845392Y-96912614D01*
X176842586Y-96908277D01*
X176838224Y-96903483D01*
X176695370Y-96746488D01*
X176664318Y-96682642D01*
X176672713Y-96612143D01*
X176717889Y-96557375D01*
X176744333Y-96543706D01*
X176850869Y-96503767D01*
X176859277Y-96500615D01*
X176975833Y-96413261D01*
X177063187Y-96296705D01*
X177114317Y-96160316D01*
X177121072Y-96098134D01*
X177121072Y-94301866D01*
X177114317Y-94239684D01*
X177063187Y-94103295D01*
X176975833Y-93986739D01*
X176859277Y-93899385D01*
X176722888Y-93848255D01*
X176660706Y-93841500D01*
X174864438Y-93841500D01*
X174802256Y-93848255D01*
X174665867Y-93899385D01*
X174658884Y-93904618D01*
X174589652Y-93919761D01*
X174523104Y-93895026D01*
X174509403Y-93883168D01*
X174203266Y-93577032D01*
X174203262Y-93577027D01*
X174172468Y-93546233D01*
X174106845Y-93480611D01*
X174097743Y-93470466D01*
X174077896Y-93445780D01*
X174077892Y-93445776D01*
X174074032Y-93440975D01*
X174035578Y-93408708D01*
X174031931Y-93405528D01*
X174030119Y-93403885D01*
X174027925Y-93401691D01*
X173994651Y-93374358D01*
X173993853Y-93373696D01*
X173922526Y-93313846D01*
X173917856Y-93311278D01*
X173913739Y-93307897D01*
X173831914Y-93264023D01*
X173830755Y-93263394D01*
X173754619Y-93221538D01*
X173754611Y-93221535D01*
X173749213Y-93218567D01*
X173744131Y-93216955D01*
X173739437Y-93214438D01*
X173650469Y-93187238D01*
X173649441Y-93186918D01*
X173560694Y-93158765D01*
X173555398Y-93158171D01*
X173550302Y-93156613D01*
X173457743Y-93147210D01*
X173456607Y-93147089D01*
X173422992Y-93143319D01*
X173410270Y-93141892D01*
X173410266Y-93141892D01*
X173406773Y-93141500D01*
X173403246Y-93141500D01*
X173402261Y-93141445D01*
X173396581Y-93140998D01*
X173367175Y-93138011D01*
X173359663Y-93137248D01*
X173359661Y-93137248D01*
X173353538Y-93136626D01*
X173311259Y-93140623D01*
X173307891Y-93140941D01*
X173296033Y-93141500D01*
X171000231Y-93141500D01*
X170997175Y-93141800D01*
X170997168Y-93141800D01*
X170941915Y-93147218D01*
X170853167Y-93155920D01*
X170847266Y-93157702D01*
X170847264Y-93157702D01*
X170820976Y-93165639D01*
X170663831Y-93213084D01*
X170489204Y-93305934D01*
X170374193Y-93399735D01*
X170357753Y-93413143D01*
X170292321Y-93440697D01*
X170278117Y-93441500D01*
X169455707Y-93441500D01*
X169393813Y-93448716D01*
X169331589Y-93455970D01*
X169331585Y-93455971D01*
X169324319Y-93456818D01*
X169317444Y-93459314D01*
X169317442Y-93459314D01*
X169249603Y-93483939D01*
X169206611Y-93491500D01*
X169126866Y-93491500D01*
X169064684Y-93498255D01*
X168928295Y-93549385D01*
X168811739Y-93636739D01*
X168724385Y-93753295D01*
X168673255Y-93889684D01*
X168672461Y-93896990D01*
X168637365Y-93958424D01*
X168574410Y-93991244D01*
X168503705Y-93984818D01*
X168447698Y-93941186D01*
X168427546Y-93897060D01*
X168426745Y-93889684D01*
X168375615Y-93753295D01*
X168373264Y-93750158D01*
X168358500Y-93692450D01*
X168358500Y-93667070D01*
X168359933Y-93648120D01*
X168362099Y-93633885D01*
X168362099Y-93633881D01*
X168363199Y-93626651D01*
X168361760Y-93608950D01*
X168358915Y-93573982D01*
X168358500Y-93563767D01*
X168358500Y-93555707D01*
X168355209Y-93527480D01*
X168354778Y-93523121D01*
X168352981Y-93501029D01*
X168348860Y-93450364D01*
X168346605Y-93443403D01*
X168345418Y-93437463D01*
X168344029Y-93431588D01*
X168343182Y-93424319D01*
X168318264Y-93355670D01*
X168316847Y-93351542D01*
X168296607Y-93289064D01*
X168296606Y-93289062D01*
X168294351Y-93282101D01*
X168290555Y-93275846D01*
X168288049Y-93270372D01*
X168285330Y-93264942D01*
X168282833Y-93258063D01*
X168258886Y-93221538D01*
X168242814Y-93197024D01*
X168240467Y-93193305D01*
X168236689Y-93187079D01*
X168202595Y-93130893D01*
X168195197Y-93122516D01*
X168195224Y-93122492D01*
X168192571Y-93119500D01*
X168189868Y-93116267D01*
X168185856Y-93110148D01*
X168129617Y-93056872D01*
X168127175Y-93054494D01*
X167833770Y-92761089D01*
X167821384Y-92746677D01*
X167812851Y-92735082D01*
X167812846Y-92735077D01*
X167808508Y-92729182D01*
X167802930Y-92724443D01*
X167802927Y-92724440D01*
X167768232Y-92694965D01*
X167760716Y-92688035D01*
X167755021Y-92682340D01*
X167738736Y-92669456D01*
X167732749Y-92664719D01*
X167729345Y-92661928D01*
X167679297Y-92619409D01*
X167679295Y-92619408D01*
X167673715Y-92614667D01*
X167667199Y-92611339D01*
X167662150Y-92607972D01*
X167657021Y-92604805D01*
X167651284Y-92600266D01*
X167585125Y-92569345D01*
X167581225Y-92567439D01*
X167516192Y-92534231D01*
X167509084Y-92532492D01*
X167503441Y-92530393D01*
X167497678Y-92528476D01*
X167491050Y-92525378D01*
X167419583Y-92510513D01*
X167415299Y-92509543D01*
X167380958Y-92501140D01*
X167344390Y-92492192D01*
X167338788Y-92491844D01*
X167338785Y-92491844D01*
X167333236Y-92491500D01*
X167333238Y-92491464D01*
X167329245Y-92491225D01*
X167325053Y-92490851D01*
X167317885Y-92489360D01*
X167254120Y-92491085D01*
X167240479Y-92491454D01*
X167237072Y-92491500D01*
X159517069Y-92491500D01*
X159498121Y-92490067D01*
X159489758Y-92488795D01*
X159483883Y-92487901D01*
X159483881Y-92487901D01*
X159476651Y-92486801D01*
X159469359Y-92487394D01*
X159469356Y-92487394D01*
X159423982Y-92491085D01*
X159413767Y-92491500D01*
X159405707Y-92491500D01*
X159392417Y-92493049D01*
X159377493Y-92494789D01*
X159373118Y-92495222D01*
X159307661Y-92500546D01*
X159307658Y-92500547D01*
X159300363Y-92501140D01*
X159293399Y-92503396D01*
X159287440Y-92504587D01*
X159281585Y-92505971D01*
X159274319Y-92506818D01*
X159205673Y-92531735D01*
X159201545Y-92533152D01*
X159139064Y-92553393D01*
X159139062Y-92553394D01*
X159132101Y-92555649D01*
X159125846Y-92559445D01*
X159120372Y-92561951D01*
X159114942Y-92564670D01*
X159108063Y-92567167D01*
X159101943Y-92571180D01*
X159101942Y-92571180D01*
X159047024Y-92607186D01*
X159043320Y-92609523D01*
X158980893Y-92647405D01*
X158972516Y-92654803D01*
X158972492Y-92654776D01*
X158969500Y-92657429D01*
X158966267Y-92660132D01*
X158960148Y-92664144D01*
X158930951Y-92694965D01*
X158906872Y-92720383D01*
X158904494Y-92722825D01*
X158448094Y-93179225D01*
X158385782Y-93213251D01*
X158314967Y-93208186D01*
X158258131Y-93165639D01*
X158233320Y-93099119D01*
X158232999Y-93090130D01*
X158232999Y-92827905D01*
X158232662Y-92821386D01*
X158222743Y-92725794D01*
X158219851Y-92712400D01*
X158168412Y-92558216D01*
X158162239Y-92545038D01*
X158076937Y-92407193D01*
X158067901Y-92395792D01*
X157953171Y-92281261D01*
X157941760Y-92272249D01*
X157803757Y-92187184D01*
X157790576Y-92181037D01*
X157636290Y-92129862D01*
X157622914Y-92126995D01*
X157528562Y-92117328D01*
X157522145Y-92117000D01*
X157122115Y-92117000D01*
X157106876Y-92121475D01*
X157105671Y-92122865D01*
X157104000Y-92130548D01*
X157104000Y-94364884D01*
X157108475Y-94380123D01*
X157109865Y-94381328D01*
X157117548Y-94382999D01*
X157522095Y-94382999D01*
X157528614Y-94382662D01*
X157624206Y-94372743D01*
X157637600Y-94369851D01*
X157791784Y-94318412D01*
X157804962Y-94312238D01*
X157899197Y-94253924D01*
X157967649Y-94235086D01*
X158035418Y-94256247D01*
X158080990Y-94310688D01*
X158091500Y-94361068D01*
X158091500Y-94938281D01*
X158071498Y-95006402D01*
X158017842Y-95052895D01*
X157947568Y-95062999D01*
X157899384Y-95045541D01*
X157878668Y-95032771D01*
X157845070Y-95012061D01*
X157803968Y-94986725D01*
X157803966Y-94986724D01*
X157797738Y-94982885D01*
X157701975Y-94951122D01*
X157636389Y-94929368D01*
X157636387Y-94929368D01*
X157629861Y-94927203D01*
X157623025Y-94926503D01*
X157623022Y-94926502D01*
X157579969Y-94922091D01*
X157525400Y-94916500D01*
X156174600Y-94916500D01*
X156171354Y-94916837D01*
X156171350Y-94916837D01*
X156075692Y-94926762D01*
X156075688Y-94926763D01*
X156068834Y-94927474D01*
X156062298Y-94929655D01*
X156062296Y-94929655D01*
X155958921Y-94964144D01*
X155901054Y-94983450D01*
X155750652Y-95076522D01*
X155625695Y-95201697D01*
X155621853Y-95207929D01*
X155621852Y-95207931D01*
X155607206Y-95231691D01*
X155554434Y-95279185D01*
X155484363Y-95290609D01*
X155419239Y-95262335D01*
X155392802Y-95231879D01*
X155377332Y-95206880D01*
X155373478Y-95200652D01*
X155248303Y-95075695D01*
X155242072Y-95071854D01*
X155103968Y-94986725D01*
X155103966Y-94986724D01*
X155097738Y-94982885D01*
X155001975Y-94951122D01*
X154936389Y-94929368D01*
X154936387Y-94929368D01*
X154929861Y-94927203D01*
X154923025Y-94926503D01*
X154923022Y-94926502D01*
X154879969Y-94922091D01*
X154825400Y-94916500D01*
X153474600Y-94916500D01*
X153471354Y-94916837D01*
X153471350Y-94916837D01*
X153375692Y-94926762D01*
X153375688Y-94926763D01*
X153368834Y-94927474D01*
X153362298Y-94929655D01*
X153362296Y-94929655D01*
X153258921Y-94964144D01*
X153201054Y-94983450D01*
X153194822Y-94987306D01*
X153194823Y-94987306D01*
X153185257Y-94993225D01*
X153116804Y-95012061D01*
X153049035Y-94990898D01*
X153009838Y-94949079D01*
X152996803Y-94926502D01*
X152989040Y-94913056D01*
X152947722Y-94867167D01*
X152865675Y-94776045D01*
X152865674Y-94776044D01*
X152861253Y-94771134D01*
X152706752Y-94658882D01*
X152700724Y-94656198D01*
X152700722Y-94656197D01*
X152538319Y-94583891D01*
X152538318Y-94583891D01*
X152532288Y-94581206D01*
X152438888Y-94561353D01*
X152351944Y-94542872D01*
X152351939Y-94542872D01*
X152345487Y-94541500D01*
X152154513Y-94541500D01*
X152148061Y-94542872D01*
X152148056Y-94542872D01*
X152061113Y-94561353D01*
X151967712Y-94581206D01*
X151961682Y-94583891D01*
X151961681Y-94583891D01*
X151799278Y-94656197D01*
X151799276Y-94656198D01*
X151793248Y-94658882D01*
X151644092Y-94767251D01*
X151643837Y-94767436D01*
X151576969Y-94791294D01*
X151569776Y-94791500D01*
X148885371Y-94791500D01*
X148817250Y-94771498D01*
X148770757Y-94717842D01*
X148760653Y-94647568D01*
X148790147Y-94582988D01*
X148796276Y-94576405D01*
X149700586Y-93672095D01*
X152767001Y-93672095D01*
X152767338Y-93678614D01*
X152777257Y-93774206D01*
X152780149Y-93787600D01*
X152831588Y-93941784D01*
X152837761Y-93954962D01*
X152923063Y-94092807D01*
X152932099Y-94104208D01*
X153046829Y-94218739D01*
X153058240Y-94227751D01*
X153196243Y-94312816D01*
X153209424Y-94318963D01*
X153363710Y-94370138D01*
X153377086Y-94373005D01*
X153471438Y-94382672D01*
X153477854Y-94383000D01*
X153877885Y-94383000D01*
X153893124Y-94378525D01*
X153894329Y-94377135D01*
X153896000Y-94369452D01*
X153896000Y-94364884D01*
X154404000Y-94364884D01*
X154408475Y-94380123D01*
X154409865Y-94381328D01*
X154417548Y-94382999D01*
X154822095Y-94382999D01*
X154828614Y-94382662D01*
X154924206Y-94372743D01*
X154937600Y-94369851D01*
X155091784Y-94318412D01*
X155104962Y-94312239D01*
X155242807Y-94226937D01*
X155254208Y-94217901D01*
X155368739Y-94103171D01*
X155377753Y-94091757D01*
X155392795Y-94067355D01*
X155445567Y-94019862D01*
X155515639Y-94008440D01*
X155580762Y-94036714D01*
X155607199Y-94067170D01*
X155623065Y-94092810D01*
X155632099Y-94104208D01*
X155746829Y-94218739D01*
X155758240Y-94227751D01*
X155896243Y-94312816D01*
X155909424Y-94318963D01*
X156063710Y-94370138D01*
X156077086Y-94373005D01*
X156171438Y-94382672D01*
X156177854Y-94383000D01*
X156577885Y-94383000D01*
X156593124Y-94378525D01*
X156594329Y-94377135D01*
X156596000Y-94369452D01*
X156596000Y-93522115D01*
X156591525Y-93506876D01*
X156590135Y-93505671D01*
X156582452Y-93504000D01*
X154422115Y-93504000D01*
X154406876Y-93508475D01*
X154405671Y-93509865D01*
X154404000Y-93517548D01*
X154404000Y-94364884D01*
X153896000Y-94364884D01*
X153896000Y-93522115D01*
X153891525Y-93506876D01*
X153890135Y-93505671D01*
X153882452Y-93504000D01*
X152785116Y-93504000D01*
X152769877Y-93508475D01*
X152768672Y-93509865D01*
X152767001Y-93517548D01*
X152767001Y-93672095D01*
X149700586Y-93672095D01*
X150394796Y-92977885D01*
X152767000Y-92977885D01*
X152771475Y-92993124D01*
X152772865Y-92994329D01*
X152780548Y-92996000D01*
X153877885Y-92996000D01*
X153893124Y-92991525D01*
X153894329Y-92990135D01*
X153896000Y-92982452D01*
X153896000Y-92977885D01*
X154404000Y-92977885D01*
X154408475Y-92993124D01*
X154409865Y-92994329D01*
X154417548Y-92996000D01*
X156577885Y-92996000D01*
X156593124Y-92991525D01*
X156594329Y-92990135D01*
X156596000Y-92982452D01*
X156596000Y-92135116D01*
X156591525Y-92119877D01*
X156590135Y-92118672D01*
X156582452Y-92117001D01*
X156177905Y-92117001D01*
X156171386Y-92117338D01*
X156075794Y-92127257D01*
X156062400Y-92130149D01*
X155908216Y-92181588D01*
X155895038Y-92187761D01*
X155757193Y-92273063D01*
X155745792Y-92282099D01*
X155631261Y-92396829D01*
X155622247Y-92408243D01*
X155607205Y-92432645D01*
X155554433Y-92480138D01*
X155484361Y-92491560D01*
X155419238Y-92463286D01*
X155392801Y-92432830D01*
X155376935Y-92407190D01*
X155367901Y-92395792D01*
X155253171Y-92281261D01*
X155241760Y-92272249D01*
X155103757Y-92187184D01*
X155090576Y-92181037D01*
X154936290Y-92129862D01*
X154922914Y-92126995D01*
X154828562Y-92117328D01*
X154822145Y-92117000D01*
X154422115Y-92117000D01*
X154406876Y-92121475D01*
X154405671Y-92122865D01*
X154404000Y-92130548D01*
X154404000Y-92977885D01*
X153896000Y-92977885D01*
X153896000Y-92135116D01*
X153891525Y-92119877D01*
X153890135Y-92118672D01*
X153882452Y-92117001D01*
X153477905Y-92117001D01*
X153471386Y-92117338D01*
X153375794Y-92127257D01*
X153362400Y-92130149D01*
X153208216Y-92181588D01*
X153195038Y-92187761D01*
X153057193Y-92273063D01*
X153045792Y-92282099D01*
X152931261Y-92396829D01*
X152922249Y-92408240D01*
X152837184Y-92546243D01*
X152831037Y-92559424D01*
X152779862Y-92713710D01*
X152776995Y-92727086D01*
X152767328Y-92821438D01*
X152767000Y-92827855D01*
X152767000Y-92977885D01*
X150394796Y-92977885D01*
X152938911Y-90433770D01*
X152953323Y-90421384D01*
X152964918Y-90412851D01*
X152964923Y-90412846D01*
X152970818Y-90408508D01*
X152975557Y-90402930D01*
X152975560Y-90402927D01*
X153005035Y-90368232D01*
X153011965Y-90360716D01*
X153017660Y-90355021D01*
X153028276Y-90341603D01*
X153035281Y-90332749D01*
X153038072Y-90329345D01*
X153080591Y-90279297D01*
X153080592Y-90279295D01*
X153085333Y-90273715D01*
X153088661Y-90267199D01*
X153092028Y-90262150D01*
X153095195Y-90257021D01*
X153099734Y-90251284D01*
X153130655Y-90185125D01*
X153132561Y-90181225D01*
X153143543Y-90159718D01*
X153165769Y-90116192D01*
X153167508Y-90109084D01*
X153169607Y-90103441D01*
X153171524Y-90097678D01*
X153174622Y-90091050D01*
X153189487Y-90019583D01*
X153190457Y-90015299D01*
X153198073Y-89984176D01*
X153207808Y-89944390D01*
X153208500Y-89933236D01*
X153208536Y-89933238D01*
X153208775Y-89929245D01*
X153209149Y-89925053D01*
X153210640Y-89917885D01*
X153208546Y-89840479D01*
X153208500Y-89837072D01*
X153208500Y-88248134D01*
X174391500Y-88248134D01*
X174398255Y-88310316D01*
X174449385Y-88446705D01*
X174536739Y-88563261D01*
X174653295Y-88650615D01*
X174789684Y-88701745D01*
X174851866Y-88708500D01*
X176648134Y-88708500D01*
X176710316Y-88701745D01*
X176846705Y-88650615D01*
X176963261Y-88563261D01*
X177050615Y-88446705D01*
X177101745Y-88310316D01*
X177108500Y-88248134D01*
X177108500Y-86451866D01*
X177101745Y-86389684D01*
X177050615Y-86253295D01*
X176963261Y-86136739D01*
X176846705Y-86049385D01*
X176710316Y-85998255D01*
X176648134Y-85991500D01*
X174851866Y-85991500D01*
X174789684Y-85998255D01*
X174653295Y-86049385D01*
X174536739Y-86136739D01*
X174449385Y-86253295D01*
X174398255Y-86389684D01*
X174391500Y-86451866D01*
X174391500Y-88248134D01*
X153208500Y-88248134D01*
X153208500Y-88116371D01*
X153228502Y-88048250D01*
X153245405Y-88027276D01*
X153727276Y-87545405D01*
X153789588Y-87511379D01*
X153816371Y-87508500D01*
X160807413Y-87508500D01*
X160881472Y-87532563D01*
X160887902Y-87537235D01*
X160887909Y-87537239D01*
X160893248Y-87541118D01*
X160899276Y-87543802D01*
X160899278Y-87543803D01*
X161027285Y-87600795D01*
X161067712Y-87618794D01*
X161161113Y-87638647D01*
X161248056Y-87657128D01*
X161248061Y-87657128D01*
X161254513Y-87658500D01*
X161445487Y-87658500D01*
X161451939Y-87657128D01*
X161451944Y-87657128D01*
X161538888Y-87638647D01*
X161632288Y-87618794D01*
X161672715Y-87600795D01*
X161800722Y-87543803D01*
X161800724Y-87543802D01*
X161806752Y-87541118D01*
X161812097Y-87537235D01*
X161874665Y-87491776D01*
X161961253Y-87428866D01*
X162033589Y-87348529D01*
X162084621Y-87291852D01*
X162084622Y-87291851D01*
X162089040Y-87286944D01*
X162141049Y-87196862D01*
X162192432Y-87147869D01*
X162262145Y-87134433D01*
X162301417Y-87144755D01*
X162418452Y-87196862D01*
X162467712Y-87218794D01*
X162561113Y-87238647D01*
X162648056Y-87257128D01*
X162648061Y-87257128D01*
X162654513Y-87258500D01*
X162845487Y-87258500D01*
X162851939Y-87257128D01*
X162851944Y-87257128D01*
X162938887Y-87238647D01*
X163032288Y-87218794D01*
X163038319Y-87216109D01*
X163200722Y-87143803D01*
X163200724Y-87143802D01*
X163206752Y-87141118D01*
X163361253Y-87028866D01*
X163489040Y-86886944D01*
X163584527Y-86721556D01*
X163641711Y-86545563D01*
X163681785Y-86486958D01*
X163747182Y-86459321D01*
X163761544Y-86458500D01*
X163945487Y-86458500D01*
X163951939Y-86457128D01*
X163951944Y-86457128D01*
X164045662Y-86437207D01*
X164132288Y-86418794D01*
X164138319Y-86416109D01*
X164300722Y-86343803D01*
X164300724Y-86343802D01*
X164306752Y-86341118D01*
X164461253Y-86228866D01*
X164472736Y-86216113D01*
X164584621Y-86091852D01*
X164584622Y-86091851D01*
X164589040Y-86086944D01*
X164684527Y-85921556D01*
X164709219Y-85845563D01*
X164749291Y-85786958D01*
X164814688Y-85759321D01*
X164829051Y-85758500D01*
X164945487Y-85758500D01*
X164951939Y-85757128D01*
X164951944Y-85757128D01*
X165038887Y-85738647D01*
X165132288Y-85718794D01*
X165138319Y-85716109D01*
X165300722Y-85643803D01*
X165300724Y-85643802D01*
X165306752Y-85641118D01*
X165461253Y-85528866D01*
X165589040Y-85386944D01*
X165684527Y-85221556D01*
X165743542Y-85039928D01*
X165763504Y-84850000D01*
X165743542Y-84660072D01*
X165684527Y-84478444D01*
X165589040Y-84313056D01*
X165461253Y-84171134D01*
X165306752Y-84058882D01*
X165300724Y-84056198D01*
X165300722Y-84056197D01*
X165138319Y-83983891D01*
X165138318Y-83983891D01*
X165132288Y-83981206D01*
X165125833Y-83979834D01*
X165125824Y-83979831D01*
X165069228Y-83967801D01*
X165006331Y-83933650D01*
X164533770Y-83461089D01*
X164521384Y-83446677D01*
X164512851Y-83435082D01*
X164512846Y-83435077D01*
X164508508Y-83429182D01*
X164502930Y-83424443D01*
X164502927Y-83424440D01*
X164468232Y-83394965D01*
X164460716Y-83388035D01*
X164455021Y-83382340D01*
X164438736Y-83369456D01*
X164432749Y-83364719D01*
X164429345Y-83361928D01*
X164379297Y-83319409D01*
X164379295Y-83319408D01*
X164373715Y-83314667D01*
X164367199Y-83311339D01*
X164362150Y-83307972D01*
X164357021Y-83304805D01*
X164351284Y-83300266D01*
X164285125Y-83269345D01*
X164281225Y-83267439D01*
X164216192Y-83234231D01*
X164209084Y-83232492D01*
X164203441Y-83230393D01*
X164197678Y-83228476D01*
X164191050Y-83225378D01*
X164119583Y-83210513D01*
X164115299Y-83209543D01*
X164044390Y-83192192D01*
X164038788Y-83191844D01*
X164038785Y-83191844D01*
X164033236Y-83191500D01*
X164033238Y-83191464D01*
X164029245Y-83191225D01*
X164025053Y-83190851D01*
X164017885Y-83189360D01*
X163954120Y-83191085D01*
X163940479Y-83191454D01*
X163937072Y-83191500D01*
X151917070Y-83191500D01*
X151898120Y-83190067D01*
X151883885Y-83187901D01*
X151883881Y-83187901D01*
X151876651Y-83186801D01*
X151869359Y-83187394D01*
X151869356Y-83187394D01*
X151823982Y-83191085D01*
X151813767Y-83191500D01*
X151805707Y-83191500D01*
X151802073Y-83191924D01*
X151802067Y-83191924D01*
X151789042Y-83193443D01*
X151777480Y-83194791D01*
X151773132Y-83195221D01*
X151700364Y-83201140D01*
X151693403Y-83203395D01*
X151687463Y-83204582D01*
X151681588Y-83205971D01*
X151674319Y-83206818D01*
X151605670Y-83231736D01*
X151601542Y-83233153D01*
X151539064Y-83253393D01*
X151539062Y-83253394D01*
X151532101Y-83255649D01*
X151525846Y-83259445D01*
X151520372Y-83261951D01*
X151514942Y-83264670D01*
X151508063Y-83267167D01*
X151501943Y-83271180D01*
X151501942Y-83271180D01*
X151447024Y-83307186D01*
X151443320Y-83309523D01*
X151380893Y-83347405D01*
X151372516Y-83354803D01*
X151372492Y-83354776D01*
X151369500Y-83357429D01*
X151366267Y-83360132D01*
X151360148Y-83364144D01*
X151330951Y-83394965D01*
X151306872Y-83420383D01*
X151304494Y-83422825D01*
X148861089Y-85866230D01*
X148846677Y-85878616D01*
X148835082Y-85887149D01*
X148835077Y-85887154D01*
X148829182Y-85891492D01*
X148824443Y-85897070D01*
X148824440Y-85897073D01*
X148794965Y-85931768D01*
X148788035Y-85939284D01*
X148782340Y-85944979D01*
X148780060Y-85947861D01*
X148764719Y-85967251D01*
X148761928Y-85970655D01*
X148719409Y-86020703D01*
X148714667Y-86026285D01*
X148711339Y-86032801D01*
X148707972Y-86037850D01*
X148704805Y-86042979D01*
X148700266Y-86048716D01*
X148669345Y-86114875D01*
X148667442Y-86118769D01*
X148634231Y-86183808D01*
X148632492Y-86190916D01*
X148630393Y-86196559D01*
X148628476Y-86202322D01*
X148625378Y-86208950D01*
X148623888Y-86216112D01*
X148623888Y-86216113D01*
X148610514Y-86280412D01*
X148609544Y-86284696D01*
X148592192Y-86355610D01*
X148591500Y-86366764D01*
X148591464Y-86366762D01*
X148591225Y-86370755D01*
X148590851Y-86374947D01*
X148589360Y-86382115D01*
X148589558Y-86389432D01*
X148591454Y-86459521D01*
X148591500Y-86462928D01*
X148591500Y-88383629D01*
X148571498Y-88451750D01*
X148554595Y-88472724D01*
X147622725Y-89404594D01*
X147560413Y-89438620D01*
X147489598Y-89433555D01*
X147432762Y-89391008D01*
X147407951Y-89324488D01*
X147407630Y-89315499D01*
X147407630Y-89018775D01*
X147403155Y-89003536D01*
X147401765Y-89002331D01*
X147394082Y-89000660D01*
X146621835Y-89000660D01*
X146606596Y-89005135D01*
X146605391Y-89006525D01*
X146603720Y-89014208D01*
X146603720Y-90135704D01*
X146608195Y-90150943D01*
X146617115Y-90158672D01*
X146664552Y-90184575D01*
X146698578Y-90246886D01*
X146693514Y-90317702D01*
X146664553Y-90362766D01*
X145872724Y-91154595D01*
X145810412Y-91188621D01*
X145783629Y-91191500D01*
X145506635Y-91191500D01*
X145438514Y-91171498D01*
X145392021Y-91117842D01*
X145381917Y-91047568D01*
X145396009Y-91005184D01*
X145411701Y-90976404D01*
X145482822Y-90845959D01*
X145541965Y-90657232D01*
X145545676Y-90623072D01*
X145562660Y-90466737D01*
X145562660Y-90466733D01*
X145563325Y-90460612D01*
X145550822Y-90317702D01*
X145547757Y-90282671D01*
X145561746Y-90213066D01*
X145611146Y-90162074D01*
X145680271Y-90145883D01*
X145689585Y-90147238D01*
X145689603Y-90147072D01*
X145748324Y-90153451D01*
X145755138Y-90153820D01*
X146077605Y-90153820D01*
X146092844Y-90149345D01*
X146094049Y-90147955D01*
X146095720Y-90140272D01*
X146095720Y-89018775D01*
X146091245Y-89003536D01*
X146089855Y-89002331D01*
X146082172Y-89000660D01*
X145309926Y-89000660D01*
X145294687Y-89005135D01*
X145293482Y-89006525D01*
X145291811Y-89014208D01*
X145291811Y-89461387D01*
X145271809Y-89529508D01*
X145218153Y-89576001D01*
X145147879Y-89586105D01*
X145083299Y-89556611D01*
X145076716Y-89550482D01*
X144236129Y-88709895D01*
X144202103Y-88647583D01*
X144199825Y-88633096D01*
X144192261Y-88555961D01*
X144191660Y-88549827D01*
X144168931Y-88474545D01*
X145291810Y-88474545D01*
X145296285Y-88489784D01*
X145297675Y-88490989D01*
X145305358Y-88492660D01*
X146077605Y-88492660D01*
X146092844Y-88488185D01*
X146094049Y-88486795D01*
X146095720Y-88479112D01*
X146095720Y-88474545D01*
X146603720Y-88474545D01*
X146608195Y-88489784D01*
X146609585Y-88490989D01*
X146617268Y-88492660D01*
X147389514Y-88492660D01*
X147404753Y-88488185D01*
X147405958Y-88486795D01*
X147407629Y-88479112D01*
X147407629Y-87802831D01*
X147407259Y-87796010D01*
X147401735Y-87745148D01*
X147398109Y-87729896D01*
X147352954Y-87609446D01*
X147344416Y-87593851D01*
X147267915Y-87491776D01*
X147255354Y-87479215D01*
X147153279Y-87402714D01*
X147137684Y-87394176D01*
X147017236Y-87349022D01*
X147001981Y-87345395D01*
X146951116Y-87339869D01*
X146944302Y-87339500D01*
X146621835Y-87339500D01*
X146606596Y-87343975D01*
X146605391Y-87345365D01*
X146603720Y-87353048D01*
X146603720Y-88474545D01*
X146095720Y-88474545D01*
X146095720Y-87357616D01*
X146091245Y-87342377D01*
X146089855Y-87341172D01*
X146082172Y-87339501D01*
X145755141Y-87339501D01*
X145748320Y-87339871D01*
X145697458Y-87345395D01*
X145682206Y-87349021D01*
X145561756Y-87394176D01*
X145546161Y-87402714D01*
X145444086Y-87479215D01*
X145431525Y-87491776D01*
X145355024Y-87593851D01*
X145346486Y-87609446D01*
X145301332Y-87729894D01*
X145297705Y-87745149D01*
X145292179Y-87796014D01*
X145291810Y-87802828D01*
X145291810Y-88474545D01*
X144168931Y-88474545D01*
X144161038Y-88448402D01*
X144155660Y-88411984D01*
X144155660Y-87799366D01*
X144148905Y-87737184D01*
X144097775Y-87600795D01*
X144010421Y-87484239D01*
X143893865Y-87396885D01*
X143757476Y-87345755D01*
X143695294Y-87339000D01*
X142699866Y-87339000D01*
X142637684Y-87345755D01*
X142501295Y-87396885D01*
X142483282Y-87410385D01*
X142423515Y-87455178D01*
X142357009Y-87480026D01*
X142287626Y-87464973D01*
X142272385Y-87455178D01*
X142212618Y-87410385D01*
X142194605Y-87396885D01*
X142058216Y-87345755D01*
X141996034Y-87339000D01*
X141000606Y-87339000D01*
X140938424Y-87345755D01*
X140802035Y-87396885D01*
X140685479Y-87484239D01*
X140598125Y-87600795D01*
X140546995Y-87737184D01*
X140540240Y-87799366D01*
X140540240Y-88411943D01*
X140534342Y-88450041D01*
X140507085Y-88535966D01*
X140489820Y-88689887D01*
X140489820Y-89536477D01*
X140489083Y-89550084D01*
X140485965Y-89578792D01*
X140484996Y-89587708D01*
X140485533Y-89593843D01*
X140489370Y-89637708D01*
X140489699Y-89642534D01*
X140489820Y-89645006D01*
X140489820Y-89648089D01*
X140490121Y-89651157D01*
X140494010Y-89690826D01*
X140494132Y-89692139D01*
X140496821Y-89722868D01*
X140502233Y-89784733D01*
X140503720Y-89789852D01*
X140504240Y-89795153D01*
X140531111Y-89884154D01*
X140531446Y-89885287D01*
X140554534Y-89964752D01*
X140557411Y-89974656D01*
X140559864Y-89979388D01*
X140561404Y-89984489D01*
X140564298Y-89989932D01*
X140605051Y-90066580D01*
X140605663Y-90067746D01*
X140635232Y-90124788D01*
X140648428Y-90150246D01*
X140651751Y-90154409D01*
X140654254Y-90159116D01*
X140713075Y-90231238D01*
X140713766Y-90232094D01*
X140745058Y-90271293D01*
X140747562Y-90273797D01*
X140748204Y-90274515D01*
X140751905Y-90278848D01*
X140779255Y-90312382D01*
X140814587Y-90341611D01*
X140823357Y-90349592D01*
X141241475Y-90767709D01*
X141450170Y-90976404D01*
X141484195Y-91038717D01*
X141479131Y-91109532D01*
X141436584Y-91166368D01*
X141370064Y-91191179D01*
X141361075Y-91191500D01*
X138608740Y-91191500D01*
X138540619Y-91171498D01*
X138494126Y-91117842D01*
X138484022Y-91047568D01*
X138488506Y-91027821D01*
X138540122Y-90863114D01*
X138540123Y-90863111D01*
X138541965Y-90857232D01*
X138542773Y-90849800D01*
X138562659Y-90666737D01*
X138562659Y-90666733D01*
X138563324Y-90660612D01*
X138546087Y-90463587D01*
X138544368Y-90457670D01*
X138544367Y-90457665D01*
X138515300Y-90357617D01*
X138502910Y-90314972D01*
X138503113Y-90243977D01*
X138541666Y-90184361D01*
X138606331Y-90155052D01*
X138623907Y-90153820D01*
X138805585Y-90153820D01*
X138820824Y-90149345D01*
X138822029Y-90147955D01*
X138823700Y-90140272D01*
X138823700Y-90135704D01*
X139331700Y-90135704D01*
X139336175Y-90150943D01*
X139337565Y-90152148D01*
X139345248Y-90153819D01*
X139571949Y-90153819D01*
X139578770Y-90153449D01*
X139629632Y-90147925D01*
X139644884Y-90144299D01*
X139765334Y-90099144D01*
X139780929Y-90090606D01*
X139883004Y-90014105D01*
X139895565Y-90001544D01*
X139972066Y-89899469D01*
X139980604Y-89883874D01*
X140025758Y-89763426D01*
X140029385Y-89748171D01*
X140034911Y-89697306D01*
X140035280Y-89690492D01*
X140035280Y-89018775D01*
X140030805Y-89003536D01*
X140029415Y-89002331D01*
X140021732Y-89000660D01*
X139349815Y-89000660D01*
X139334576Y-89005135D01*
X139333371Y-89006525D01*
X139331700Y-89014208D01*
X139331700Y-90135704D01*
X138823700Y-90135704D01*
X138823700Y-89018775D01*
X138819225Y-89003536D01*
X138817835Y-89002331D01*
X138810152Y-89000660D01*
X138138236Y-89000660D01*
X138122997Y-89005135D01*
X138121792Y-89006525D01*
X138120121Y-89014208D01*
X138120121Y-89489697D01*
X138100119Y-89557818D01*
X138046463Y-89604311D01*
X137976189Y-89614415D01*
X137911609Y-89584921D01*
X137905026Y-89578792D01*
X137623745Y-89297511D01*
X137589719Y-89235199D01*
X137586840Y-89208416D01*
X137586840Y-88696891D01*
X137586154Y-88689887D01*
X137580585Y-88633096D01*
X137572420Y-88549827D01*
X137549691Y-88474545D01*
X138120120Y-88474545D01*
X138124595Y-88489784D01*
X138125985Y-88490989D01*
X138133668Y-88492660D01*
X138805585Y-88492660D01*
X138820824Y-88488185D01*
X138822029Y-88486795D01*
X138823700Y-88479112D01*
X138823700Y-88474545D01*
X139331700Y-88474545D01*
X139336175Y-88489784D01*
X139337565Y-88490989D01*
X139345248Y-88492660D01*
X140017164Y-88492660D01*
X140032403Y-88488185D01*
X140033608Y-88486795D01*
X140035279Y-88479112D01*
X140035279Y-87802831D01*
X140034909Y-87796010D01*
X140029385Y-87745148D01*
X140025759Y-87729896D01*
X139980604Y-87609446D01*
X139972066Y-87593851D01*
X139895565Y-87491776D01*
X139883004Y-87479215D01*
X139780929Y-87402714D01*
X139765334Y-87394176D01*
X139644886Y-87349022D01*
X139629631Y-87345395D01*
X139578766Y-87339869D01*
X139571952Y-87339500D01*
X139349815Y-87339500D01*
X139334576Y-87343975D01*
X139333371Y-87345365D01*
X139331700Y-87353048D01*
X139331700Y-88474545D01*
X138823700Y-88474545D01*
X138823700Y-87357616D01*
X138819225Y-87342377D01*
X138817835Y-87341172D01*
X138810152Y-87339501D01*
X138583451Y-87339501D01*
X138576630Y-87339871D01*
X138525768Y-87345395D01*
X138510516Y-87349021D01*
X138390066Y-87394176D01*
X138374471Y-87402714D01*
X138272396Y-87479215D01*
X138259835Y-87491776D01*
X138183334Y-87593851D01*
X138174796Y-87609446D01*
X138129642Y-87729894D01*
X138126015Y-87745149D01*
X138120489Y-87796014D01*
X138120120Y-87802828D01*
X138120120Y-88474545D01*
X137549691Y-88474545D01*
X137541798Y-88448402D01*
X137536420Y-88411984D01*
X137536420Y-87799366D01*
X137529665Y-87737184D01*
X137478535Y-87600795D01*
X137391181Y-87484239D01*
X137274625Y-87396885D01*
X137138236Y-87345755D01*
X137076054Y-87339000D01*
X136080626Y-87339000D01*
X136018444Y-87345755D01*
X135882055Y-87396885D01*
X135765499Y-87484239D01*
X135678145Y-87600795D01*
X135627015Y-87737184D01*
X135620260Y-87799366D01*
X135620260Y-88411943D01*
X135614362Y-88450041D01*
X135587105Y-88535966D01*
X135569840Y-88689887D01*
X135569840Y-89616497D01*
X135569103Y-89630107D01*
X135566857Y-89650779D01*
X135539614Y-89716340D01*
X135481250Y-89756766D01*
X135410296Y-89759220D01*
X135352499Y-89726264D01*
X135124385Y-89498150D01*
X135090359Y-89435838D01*
X135087480Y-89409055D01*
X135087480Y-88696891D01*
X135086794Y-88689887D01*
X135081225Y-88633096D01*
X135073060Y-88549827D01*
X135042438Y-88448402D01*
X135037060Y-88411984D01*
X135037060Y-87799366D01*
X135030305Y-87737184D01*
X134979175Y-87600795D01*
X134891821Y-87484239D01*
X134775265Y-87396885D01*
X134638876Y-87345755D01*
X134576694Y-87339000D01*
X133581266Y-87339000D01*
X133519084Y-87345755D01*
X133382695Y-87396885D01*
X133375510Y-87402270D01*
X133375508Y-87402271D01*
X133280785Y-87473262D01*
X133214278Y-87498110D01*
X133144896Y-87483057D01*
X133129655Y-87473262D01*
X133034932Y-87402271D01*
X133034930Y-87402270D01*
X133027745Y-87396885D01*
X132891356Y-87345755D01*
X132829174Y-87339000D01*
X131833746Y-87339000D01*
X131771564Y-87345755D01*
X131752110Y-87353048D01*
X131643579Y-87393734D01*
X131643576Y-87393736D01*
X131637883Y-87395870D01*
X131637882Y-87395870D01*
X131635175Y-87396885D01*
X131635029Y-87396494D01*
X131571516Y-87410385D01*
X131526430Y-87397146D01*
X131526362Y-87397328D01*
X131523880Y-87396398D01*
X131519856Y-87395216D01*
X131517961Y-87394179D01*
X131397506Y-87349022D01*
X131382251Y-87345395D01*
X131331386Y-87339869D01*
X131324572Y-87339500D01*
X131102435Y-87339500D01*
X131087196Y-87343975D01*
X131085991Y-87345365D01*
X131084320Y-87353048D01*
X131084320Y-90135704D01*
X131088795Y-90150943D01*
X131090185Y-90152148D01*
X131097868Y-90153819D01*
X131196813Y-90153819D01*
X131264934Y-90173821D01*
X131311427Y-90227477D01*
X131322333Y-90268828D01*
X131322509Y-90270838D01*
X131322839Y-90275674D01*
X131322960Y-90278146D01*
X131322960Y-90281229D01*
X131323261Y-90284297D01*
X131327150Y-90323966D01*
X131327272Y-90325279D01*
X131335373Y-90417873D01*
X131336860Y-90422992D01*
X131337380Y-90428293D01*
X131364251Y-90517294D01*
X131364586Y-90518427D01*
X131382353Y-90579578D01*
X131390551Y-90607796D01*
X131393004Y-90612528D01*
X131394544Y-90617629D01*
X131397438Y-90623072D01*
X131438191Y-90699720D01*
X131438803Y-90700886D01*
X131471096Y-90763183D01*
X131481568Y-90783386D01*
X131484891Y-90787549D01*
X131487394Y-90792256D01*
X131546215Y-90864378D01*
X131546906Y-90865234D01*
X131578198Y-90904433D01*
X131580702Y-90906937D01*
X131581344Y-90907655D01*
X131585045Y-90911988D01*
X131612395Y-90945522D01*
X131646659Y-90973867D01*
X131647724Y-90974748D01*
X131656505Y-90982739D01*
X132272075Y-91598309D01*
X132386261Y-91692103D01*
X132560563Y-91785563D01*
X132749698Y-91843388D01*
X132749525Y-91843953D01*
X132808612Y-91875059D01*
X132843582Y-91936846D01*
X132839595Y-92007730D01*
X132797919Y-92065207D01*
X132731784Y-92091028D01*
X132720883Y-92091500D01*
X132216371Y-92091500D01*
X132148250Y-92071498D01*
X132127276Y-92054595D01*
X130989045Y-90916364D01*
X130955019Y-90854052D01*
X130952619Y-90838250D01*
X130947819Y-90783386D01*
X130946087Y-90763587D01*
X130890909Y-90573664D01*
X130799892Y-90398074D01*
X130767596Y-90357617D01*
X130705458Y-90279777D01*
X130705451Y-90279770D01*
X130703262Y-90277027D01*
X130613225Y-90186990D01*
X130579199Y-90124678D01*
X130576320Y-90097895D01*
X130576320Y-87357616D01*
X130571845Y-87342377D01*
X130570455Y-87341172D01*
X130562772Y-87339501D01*
X130336071Y-87339501D01*
X130329250Y-87339871D01*
X130278388Y-87345395D01*
X130263136Y-87349021D01*
X130142686Y-87394176D01*
X130127092Y-87402714D01*
X130031272Y-87474527D01*
X129964766Y-87499375D01*
X129895383Y-87484322D01*
X129880142Y-87474527D01*
X129812664Y-87423955D01*
X129776545Y-87396885D01*
X129640156Y-87345755D01*
X129577974Y-87339000D01*
X128582546Y-87339000D01*
X128520364Y-87345755D01*
X128383975Y-87396885D01*
X128267419Y-87484239D01*
X128180065Y-87600795D01*
X128128935Y-87737184D01*
X128122180Y-87799366D01*
X128122180Y-88411943D01*
X128116282Y-88450041D01*
X128089025Y-88535966D01*
X128071760Y-88689887D01*
X128071760Y-90018417D01*
X128071023Y-90032027D01*
X128068777Y-90052699D01*
X128041534Y-90118260D01*
X127983170Y-90158686D01*
X127912216Y-90161140D01*
X127854419Y-90128184D01*
X127626305Y-89900070D01*
X127592279Y-89837758D01*
X127589400Y-89810975D01*
X127589400Y-88696891D01*
X127588714Y-88689887D01*
X127583145Y-88633096D01*
X127574980Y-88549827D01*
X127544358Y-88448402D01*
X127538980Y-88411984D01*
X127538980Y-87799366D01*
X127532225Y-87737184D01*
X127481095Y-87600795D01*
X127393741Y-87484239D01*
X127277185Y-87396885D01*
X127140796Y-87345755D01*
X127078614Y-87339000D01*
X126083186Y-87339000D01*
X126021004Y-87345755D01*
X125884615Y-87396885D01*
X125768059Y-87484239D01*
X125680705Y-87600795D01*
X125629575Y-87737184D01*
X125622820Y-87799366D01*
X125622820Y-88411943D01*
X125616922Y-88450041D01*
X125589665Y-88535966D01*
X125572400Y-88689887D01*
X125572400Y-90141976D01*
X125552398Y-90210097D01*
X125498742Y-90256590D01*
X125428468Y-90266694D01*
X125363888Y-90237200D01*
X125357305Y-90231071D01*
X125126945Y-90000711D01*
X125092919Y-89938399D01*
X125090040Y-89911616D01*
X125090040Y-88696891D01*
X125089354Y-88689887D01*
X125083785Y-88633096D01*
X125075620Y-88549827D01*
X125044998Y-88448402D01*
X125039620Y-88411984D01*
X125039620Y-87799366D01*
X125032865Y-87737184D01*
X124981735Y-87600795D01*
X124894381Y-87484239D01*
X124777825Y-87396885D01*
X124641436Y-87345755D01*
X124579254Y-87339000D01*
X123583826Y-87339000D01*
X123521644Y-87345755D01*
X123385255Y-87396885D01*
X123268699Y-87484239D01*
X123181345Y-87600795D01*
X123130215Y-87737184D01*
X123123460Y-87799366D01*
X123123460Y-88411943D01*
X123117562Y-88450041D01*
X123090305Y-88535966D01*
X123073040Y-88689887D01*
X123073040Y-90319697D01*
X123072303Y-90333304D01*
X123069103Y-90362766D01*
X123068216Y-90370928D01*
X115645035Y-90370928D01*
X115645035Y-68792639D01*
X117646451Y-68792639D01*
X117646821Y-68799460D01*
X117652345Y-68850322D01*
X117655971Y-68865574D01*
X117701126Y-68986024D01*
X117709664Y-69001619D01*
X117786165Y-69103694D01*
X117798726Y-69116255D01*
X117900801Y-69192756D01*
X117916396Y-69201294D01*
X118036844Y-69246448D01*
X118052099Y-69250075D01*
X118102964Y-69255601D01*
X118109778Y-69255970D01*
X118582105Y-69255970D01*
X118597344Y-69251495D01*
X118598549Y-69250105D01*
X118600220Y-69242422D01*
X118600220Y-69237854D01*
X119108220Y-69237854D01*
X119112695Y-69253093D01*
X119114085Y-69254298D01*
X119121768Y-69255969D01*
X119598659Y-69255969D01*
X119605480Y-69255599D01*
X119656342Y-69250075D01*
X119671594Y-69246449D01*
X119792044Y-69201294D01*
X119807639Y-69192756D01*
X119909714Y-69116255D01*
X119922275Y-69103694D01*
X119998776Y-69001619D01*
X120007314Y-68986024D01*
X120052468Y-68865576D01*
X120056095Y-68850321D01*
X120061621Y-68799456D01*
X120061990Y-68792642D01*
X120061990Y-68020595D01*
X120057515Y-68005356D01*
X120056125Y-68004151D01*
X120048442Y-68002480D01*
X119126335Y-68002480D01*
X119111096Y-68006955D01*
X119109891Y-68008345D01*
X119108220Y-68016028D01*
X119108220Y-69237854D01*
X118600220Y-69237854D01*
X118600220Y-68020595D01*
X118595745Y-68005356D01*
X118594355Y-68004151D01*
X118586672Y-68002480D01*
X117664566Y-68002480D01*
X117649327Y-68006955D01*
X117648122Y-68008345D01*
X117646451Y-68016028D01*
X117646451Y-68792639D01*
X115645035Y-68792639D01*
X115645035Y-67644559D01*
X145667731Y-67644559D01*
X145668101Y-67651380D01*
X145673625Y-67702242D01*
X145677251Y-67717494D01*
X145722406Y-67837944D01*
X145730944Y-67853539D01*
X145807445Y-67955614D01*
X145820006Y-67968175D01*
X145922081Y-68044676D01*
X145937676Y-68053214D01*
X146058124Y-68098368D01*
X146073379Y-68101995D01*
X146124244Y-68107521D01*
X146131058Y-68107890D01*
X146666885Y-68107890D01*
X146682124Y-68103415D01*
X146683329Y-68102025D01*
X146685000Y-68094342D01*
X146685000Y-68089774D01*
X147193000Y-68089774D01*
X147197475Y-68105013D01*
X147198865Y-68106218D01*
X147206548Y-68107889D01*
X147746939Y-68107889D01*
X147753760Y-68107519D01*
X147804622Y-68101995D01*
X147819874Y-68098369D01*
X147940324Y-68053214D01*
X147955919Y-68044676D01*
X148057994Y-67968175D01*
X148070555Y-67955614D01*
X148147056Y-67853539D01*
X148155594Y-67837944D01*
X148200748Y-67717496D01*
X148204375Y-67702241D01*
X148209901Y-67651376D01*
X148210270Y-67644562D01*
X148210270Y-66872515D01*
X148205795Y-66857276D01*
X148204405Y-66856071D01*
X148196722Y-66854400D01*
X147211115Y-66854400D01*
X147195876Y-66858875D01*
X147194671Y-66860265D01*
X147193000Y-66867948D01*
X147193000Y-68089774D01*
X146685000Y-68089774D01*
X146685000Y-66872515D01*
X146680525Y-66857276D01*
X146679135Y-66856071D01*
X146671452Y-66854400D01*
X145685846Y-66854400D01*
X145670607Y-66858875D01*
X145669402Y-66860265D01*
X145667731Y-66867948D01*
X145667731Y-67644559D01*
X115645035Y-67644559D01*
X115645035Y-67476365D01*
X117646450Y-67476365D01*
X117650925Y-67491604D01*
X117652315Y-67492809D01*
X117659998Y-67494480D01*
X118582105Y-67494480D01*
X118597344Y-67490005D01*
X118598549Y-67488615D01*
X118600220Y-67480932D01*
X118600220Y-67476365D01*
X119108220Y-67476365D01*
X119112695Y-67491604D01*
X119114085Y-67492809D01*
X119121768Y-67494480D01*
X120043874Y-67494480D01*
X120059113Y-67490005D01*
X120060318Y-67488615D01*
X120061989Y-67480932D01*
X120061989Y-66704321D01*
X120061619Y-66697500D01*
X120056095Y-66646638D01*
X120052469Y-66631386D01*
X120007314Y-66510936D01*
X119998776Y-66495341D01*
X119922275Y-66393266D01*
X119909714Y-66380705D01*
X119807639Y-66304204D01*
X119792044Y-66295666D01*
X119671596Y-66250512D01*
X119656341Y-66246885D01*
X119605476Y-66241359D01*
X119598662Y-66240990D01*
X119126335Y-66240990D01*
X119111096Y-66245465D01*
X119109891Y-66246855D01*
X119108220Y-66254538D01*
X119108220Y-67476365D01*
X118600220Y-67476365D01*
X118600220Y-66259106D01*
X118595745Y-66243867D01*
X118594355Y-66242662D01*
X118586672Y-66240991D01*
X118109781Y-66240991D01*
X118102960Y-66241361D01*
X118052098Y-66246885D01*
X118036846Y-66250511D01*
X117916396Y-66295666D01*
X117900801Y-66304204D01*
X117798726Y-66380705D01*
X117786165Y-66393266D01*
X117709664Y-66495341D01*
X117701126Y-66510936D01*
X117655972Y-66631384D01*
X117652345Y-66646639D01*
X117646819Y-66697504D01*
X117646450Y-66704318D01*
X117646450Y-67476365D01*
X115645035Y-67476365D01*
X115645035Y-64449020D01*
X120123898Y-64449020D01*
X120143467Y-64672697D01*
X120201580Y-64889577D01*
X120203902Y-64894558D01*
X120203903Y-64894559D01*
X120294145Y-65088084D01*
X120294148Y-65088089D01*
X120296471Y-65093071D01*
X120425257Y-65276996D01*
X120584024Y-65435763D01*
X120588532Y-65438920D01*
X120588535Y-65438922D01*
X120651922Y-65483306D01*
X120767949Y-65564549D01*
X120772931Y-65566872D01*
X120772936Y-65566875D01*
X120966461Y-65657117D01*
X120971443Y-65659440D01*
X120976751Y-65660862D01*
X120976753Y-65660863D01*
X121183008Y-65716129D01*
X121183010Y-65716129D01*
X121188323Y-65717553D01*
X121285915Y-65726091D01*
X121353245Y-65731982D01*
X121353252Y-65731982D01*
X121355969Y-65732220D01*
X121468031Y-65732220D01*
X121470748Y-65731982D01*
X121470755Y-65731982D01*
X121538085Y-65726091D01*
X121635677Y-65717553D01*
X121640990Y-65716129D01*
X121640992Y-65716129D01*
X121847247Y-65660863D01*
X121847249Y-65660862D01*
X121852557Y-65659440D01*
X121857539Y-65657117D01*
X122051064Y-65566875D01*
X122051069Y-65566872D01*
X122056051Y-65564549D01*
X122172078Y-65483306D01*
X122235465Y-65438922D01*
X122235468Y-65438920D01*
X122239976Y-65435763D01*
X122398743Y-65276996D01*
X122527529Y-65093071D01*
X122529852Y-65088089D01*
X122529855Y-65088084D01*
X122620097Y-64894559D01*
X122620098Y-64894558D01*
X122622420Y-64889577D01*
X122680533Y-64672697D01*
X122700102Y-64449020D01*
X144380898Y-64449020D01*
X144400467Y-64672697D01*
X144458580Y-64889577D01*
X144460902Y-64894558D01*
X144460903Y-64894559D01*
X144551145Y-65088084D01*
X144551148Y-65088089D01*
X144553471Y-65093071D01*
X144682257Y-65276996D01*
X144841024Y-65435763D01*
X144845532Y-65438920D01*
X144845535Y-65438922D01*
X144908922Y-65483306D01*
X145024949Y-65564549D01*
X145029931Y-65566872D01*
X145029936Y-65566875D01*
X145223461Y-65657117D01*
X145228443Y-65659440D01*
X145233751Y-65660862D01*
X145233753Y-65660863D01*
X145440008Y-65716129D01*
X145440010Y-65716129D01*
X145445323Y-65717553D01*
X145450799Y-65718032D01*
X145450804Y-65718033D01*
X145528046Y-65724790D01*
X145552712Y-65726948D01*
X145618830Y-65752811D01*
X145660469Y-65810315D01*
X145667730Y-65852469D01*
X145667730Y-66328285D01*
X145672205Y-66343524D01*
X145673595Y-66344729D01*
X145681278Y-66346400D01*
X146666885Y-66346400D01*
X146682124Y-66341925D01*
X146683329Y-66340535D01*
X146685000Y-66332852D01*
X146685000Y-66328285D01*
X147193000Y-66328285D01*
X147197475Y-66343524D01*
X147198865Y-66344729D01*
X147206548Y-66346400D01*
X148192154Y-66346400D01*
X148207393Y-66341925D01*
X148208598Y-66340535D01*
X148210269Y-66332852D01*
X148210269Y-65556241D01*
X148209899Y-65549420D01*
X148204375Y-65498558D01*
X148200749Y-65483306D01*
X148155594Y-65362856D01*
X148147056Y-65347261D01*
X148070555Y-65245186D01*
X148057994Y-65232625D01*
X147955919Y-65156124D01*
X147940324Y-65147586D01*
X147819876Y-65102432D01*
X147804621Y-65098805D01*
X147753756Y-65093279D01*
X147746942Y-65092910D01*
X147211115Y-65092910D01*
X147195876Y-65097385D01*
X147194671Y-65098775D01*
X147193000Y-65106458D01*
X147193000Y-66328285D01*
X146685000Y-66328285D01*
X146685000Y-65274941D01*
X146707787Y-65202670D01*
X146781372Y-65097580D01*
X146781373Y-65097578D01*
X146784529Y-65093071D01*
X146786852Y-65088089D01*
X146786855Y-65088084D01*
X146877097Y-64894559D01*
X146877098Y-64894558D01*
X146879420Y-64889577D01*
X146937533Y-64672697D01*
X146957102Y-64449020D01*
X146937533Y-64225343D01*
X146879420Y-64008463D01*
X146877097Y-64003481D01*
X146786855Y-63809956D01*
X146786852Y-63809951D01*
X146784529Y-63804969D01*
X146655743Y-63621044D01*
X146496976Y-63462277D01*
X146492468Y-63459120D01*
X146492465Y-63459118D01*
X146415848Y-63405471D01*
X146313051Y-63333491D01*
X146308069Y-63331168D01*
X146308064Y-63331165D01*
X146114539Y-63240923D01*
X146114538Y-63240922D01*
X146109557Y-63238600D01*
X146104249Y-63237178D01*
X146104247Y-63237177D01*
X145897992Y-63181911D01*
X145897990Y-63181911D01*
X145892677Y-63180487D01*
X145795085Y-63171949D01*
X145727755Y-63166058D01*
X145727748Y-63166058D01*
X145725031Y-63165820D01*
X145612969Y-63165820D01*
X145610252Y-63166058D01*
X145610245Y-63166058D01*
X145542915Y-63171949D01*
X145445323Y-63180487D01*
X145440010Y-63181911D01*
X145440008Y-63181911D01*
X145233753Y-63237177D01*
X145233751Y-63237178D01*
X145228443Y-63238600D01*
X145223462Y-63240922D01*
X145223461Y-63240923D01*
X145029936Y-63331165D01*
X145029931Y-63331168D01*
X145024949Y-63333491D01*
X144922152Y-63405471D01*
X144845535Y-63459118D01*
X144845532Y-63459120D01*
X144841024Y-63462277D01*
X144682257Y-63621044D01*
X144553471Y-63804969D01*
X144551148Y-63809951D01*
X144551145Y-63809956D01*
X144460903Y-64003481D01*
X144458580Y-64008463D01*
X144400467Y-64225343D01*
X144380898Y-64449020D01*
X122700102Y-64449020D01*
X122680533Y-64225343D01*
X122622420Y-64008463D01*
X122620097Y-64003481D01*
X122529855Y-63809956D01*
X122529852Y-63809951D01*
X122527529Y-63804969D01*
X122398743Y-63621044D01*
X122239976Y-63462277D01*
X122235468Y-63459120D01*
X122235465Y-63459118D01*
X122158848Y-63405471D01*
X122056051Y-63333491D01*
X122051069Y-63331168D01*
X122051064Y-63331165D01*
X121857539Y-63240923D01*
X121857538Y-63240922D01*
X121852557Y-63238600D01*
X121847249Y-63237178D01*
X121847247Y-63237177D01*
X121640992Y-63181911D01*
X121640990Y-63181911D01*
X121635677Y-63180487D01*
X121538085Y-63171949D01*
X121470755Y-63166058D01*
X121470748Y-63166058D01*
X121468031Y-63165820D01*
X121355969Y-63165820D01*
X121353252Y-63166058D01*
X121353245Y-63166058D01*
X121285915Y-63171949D01*
X121188323Y-63180487D01*
X121183010Y-63181911D01*
X121183008Y-63181911D01*
X120976753Y-63237177D01*
X120976751Y-63237178D01*
X120971443Y-63238600D01*
X120966462Y-63240922D01*
X120966461Y-63240923D01*
X120772936Y-63331165D01*
X120772931Y-63331168D01*
X120767949Y-63333491D01*
X120665152Y-63405471D01*
X120588535Y-63459118D01*
X120588532Y-63459120D01*
X120584024Y-63462277D01*
X120425257Y-63621044D01*
X120296471Y-63804969D01*
X120294148Y-63809951D01*
X120294145Y-63809956D01*
X120203903Y-64003481D01*
X120201580Y-64008463D01*
X120143467Y-64225343D01*
X120123898Y-64449020D01*
X115645035Y-64449020D01*
X115645035Y-59757836D01*
X115665037Y-59689715D01*
X115718693Y-59643222D01*
X115771035Y-59631836D01*
X179519035Y-59631836D01*
X179587156Y-59651838D01*
G37*
%TD.AperFunction*%
%TA.AperFunction,Conductor*%
G36*
X172648195Y-113278502D02*
G01*
X172669169Y-113295404D01*
X173023149Y-113649383D01*
X173032251Y-113659527D01*
X173055968Y-113689025D01*
X173084607Y-113713056D01*
X173094421Y-113721291D01*
X173098069Y-113724472D01*
X173099881Y-113726115D01*
X173102075Y-113728309D01*
X173135349Y-113755642D01*
X173136147Y-113756304D01*
X173207474Y-113816154D01*
X173212144Y-113818722D01*
X173216261Y-113822103D01*
X173274145Y-113853140D01*
X173298086Y-113865977D01*
X173299245Y-113866606D01*
X173375381Y-113908462D01*
X173375389Y-113908465D01*
X173380787Y-113911433D01*
X173385869Y-113913045D01*
X173390563Y-113915562D01*
X173396454Y-113917363D01*
X173479477Y-113942747D01*
X173480735Y-113943139D01*
X173569306Y-113971235D01*
X173574597Y-113971829D01*
X173579698Y-113973388D01*
X173672263Y-113982790D01*
X173673450Y-113982916D01*
X173702838Y-113986213D01*
X173719730Y-113988108D01*
X173719735Y-113988108D01*
X173723227Y-113988500D01*
X173726752Y-113988500D01*
X173727737Y-113988555D01*
X173733432Y-113989003D01*
X173745342Y-113990213D01*
X173770334Y-113992752D01*
X173770339Y-113992752D01*
X173776462Y-113993374D01*
X173822108Y-113989059D01*
X173833967Y-113988500D01*
X174804965Y-113988500D01*
X174873086Y-114008502D01*
X174885449Y-114017555D01*
X174980698Y-114096632D01*
X175035860Y-114128866D01*
X175054017Y-114139476D01*
X175102741Y-114191114D01*
X175115812Y-114260897D01*
X175089081Y-114326669D01*
X175048627Y-114360027D01*
X175040951Y-114364023D01*
X175036179Y-114366507D01*
X175032046Y-114369610D01*
X175032043Y-114369612D01*
X174951675Y-114429954D01*
X174881205Y-114482865D01*
X174876683Y-114486260D01*
X174810198Y-114511166D01*
X174801030Y-114511500D01*
X173684981Y-114511500D01*
X173616860Y-114491498D01*
X173605010Y-114482868D01*
X173594717Y-114474413D01*
X173593850Y-114473693D01*
X173522526Y-114413846D01*
X173517856Y-114411278D01*
X173513739Y-114407897D01*
X173442337Y-114369612D01*
X173431914Y-114364023D01*
X173430755Y-114363394D01*
X173354619Y-114321538D01*
X173354611Y-114321535D01*
X173349213Y-114318567D01*
X173344131Y-114316955D01*
X173339437Y-114314438D01*
X173250469Y-114287238D01*
X173249441Y-114286918D01*
X173160694Y-114258765D01*
X173155398Y-114258171D01*
X173150302Y-114256613D01*
X173057743Y-114247210D01*
X173056607Y-114247089D01*
X173022992Y-114243319D01*
X173010270Y-114241892D01*
X173010266Y-114241892D01*
X173006773Y-114241500D01*
X173003246Y-114241500D01*
X173002261Y-114241445D01*
X172996581Y-114240998D01*
X172967175Y-114238011D01*
X172959663Y-114237248D01*
X172959661Y-114237248D01*
X172953538Y-114236626D01*
X172911259Y-114240623D01*
X172907891Y-114240941D01*
X172896033Y-114241500D01*
X171676062Y-114241500D01*
X171607941Y-114221498D01*
X171561448Y-114167842D01*
X171550752Y-114128671D01*
X171544232Y-114066636D01*
X171544232Y-114066635D01*
X171543542Y-114060072D01*
X171540641Y-114051142D01*
X171495097Y-113910974D01*
X171484527Y-113878444D01*
X171389040Y-113713056D01*
X171367403Y-113689025D01*
X171265675Y-113576045D01*
X171265674Y-113576044D01*
X171261253Y-113571134D01*
X171144677Y-113486436D01*
X171101323Y-113430213D01*
X171095248Y-113359477D01*
X171128380Y-113296686D01*
X171190200Y-113261774D01*
X171218738Y-113258500D01*
X172580074Y-113258500D01*
X172648195Y-113278502D01*
G37*
%TD.AperFunction*%
%TA.AperFunction,Conductor*%
G36*
X171948195Y-110178502D02*
G01*
X171969169Y-110195404D01*
X172406657Y-110632891D01*
X172800170Y-111026404D01*
X172834195Y-111088717D01*
X172829131Y-111159532D01*
X172786584Y-111216368D01*
X172720064Y-111241179D01*
X172711075Y-111241500D01*
X171686572Y-111241500D01*
X171618451Y-111221498D01*
X171571958Y-111167842D01*
X171561262Y-111128670D01*
X171561122Y-111127332D01*
X171543542Y-110960072D01*
X171484527Y-110778444D01*
X171474204Y-110760563D01*
X171397078Y-110626978D01*
X171389040Y-110613056D01*
X171300133Y-110514314D01*
X171265675Y-110476045D01*
X171265674Y-110476044D01*
X171261253Y-110471134D01*
X171155037Y-110393963D01*
X171144677Y-110386436D01*
X171101323Y-110330213D01*
X171095248Y-110259477D01*
X171128380Y-110196686D01*
X171190200Y-110161774D01*
X171218738Y-110158500D01*
X171880074Y-110158500D01*
X171948195Y-110178502D01*
G37*
%TD.AperFunction*%
%TA.AperFunction,Conductor*%
G36*
X135201750Y-99378502D02*
G01*
X135222724Y-99395405D01*
X135454595Y-99627276D01*
X135488621Y-99689588D01*
X135491500Y-99716371D01*
X135491500Y-102125961D01*
X135471498Y-102194082D01*
X135417842Y-102240575D01*
X135347568Y-102250679D01*
X135282988Y-102221185D01*
X135245976Y-102165837D01*
X135218412Y-102083216D01*
X135212239Y-102070038D01*
X135126937Y-101932193D01*
X135117901Y-101920792D01*
X135003171Y-101806261D01*
X134991760Y-101797249D01*
X134853757Y-101712184D01*
X134840576Y-101706037D01*
X134686290Y-101654862D01*
X134672914Y-101651995D01*
X134578562Y-101642328D01*
X134572145Y-101642000D01*
X134534615Y-101642000D01*
X134519376Y-101646475D01*
X134518171Y-101647865D01*
X134516500Y-101655548D01*
X134516500Y-104039884D01*
X134520975Y-104055123D01*
X134522365Y-104056328D01*
X134530048Y-104057999D01*
X134572095Y-104057999D01*
X134578614Y-104057662D01*
X134674206Y-104047743D01*
X134687600Y-104044851D01*
X134841784Y-103993412D01*
X134854962Y-103987239D01*
X134992807Y-103901937D01*
X135004209Y-103892900D01*
X135030560Y-103866504D01*
X135092843Y-103832425D01*
X135163663Y-103837430D01*
X135220536Y-103879928D01*
X135245403Y-103946427D01*
X135245042Y-103968688D01*
X135236496Y-104050000D01*
X135237186Y-104056565D01*
X135255055Y-104226575D01*
X135256458Y-104239928D01*
X135315473Y-104421556D01*
X135318776Y-104427277D01*
X135324389Y-104436998D01*
X135341128Y-104505993D01*
X135324390Y-104563000D01*
X135315473Y-104578444D01*
X135256458Y-104760072D01*
X135255768Y-104766633D01*
X135255768Y-104766635D01*
X135242406Y-104893771D01*
X135236496Y-104950000D01*
X135237186Y-104956565D01*
X135255661Y-105132342D01*
X135256458Y-105139928D01*
X135306242Y-105293145D01*
X135313738Y-105316216D01*
X135315766Y-105387183D01*
X135283078Y-105444170D01*
X135238862Y-105488463D01*
X135176579Y-105522542D01*
X135105759Y-105517539D01*
X135060671Y-105488618D01*
X134978171Y-105406261D01*
X134966760Y-105397249D01*
X134828757Y-105312184D01*
X134815576Y-105306037D01*
X134661290Y-105254862D01*
X134647914Y-105251995D01*
X134553562Y-105242328D01*
X134547145Y-105242000D01*
X134509615Y-105242000D01*
X134494376Y-105246475D01*
X134493171Y-105247865D01*
X134491500Y-105255548D01*
X134491500Y-107358885D01*
X134495975Y-107374124D01*
X134497365Y-107375329D01*
X134505048Y-107377000D01*
X134578000Y-107377000D01*
X134646121Y-107397002D01*
X134692614Y-107450658D01*
X134704000Y-107503000D01*
X134704000Y-108165385D01*
X134708475Y-108180624D01*
X134709865Y-108181829D01*
X134717548Y-108183500D01*
X135639884Y-108183500D01*
X135655123Y-108179025D01*
X135656328Y-108177635D01*
X135657999Y-108169952D01*
X135657999Y-108127905D01*
X135657662Y-108121386D01*
X135647743Y-108025794D01*
X135644851Y-108012400D01*
X135593412Y-107858216D01*
X135584137Y-107838417D01*
X135585519Y-107837770D01*
X135568908Y-107777398D01*
X135590073Y-107709629D01*
X135644517Y-107664061D01*
X135707732Y-107654210D01*
X135749600Y-107658500D01*
X136375400Y-107658500D01*
X136378644Y-107658163D01*
X136378652Y-107658163D01*
X136471476Y-107648532D01*
X136541297Y-107661397D01*
X136593079Y-107709968D01*
X136610381Y-107778824D01*
X136604313Y-107812791D01*
X136556458Y-107960072D01*
X136555768Y-107966633D01*
X136555768Y-107966635D01*
X136542901Y-108089062D01*
X136536496Y-108150000D01*
X136537186Y-108156565D01*
X136553552Y-108312275D01*
X136556458Y-108339928D01*
X136615473Y-108521556D01*
X136618776Y-108527278D01*
X136618777Y-108527279D01*
X136622946Y-108534500D01*
X136710960Y-108686944D01*
X136787029Y-108771427D01*
X136817746Y-108835435D01*
X136808981Y-108905888D01*
X136782487Y-108944832D01*
X136260224Y-109467095D01*
X136197912Y-109501121D01*
X136171129Y-109504000D01*
X135528915Y-109504000D01*
X135460794Y-109483998D01*
X135439897Y-109467172D01*
X135411537Y-109438861D01*
X135377458Y-109376579D01*
X135382461Y-109305759D01*
X135411382Y-109260671D01*
X135493739Y-109178171D01*
X135502751Y-109166760D01*
X135587816Y-109028757D01*
X135593963Y-109015576D01*
X135645138Y-108861290D01*
X135648005Y-108847914D01*
X135657672Y-108753562D01*
X135658000Y-108747146D01*
X135658000Y-108709615D01*
X135653525Y-108694376D01*
X135652135Y-108693171D01*
X135644452Y-108691500D01*
X134322000Y-108691500D01*
X134253879Y-108671498D01*
X134207386Y-108617842D01*
X134196000Y-108565500D01*
X134196000Y-107716115D01*
X134191525Y-107700876D01*
X134190135Y-107699671D01*
X134182452Y-107698000D01*
X134109500Y-107698000D01*
X134041379Y-107677998D01*
X133994886Y-107624342D01*
X133983500Y-107572000D01*
X133983500Y-105260116D01*
X133979025Y-105244877D01*
X133977635Y-105243672D01*
X133969952Y-105242001D01*
X133927905Y-105242001D01*
X133921386Y-105242338D01*
X133825794Y-105252257D01*
X133812400Y-105255149D01*
X133658216Y-105306588D01*
X133645038Y-105312761D01*
X133507193Y-105398063D01*
X133495792Y-105407099D01*
X133381261Y-105521829D01*
X133372249Y-105533240D01*
X133287184Y-105671243D01*
X133281037Y-105684424D01*
X133227696Y-105845241D01*
X133224990Y-105844344D01*
X133197207Y-105895582D01*
X133134995Y-105929789D01*
X133064165Y-105924932D01*
X133010208Y-105886384D01*
X132972960Y-105840713D01*
X132972957Y-105840710D01*
X132969065Y-105835938D01*
X132957815Y-105826631D01*
X132821425Y-105713799D01*
X132821421Y-105713797D01*
X132816675Y-105709870D01*
X132642701Y-105615802D01*
X132453768Y-105557318D01*
X132447643Y-105556674D01*
X132447642Y-105556674D01*
X132263204Y-105537289D01*
X132263202Y-105537289D01*
X132257075Y-105536645D01*
X132178773Y-105543771D01*
X132066251Y-105554011D01*
X132066248Y-105554012D01*
X132060112Y-105554570D01*
X132054206Y-105556308D01*
X132054202Y-105556309D01*
X131949076Y-105587249D01*
X131870381Y-105610410D01*
X131864917Y-105613267D01*
X131864911Y-105613269D01*
X131809378Y-105642301D01*
X131739742Y-105656136D01*
X131673681Y-105630126D01*
X131632169Y-105572531D01*
X131628386Y-105501635D01*
X131630764Y-105492976D01*
X131641965Y-105457232D01*
X131642988Y-105447816D01*
X131662660Y-105266737D01*
X131662660Y-105266733D01*
X131663325Y-105260612D01*
X131660651Y-105230049D01*
X131674640Y-105160444D01*
X131724039Y-105109452D01*
X131793165Y-105093261D01*
X131860233Y-105117131D01*
X131893248Y-105141118D01*
X131899276Y-105143802D01*
X131899278Y-105143803D01*
X132061681Y-105216109D01*
X132067712Y-105218794D01*
X132161112Y-105238647D01*
X132248056Y-105257128D01*
X132248061Y-105257128D01*
X132254513Y-105258500D01*
X132445487Y-105258500D01*
X132451939Y-105257128D01*
X132451944Y-105257128D01*
X132538888Y-105238647D01*
X132632288Y-105218794D01*
X132638319Y-105216109D01*
X132800722Y-105143803D01*
X132800724Y-105143802D01*
X132806752Y-105141118D01*
X132961253Y-105028866D01*
X133089040Y-104886944D01*
X133169182Y-104748134D01*
X133181223Y-104727279D01*
X133181224Y-104727278D01*
X133184527Y-104721556D01*
X133243542Y-104539928D01*
X133244311Y-104532617D01*
X133262814Y-104356565D01*
X133263504Y-104350000D01*
X133252446Y-104244785D01*
X133244232Y-104166635D01*
X133244232Y-104166633D01*
X133243542Y-104160072D01*
X133186262Y-103983784D01*
X133184234Y-103912817D01*
X133216922Y-103855830D01*
X133261138Y-103811537D01*
X133323421Y-103777458D01*
X133394241Y-103782461D01*
X133439329Y-103811382D01*
X133521829Y-103893739D01*
X133533240Y-103902751D01*
X133671243Y-103987816D01*
X133684424Y-103993963D01*
X133838710Y-104045138D01*
X133852086Y-104048005D01*
X133946438Y-104057672D01*
X133952854Y-104058000D01*
X133990385Y-104058000D01*
X134005624Y-104053525D01*
X134006829Y-104052135D01*
X134008500Y-104044452D01*
X134008500Y-101660116D01*
X134004025Y-101644877D01*
X134002635Y-101643672D01*
X134000639Y-101643238D01*
X133938327Y-101609213D01*
X133904302Y-101546900D01*
X133902159Y-101506510D01*
X133908131Y-101451533D01*
X133908131Y-101451529D01*
X133908500Y-101448134D01*
X133908500Y-99951866D01*
X133901745Y-99889684D01*
X133850615Y-99753295D01*
X133829832Y-99725564D01*
X133804985Y-99659057D01*
X133820039Y-99589675D01*
X133829832Y-99574436D01*
X133835217Y-99567251D01*
X133850615Y-99546705D01*
X133871172Y-99491869D01*
X133890516Y-99440270D01*
X133933158Y-99383506D01*
X133999719Y-99358806D01*
X134008498Y-99358500D01*
X135133629Y-99358500D01*
X135201750Y-99378502D01*
G37*
%TD.AperFunction*%
%TA.AperFunction,Conductor*%
G36*
X174873086Y-103848502D02*
G01*
X174885449Y-103857555D01*
X174980698Y-103936632D01*
X175018121Y-103958500D01*
X175054017Y-103979476D01*
X175102741Y-104031114D01*
X175115812Y-104100897D01*
X175089081Y-104166669D01*
X175048627Y-104200027D01*
X175042630Y-104203149D01*
X175036179Y-104206507D01*
X175032046Y-104209610D01*
X175032043Y-104209612D01*
X174950558Y-104270793D01*
X174897049Y-104310969D01*
X174876683Y-104326260D01*
X174810198Y-104351166D01*
X174801030Y-104351500D01*
X174001850Y-104351500D01*
X173988242Y-104350763D01*
X173987662Y-104350700D01*
X173950612Y-104346675D01*
X173900570Y-104351053D01*
X173895788Y-104351379D01*
X173893310Y-104351500D01*
X173890231Y-104351500D01*
X173887177Y-104351799D01*
X173887166Y-104351800D01*
X173847529Y-104355687D01*
X173846215Y-104355809D01*
X173815299Y-104358514D01*
X173753587Y-104363913D01*
X173748468Y-104365400D01*
X173743167Y-104365920D01*
X173654166Y-104392791D01*
X173653033Y-104393126D01*
X173569586Y-104417370D01*
X173569582Y-104417372D01*
X173563664Y-104419091D01*
X173558932Y-104421544D01*
X173553831Y-104423084D01*
X173548388Y-104425978D01*
X173471740Y-104466731D01*
X173470574Y-104467343D01*
X173393547Y-104507271D01*
X173388074Y-104510108D01*
X173383911Y-104513431D01*
X173379204Y-104515934D01*
X173374429Y-104519828D01*
X173374428Y-104519829D01*
X173307102Y-104574739D01*
X173306075Y-104575567D01*
X173269792Y-104604531D01*
X173269787Y-104604536D01*
X173267028Y-104606738D01*
X173264527Y-104609239D01*
X173263809Y-104609881D01*
X173259461Y-104613594D01*
X173225938Y-104640935D01*
X173222015Y-104645677D01*
X173222013Y-104645679D01*
X173196703Y-104676273D01*
X173188713Y-104685053D01*
X172769171Y-105104595D01*
X172706859Y-105138621D01*
X172680076Y-105141500D01*
X171676062Y-105141500D01*
X171607941Y-105121498D01*
X171561448Y-105067842D01*
X171550752Y-105028671D01*
X171544232Y-104966636D01*
X171544232Y-104966635D01*
X171543542Y-104960072D01*
X171540270Y-104950000D01*
X171495806Y-104813157D01*
X171484527Y-104778444D01*
X171467028Y-104748134D01*
X171438125Y-104698074D01*
X171389040Y-104613056D01*
X171316613Y-104532617D01*
X171265675Y-104476045D01*
X171265674Y-104476044D01*
X171261253Y-104471134D01*
X171130024Y-104375790D01*
X171112094Y-104362763D01*
X171112093Y-104362762D01*
X171106752Y-104358882D01*
X171107020Y-104358514D01*
X171060828Y-104310064D01*
X171047395Y-104240349D01*
X171073785Y-104174440D01*
X171131620Y-104133261D01*
X171202536Y-104129886D01*
X171210906Y-104132226D01*
X171239306Y-104141235D01*
X171393227Y-104158500D01*
X172588157Y-104158500D01*
X172601764Y-104159237D01*
X172633262Y-104162659D01*
X172633267Y-104162659D01*
X172639388Y-104163324D01*
X172668284Y-104160796D01*
X172689388Y-104158950D01*
X172694214Y-104158621D01*
X172696686Y-104158500D01*
X172699769Y-104158500D01*
X172714720Y-104157034D01*
X172742506Y-104154310D01*
X172743819Y-104154188D01*
X172788084Y-104150315D01*
X172836413Y-104146087D01*
X172841532Y-104144600D01*
X172846833Y-104144080D01*
X172935834Y-104117209D01*
X172936967Y-104116874D01*
X173020414Y-104092630D01*
X173020418Y-104092628D01*
X173026336Y-104090909D01*
X173031068Y-104088456D01*
X173036169Y-104086916D01*
X173045091Y-104082172D01*
X173118260Y-104043269D01*
X173119426Y-104042657D01*
X173196453Y-104002729D01*
X173201926Y-103999892D01*
X173206089Y-103996569D01*
X173210796Y-103994066D01*
X173282918Y-103935245D01*
X173283774Y-103934554D01*
X173322973Y-103903262D01*
X173325477Y-103900758D01*
X173326195Y-103900116D01*
X173330528Y-103896415D01*
X173364062Y-103869065D01*
X173367459Y-103864958D01*
X173429635Y-103831287D01*
X173455991Y-103828500D01*
X174804965Y-103828500D01*
X174873086Y-103848502D01*
G37*
%TD.AperFunction*%
%TA.AperFunction,Conductor*%
G36*
X170945587Y-104023599D02*
G01*
X170970206Y-104037134D01*
X171020264Y-104087481D01*
X171035156Y-104156898D01*
X171010154Y-104223347D01*
X170953196Y-104265730D01*
X170883299Y-104270793D01*
X170869222Y-104267800D01*
X170806331Y-104233650D01*
X170795789Y-104223108D01*
X170761763Y-104160796D01*
X170766828Y-104089981D01*
X170809375Y-104033145D01*
X170875895Y-104008334D01*
X170945587Y-104023599D01*
G37*
%TD.AperFunction*%
%TA.AperFunction,Conductor*%
G36*
X173512851Y-101174085D02*
G01*
X173521557Y-101178871D01*
X173580787Y-101211433D01*
X173585865Y-101213044D01*
X173590563Y-101215563D01*
X173679498Y-101242753D01*
X173680702Y-101243128D01*
X173769306Y-101271235D01*
X173774597Y-101271828D01*
X173779698Y-101273388D01*
X173872311Y-101282795D01*
X173873431Y-101282915D01*
X173923227Y-101288500D01*
X173926756Y-101288500D01*
X173927739Y-101288555D01*
X173933426Y-101289003D01*
X173953683Y-101291060D01*
X173970336Y-101292752D01*
X173970339Y-101292752D01*
X173976463Y-101293374D01*
X174022112Y-101289059D01*
X174033969Y-101288500D01*
X174804965Y-101288500D01*
X174873086Y-101308502D01*
X174885449Y-101317555D01*
X174980698Y-101396632D01*
X175025859Y-101423022D01*
X175054017Y-101439476D01*
X175102741Y-101491114D01*
X175115812Y-101560897D01*
X175089081Y-101626669D01*
X175048627Y-101660027D01*
X175036179Y-101666507D01*
X175032046Y-101669610D01*
X175032043Y-101669612D01*
X174952052Y-101729671D01*
X174887935Y-101777812D01*
X174876683Y-101786260D01*
X174810198Y-101811166D01*
X174801030Y-101811500D01*
X173041840Y-101811500D01*
X173028232Y-101810763D01*
X172996736Y-101807341D01*
X172996732Y-101807341D01*
X172990611Y-101806676D01*
X172972611Y-101808251D01*
X172940609Y-101811050D01*
X172935784Y-101811379D01*
X172933313Y-101811500D01*
X172930231Y-101811500D01*
X172907763Y-101813703D01*
X172887489Y-101815691D01*
X172886174Y-101815813D01*
X172853913Y-101818636D01*
X172793587Y-101823913D01*
X172788468Y-101825400D01*
X172783167Y-101825920D01*
X172694133Y-101852801D01*
X172693000Y-101853136D01*
X172609578Y-101877373D01*
X172609574Y-101877375D01*
X172603663Y-101879092D01*
X172598934Y-101881543D01*
X172593831Y-101883084D01*
X172511669Y-101926770D01*
X172510627Y-101927317D01*
X172434772Y-101966636D01*
X172428074Y-101970108D01*
X172423911Y-101973431D01*
X172419204Y-101975934D01*
X172414430Y-101979828D01*
X172414428Y-101979829D01*
X172347105Y-102034737D01*
X172346160Y-102035500D01*
X172307027Y-102066739D01*
X172304536Y-102069230D01*
X172303809Y-102069880D01*
X172299463Y-102073592D01*
X172270713Y-102097040D01*
X172270710Y-102097043D01*
X172265938Y-102100935D01*
X172262539Y-102105044D01*
X172200359Y-102138714D01*
X172174008Y-102141500D01*
X171676062Y-102141500D01*
X171607941Y-102121498D01*
X171561448Y-102067842D01*
X171550752Y-102028671D01*
X171544232Y-101966636D01*
X171544232Y-101966635D01*
X171543542Y-101960072D01*
X171540270Y-101950000D01*
X171499784Y-101825400D01*
X171484527Y-101778444D01*
X171467028Y-101748134D01*
X171434084Y-101691075D01*
X171389040Y-101613056D01*
X171377285Y-101600000D01*
X171265675Y-101476045D01*
X171265674Y-101476044D01*
X171261253Y-101471134D01*
X171144677Y-101386436D01*
X171101323Y-101330213D01*
X171095248Y-101259477D01*
X171128380Y-101196686D01*
X171190200Y-101161774D01*
X171218738Y-101158500D01*
X173452150Y-101158500D01*
X173512851Y-101174085D01*
G37*
%TD.AperFunction*%
%TA.AperFunction,Conductor*%
G36*
X172848195Y-98178502D02*
G01*
X172869169Y-98195404D01*
X173083149Y-98409383D01*
X173092251Y-98419527D01*
X173115968Y-98449025D01*
X173148169Y-98476045D01*
X173154421Y-98481291D01*
X173158069Y-98484472D01*
X173159881Y-98486115D01*
X173162075Y-98488309D01*
X173195349Y-98515642D01*
X173196147Y-98516304D01*
X173267474Y-98576154D01*
X173272144Y-98578722D01*
X173276261Y-98582103D01*
X173353446Y-98623489D01*
X173358120Y-98625995D01*
X173359280Y-98626624D01*
X173435389Y-98668466D01*
X173435394Y-98668468D01*
X173440787Y-98671433D01*
X173445865Y-98673044D01*
X173450563Y-98675563D01*
X173539498Y-98702753D01*
X173540702Y-98703128D01*
X173629306Y-98731235D01*
X173634597Y-98731828D01*
X173639698Y-98733388D01*
X173732311Y-98742795D01*
X173733431Y-98742915D01*
X173783227Y-98748500D01*
X173786756Y-98748500D01*
X173787739Y-98748555D01*
X173793426Y-98749003D01*
X173813683Y-98751060D01*
X173830336Y-98752752D01*
X173830339Y-98752752D01*
X173836463Y-98753374D01*
X173882112Y-98749059D01*
X173893969Y-98748500D01*
X174804965Y-98748500D01*
X174873086Y-98768502D01*
X174885449Y-98777555D01*
X174980698Y-98856632D01*
X174993694Y-98864226D01*
X175054017Y-98899476D01*
X175102741Y-98951114D01*
X175115812Y-99020897D01*
X175089081Y-99086669D01*
X175048627Y-99120027D01*
X175036179Y-99126507D01*
X175032046Y-99129610D01*
X175032043Y-99129612D01*
X174955230Y-99187285D01*
X174883733Y-99240967D01*
X174876683Y-99246260D01*
X174810198Y-99271166D01*
X174801030Y-99271500D01*
X174377850Y-99271500D01*
X174317149Y-99255915D01*
X174312935Y-99253598D01*
X174249213Y-99218567D01*
X174244131Y-99216955D01*
X174239437Y-99214438D01*
X174150469Y-99187238D01*
X174149441Y-99186918D01*
X174060694Y-99158765D01*
X174055398Y-99158171D01*
X174050302Y-99156613D01*
X173957743Y-99147210D01*
X173956607Y-99147089D01*
X173922992Y-99143319D01*
X173910270Y-99141892D01*
X173910266Y-99141892D01*
X173906773Y-99141500D01*
X173903246Y-99141500D01*
X173902261Y-99141445D01*
X173896581Y-99140998D01*
X173867175Y-99138011D01*
X173859663Y-99137248D01*
X173859661Y-99137248D01*
X173853538Y-99136626D01*
X173811259Y-99140623D01*
X173807891Y-99140941D01*
X173796033Y-99141500D01*
X171676062Y-99141500D01*
X171607941Y-99121498D01*
X171561448Y-99067842D01*
X171550752Y-99028671D01*
X171550194Y-99023357D01*
X171543542Y-98960072D01*
X171540632Y-98951114D01*
X171499428Y-98824305D01*
X171484527Y-98778444D01*
X171467028Y-98748134D01*
X171426168Y-98677363D01*
X171389040Y-98613056D01*
X171369943Y-98591846D01*
X171265675Y-98476045D01*
X171265674Y-98476044D01*
X171261253Y-98471134D01*
X171186976Y-98417168D01*
X171144677Y-98386436D01*
X171101323Y-98330213D01*
X171095248Y-98259477D01*
X171128380Y-98196686D01*
X171190200Y-98161774D01*
X171218738Y-98158500D01*
X172780074Y-98158500D01*
X172848195Y-98178502D01*
G37*
%TD.AperFunction*%
%TA.AperFunction,Conductor*%
G36*
X137429197Y-95428502D02*
G01*
X137475690Y-95482158D01*
X137485794Y-95552432D01*
X137456300Y-95617012D01*
X137450171Y-95623595D01*
X137180621Y-95893145D01*
X137170478Y-95902247D01*
X137140975Y-95925968D01*
X137125448Y-95944472D01*
X137108709Y-95964421D01*
X137105528Y-95968069D01*
X137103885Y-95969881D01*
X137101691Y-95972075D01*
X137074358Y-96005349D01*
X137073696Y-96006147D01*
X137013846Y-96077474D01*
X137011278Y-96082144D01*
X137007897Y-96086261D01*
X136981462Y-96135562D01*
X136964023Y-96168086D01*
X136963394Y-96169245D01*
X136921538Y-96245381D01*
X136921535Y-96245389D01*
X136918567Y-96250787D01*
X136916955Y-96255869D01*
X136914438Y-96260563D01*
X136887238Y-96349531D01*
X136886918Y-96350559D01*
X136858765Y-96439306D01*
X136858171Y-96444602D01*
X136856613Y-96449698D01*
X136851121Y-96503767D01*
X136847218Y-96542187D01*
X136847089Y-96543393D01*
X136841500Y-96593227D01*
X136841500Y-96596754D01*
X136841445Y-96597739D01*
X136840998Y-96603419D01*
X136836626Y-96646462D01*
X136837581Y-96656565D01*
X136840941Y-96692109D01*
X136841500Y-96703967D01*
X136841500Y-97220977D01*
X136821498Y-97289098D01*
X136767842Y-97335591D01*
X136741697Y-97344224D01*
X136704172Y-97352200D01*
X136567712Y-97381206D01*
X136561682Y-97383891D01*
X136561681Y-97383891D01*
X136399278Y-97456197D01*
X136399276Y-97456198D01*
X136393248Y-97458882D01*
X136238747Y-97571134D01*
X136234326Y-97576044D01*
X136234325Y-97576045D01*
X136124815Y-97697669D01*
X136110960Y-97713056D01*
X136085184Y-97757701D01*
X136016332Y-97876956D01*
X135964949Y-97925949D01*
X135895236Y-97939385D01*
X135853869Y-97928106D01*
X135835126Y-97919346D01*
X135831225Y-97917439D01*
X135816324Y-97909830D01*
X135766192Y-97884231D01*
X135759084Y-97882492D01*
X135753441Y-97880393D01*
X135747678Y-97878476D01*
X135741050Y-97875378D01*
X135669583Y-97860513D01*
X135665299Y-97859543D01*
X135656308Y-97857343D01*
X135594390Y-97842192D01*
X135588788Y-97841844D01*
X135588785Y-97841844D01*
X135583236Y-97841500D01*
X135583238Y-97841464D01*
X135579245Y-97841225D01*
X135575053Y-97840851D01*
X135567885Y-97839360D01*
X135501675Y-97841151D01*
X135490479Y-97841454D01*
X135487072Y-97841500D01*
X134873975Y-97841500D01*
X134805854Y-97821498D01*
X134759361Y-97767842D01*
X134749257Y-97697568D01*
X134778751Y-97632988D01*
X134834098Y-97595977D01*
X134841779Y-97593414D01*
X134854962Y-97587239D01*
X134992807Y-97501937D01*
X135004208Y-97492901D01*
X135118739Y-97378171D01*
X135127751Y-97366760D01*
X135212816Y-97228757D01*
X135218963Y-97215576D01*
X135270138Y-97061290D01*
X135273005Y-97047914D01*
X135282672Y-96953562D01*
X135283000Y-96947146D01*
X135283000Y-96722115D01*
X135278525Y-96706876D01*
X135277135Y-96705671D01*
X135269452Y-96704000D01*
X134134500Y-96704000D01*
X134066379Y-96683998D01*
X134019886Y-96630342D01*
X134008500Y-96578000D01*
X134008500Y-96322000D01*
X134028502Y-96253879D01*
X134082158Y-96207386D01*
X134134500Y-96196000D01*
X135264884Y-96196000D01*
X135280123Y-96191525D01*
X135281328Y-96190135D01*
X135282999Y-96182452D01*
X135282999Y-95952905D01*
X135282662Y-95946386D01*
X135272743Y-95850794D01*
X135269851Y-95837400D01*
X135218412Y-95683216D01*
X135212241Y-95670042D01*
X135169394Y-95600804D01*
X135150556Y-95532352D01*
X135171717Y-95464582D01*
X135226157Y-95419011D01*
X135276538Y-95408500D01*
X137361076Y-95408500D01*
X137429197Y-95428502D01*
G37*
%TD.AperFunction*%
%TA.AperFunction,Conductor*%
G36*
X172948195Y-95178502D02*
G01*
X172969169Y-95195404D01*
X173643149Y-95869383D01*
X173652251Y-95879527D01*
X173675968Y-95909025D01*
X173710853Y-95938297D01*
X173714421Y-95941291D01*
X173718069Y-95944472D01*
X173719881Y-95946115D01*
X173722075Y-95948309D01*
X173755346Y-95975639D01*
X173756201Y-95976349D01*
X173812198Y-96023337D01*
X173851524Y-96082447D01*
X173852245Y-96127926D01*
X173898887Y-96105725D01*
X173969312Y-96114713D01*
X173979497Y-96119729D01*
X173995380Y-96128461D01*
X173995384Y-96128463D01*
X174000787Y-96131433D01*
X174005869Y-96133045D01*
X174010563Y-96135562D01*
X174059797Y-96150615D01*
X174099477Y-96162747D01*
X174100735Y-96163139D01*
X174189306Y-96191235D01*
X174194597Y-96191829D01*
X174199698Y-96193388D01*
X174292263Y-96202790D01*
X174293450Y-96202916D01*
X174322838Y-96206213D01*
X174339730Y-96208108D01*
X174339735Y-96208108D01*
X174343227Y-96208500D01*
X174346752Y-96208500D01*
X174347737Y-96208555D01*
X174353459Y-96209006D01*
X174354319Y-96209093D01*
X174420059Y-96235899D01*
X174453003Y-96281242D01*
X174454495Y-96280425D01*
X174458805Y-96288296D01*
X174461957Y-96296705D01*
X174549311Y-96413261D01*
X174633139Y-96476087D01*
X174665867Y-96500615D01*
X174665001Y-96501771D01*
X174708370Y-96545237D01*
X174723385Y-96614628D01*
X174698501Y-96681120D01*
X174641618Y-96723604D01*
X174597716Y-96731500D01*
X174309924Y-96731500D01*
X174241803Y-96711498D01*
X174220829Y-96694595D01*
X174103279Y-96577045D01*
X174103262Y-96577027D01*
X174006845Y-96480611D01*
X173997743Y-96470466D01*
X173977896Y-96445780D01*
X173977892Y-96445776D01*
X173974032Y-96440975D01*
X173935578Y-96408708D01*
X173931931Y-96405528D01*
X173930118Y-96403884D01*
X173927925Y-96401691D01*
X173894654Y-96374361D01*
X173893799Y-96373651D01*
X173837802Y-96326663D01*
X173798476Y-96267553D01*
X173797755Y-96222074D01*
X173751113Y-96244275D01*
X173680688Y-96235287D01*
X173670503Y-96230271D01*
X173654620Y-96221539D01*
X173654616Y-96221537D01*
X173649213Y-96218567D01*
X173644131Y-96216955D01*
X173639437Y-96214438D01*
X173550469Y-96187238D01*
X173549441Y-96186918D01*
X173460694Y-96158765D01*
X173455398Y-96158171D01*
X173450302Y-96156613D01*
X173357743Y-96147210D01*
X173356607Y-96147089D01*
X173322992Y-96143319D01*
X173310270Y-96141892D01*
X173310266Y-96141892D01*
X173306773Y-96141500D01*
X173303246Y-96141500D01*
X173302261Y-96141445D01*
X173296581Y-96140998D01*
X173267175Y-96138011D01*
X173259663Y-96137248D01*
X173259661Y-96137248D01*
X173253538Y-96136626D01*
X173211259Y-96140623D01*
X173207891Y-96140941D01*
X173196033Y-96141500D01*
X171676062Y-96141500D01*
X171607941Y-96121498D01*
X171561448Y-96067842D01*
X171550752Y-96028671D01*
X171544232Y-95966636D01*
X171544232Y-95966635D01*
X171543542Y-95960072D01*
X171540356Y-95950265D01*
X171486569Y-95784729D01*
X171484527Y-95778444D01*
X171467028Y-95748134D01*
X171425412Y-95676054D01*
X171389040Y-95613056D01*
X171354213Y-95574376D01*
X171265675Y-95476045D01*
X171265674Y-95476044D01*
X171261253Y-95471134D01*
X171186976Y-95417168D01*
X171144677Y-95386436D01*
X171101323Y-95330213D01*
X171095248Y-95259477D01*
X171128380Y-95196686D01*
X171190200Y-95161774D01*
X171218738Y-95158500D01*
X172880074Y-95158500D01*
X172948195Y-95178502D01*
G37*
%TD.AperFunction*%
%TD*%
M02*
