%TF.GenerationSoftware,KiCad,Pcbnew,(6.0.2)*%
%TF.CreationDate,2022-06-02T00:09:36+03:00*%
%TF.ProjectId,BYKR-C2-V00,42594b52-2d43-4322-9d56-30302e6b6963,rev?*%
%TF.SameCoordinates,Original*%
%TF.FileFunction,Copper,L2,Inr*%
%TF.FilePolarity,Positive*%
%FSLAX46Y46*%
G04 Gerber Fmt 4.6, Leading zero omitted, Abs format (unit mm)*
G04 Created by KiCad (PCBNEW (6.0.2)) date 2022-06-02 00:09:36*
%MOMM*%
%LPD*%
G01*
G04 APERTURE LIST*
%TA.AperFunction,ComponentPad*%
%ADD10C,1.879600*%
%TD*%
%TA.AperFunction,ComponentPad*%
%ADD11C,3.215640*%
%TD*%
%TA.AperFunction,ComponentPad*%
%ADD12R,1.700000X1.700000*%
%TD*%
%TA.AperFunction,ComponentPad*%
%ADD13O,1.700000X1.700000*%
%TD*%
%TA.AperFunction,ViaPad*%
%ADD14C,0.800000*%
%TD*%
%TA.AperFunction,Conductor*%
%ADD15C,2.000000*%
%TD*%
%TA.AperFunction,Conductor*%
%ADD16C,1.000000*%
%TD*%
G04 APERTURE END LIST*
D10*
%TO.N,Net-(J1-Pad1)*%
%TO.C,J1*%
X131047580Y-123271330D03*
%TO.N,Net-(J1-Pad2)*%
X128675220Y-123271330D03*
%TO.N,Net-(J1-Pad3)*%
X126424780Y-123271330D03*
%TO.N,GND*%
X124052420Y-123271330D03*
D11*
X133348820Y-125669090D03*
X121751180Y-125669090D03*
%TD*%
D12*
%TO.N,MCU_S*%
%TO.C,J3*%
X175750000Y-87350000D03*
%TD*%
%TO.N,CAMERA_D2*%
%TO.C,J2*%
X175762572Y-95200000D03*
D13*
%TO.N,CAMERA_D3*%
X175762572Y-97740000D03*
%TO.N,CAMERA_CMD*%
X175762572Y-100280000D03*
%TO.N,CAMERA_VCC*%
X175762572Y-102820000D03*
%TO.N,CAMERA_CLK*%
X175762572Y-105360000D03*
%TO.N,GND*%
X175762572Y-107900000D03*
%TO.N,CAMERA_D0*%
X175762572Y-110440000D03*
%TO.N,CAMERA_D1*%
X175762572Y-112980000D03*
%TO.N,CAMERA_CD*%
X175762572Y-115520000D03*
%TD*%
D14*
%TO.N,GND*%
X142450000Y-75650000D03*
X136050000Y-81450000D03*
X127550000Y-74550000D03*
X122950000Y-83550000D03*
%TO.N,USB_D3*%
X159750000Y-98050000D03*
X154550000Y-106150000D03*
%TO.N,USB_D2*%
X158150000Y-98050000D03*
X154337500Y-104862500D03*
%TO.N,USB_D0*%
X163150000Y-108550000D03*
%TO.N,USB_D1*%
X165050000Y-111750000D03*
%TO.N,USB_CD*%
X162950000Y-114350000D03*
X157750000Y-110950000D03*
%TO.N,USB_D1*%
X161850000Y-106000500D03*
X157450000Y-108950000D03*
%TO.N,USB_D0*%
X159050000Y-105950000D03*
X154950000Y-108950000D03*
%TO.N,USB_CMD*%
X160450000Y-100650000D03*
X156850000Y-107050000D03*
%TO.N,USB_VCC*%
X163850000Y-102850000D03*
X152250000Y-95450000D03*
X142650000Y-95550000D03*
X136850000Y-98250000D03*
%TO.N,SD_D2*%
X161350000Y-94450000D03*
X161350000Y-86750000D03*
%TO.N,SD_D3*%
X162050000Y-96650000D03*
X162750000Y-86350000D03*
%TO.N,SD_CMD*%
X163750000Y-101350000D03*
X163850000Y-85550000D03*
%TO.N,SD_CD*%
X157650000Y-116750000D03*
%TO.N,SD_VCC*%
X165150000Y-104850000D03*
X164850000Y-84850000D03*
%TO.N,SD_CLK*%
X158750000Y-115550000D03*
%TO.N,SD_D0*%
X160050000Y-114450000D03*
%TO.N,SD_D1*%
X161550000Y-113450000D03*
%TO.N,SD_CD*%
X132950000Y-90850000D03*
%TO.N,SD_CLK*%
X137550000Y-90650000D03*
%TO.N,SD_D0*%
X142550000Y-90650000D03*
%TO.N,SD_D1*%
X144550000Y-90450000D03*
%TO.N,+5V*%
X137450000Y-108150000D03*
%TO.N,DM*%
X130350000Y-110150000D03*
%TO.N,DP*%
X130650000Y-105250000D03*
%TO.N,Net-(C6-Pad1)*%
X132350000Y-104350000D03*
%TO.N,+3V3*%
X137850000Y-97450000D03*
%TO.N,Net-(C6-Pad1)*%
X136150000Y-103150000D03*
%TO.N,DP*%
X136150000Y-104050000D03*
%TO.N,DM*%
X136150000Y-104950000D03*
%TO.N,+5V*%
X133350000Y-115750000D03*
X122050000Y-100450000D03*
%TO.N,+3V3*%
X153650000Y-103150000D03*
X118550000Y-106550000D03*
X130250000Y-108350000D03*
X132250000Y-106550000D03*
X137950000Y-101950000D03*
X137950000Y-104450000D03*
X137950000Y-107150000D03*
X120650000Y-111150000D03*
%TO.N,GND*%
X151850000Y-93350000D03*
X135850000Y-96650000D03*
X134850000Y-101350000D03*
X135850000Y-108450000D03*
X122950000Y-111150000D03*
X145550000Y-85350000D03*
X139050000Y-85350000D03*
X130850000Y-85350000D03*
X144050000Y-68950000D03*
X122850000Y-69750000D03*
X156850000Y-90150000D03*
%TO.N,+3V3*%
X162150000Y-101150000D03*
X166350000Y-94850000D03*
X166350000Y-97850000D03*
X166350000Y-100850000D03*
X166350000Y-103850000D03*
X166350000Y-106850000D03*
X166350000Y-109850000D03*
X166350000Y-112850000D03*
X166350000Y-115750000D03*
%TO.N,GND*%
X142150000Y-108850000D03*
X144950000Y-107050000D03*
X144950000Y-101550000D03*
X141650000Y-103950000D03*
X172550000Y-116650000D03*
X172550000Y-113450000D03*
X172550000Y-111050000D03*
X172550000Y-107650000D03*
X172550000Y-104650000D03*
X172550000Y-101550000D03*
X172550000Y-98650000D03*
X172550000Y-95350000D03*
%TO.N,MCU_S*%
X170650000Y-96150000D03*
X170650000Y-99150000D03*
X170650000Y-102150000D03*
X170650000Y-105150000D03*
X170650000Y-108050000D03*
X170650000Y-111150000D03*
X170650000Y-114250000D03*
X170450000Y-117450000D03*
%TD*%
D15*
%TO.N,GND*%
X134750000Y-109550000D02*
X134750000Y-110650000D01*
X136850000Y-124550000D02*
X135730910Y-125669090D01*
X135850000Y-108450000D02*
X134750000Y-109550000D01*
X136850000Y-112750000D02*
X136850000Y-124550000D01*
X135730910Y-125669090D02*
X133348820Y-125669090D01*
X134750000Y-110650000D02*
X136850000Y-112750000D01*
X139150000Y-93350000D02*
X135850000Y-96650000D01*
X151850000Y-93350000D02*
X139150000Y-93350000D01*
X134850000Y-97650000D02*
X135850000Y-96650000D01*
X134850000Y-101350000D02*
X134850000Y-97650000D01*
X134850000Y-124167910D02*
X133348820Y-125669090D01*
X134850000Y-122750000D02*
X134850000Y-124167910D01*
X132650000Y-120550000D02*
X134850000Y-122750000D01*
X125050000Y-120550000D02*
X132650000Y-120550000D01*
X124052420Y-121547580D02*
X125050000Y-120550000D01*
X124052420Y-123271330D02*
X124052420Y-121547580D01*
X122671330Y-123271330D02*
X121751180Y-122351180D01*
X124052420Y-123271330D02*
X122671330Y-123271330D01*
X121751180Y-122351180D02*
X121751180Y-125669090D01*
X121751180Y-115151180D02*
X121751180Y-122351180D01*
X121751180Y-125572570D02*
X124052420Y-123271330D01*
X121751180Y-125669090D02*
X121751180Y-125572570D01*
X121750000Y-115150000D02*
X121751180Y-115151180D01*
X122950000Y-113950000D02*
X121750000Y-115150000D01*
X122950000Y-111150000D02*
X122950000Y-113950000D01*
X158550000Y-88450000D02*
X156850000Y-90150000D01*
X167350000Y-88450000D02*
X163150000Y-88450000D01*
X171250000Y-92350000D02*
X167350000Y-88450000D01*
X172550000Y-93650000D02*
X171250000Y-92350000D01*
X163150000Y-88450000D02*
X158550000Y-88450000D01*
X172550000Y-95350000D02*
X172550000Y-93650000D01*
X178650000Y-117150000D02*
X178650000Y-109050000D01*
X177450000Y-118350000D02*
X178650000Y-117150000D01*
X174250000Y-118350000D02*
X177450000Y-118350000D01*
X178650000Y-109050000D02*
X177500000Y-107900000D01*
X177500000Y-107900000D02*
X175762572Y-107900000D01*
X172550000Y-116650000D02*
X174250000Y-118350000D01*
D16*
X172550000Y-98650000D02*
X172550000Y-95350000D01*
X172550000Y-111050000D02*
X172550000Y-98650000D01*
X172550000Y-116650000D02*
X172550000Y-111050000D01*
%TD*%
%TA.AperFunction,Conductor*%
%TO.N,GND*%
G36*
X179592121Y-59670002D02*
G01*
X179638614Y-59723658D01*
X179650000Y-59776000D01*
X179650000Y-127524000D01*
X179629998Y-127592121D01*
X179576342Y-127638614D01*
X179524000Y-127650000D01*
X134616091Y-127650000D01*
X134547970Y-127629998D01*
X134501477Y-127576342D01*
X134491373Y-127506068D01*
X134520867Y-127441488D01*
X134541129Y-127423469D01*
X134540866Y-127423133D01*
X134640273Y-127345187D01*
X134648743Y-127333329D01*
X134642226Y-127321706D01*
X133361632Y-126041112D01*
X133347688Y-126033498D01*
X133345855Y-126033629D01*
X133339240Y-126037880D01*
X132055186Y-127321934D01*
X132047894Y-127335288D01*
X132054949Y-127345261D01*
X132098971Y-127382069D01*
X132105905Y-127387106D01*
X132153978Y-127417263D01*
X132201056Y-127470406D01*
X132211928Y-127540565D01*
X132183144Y-127605465D01*
X132123842Y-127644500D01*
X132087022Y-127650000D01*
X123018451Y-127650000D01*
X122950330Y-127629998D01*
X122903837Y-127576342D01*
X122893733Y-127506068D01*
X122923227Y-127441488D01*
X122943489Y-127423469D01*
X122943226Y-127423133D01*
X123042633Y-127345187D01*
X123051103Y-127333329D01*
X123044586Y-127321706D01*
X121763992Y-126041112D01*
X121750048Y-126033498D01*
X121748215Y-126033629D01*
X121741600Y-126037880D01*
X120457546Y-127321934D01*
X120450254Y-127335288D01*
X120457309Y-127345261D01*
X120501331Y-127382069D01*
X120508265Y-127387106D01*
X120556338Y-127417263D01*
X120603416Y-127470406D01*
X120614288Y-127540565D01*
X120585504Y-127605465D01*
X120526202Y-127644500D01*
X120489382Y-127650000D01*
X115776000Y-127650000D01*
X115707879Y-127629998D01*
X115661386Y-127576342D01*
X115650000Y-127524000D01*
X115650000Y-125651162D01*
X119630779Y-125651162D01*
X119646892Y-125930604D01*
X119647965Y-125939105D01*
X119701854Y-126213777D01*
X119704067Y-126222039D01*
X119794737Y-126486863D01*
X119798053Y-126494750D01*
X119923822Y-126744816D01*
X119928179Y-126752182D01*
X120072988Y-126962880D01*
X120083241Y-126971224D01*
X120096982Y-126964078D01*
X121379158Y-125681902D01*
X121385536Y-125670222D01*
X122115588Y-125670222D01*
X122115719Y-125672055D01*
X122119970Y-125678670D01*
X123404038Y-126962738D01*
X123416248Y-126969405D01*
X123427747Y-126960716D01*
X123539262Y-126808907D01*
X123543846Y-126801684D01*
X123677405Y-126555699D01*
X123680973Y-126547905D01*
X123779913Y-126286070D01*
X123782386Y-126277879D01*
X123844877Y-126005031D01*
X123846215Y-125996577D01*
X123867264Y-125760725D01*
X124238595Y-125760725D01*
X124240504Y-125781704D01*
X124254829Y-125939105D01*
X124257407Y-125967436D01*
X124259145Y-125973342D01*
X124259146Y-125973346D01*
X124279091Y-126041112D01*
X124316011Y-126166556D01*
X124318865Y-126172015D01*
X124409320Y-126345040D01*
X124409323Y-126345044D01*
X124412175Y-126350500D01*
X124542236Y-126512264D01*
X124701240Y-126645684D01*
X124706632Y-126648648D01*
X124706636Y-126648651D01*
X124854047Y-126729690D01*
X124883131Y-126745679D01*
X124888998Y-126747540D01*
X124889000Y-126747541D01*
X125059681Y-126801684D01*
X125080979Y-126808440D01*
X125242523Y-126826560D01*
X125354327Y-126826560D01*
X125357382Y-126826260D01*
X125357391Y-126826260D01*
X125428399Y-126819297D01*
X125508674Y-126811426D01*
X125514575Y-126809644D01*
X125514577Y-126809644D01*
X125591809Y-126786326D01*
X125707380Y-126751433D01*
X125890649Y-126653988D01*
X126051500Y-126522800D01*
X126083028Y-126484690D01*
X126179878Y-126367618D01*
X126183807Y-126362869D01*
X126282530Y-126180285D01*
X126343909Y-125982003D01*
X126365605Y-125775575D01*
X126346793Y-125568864D01*
X126288189Y-125369744D01*
X126254107Y-125304551D01*
X126194880Y-125191260D01*
X126194877Y-125191256D01*
X126192025Y-125185800D01*
X126061964Y-125024036D01*
X125902960Y-124890616D01*
X125897563Y-124887649D01*
X125893481Y-124884854D01*
X125848574Y-124829864D01*
X125840526Y-124759326D01*
X125871892Y-124695633D01*
X125932713Y-124659009D01*
X126009614Y-124663180D01*
X126014492Y-124665042D01*
X126014494Y-124665043D01*
X126019332Y-124666890D01*
X126024398Y-124667921D01*
X126024399Y-124667921D01*
X126078736Y-124678976D01*
X126252708Y-124714371D01*
X126386901Y-124719292D01*
X126485540Y-124722909D01*
X126485544Y-124722909D01*
X126490704Y-124723098D01*
X126495824Y-124722442D01*
X126495826Y-124722442D01*
X126721803Y-124693494D01*
X126721804Y-124693494D01*
X126726931Y-124692837D01*
X126809980Y-124667921D01*
X126950096Y-124625884D01*
X126950097Y-124625883D01*
X126955042Y-124624400D01*
X127168913Y-124519625D01*
X127173116Y-124516627D01*
X127173121Y-124516624D01*
X127358596Y-124384326D01*
X127358598Y-124384324D01*
X127362800Y-124381327D01*
X127376442Y-124367733D01*
X127459079Y-124285384D01*
X127521451Y-124251468D01*
X127592258Y-124256656D01*
X127643256Y-124292137D01*
X127655038Y-124305739D01*
X127655043Y-124305744D01*
X127658424Y-124309647D01*
X127841662Y-124461774D01*
X127846114Y-124464376D01*
X127846119Y-124464379D01*
X128001763Y-124555330D01*
X128047285Y-124581931D01*
X128269772Y-124666890D01*
X128274838Y-124667921D01*
X128274839Y-124667921D01*
X128329176Y-124678976D01*
X128503148Y-124714371D01*
X128637341Y-124719292D01*
X128735980Y-124722909D01*
X128735984Y-124722909D01*
X128741144Y-124723098D01*
X128746264Y-124722442D01*
X128746266Y-124722442D01*
X128972243Y-124693494D01*
X128972244Y-124693494D01*
X128977371Y-124692837D01*
X128982322Y-124691352D01*
X128982325Y-124691351D01*
X129109943Y-124653064D01*
X129180938Y-124652648D01*
X129240889Y-124690680D01*
X129270760Y-124755087D01*
X129261069Y-124825419D01*
X129215876Y-124878699D01*
X129214793Y-124879418D01*
X129209351Y-124882312D01*
X129204579Y-124886204D01*
X129204576Y-124886206D01*
X129204575Y-124886207D01*
X129048500Y-125013500D01*
X128916193Y-125173431D01*
X128817470Y-125356015D01*
X128756091Y-125554297D01*
X128755447Y-125560422D01*
X128755447Y-125560423D01*
X128744338Y-125666125D01*
X128734395Y-125760725D01*
X128736304Y-125781704D01*
X128750629Y-125939105D01*
X128753207Y-125967436D01*
X128754945Y-125973342D01*
X128754946Y-125973346D01*
X128774891Y-126041112D01*
X128811811Y-126166556D01*
X128814665Y-126172015D01*
X128905120Y-126345040D01*
X128905123Y-126345044D01*
X128907975Y-126350500D01*
X129038036Y-126512264D01*
X129197040Y-126645684D01*
X129202432Y-126648648D01*
X129202436Y-126648651D01*
X129349847Y-126729690D01*
X129378931Y-126745679D01*
X129384798Y-126747540D01*
X129384800Y-126747541D01*
X129555481Y-126801684D01*
X129576779Y-126808440D01*
X129738323Y-126826560D01*
X129850127Y-126826560D01*
X129853182Y-126826260D01*
X129853191Y-126826260D01*
X129924199Y-126819297D01*
X130004474Y-126811426D01*
X130010375Y-126809644D01*
X130010377Y-126809644D01*
X130087609Y-126786326D01*
X130203180Y-126751433D01*
X130386449Y-126653988D01*
X130547300Y-126522800D01*
X130578828Y-126484690D01*
X130675678Y-126367618D01*
X130679607Y-126362869D01*
X130778330Y-126180285D01*
X130839709Y-125982003D01*
X130861405Y-125775575D01*
X130842593Y-125568864D01*
X130783989Y-125369744D01*
X130749907Y-125304551D01*
X130690680Y-125191260D01*
X130690677Y-125191256D01*
X130687825Y-125185800D01*
X130557764Y-125024036D01*
X130398760Y-124890616D01*
X130393368Y-124887652D01*
X130393364Y-124887649D01*
X130222264Y-124793587D01*
X130222265Y-124793587D01*
X130216869Y-124790621D01*
X130211002Y-124788760D01*
X130211000Y-124788759D01*
X130024891Y-124729722D01*
X130024890Y-124729722D01*
X130019021Y-124727860D01*
X129857477Y-124709740D01*
X129745673Y-124709740D01*
X129742618Y-124710040D01*
X129742609Y-124710040D01*
X129677005Y-124716473D01*
X129591326Y-124724874D01*
X129525934Y-124744617D01*
X129454941Y-124745158D01*
X129394924Y-124707231D01*
X129364940Y-124642876D01*
X129374508Y-124572528D01*
X129420337Y-124521005D01*
X129419353Y-124519625D01*
X129609036Y-124384326D01*
X129609038Y-124384324D01*
X129613240Y-124381327D01*
X129774954Y-124220176D01*
X129837327Y-124186260D01*
X129908134Y-124191448D01*
X129959132Y-124226929D01*
X130030784Y-124309647D01*
X130214022Y-124461774D01*
X130218474Y-124464376D01*
X130218479Y-124464379D01*
X130374123Y-124555330D01*
X130419645Y-124581931D01*
X130642132Y-124666890D01*
X130647198Y-124667921D01*
X130647199Y-124667921D01*
X130701536Y-124678976D01*
X130875508Y-124714371D01*
X131009701Y-124719292D01*
X131108340Y-124722909D01*
X131108344Y-124722909D01*
X131113504Y-124723098D01*
X131118624Y-124722442D01*
X131118626Y-124722442D01*
X131180154Y-124714560D01*
X131252526Y-124705289D01*
X131322635Y-124716473D01*
X131375569Y-124763787D01*
X131394520Y-124832207D01*
X131386861Y-124873569D01*
X131313739Y-125073385D01*
X131311350Y-125081608D01*
X131251720Y-125355096D01*
X131250471Y-125363552D01*
X131228508Y-125642612D01*
X131228419Y-125651162D01*
X131244532Y-125930604D01*
X131245605Y-125939105D01*
X131299494Y-126213777D01*
X131301707Y-126222039D01*
X131392377Y-126486863D01*
X131395693Y-126494750D01*
X131521462Y-126744816D01*
X131525819Y-126752182D01*
X131670628Y-126962880D01*
X131680881Y-126971224D01*
X131694622Y-126964078D01*
X132988478Y-125670222D01*
X133713228Y-125670222D01*
X133713359Y-125672055D01*
X133717610Y-125678670D01*
X135001678Y-126962738D01*
X135013888Y-126969405D01*
X135025387Y-126960716D01*
X135136902Y-126808907D01*
X135141486Y-126801684D01*
X135275045Y-126555699D01*
X135278613Y-126547905D01*
X135377553Y-126286070D01*
X135380026Y-126277879D01*
X135442517Y-126005031D01*
X135443855Y-125996577D01*
X135468899Y-125715968D01*
X135469145Y-125711031D01*
X135469558Y-125671575D01*
X135469415Y-125666609D01*
X135450254Y-125385546D01*
X135449093Y-125377072D01*
X135392331Y-125102981D01*
X135390026Y-125094727D01*
X135296592Y-124830874D01*
X135293196Y-124823026D01*
X135164811Y-124574284D01*
X135160383Y-124566972D01*
X135026245Y-124376113D01*
X135015723Y-124367733D01*
X135002335Y-124374785D01*
X133720842Y-125656278D01*
X133713228Y-125670222D01*
X132988478Y-125670222D01*
X134642044Y-124016656D01*
X134649236Y-124003486D01*
X134641914Y-123993251D01*
X134580656Y-123943111D01*
X134573687Y-123938158D01*
X134335012Y-123791898D01*
X134327442Y-123787940D01*
X134071132Y-123675429D01*
X134063072Y-123672527D01*
X133793882Y-123595847D01*
X133785504Y-123594065D01*
X133508392Y-123554626D01*
X133499845Y-123553999D01*
X133219943Y-123552533D01*
X133211408Y-123553070D01*
X132933891Y-123589606D01*
X132925493Y-123591299D01*
X132655516Y-123665157D01*
X132643371Y-123669386D01*
X132642995Y-123668308D01*
X132577527Y-123676032D01*
X132513715Y-123644910D01*
X132476859Y-123584230D01*
X132473694Y-123535365D01*
X132499109Y-123342322D01*
X132500844Y-123271330D01*
X132481330Y-123033974D01*
X132423311Y-122802993D01*
X132328347Y-122584589D01*
X132311431Y-122558440D01*
X132201796Y-122388972D01*
X132198986Y-122384628D01*
X132038704Y-122208480D01*
X132034650Y-122205278D01*
X132034649Y-122205277D01*
X131855858Y-122064077D01*
X131855853Y-122064074D01*
X131851804Y-122060876D01*
X131847288Y-122058383D01*
X131847285Y-122058381D01*
X131647830Y-121948276D01*
X131647826Y-121948274D01*
X131643306Y-121945779D01*
X131638437Y-121944055D01*
X131638433Y-121944053D01*
X131423685Y-121868006D01*
X131423681Y-121868005D01*
X131418810Y-121866280D01*
X131413720Y-121865373D01*
X131413715Y-121865372D01*
X131286394Y-121842694D01*
X131184344Y-121824516D01*
X131095217Y-121823427D01*
X130951375Y-121821669D01*
X130951373Y-121821669D01*
X130946205Y-121821606D01*
X130710789Y-121857630D01*
X130484418Y-121931619D01*
X130273170Y-122041588D01*
X130269037Y-122044691D01*
X130269034Y-122044693D01*
X130086855Y-122181477D01*
X130082720Y-122184582D01*
X130059883Y-122208480D01*
X129951645Y-122321744D01*
X129890121Y-122357174D01*
X129819208Y-122353717D01*
X129767359Y-122319494D01*
X129666344Y-122208480D01*
X129662290Y-122205278D01*
X129662289Y-122205277D01*
X129483498Y-122064077D01*
X129483493Y-122064074D01*
X129479444Y-122060876D01*
X129474928Y-122058383D01*
X129474925Y-122058381D01*
X129275470Y-121948276D01*
X129275466Y-121948274D01*
X129270946Y-121945779D01*
X129266077Y-121944055D01*
X129266073Y-121944053D01*
X129051325Y-121868006D01*
X129051321Y-121868005D01*
X129046450Y-121866280D01*
X129041360Y-121865373D01*
X129041355Y-121865372D01*
X128914034Y-121842694D01*
X128811984Y-121824516D01*
X128722857Y-121823427D01*
X128579015Y-121821669D01*
X128579013Y-121821669D01*
X128573845Y-121821606D01*
X128338429Y-121857630D01*
X128112058Y-121931619D01*
X127900810Y-122041588D01*
X127896677Y-122044691D01*
X127896674Y-122044693D01*
X127714495Y-122181477D01*
X127710360Y-122184582D01*
X127690583Y-122205278D01*
X127641739Y-122256390D01*
X127580215Y-122291820D01*
X127509302Y-122288363D01*
X127457452Y-122254139D01*
X127419386Y-122212305D01*
X127419376Y-122212296D01*
X127415904Y-122208480D01*
X127340006Y-122148540D01*
X127233058Y-122064077D01*
X127233053Y-122064074D01*
X127229004Y-122060876D01*
X127224488Y-122058383D01*
X127224485Y-122058381D01*
X127025030Y-121948276D01*
X127025026Y-121948274D01*
X127020506Y-121945779D01*
X127015637Y-121944055D01*
X127015633Y-121944053D01*
X126800885Y-121868006D01*
X126800881Y-121868005D01*
X126796010Y-121866280D01*
X126790920Y-121865373D01*
X126790915Y-121865372D01*
X126663594Y-121842694D01*
X126561544Y-121824516D01*
X126472417Y-121823427D01*
X126328575Y-121821669D01*
X126328573Y-121821669D01*
X126323405Y-121821606D01*
X126087989Y-121857630D01*
X125861618Y-121931619D01*
X125650370Y-122041588D01*
X125646237Y-122044691D01*
X125646234Y-122044693D01*
X125464055Y-122181477D01*
X125459920Y-122184582D01*
X125295382Y-122356761D01*
X125292468Y-122361033D01*
X125292467Y-122361034D01*
X125235892Y-122443970D01*
X125220899Y-122462062D01*
X124424441Y-123258519D01*
X124416828Y-123272462D01*
X124416959Y-123274296D01*
X124421210Y-123280910D01*
X125213207Y-124072906D01*
X125231544Y-124096167D01*
X125252054Y-124129636D01*
X125407984Y-124309647D01*
X125591222Y-124461774D01*
X125595674Y-124464376D01*
X125595679Y-124464379D01*
X125690480Y-124519776D01*
X125739203Y-124571415D01*
X125752274Y-124641198D01*
X125725542Y-124706970D01*
X125667495Y-124747848D01*
X125596562Y-124750855D01*
X125588810Y-124748666D01*
X125529091Y-124729722D01*
X125529090Y-124729722D01*
X125523221Y-124727860D01*
X125361677Y-124709740D01*
X125249873Y-124709740D01*
X125246818Y-124710040D01*
X125246809Y-124710040D01*
X125181205Y-124716473D01*
X125095526Y-124724874D01*
X125089625Y-124726656D01*
X125089623Y-124726656D01*
X125037782Y-124742308D01*
X124896820Y-124784867D01*
X124713551Y-124882312D01*
X124552700Y-125013500D01*
X124420393Y-125173431D01*
X124321670Y-125356015D01*
X124260291Y-125554297D01*
X124259647Y-125560422D01*
X124259647Y-125560423D01*
X124248538Y-125666125D01*
X124238595Y-125760725D01*
X123867264Y-125760725D01*
X123871259Y-125715968D01*
X123871505Y-125711031D01*
X123871918Y-125671575D01*
X123871775Y-125666609D01*
X123852614Y-125385546D01*
X123851453Y-125377072D01*
X123794691Y-125102981D01*
X123792388Y-125094732D01*
X123714554Y-124874935D01*
X123710670Y-124804044D01*
X123745728Y-124742308D01*
X123808599Y-124709325D01*
X123858449Y-124709405D01*
X123875334Y-124712841D01*
X123885583Y-124714063D01*
X124113158Y-124722407D01*
X124123444Y-124721940D01*
X124349335Y-124693003D01*
X124359421Y-124690860D01*
X124577548Y-124625418D01*
X124587143Y-124621658D01*
X124791657Y-124521467D01*
X124800503Y-124516193D01*
X124866051Y-124469438D01*
X124874452Y-124458738D01*
X124867465Y-124445586D01*
X124065231Y-123643351D01*
X124051288Y-123635738D01*
X124049454Y-123635869D01*
X124042840Y-123640120D01*
X123419732Y-124263228D01*
X123412118Y-124277172D01*
X123414033Y-124303946D01*
X123398942Y-124373320D01*
X123377449Y-124402031D01*
X122123202Y-125656278D01*
X122115588Y-125670222D01*
X121385536Y-125670222D01*
X121386772Y-125667958D01*
X121386641Y-125666125D01*
X121382390Y-125659510D01*
X120097737Y-124374857D01*
X120085727Y-124368299D01*
X120073987Y-124377267D01*
X119951264Y-124548054D01*
X119946752Y-124555330D01*
X119815771Y-124802711D01*
X119812292Y-124810525D01*
X119716099Y-125073385D01*
X119713710Y-125081608D01*
X119654080Y-125355096D01*
X119652831Y-125363552D01*
X119630868Y-125642612D01*
X119630779Y-125651162D01*
X115650000Y-125651162D01*
X115650000Y-124004886D01*
X120451059Y-124004886D01*
X120457455Y-124016155D01*
X121738368Y-125297068D01*
X121752312Y-125304682D01*
X121754145Y-125304551D01*
X121760760Y-125300300D01*
X122856230Y-124204830D01*
X122863844Y-124190886D01*
X122861929Y-124164112D01*
X122877020Y-124094738D01*
X122898513Y-124066026D01*
X123680399Y-123284141D01*
X123688012Y-123270198D01*
X123687881Y-123268364D01*
X123683630Y-123261750D01*
X122877640Y-122455761D01*
X122866108Y-122449464D01*
X122853826Y-122459087D01*
X122792167Y-122549476D01*
X122787074Y-122558440D01*
X122691188Y-122765009D01*
X122687631Y-122774677D01*
X122626772Y-122994127D01*
X122624841Y-123004246D01*
X122600641Y-123230703D01*
X122600389Y-123240992D01*
X122613498Y-123468347D01*
X122614934Y-123478564D01*
X122625247Y-123524324D01*
X122620711Y-123595176D01*
X122578590Y-123652328D01*
X122512257Y-123677634D01*
X122467811Y-123673205D01*
X122196242Y-123595847D01*
X122187864Y-123594065D01*
X121910752Y-123554626D01*
X121902205Y-123553999D01*
X121622303Y-123552533D01*
X121613768Y-123553070D01*
X121336251Y-123589606D01*
X121327853Y-123591299D01*
X121057876Y-123665157D01*
X121049781Y-123667976D01*
X120792315Y-123777794D01*
X120784693Y-123781678D01*
X120544516Y-123925421D01*
X120537478Y-123930312D01*
X120459529Y-123992761D01*
X120451059Y-124004886D01*
X115650000Y-124004886D01*
X115650000Y-122083615D01*
X123229501Y-122083615D01*
X123236245Y-122095944D01*
X124039609Y-122899309D01*
X124053552Y-122906922D01*
X124055386Y-122906791D01*
X124062000Y-122902540D01*
X124869751Y-122094788D01*
X124876768Y-122081937D01*
X124868994Y-122071267D01*
X124860424Y-122064499D01*
X124851837Y-122058794D01*
X124652475Y-121948740D01*
X124643063Y-121944510D01*
X124428391Y-121868490D01*
X124418434Y-121865860D01*
X124194225Y-121825921D01*
X124183974Y-121824952D01*
X123956250Y-121822170D01*
X123945966Y-121822890D01*
X123720857Y-121857336D01*
X123710830Y-121859725D01*
X123494371Y-121930474D01*
X123484862Y-121934471D01*
X123282871Y-122039622D01*
X123274136Y-122045123D01*
X123237955Y-122072288D01*
X123229501Y-122083615D01*
X115650000Y-122083615D01*
X115650000Y-116750000D01*
X156736496Y-116750000D01*
X156737186Y-116756565D01*
X156754235Y-116918774D01*
X156756458Y-116939928D01*
X156815473Y-117121556D01*
X156910960Y-117286944D01*
X157038747Y-117428866D01*
X157193248Y-117541118D01*
X157199276Y-117543802D01*
X157199278Y-117543803D01*
X157361681Y-117616109D01*
X157367712Y-117618794D01*
X157436263Y-117633365D01*
X157548056Y-117657128D01*
X157548061Y-117657128D01*
X157554513Y-117658500D01*
X157745487Y-117658500D01*
X157751939Y-117657128D01*
X157751944Y-117657128D01*
X157863737Y-117633365D01*
X157932288Y-117618794D01*
X157938319Y-117616109D01*
X158100722Y-117543803D01*
X158100724Y-117543802D01*
X158106752Y-117541118D01*
X158232165Y-117450000D01*
X169536496Y-117450000D01*
X169537186Y-117456565D01*
X169553955Y-117616109D01*
X169556458Y-117639928D01*
X169615473Y-117821556D01*
X169710960Y-117986944D01*
X169838747Y-118128866D01*
X169993248Y-118241118D01*
X169999276Y-118243802D01*
X169999278Y-118243803D01*
X170161681Y-118316109D01*
X170167712Y-118318794D01*
X170261112Y-118338647D01*
X170348056Y-118357128D01*
X170348061Y-118357128D01*
X170354513Y-118358500D01*
X170545487Y-118358500D01*
X170551939Y-118357128D01*
X170551944Y-118357128D01*
X170638888Y-118338647D01*
X170732288Y-118318794D01*
X170738319Y-118316109D01*
X170900722Y-118243803D01*
X170900724Y-118243802D01*
X170906752Y-118241118D01*
X171061253Y-118128866D01*
X171189040Y-117986944D01*
X171284527Y-117821556D01*
X171343542Y-117639928D01*
X171346046Y-117616109D01*
X171362814Y-117456565D01*
X171363504Y-117450000D01*
X171346882Y-117291852D01*
X171344232Y-117266635D01*
X171344232Y-117266633D01*
X171343542Y-117260072D01*
X171284527Y-117078444D01*
X171189040Y-116913056D01*
X171111722Y-116827185D01*
X171065675Y-116776045D01*
X171065674Y-116776044D01*
X171061253Y-116771134D01*
X170906752Y-116658882D01*
X170900724Y-116656198D01*
X170900722Y-116656197D01*
X170738319Y-116583891D01*
X170738318Y-116583891D01*
X170732288Y-116581206D01*
X170632861Y-116560072D01*
X170551944Y-116542872D01*
X170551939Y-116542872D01*
X170545487Y-116541500D01*
X170354513Y-116541500D01*
X170348061Y-116542872D01*
X170348056Y-116542872D01*
X170267139Y-116560072D01*
X170167712Y-116581206D01*
X170161682Y-116583891D01*
X170161681Y-116583891D01*
X169999278Y-116656197D01*
X169999276Y-116656198D01*
X169993248Y-116658882D01*
X169838747Y-116771134D01*
X169834326Y-116776044D01*
X169834325Y-116776045D01*
X169788279Y-116827185D01*
X169710960Y-116913056D01*
X169615473Y-117078444D01*
X169556458Y-117260072D01*
X169555768Y-117266633D01*
X169555768Y-117266635D01*
X169553118Y-117291852D01*
X169536496Y-117450000D01*
X158232165Y-117450000D01*
X158261253Y-117428866D01*
X158389040Y-117286944D01*
X158484527Y-117121556D01*
X158543542Y-116939928D01*
X158545766Y-116918774D01*
X158562814Y-116756565D01*
X158563504Y-116750000D01*
X158551589Y-116636632D01*
X158547494Y-116597670D01*
X158560266Y-116527832D01*
X158608768Y-116475985D01*
X158672804Y-116458500D01*
X158845487Y-116458500D01*
X158851939Y-116457128D01*
X158851944Y-116457128D01*
X158966635Y-116432749D01*
X159032288Y-116418794D01*
X159038319Y-116416109D01*
X159200722Y-116343803D01*
X159200724Y-116343802D01*
X159206752Y-116341118D01*
X159228816Y-116325088D01*
X159262157Y-116300864D01*
X159361253Y-116228866D01*
X159489040Y-116086944D01*
X159584527Y-115921556D01*
X159640269Y-115750000D01*
X165436496Y-115750000D01*
X165437186Y-115756565D01*
X165455129Y-115927279D01*
X165456458Y-115939928D01*
X165515473Y-116121556D01*
X165610960Y-116286944D01*
X165615378Y-116291851D01*
X165615379Y-116291852D01*
X165729678Y-116418794D01*
X165738747Y-116428866D01*
X165893248Y-116541118D01*
X165899276Y-116543802D01*
X165899278Y-116543803D01*
X165989318Y-116583891D01*
X166067712Y-116618794D01*
X166151633Y-116636632D01*
X166248056Y-116657128D01*
X166248061Y-116657128D01*
X166254513Y-116658500D01*
X166445487Y-116658500D01*
X166451939Y-116657128D01*
X166451944Y-116657128D01*
X166548367Y-116636632D01*
X166632288Y-116618794D01*
X166710682Y-116583891D01*
X166800722Y-116543803D01*
X166800724Y-116543802D01*
X166806752Y-116541118D01*
X166961253Y-116428866D01*
X166970322Y-116418794D01*
X167084621Y-116291852D01*
X167084622Y-116291851D01*
X167089040Y-116286944D01*
X167184527Y-116121556D01*
X167243542Y-115939928D01*
X167244872Y-115927279D01*
X167262814Y-115756565D01*
X167263504Y-115750000D01*
X167243542Y-115560072D01*
X167219700Y-115486695D01*
X174399823Y-115486695D01*
X174400120Y-115491848D01*
X174400120Y-115491851D01*
X174405583Y-115586590D01*
X174412682Y-115709715D01*
X174413819Y-115714761D01*
X174413820Y-115714767D01*
X174433691Y-115802939D01*
X174461794Y-115927639D01*
X174545838Y-116134616D01*
X174662559Y-116325088D01*
X174808822Y-116493938D01*
X174980698Y-116636632D01*
X175173572Y-116749338D01*
X175178397Y-116751180D01*
X175178398Y-116751181D01*
X175220481Y-116767251D01*
X175382264Y-116829030D01*
X175387332Y-116830061D01*
X175387335Y-116830062D01*
X175494589Y-116851883D01*
X175601169Y-116873567D01*
X175606344Y-116873757D01*
X175606346Y-116873757D01*
X175819245Y-116881564D01*
X175819249Y-116881564D01*
X175824409Y-116881753D01*
X175829529Y-116881097D01*
X175829531Y-116881097D01*
X176040860Y-116854025D01*
X176040861Y-116854025D01*
X176045988Y-116853368D01*
X176050938Y-116851883D01*
X176255001Y-116790661D01*
X176255006Y-116790659D01*
X176259956Y-116789174D01*
X176460566Y-116690896D01*
X176642432Y-116561173D01*
X176800668Y-116403489D01*
X176814149Y-116384729D01*
X176928007Y-116226277D01*
X176931025Y-116222077D01*
X176935484Y-116213056D01*
X177027708Y-116026453D01*
X177027709Y-116026451D01*
X177030002Y-116021811D01*
X177094942Y-115808069D01*
X177124101Y-115586590D01*
X177124995Y-115550000D01*
X177125646Y-115523365D01*
X177125646Y-115523361D01*
X177125728Y-115520000D01*
X177107424Y-115297361D01*
X177053003Y-115080702D01*
X176963926Y-114875840D01*
X176906417Y-114786944D01*
X176845394Y-114692617D01*
X176845392Y-114692614D01*
X176842586Y-114688277D01*
X176692242Y-114523051D01*
X176688191Y-114519852D01*
X176688187Y-114519848D01*
X176520986Y-114387800D01*
X176520982Y-114387798D01*
X176516931Y-114384598D01*
X176475625Y-114361796D01*
X176425656Y-114311364D01*
X176410884Y-114241921D01*
X176436000Y-114175516D01*
X176463352Y-114148909D01*
X176507175Y-114117650D01*
X176642432Y-114021173D01*
X176800668Y-113863489D01*
X176811182Y-113848858D01*
X176928007Y-113686277D01*
X176931025Y-113682077D01*
X176936434Y-113671134D01*
X177027708Y-113486453D01*
X177027709Y-113486451D01*
X177030002Y-113481811D01*
X177094942Y-113268069D01*
X177124101Y-113046590D01*
X177125728Y-112980000D01*
X177107424Y-112757361D01*
X177053003Y-112540702D01*
X176963926Y-112335840D01*
X176842586Y-112148277D01*
X176692242Y-111983051D01*
X176688191Y-111979852D01*
X176688187Y-111979848D01*
X176520986Y-111847800D01*
X176520982Y-111847798D01*
X176516931Y-111844598D01*
X176475625Y-111821796D01*
X176425656Y-111771364D01*
X176410884Y-111701921D01*
X176436000Y-111635516D01*
X176463352Y-111608909D01*
X176531819Y-111560072D01*
X176642432Y-111481173D01*
X176800668Y-111323489D01*
X176860166Y-111240689D01*
X176928007Y-111146277D01*
X176931025Y-111142077D01*
X177017734Y-110966635D01*
X177027708Y-110946453D01*
X177027709Y-110946451D01*
X177030002Y-110941811D01*
X177094942Y-110728069D01*
X177124101Y-110506590D01*
X177125728Y-110440000D01*
X177107424Y-110217361D01*
X177053003Y-110000702D01*
X176963926Y-109795840D01*
X176924478Y-109734862D01*
X176845394Y-109612617D01*
X176845392Y-109612614D01*
X176842586Y-109608277D01*
X176692242Y-109443051D01*
X176688191Y-109439852D01*
X176688187Y-109439848D01*
X176520986Y-109307800D01*
X176520982Y-109307798D01*
X176516931Y-109304598D01*
X176475141Y-109281529D01*
X176425170Y-109231097D01*
X176410398Y-109161654D01*
X176435514Y-109095248D01*
X176462866Y-109068641D01*
X176637900Y-108943792D01*
X176645772Y-108937139D01*
X176796624Y-108786812D01*
X176803302Y-108778965D01*
X176927575Y-108606020D01*
X176932885Y-108597183D01*
X177027242Y-108406267D01*
X177031041Y-108396672D01*
X177092949Y-108192910D01*
X177095127Y-108182837D01*
X177096558Y-108171962D01*
X177094347Y-108157778D01*
X177081189Y-108154000D01*
X174445797Y-108154000D01*
X174432266Y-108157973D01*
X174430829Y-108167966D01*
X174461137Y-108302446D01*
X174464217Y-108312275D01*
X174544342Y-108509603D01*
X174548985Y-108518794D01*
X174660266Y-108700388D01*
X174666349Y-108708699D01*
X174805785Y-108869667D01*
X174813152Y-108876883D01*
X174977006Y-109012916D01*
X174985453Y-109018831D01*
X175054541Y-109059203D01*
X175103265Y-109110842D01*
X175116336Y-109180625D01*
X175089605Y-109246396D01*
X175049156Y-109279752D01*
X175036179Y-109286507D01*
X175032046Y-109289610D01*
X175032043Y-109289612D01*
X174943363Y-109356195D01*
X174857537Y-109420635D01*
X174703201Y-109582138D01*
X174700287Y-109586410D01*
X174700286Y-109586411D01*
X174654321Y-109653794D01*
X174577315Y-109766680D01*
X174561666Y-109800393D01*
X174487546Y-109960072D01*
X174483260Y-109969305D01*
X174423561Y-110184570D01*
X174399823Y-110406695D01*
X174400120Y-110411848D01*
X174400120Y-110411851D01*
X174405583Y-110506590D01*
X174412682Y-110629715D01*
X174413819Y-110634761D01*
X174413820Y-110634767D01*
X174425579Y-110686944D01*
X174461794Y-110847639D01*
X174545838Y-111054616D01*
X174662559Y-111245088D01*
X174808822Y-111413938D01*
X174980698Y-111556632D01*
X175051167Y-111597811D01*
X175054017Y-111599476D01*
X175102741Y-111651114D01*
X175115812Y-111720897D01*
X175089081Y-111786669D01*
X175048627Y-111820027D01*
X175036179Y-111826507D01*
X175032046Y-111829610D01*
X175032043Y-111829612D01*
X174861672Y-111957530D01*
X174857537Y-111960635D01*
X174703201Y-112122138D01*
X174577315Y-112306680D01*
X174561575Y-112340590D01*
X174494668Y-112484729D01*
X174483260Y-112509305D01*
X174423561Y-112724570D01*
X174399823Y-112946695D01*
X174400120Y-112951848D01*
X174400120Y-112951851D01*
X174405583Y-113046590D01*
X174412682Y-113169715D01*
X174413819Y-113174761D01*
X174413820Y-113174767D01*
X174424365Y-113221556D01*
X174461794Y-113387639D01*
X174545838Y-113594616D01*
X174548537Y-113599020D01*
X174651629Y-113767251D01*
X174662559Y-113785088D01*
X174808822Y-113953938D01*
X174980698Y-114096632D01*
X175035860Y-114128866D01*
X175054017Y-114139476D01*
X175102741Y-114191114D01*
X175115812Y-114260897D01*
X175089081Y-114326669D01*
X175048627Y-114360027D01*
X175036179Y-114366507D01*
X175032046Y-114369610D01*
X175032043Y-114369612D01*
X174861672Y-114497530D01*
X174857537Y-114500635D01*
X174703201Y-114662138D01*
X174700287Y-114666410D01*
X174700286Y-114666411D01*
X174690194Y-114681206D01*
X174577315Y-114846680D01*
X174558625Y-114886944D01*
X174488862Y-115037237D01*
X174483260Y-115049305D01*
X174423561Y-115264570D01*
X174399823Y-115486695D01*
X167219700Y-115486695D01*
X167184527Y-115378444D01*
X167089040Y-115213056D01*
X167026685Y-115143803D01*
X166965675Y-115076045D01*
X166965674Y-115076044D01*
X166961253Y-115071134D01*
X166806752Y-114958882D01*
X166800724Y-114956198D01*
X166800722Y-114956197D01*
X166638319Y-114883891D01*
X166638318Y-114883891D01*
X166632288Y-114881206D01*
X166538888Y-114861353D01*
X166451944Y-114842872D01*
X166451939Y-114842872D01*
X166445487Y-114841500D01*
X166254513Y-114841500D01*
X166248061Y-114842872D01*
X166248056Y-114842872D01*
X166161112Y-114861353D01*
X166067712Y-114881206D01*
X166061682Y-114883891D01*
X166061681Y-114883891D01*
X165899278Y-114956197D01*
X165899276Y-114956198D01*
X165893248Y-114958882D01*
X165738747Y-115071134D01*
X165734326Y-115076044D01*
X165734325Y-115076045D01*
X165673316Y-115143803D01*
X165610960Y-115213056D01*
X165515473Y-115378444D01*
X165456458Y-115560072D01*
X165436496Y-115750000D01*
X159640269Y-115750000D01*
X159643542Y-115739928D01*
X159646187Y-115714767D01*
X159662814Y-115556565D01*
X159663504Y-115550000D01*
X159660351Y-115520000D01*
X159654395Y-115463328D01*
X159667168Y-115393489D01*
X159715670Y-115341643D01*
X159784503Y-115324249D01*
X159805902Y-115326912D01*
X159948047Y-115357127D01*
X159948060Y-115357128D01*
X159954513Y-115358500D01*
X160145487Y-115358500D01*
X160151939Y-115357128D01*
X160151944Y-115357128D01*
X160238888Y-115338647D01*
X160332288Y-115318794D01*
X160380428Y-115297361D01*
X160500722Y-115243803D01*
X160500724Y-115243802D01*
X160506752Y-115241118D01*
X160661253Y-115128866D01*
X160670322Y-115118794D01*
X160784621Y-114991852D01*
X160784622Y-114991851D01*
X160789040Y-114986944D01*
X160884527Y-114821556D01*
X160943542Y-114639928D01*
X160944872Y-114627279D01*
X160962814Y-114456565D01*
X160963504Y-114450000D01*
X160962814Y-114443433D01*
X160956915Y-114387303D01*
X160969688Y-114317465D01*
X161018190Y-114265619D01*
X161087023Y-114248225D01*
X161133471Y-114259026D01*
X161267712Y-114318794D01*
X161361112Y-114338647D01*
X161448056Y-114357128D01*
X161448061Y-114357128D01*
X161454513Y-114358500D01*
X161645487Y-114358500D01*
X161651939Y-114357128D01*
X161651944Y-114357128D01*
X161738888Y-114338647D01*
X161832288Y-114318794D01*
X161865804Y-114303872D01*
X161936170Y-114294438D01*
X162000467Y-114324544D01*
X162038280Y-114384633D01*
X162042362Y-114405809D01*
X162055086Y-114526870D01*
X162056458Y-114539928D01*
X162115473Y-114721556D01*
X162210960Y-114886944D01*
X162215378Y-114891851D01*
X162215379Y-114891852D01*
X162275733Y-114958882D01*
X162338747Y-115028866D01*
X162359306Y-115043803D01*
X162476385Y-115128866D01*
X162493248Y-115141118D01*
X162499276Y-115143802D01*
X162499278Y-115143803D01*
X162654824Y-115213056D01*
X162667712Y-115218794D01*
X162754479Y-115237237D01*
X162848056Y-115257128D01*
X162848061Y-115257128D01*
X162854513Y-115258500D01*
X163045487Y-115258500D01*
X163051939Y-115257128D01*
X163051944Y-115257128D01*
X163145521Y-115237237D01*
X163232288Y-115218794D01*
X163245176Y-115213056D01*
X163400722Y-115143803D01*
X163400724Y-115143802D01*
X163406752Y-115141118D01*
X163423616Y-115128866D01*
X163540694Y-115043803D01*
X163561253Y-115028866D01*
X163624267Y-114958882D01*
X163684621Y-114891852D01*
X163684622Y-114891851D01*
X163689040Y-114886944D01*
X163784527Y-114721556D01*
X163843542Y-114539928D01*
X163844915Y-114526870D01*
X163862814Y-114356565D01*
X163863504Y-114350000D01*
X163861052Y-114326669D01*
X163852994Y-114250000D01*
X169736496Y-114250000D01*
X169737186Y-114256565D01*
X169750381Y-114382104D01*
X169756458Y-114439928D01*
X169815473Y-114621556D01*
X169818776Y-114627278D01*
X169818777Y-114627279D01*
X169838903Y-114662138D01*
X169910960Y-114786944D01*
X169915378Y-114791851D01*
X169915379Y-114791852D01*
X169961318Y-114842872D01*
X170038747Y-114928866D01*
X170137843Y-115000864D01*
X170176385Y-115028866D01*
X170193248Y-115041118D01*
X170199276Y-115043802D01*
X170199278Y-115043803D01*
X170293426Y-115085720D01*
X170367712Y-115118794D01*
X170433365Y-115132749D01*
X170548056Y-115157128D01*
X170548061Y-115157128D01*
X170554513Y-115158500D01*
X170745487Y-115158500D01*
X170751939Y-115157128D01*
X170751944Y-115157128D01*
X170866635Y-115132749D01*
X170932288Y-115118794D01*
X171006574Y-115085720D01*
X171100722Y-115043803D01*
X171100724Y-115043802D01*
X171106752Y-115041118D01*
X171123616Y-115028866D01*
X171162157Y-115000864D01*
X171261253Y-114928866D01*
X171338682Y-114842872D01*
X171384621Y-114791852D01*
X171384622Y-114791851D01*
X171389040Y-114786944D01*
X171461097Y-114662138D01*
X171481223Y-114627279D01*
X171481224Y-114627278D01*
X171484527Y-114621556D01*
X171543542Y-114439928D01*
X171549620Y-114382104D01*
X171562814Y-114256565D01*
X171563504Y-114250000D01*
X171554052Y-114160072D01*
X171544232Y-114066635D01*
X171544232Y-114066633D01*
X171543542Y-114060072D01*
X171484527Y-113878444D01*
X171467446Y-113848858D01*
X171446775Y-113813056D01*
X171389040Y-113713056D01*
X171361147Y-113682077D01*
X171265675Y-113576045D01*
X171265674Y-113576044D01*
X171261253Y-113571134D01*
X171135590Y-113479834D01*
X171112094Y-113462763D01*
X171112093Y-113462762D01*
X171106752Y-113458882D01*
X171100724Y-113456198D01*
X171100722Y-113456197D01*
X170938319Y-113383891D01*
X170938318Y-113383891D01*
X170932288Y-113381206D01*
X170838888Y-113361353D01*
X170751944Y-113342872D01*
X170751939Y-113342872D01*
X170745487Y-113341500D01*
X170554513Y-113341500D01*
X170548061Y-113342872D01*
X170548056Y-113342872D01*
X170461112Y-113361353D01*
X170367712Y-113381206D01*
X170361682Y-113383891D01*
X170361681Y-113383891D01*
X170199278Y-113456197D01*
X170199276Y-113456198D01*
X170193248Y-113458882D01*
X170187907Y-113462762D01*
X170187906Y-113462763D01*
X170164410Y-113479834D01*
X170038747Y-113571134D01*
X170034326Y-113576044D01*
X170034325Y-113576045D01*
X169938854Y-113682077D01*
X169910960Y-113713056D01*
X169853225Y-113813056D01*
X169832555Y-113848858D01*
X169815473Y-113878444D01*
X169756458Y-114060072D01*
X169755768Y-114066633D01*
X169755768Y-114066635D01*
X169745948Y-114160072D01*
X169736496Y-114250000D01*
X163852994Y-114250000D01*
X163844232Y-114166635D01*
X163844232Y-114166633D01*
X163843542Y-114160072D01*
X163784527Y-113978444D01*
X163770379Y-113953938D01*
X163746775Y-113913056D01*
X163689040Y-113813056D01*
X163561253Y-113671134D01*
X163441174Y-113583891D01*
X163412094Y-113562763D01*
X163412093Y-113562762D01*
X163406752Y-113558882D01*
X163400724Y-113556198D01*
X163400722Y-113556197D01*
X163238319Y-113483891D01*
X163238318Y-113483891D01*
X163232288Y-113481206D01*
X163138888Y-113461353D01*
X163051944Y-113442872D01*
X163051939Y-113442872D01*
X163045487Y-113441500D01*
X162854513Y-113441500D01*
X162848061Y-113442872D01*
X162848056Y-113442872D01*
X162761113Y-113461353D01*
X162667712Y-113481206D01*
X162634196Y-113496128D01*
X162563830Y-113505562D01*
X162499533Y-113475456D01*
X162461720Y-113415367D01*
X162457638Y-113394191D01*
X162457453Y-113392425D01*
X162443542Y-113260072D01*
X162384527Y-113078444D01*
X162289040Y-112913056D01*
X162161253Y-112771134D01*
X162062157Y-112699136D01*
X162012094Y-112662763D01*
X162012093Y-112662762D01*
X162006752Y-112658882D01*
X162000724Y-112656198D01*
X162000722Y-112656197D01*
X161838319Y-112583891D01*
X161838318Y-112583891D01*
X161832288Y-112581206D01*
X161738888Y-112561353D01*
X161651944Y-112542872D01*
X161651939Y-112542872D01*
X161645487Y-112541500D01*
X161454513Y-112541500D01*
X161448061Y-112542872D01*
X161448056Y-112542872D01*
X161361113Y-112561353D01*
X161267712Y-112581206D01*
X161261682Y-112583891D01*
X161261681Y-112583891D01*
X161099278Y-112656197D01*
X161099276Y-112656198D01*
X161093248Y-112658882D01*
X161087907Y-112662762D01*
X161087906Y-112662763D01*
X161037843Y-112699136D01*
X160938747Y-112771134D01*
X160810960Y-112913056D01*
X160715473Y-113078444D01*
X160656458Y-113260072D01*
X160655768Y-113266633D01*
X160655768Y-113266635D01*
X160642547Y-113392425D01*
X160636496Y-113450000D01*
X160637186Y-113456565D01*
X160637186Y-113456567D01*
X160643085Y-113512697D01*
X160630312Y-113582535D01*
X160581810Y-113634381D01*
X160512977Y-113651775D01*
X160466529Y-113640974D01*
X160362821Y-113594800D01*
X160338319Y-113583891D01*
X160338318Y-113583891D01*
X160332288Y-113581206D01*
X160238887Y-113561353D01*
X160151944Y-113542872D01*
X160151939Y-113542872D01*
X160145487Y-113541500D01*
X159954513Y-113541500D01*
X159948061Y-113542872D01*
X159948056Y-113542872D01*
X159861112Y-113561353D01*
X159767712Y-113581206D01*
X159761682Y-113583891D01*
X159761681Y-113583891D01*
X159599278Y-113656197D01*
X159599276Y-113656198D01*
X159593248Y-113658882D01*
X159587907Y-113662762D01*
X159587906Y-113662763D01*
X159569625Y-113676045D01*
X159438747Y-113771134D01*
X159434326Y-113776044D01*
X159434325Y-113776045D01*
X159352306Y-113867137D01*
X159310960Y-113913056D01*
X159215473Y-114078444D01*
X159156458Y-114260072D01*
X159136496Y-114450000D01*
X159137186Y-114456565D01*
X159145605Y-114536672D01*
X159132832Y-114606511D01*
X159084330Y-114658357D01*
X159015497Y-114675751D01*
X158994098Y-114673088D01*
X158851953Y-114642873D01*
X158851940Y-114642872D01*
X158845487Y-114641500D01*
X158654513Y-114641500D01*
X158648061Y-114642872D01*
X158648056Y-114642872D01*
X158575207Y-114658357D01*
X158467712Y-114681206D01*
X158461682Y-114683891D01*
X158461681Y-114683891D01*
X158299278Y-114756197D01*
X158299276Y-114756198D01*
X158293248Y-114758882D01*
X158138747Y-114871134D01*
X158134326Y-114876044D01*
X158134325Y-114876045D01*
X158127261Y-114883891D01*
X158010960Y-115013056D01*
X157915473Y-115178444D01*
X157856458Y-115360072D01*
X157855768Y-115366633D01*
X157855768Y-115366635D01*
X157842608Y-115491851D01*
X157836496Y-115550000D01*
X157837186Y-115556565D01*
X157852506Y-115702330D01*
X157839734Y-115772168D01*
X157791232Y-115824015D01*
X157727196Y-115841500D01*
X157554513Y-115841500D01*
X157548061Y-115842872D01*
X157548056Y-115842872D01*
X157461113Y-115861353D01*
X157367712Y-115881206D01*
X157361682Y-115883891D01*
X157361681Y-115883891D01*
X157199278Y-115956197D01*
X157199276Y-115956198D01*
X157193248Y-115958882D01*
X157038747Y-116071134D01*
X157034326Y-116076044D01*
X157034325Y-116076045D01*
X156981588Y-116134616D01*
X156910960Y-116213056D01*
X156815473Y-116378444D01*
X156756458Y-116560072D01*
X156755768Y-116566633D01*
X156755768Y-116566635D01*
X156752506Y-116597670D01*
X156736496Y-116750000D01*
X115650000Y-116750000D01*
X115650000Y-115750000D01*
X132436496Y-115750000D01*
X132437186Y-115756565D01*
X132455129Y-115927279D01*
X132456458Y-115939928D01*
X132515473Y-116121556D01*
X132610960Y-116286944D01*
X132615378Y-116291851D01*
X132615379Y-116291852D01*
X132729678Y-116418794D01*
X132738747Y-116428866D01*
X132893248Y-116541118D01*
X132899276Y-116543802D01*
X132899278Y-116543803D01*
X132989318Y-116583891D01*
X133067712Y-116618794D01*
X133151633Y-116636632D01*
X133248056Y-116657128D01*
X133248061Y-116657128D01*
X133254513Y-116658500D01*
X133445487Y-116658500D01*
X133451939Y-116657128D01*
X133451944Y-116657128D01*
X133548367Y-116636632D01*
X133632288Y-116618794D01*
X133710682Y-116583891D01*
X133800722Y-116543803D01*
X133800724Y-116543802D01*
X133806752Y-116541118D01*
X133961253Y-116428866D01*
X133970322Y-116418794D01*
X134084621Y-116291852D01*
X134084622Y-116291851D01*
X134089040Y-116286944D01*
X134184527Y-116121556D01*
X134243542Y-115939928D01*
X134244872Y-115927279D01*
X134262814Y-115756565D01*
X134263504Y-115750000D01*
X134243542Y-115560072D01*
X134184527Y-115378444D01*
X134089040Y-115213056D01*
X134026685Y-115143803D01*
X133965675Y-115076045D01*
X133965674Y-115076044D01*
X133961253Y-115071134D01*
X133806752Y-114958882D01*
X133800724Y-114956198D01*
X133800722Y-114956197D01*
X133638319Y-114883891D01*
X133638318Y-114883891D01*
X133632288Y-114881206D01*
X133538888Y-114861353D01*
X133451944Y-114842872D01*
X133451939Y-114842872D01*
X133445487Y-114841500D01*
X133254513Y-114841500D01*
X133248061Y-114842872D01*
X133248056Y-114842872D01*
X133161112Y-114861353D01*
X133067712Y-114881206D01*
X133061682Y-114883891D01*
X133061681Y-114883891D01*
X132899278Y-114956197D01*
X132899276Y-114956198D01*
X132893248Y-114958882D01*
X132738747Y-115071134D01*
X132734326Y-115076044D01*
X132734325Y-115076045D01*
X132673316Y-115143803D01*
X132610960Y-115213056D01*
X132515473Y-115378444D01*
X132456458Y-115560072D01*
X132436496Y-115750000D01*
X115650000Y-115750000D01*
X115650000Y-111150000D01*
X119736496Y-111150000D01*
X119737186Y-111156565D01*
X119755129Y-111327279D01*
X119756458Y-111339928D01*
X119815473Y-111521556D01*
X119910960Y-111686944D01*
X119915378Y-111691851D01*
X119915379Y-111691852D01*
X120029678Y-111818794D01*
X120038747Y-111828866D01*
X120077646Y-111857128D01*
X120170885Y-111924870D01*
X120193248Y-111941118D01*
X120199276Y-111943802D01*
X120199278Y-111943803D01*
X120289318Y-111983891D01*
X120367712Y-112018794D01*
X120461113Y-112038647D01*
X120548056Y-112057128D01*
X120548061Y-112057128D01*
X120554513Y-112058500D01*
X120745487Y-112058500D01*
X120751939Y-112057128D01*
X120751944Y-112057128D01*
X120838888Y-112038647D01*
X120932288Y-112018794D01*
X121010682Y-111983891D01*
X121100722Y-111943803D01*
X121100724Y-111943802D01*
X121106752Y-111941118D01*
X121129116Y-111924870D01*
X121222354Y-111857128D01*
X121261253Y-111828866D01*
X121270322Y-111818794D01*
X121384621Y-111691852D01*
X121384622Y-111691851D01*
X121389040Y-111686944D01*
X121484527Y-111521556D01*
X121543542Y-111339928D01*
X121544872Y-111327279D01*
X121562814Y-111156565D01*
X121563504Y-111150000D01*
X121543542Y-110960072D01*
X121484527Y-110778444D01*
X121389040Y-110613056D01*
X121261253Y-110471134D01*
X121106752Y-110358882D01*
X121100724Y-110356198D01*
X121100722Y-110356197D01*
X120938319Y-110283891D01*
X120938318Y-110283891D01*
X120932288Y-110281206D01*
X120838887Y-110261353D01*
X120751944Y-110242872D01*
X120751939Y-110242872D01*
X120745487Y-110241500D01*
X120554513Y-110241500D01*
X120548061Y-110242872D01*
X120548056Y-110242872D01*
X120461113Y-110261353D01*
X120367712Y-110281206D01*
X120361682Y-110283891D01*
X120361681Y-110283891D01*
X120199278Y-110356197D01*
X120199276Y-110356198D01*
X120193248Y-110358882D01*
X120038747Y-110471134D01*
X119910960Y-110613056D01*
X119815473Y-110778444D01*
X119756458Y-110960072D01*
X119736496Y-111150000D01*
X115650000Y-111150000D01*
X115650000Y-108350000D01*
X129336496Y-108350000D01*
X129337186Y-108356565D01*
X129355129Y-108527279D01*
X129356458Y-108539928D01*
X129415473Y-108721556D01*
X129510960Y-108886944D01*
X129515378Y-108891851D01*
X129515379Y-108891852D01*
X129629678Y-109018794D01*
X129638747Y-109028866D01*
X129793248Y-109141118D01*
X129799274Y-109143801D01*
X129799281Y-109143805D01*
X129841722Y-109162700D01*
X129895818Y-109208679D01*
X129916468Y-109276607D01*
X129897116Y-109344915D01*
X129864535Y-109379743D01*
X129738747Y-109471134D01*
X129734326Y-109476044D01*
X129734325Y-109476045D01*
X129618703Y-109604457D01*
X129610960Y-109613056D01*
X129515473Y-109778444D01*
X129456458Y-109960072D01*
X129455768Y-109966633D01*
X129455768Y-109966635D01*
X129452006Y-110002432D01*
X129436496Y-110150000D01*
X129437186Y-110156565D01*
X129449228Y-110271134D01*
X129456458Y-110339928D01*
X129515473Y-110521556D01*
X129610960Y-110686944D01*
X129738747Y-110828866D01*
X129893248Y-110941118D01*
X129899276Y-110943802D01*
X129899278Y-110943803D01*
X129950560Y-110966635D01*
X130067712Y-111018794D01*
X130161113Y-111038647D01*
X130248056Y-111057128D01*
X130248061Y-111057128D01*
X130254513Y-111058500D01*
X130445487Y-111058500D01*
X130451939Y-111057128D01*
X130451944Y-111057128D01*
X130538887Y-111038647D01*
X130632288Y-111018794D01*
X130749440Y-110966635D01*
X130800722Y-110943803D01*
X130800724Y-110943802D01*
X130806752Y-110941118D01*
X130961253Y-110828866D01*
X131089040Y-110686944D01*
X131184527Y-110521556D01*
X131243542Y-110339928D01*
X131250773Y-110271134D01*
X131262814Y-110156565D01*
X131263504Y-110150000D01*
X131247994Y-110002432D01*
X131244232Y-109966635D01*
X131244232Y-109966633D01*
X131243542Y-109960072D01*
X131184527Y-109778444D01*
X131089040Y-109613056D01*
X131081298Y-109604457D01*
X130965675Y-109476045D01*
X130965674Y-109476044D01*
X130961253Y-109471134D01*
X130806752Y-109358882D01*
X130800726Y-109356199D01*
X130800719Y-109356195D01*
X130758278Y-109337300D01*
X130704182Y-109291321D01*
X130683532Y-109223393D01*
X130702884Y-109155085D01*
X130735465Y-109120257D01*
X130790646Y-109080165D01*
X130861253Y-109028866D01*
X130870322Y-109018794D01*
X130984621Y-108891852D01*
X130984622Y-108891851D01*
X130989040Y-108886944D01*
X131084527Y-108721556D01*
X131143542Y-108539928D01*
X131144872Y-108527279D01*
X131162814Y-108356565D01*
X131163504Y-108350000D01*
X131151245Y-108233365D01*
X131144232Y-108166635D01*
X131144232Y-108166633D01*
X131143542Y-108160072D01*
X131140269Y-108150000D01*
X136536496Y-108150000D01*
X136537186Y-108156565D01*
X136553552Y-108312275D01*
X136556458Y-108339928D01*
X136615473Y-108521556D01*
X136710960Y-108686944D01*
X136715378Y-108691851D01*
X136715379Y-108691852D01*
X136758667Y-108739928D01*
X136838747Y-108828866D01*
X136993248Y-108941118D01*
X136999276Y-108943802D01*
X136999278Y-108943803D01*
X137161681Y-109016109D01*
X137167712Y-109018794D01*
X137233365Y-109032749D01*
X137348056Y-109057128D01*
X137348061Y-109057128D01*
X137354513Y-109058500D01*
X137545487Y-109058500D01*
X137551939Y-109057128D01*
X137551944Y-109057128D01*
X137666635Y-109032749D01*
X137732288Y-109018794D01*
X137738319Y-109016109D01*
X137886803Y-108950000D01*
X154036496Y-108950000D01*
X154037186Y-108956565D01*
X154054391Y-109120257D01*
X154056458Y-109139928D01*
X154115473Y-109321556D01*
X154210960Y-109486944D01*
X154215378Y-109491851D01*
X154215379Y-109491852D01*
X154324116Y-109612617D01*
X154338747Y-109628866D01*
X154493248Y-109741118D01*
X154499276Y-109743802D01*
X154499278Y-109743803D01*
X154591200Y-109784729D01*
X154667712Y-109818794D01*
X154761113Y-109838647D01*
X154848056Y-109857128D01*
X154848061Y-109857128D01*
X154854513Y-109858500D01*
X155045487Y-109858500D01*
X155051939Y-109857128D01*
X155051944Y-109857128D01*
X155138888Y-109838647D01*
X155232288Y-109818794D01*
X155308800Y-109784729D01*
X155400722Y-109743803D01*
X155400724Y-109743802D01*
X155406752Y-109741118D01*
X155561253Y-109628866D01*
X155575884Y-109612617D01*
X155684621Y-109491852D01*
X155684622Y-109491851D01*
X155689040Y-109486944D01*
X155784527Y-109321556D01*
X155843542Y-109139928D01*
X155845610Y-109120257D01*
X155862814Y-108956565D01*
X155863504Y-108950000D01*
X155859854Y-108915271D01*
X155844232Y-108766635D01*
X155844232Y-108766633D01*
X155843542Y-108760072D01*
X155784527Y-108578444D01*
X155689040Y-108413056D01*
X155647243Y-108366635D01*
X155565675Y-108276045D01*
X155565674Y-108276044D01*
X155561253Y-108271134D01*
X155406752Y-108158882D01*
X155400724Y-108156198D01*
X155400722Y-108156197D01*
X155238319Y-108083891D01*
X155238318Y-108083891D01*
X155232288Y-108081206D01*
X155138888Y-108061353D01*
X155051944Y-108042872D01*
X155051939Y-108042872D01*
X155045487Y-108041500D01*
X154854513Y-108041500D01*
X154848061Y-108042872D01*
X154848056Y-108042872D01*
X154761112Y-108061353D01*
X154667712Y-108081206D01*
X154661682Y-108083891D01*
X154661681Y-108083891D01*
X154499278Y-108156197D01*
X154499276Y-108156198D01*
X154493248Y-108158882D01*
X154338747Y-108271134D01*
X154334326Y-108276044D01*
X154334325Y-108276045D01*
X154252758Y-108366635D01*
X154210960Y-108413056D01*
X154115473Y-108578444D01*
X154056458Y-108760072D01*
X154055768Y-108766633D01*
X154055768Y-108766635D01*
X154040146Y-108915271D01*
X154036496Y-108950000D01*
X137886803Y-108950000D01*
X137900722Y-108943803D01*
X137900724Y-108943802D01*
X137906752Y-108941118D01*
X138061253Y-108828866D01*
X138141333Y-108739928D01*
X138184621Y-108691852D01*
X138184622Y-108691851D01*
X138189040Y-108686944D01*
X138284527Y-108521556D01*
X138343542Y-108339928D01*
X138346449Y-108312275D01*
X138362814Y-108156565D01*
X138363504Y-108150000D01*
X138353754Y-108057233D01*
X138366526Y-107987396D01*
X138408264Y-107943199D01*
X138406752Y-107941118D01*
X138503076Y-107871134D01*
X138561253Y-107828866D01*
X138625846Y-107757128D01*
X138684621Y-107691852D01*
X138684622Y-107691851D01*
X138689040Y-107686944D01*
X138784527Y-107521556D01*
X138843542Y-107339928D01*
X138853393Y-107246206D01*
X138862814Y-107156565D01*
X138863504Y-107150000D01*
X138862611Y-107141500D01*
X138844232Y-106966635D01*
X138844232Y-106966633D01*
X138843542Y-106960072D01*
X138784527Y-106778444D01*
X138689040Y-106613056D01*
X138568554Y-106479242D01*
X138565675Y-106476045D01*
X138565674Y-106476044D01*
X138561253Y-106471134D01*
X138459945Y-106397529D01*
X138412094Y-106362763D01*
X138412093Y-106362762D01*
X138406752Y-106358882D01*
X138400724Y-106356198D01*
X138400722Y-106356197D01*
X138238319Y-106283891D01*
X138238318Y-106283891D01*
X138232288Y-106281206D01*
X138138887Y-106261353D01*
X138051944Y-106242872D01*
X138051939Y-106242872D01*
X138045487Y-106241500D01*
X137854513Y-106241500D01*
X137848061Y-106242872D01*
X137848056Y-106242872D01*
X137761112Y-106261353D01*
X137667712Y-106281206D01*
X137661682Y-106283891D01*
X137661681Y-106283891D01*
X137499278Y-106356197D01*
X137499276Y-106356198D01*
X137493248Y-106358882D01*
X137487907Y-106362762D01*
X137487906Y-106362763D01*
X137440055Y-106397529D01*
X137338747Y-106471134D01*
X137334326Y-106476044D01*
X137334325Y-106476045D01*
X137331447Y-106479242D01*
X137210960Y-106613056D01*
X137115473Y-106778444D01*
X137056458Y-106960072D01*
X137055768Y-106966633D01*
X137055768Y-106966635D01*
X137037389Y-107141500D01*
X137036496Y-107150000D01*
X137045948Y-107239928D01*
X137046246Y-107242766D01*
X137033474Y-107312604D01*
X136991736Y-107356801D01*
X136993248Y-107358882D01*
X136838747Y-107471134D01*
X136834326Y-107476044D01*
X136834325Y-107476045D01*
X136827261Y-107483891D01*
X136710960Y-107613056D01*
X136615473Y-107778444D01*
X136556458Y-107960072D01*
X136555768Y-107966633D01*
X136555768Y-107966635D01*
X136537186Y-108143435D01*
X136536496Y-108150000D01*
X131140269Y-108150000D01*
X131084527Y-107978444D01*
X130989040Y-107813056D01*
X130872740Y-107683891D01*
X130865675Y-107676045D01*
X130865674Y-107676044D01*
X130861253Y-107671134D01*
X130706752Y-107558882D01*
X130700724Y-107556198D01*
X130700722Y-107556197D01*
X130538319Y-107483891D01*
X130538318Y-107483891D01*
X130532288Y-107481206D01*
X130438888Y-107461353D01*
X130351944Y-107442872D01*
X130351939Y-107442872D01*
X130345487Y-107441500D01*
X130154513Y-107441500D01*
X130148061Y-107442872D01*
X130148056Y-107442872D01*
X130061112Y-107461353D01*
X129967712Y-107481206D01*
X129961682Y-107483891D01*
X129961681Y-107483891D01*
X129799278Y-107556197D01*
X129799276Y-107556198D01*
X129793248Y-107558882D01*
X129638747Y-107671134D01*
X129634326Y-107676044D01*
X129634325Y-107676045D01*
X129627261Y-107683891D01*
X129510960Y-107813056D01*
X129415473Y-107978444D01*
X129356458Y-108160072D01*
X129355768Y-108166633D01*
X129355768Y-108166635D01*
X129348755Y-108233365D01*
X129336496Y-108350000D01*
X115650000Y-108350000D01*
X115650000Y-106550000D01*
X117636496Y-106550000D01*
X117637186Y-106556565D01*
X117649577Y-106674455D01*
X117656458Y-106739928D01*
X117715473Y-106921556D01*
X117810960Y-107086944D01*
X117938747Y-107228866D01*
X118093248Y-107341118D01*
X118099276Y-107343802D01*
X118099278Y-107343803D01*
X118183332Y-107381226D01*
X118267712Y-107418794D01*
X118361113Y-107438647D01*
X118448056Y-107457128D01*
X118448061Y-107457128D01*
X118454513Y-107458500D01*
X118645487Y-107458500D01*
X118651939Y-107457128D01*
X118651944Y-107457128D01*
X118738888Y-107438647D01*
X118832288Y-107418794D01*
X118916668Y-107381226D01*
X119000722Y-107343803D01*
X119000724Y-107343802D01*
X119006752Y-107341118D01*
X119161253Y-107228866D01*
X119289040Y-107086944D01*
X119384527Y-106921556D01*
X119443542Y-106739928D01*
X119450424Y-106674455D01*
X119462814Y-106556565D01*
X119463504Y-106550000D01*
X131336496Y-106550000D01*
X131337186Y-106556565D01*
X131349577Y-106674455D01*
X131356458Y-106739928D01*
X131415473Y-106921556D01*
X131510960Y-107086944D01*
X131638747Y-107228866D01*
X131793248Y-107341118D01*
X131799276Y-107343802D01*
X131799278Y-107343803D01*
X131883332Y-107381226D01*
X131967712Y-107418794D01*
X132061113Y-107438647D01*
X132148056Y-107457128D01*
X132148061Y-107457128D01*
X132154513Y-107458500D01*
X132345487Y-107458500D01*
X132351939Y-107457128D01*
X132351944Y-107457128D01*
X132438888Y-107438647D01*
X132532288Y-107418794D01*
X132616668Y-107381226D01*
X132700722Y-107343803D01*
X132700724Y-107343802D01*
X132706752Y-107341118D01*
X132861253Y-107228866D01*
X132989040Y-107086944D01*
X133084527Y-106921556D01*
X133143542Y-106739928D01*
X133150424Y-106674455D01*
X133162814Y-106556565D01*
X133163504Y-106550000D01*
X133159105Y-106508148D01*
X133144232Y-106366635D01*
X133144232Y-106366633D01*
X133143542Y-106360072D01*
X133084527Y-106178444D01*
X133063990Y-106142872D01*
X133014485Y-106057128D01*
X132989040Y-106013056D01*
X132971824Y-105993935D01*
X132865675Y-105876045D01*
X132865671Y-105876041D01*
X132861253Y-105871134D01*
X132706752Y-105758882D01*
X132700724Y-105756198D01*
X132700722Y-105756197D01*
X132538319Y-105683891D01*
X132538318Y-105683891D01*
X132532288Y-105681206D01*
X132438888Y-105661353D01*
X132351944Y-105642872D01*
X132351939Y-105642872D01*
X132345487Y-105641500D01*
X132154513Y-105641500D01*
X132148061Y-105642872D01*
X132148056Y-105642872D01*
X132061113Y-105661353D01*
X131967712Y-105681206D01*
X131961682Y-105683891D01*
X131961681Y-105683891D01*
X131799278Y-105756197D01*
X131799276Y-105756198D01*
X131793248Y-105758882D01*
X131638747Y-105871134D01*
X131609453Y-105903668D01*
X131549009Y-105940906D01*
X131498305Y-105939940D01*
X131509217Y-105965090D01*
X131497777Y-106035159D01*
X131493300Y-106043644D01*
X131436011Y-106142872D01*
X131415473Y-106178444D01*
X131356458Y-106360072D01*
X131355768Y-106366633D01*
X131355768Y-106366635D01*
X131340895Y-106508148D01*
X131336496Y-106550000D01*
X119463504Y-106550000D01*
X119459105Y-106508148D01*
X119444232Y-106366635D01*
X119444232Y-106366633D01*
X119443542Y-106360072D01*
X119384527Y-106178444D01*
X119363990Y-106142872D01*
X119314485Y-106057128D01*
X119289040Y-106013056D01*
X119271824Y-105993935D01*
X119165675Y-105876045D01*
X119165671Y-105876041D01*
X119161253Y-105871134D01*
X119006752Y-105758882D01*
X119000724Y-105756198D01*
X119000722Y-105756197D01*
X118838319Y-105683891D01*
X118838318Y-105683891D01*
X118832288Y-105681206D01*
X118738888Y-105661353D01*
X118651944Y-105642872D01*
X118651939Y-105642872D01*
X118645487Y-105641500D01*
X118454513Y-105641500D01*
X118448061Y-105642872D01*
X118448056Y-105642872D01*
X118361113Y-105661353D01*
X118267712Y-105681206D01*
X118261682Y-105683891D01*
X118261681Y-105683891D01*
X118099278Y-105756197D01*
X118099276Y-105756198D01*
X118093248Y-105758882D01*
X117938747Y-105871134D01*
X117934329Y-105876041D01*
X117934325Y-105876045D01*
X117828177Y-105993935D01*
X117810960Y-106013056D01*
X117785515Y-106057128D01*
X117736011Y-106142872D01*
X117715473Y-106178444D01*
X117656458Y-106360072D01*
X117655768Y-106366633D01*
X117655768Y-106366635D01*
X117640895Y-106508148D01*
X117636496Y-106550000D01*
X115650000Y-106550000D01*
X115650000Y-105250000D01*
X129736496Y-105250000D01*
X129737186Y-105256565D01*
X129754235Y-105418774D01*
X129756458Y-105439928D01*
X129815473Y-105621556D01*
X129818776Y-105627278D01*
X129818777Y-105627279D01*
X129848420Y-105678621D01*
X129910960Y-105786944D01*
X130038747Y-105928866D01*
X130193248Y-106041118D01*
X130199276Y-106043802D01*
X130199278Y-106043803D01*
X130249756Y-106066277D01*
X130367712Y-106118794D01*
X130436263Y-106133365D01*
X130548056Y-106157128D01*
X130548061Y-106157128D01*
X130554513Y-106158500D01*
X130745487Y-106158500D01*
X130751939Y-106157128D01*
X130751944Y-106157128D01*
X130863737Y-106133365D01*
X130932288Y-106118794D01*
X131050244Y-106066277D01*
X131100722Y-106043803D01*
X131100724Y-106043802D01*
X131106752Y-106041118D01*
X131261253Y-105928866D01*
X131290547Y-105896332D01*
X131350991Y-105859094D01*
X131401695Y-105860060D01*
X131390783Y-105834910D01*
X131402223Y-105764841D01*
X131406700Y-105756356D01*
X131481223Y-105627279D01*
X131481224Y-105627278D01*
X131484527Y-105621556D01*
X131543542Y-105439928D01*
X131545766Y-105418774D01*
X131562814Y-105256565D01*
X131563504Y-105250000D01*
X131561116Y-105227279D01*
X131553434Y-105154185D01*
X131566206Y-105084347D01*
X131614709Y-105032500D01*
X131683542Y-105015106D01*
X131752802Y-105039078D01*
X131893248Y-105141118D01*
X131899276Y-105143802D01*
X131899278Y-105143803D01*
X132046572Y-105209382D01*
X132067712Y-105218794D01*
X132139514Y-105234056D01*
X132248056Y-105257128D01*
X132248061Y-105257128D01*
X132254513Y-105258500D01*
X132445487Y-105258500D01*
X132451939Y-105257128D01*
X132451944Y-105257128D01*
X132560486Y-105234056D01*
X132632288Y-105218794D01*
X132653428Y-105209382D01*
X132800722Y-105143803D01*
X132800724Y-105143802D01*
X132806752Y-105141118D01*
X132819707Y-105131706D01*
X132891102Y-105079834D01*
X132961253Y-105028866D01*
X133032264Y-104950000D01*
X135236496Y-104950000D01*
X135237186Y-104956565D01*
X135255661Y-105132342D01*
X135256458Y-105139928D01*
X135315473Y-105321556D01*
X135318776Y-105327278D01*
X135318777Y-105327279D01*
X135336803Y-105358500D01*
X135410960Y-105486944D01*
X135538747Y-105628866D01*
X135693248Y-105741118D01*
X135699276Y-105743802D01*
X135699278Y-105743803D01*
X135783332Y-105781226D01*
X135867712Y-105818794D01*
X135961113Y-105838647D01*
X136048056Y-105857128D01*
X136048061Y-105857128D01*
X136054513Y-105858500D01*
X136245487Y-105858500D01*
X136251939Y-105857128D01*
X136251944Y-105857128D01*
X136338887Y-105838647D01*
X136432288Y-105818794D01*
X136516668Y-105781226D01*
X136600722Y-105743803D01*
X136600724Y-105743802D01*
X136606752Y-105741118D01*
X136761253Y-105628866D01*
X136889040Y-105486944D01*
X136963197Y-105358500D01*
X136981223Y-105327279D01*
X136981224Y-105327278D01*
X136984527Y-105321556D01*
X137043542Y-105139928D01*
X137044340Y-105132342D01*
X137045859Y-105117883D01*
X137072873Y-105052227D01*
X137131095Y-105011598D01*
X137202040Y-105008895D01*
X137264805Y-105046745D01*
X137338747Y-105128866D01*
X137385402Y-105162763D01*
X137474878Y-105227771D01*
X137493248Y-105241118D01*
X137499276Y-105243802D01*
X137499278Y-105243803D01*
X137644984Y-105308675D01*
X137667712Y-105318794D01*
X137761112Y-105338647D01*
X137848056Y-105357128D01*
X137848061Y-105357128D01*
X137854513Y-105358500D01*
X138045487Y-105358500D01*
X138051939Y-105357128D01*
X138051944Y-105357128D01*
X138138888Y-105338647D01*
X138232288Y-105318794D01*
X138255016Y-105308675D01*
X138400722Y-105243803D01*
X138400724Y-105243802D01*
X138406752Y-105241118D01*
X138425123Y-105227771D01*
X138514598Y-105162763D01*
X138561253Y-105128866D01*
X138635680Y-105046206D01*
X138684621Y-104991852D01*
X138684622Y-104991851D01*
X138689040Y-104986944D01*
X138784527Y-104821556D01*
X138843542Y-104639928D01*
X138845766Y-104618774D01*
X138862814Y-104456565D01*
X138863504Y-104450000D01*
X138859854Y-104415271D01*
X138844232Y-104266635D01*
X138844232Y-104266633D01*
X138843542Y-104260072D01*
X138784527Y-104078444D01*
X138689040Y-103913056D01*
X138647243Y-103866635D01*
X138565675Y-103776045D01*
X138565674Y-103776044D01*
X138561253Y-103771134D01*
X138430375Y-103676045D01*
X138412094Y-103662763D01*
X138412093Y-103662762D01*
X138406752Y-103658882D01*
X138400724Y-103656198D01*
X138400722Y-103656197D01*
X138238319Y-103583891D01*
X138238318Y-103583891D01*
X138232288Y-103581206D01*
X138138887Y-103561353D01*
X138051944Y-103542872D01*
X138051939Y-103542872D01*
X138045487Y-103541500D01*
X137854513Y-103541500D01*
X137848061Y-103542872D01*
X137848056Y-103542872D01*
X137761113Y-103561353D01*
X137667712Y-103581206D01*
X137661682Y-103583891D01*
X137661681Y-103583891D01*
X137499278Y-103656197D01*
X137499276Y-103656198D01*
X137493248Y-103658882D01*
X137487907Y-103662762D01*
X137487906Y-103662763D01*
X137469625Y-103676045D01*
X137338747Y-103771134D01*
X137334326Y-103776044D01*
X137334325Y-103776045D01*
X137246617Y-103873455D01*
X137186171Y-103910695D01*
X137115188Y-103909343D01*
X137056203Y-103869830D01*
X137033148Y-103828082D01*
X136991301Y-103699292D01*
X136984527Y-103678444D01*
X136975611Y-103663001D01*
X136958872Y-103594007D01*
X136975611Y-103536998D01*
X136978065Y-103532749D01*
X136984527Y-103521556D01*
X137043542Y-103339928D01*
X137045766Y-103318774D01*
X137062814Y-103156565D01*
X137063504Y-103150000D01*
X152736496Y-103150000D01*
X152737186Y-103156565D01*
X152754235Y-103318774D01*
X152756458Y-103339928D01*
X152815473Y-103521556D01*
X152910960Y-103686944D01*
X153038747Y-103828866D01*
X153137843Y-103900864D01*
X153187074Y-103936632D01*
X153193248Y-103941118D01*
X153199276Y-103943802D01*
X153199278Y-103943803D01*
X153360349Y-104015516D01*
X153367712Y-104018794D01*
X153436263Y-104033365D01*
X153548056Y-104057128D01*
X153548061Y-104057128D01*
X153554513Y-104058500D01*
X153561115Y-104058500D01*
X153567682Y-104059190D01*
X153567400Y-104061871D01*
X153624039Y-104078502D01*
X153670532Y-104132158D01*
X153680636Y-104202432D01*
X153649556Y-104268808D01*
X153598460Y-104325556D01*
X153502973Y-104490944D01*
X153443958Y-104672572D01*
X153443268Y-104679133D01*
X153443268Y-104679135D01*
X153432170Y-104784729D01*
X153423996Y-104862500D01*
X153424686Y-104869065D01*
X153442954Y-105042872D01*
X153443958Y-105052428D01*
X153502973Y-105234056D01*
X153506276Y-105239778D01*
X153506277Y-105239779D01*
X153516294Y-105257128D01*
X153598460Y-105399444D01*
X153602878Y-105404351D01*
X153602879Y-105404352D01*
X153657766Y-105465310D01*
X153726247Y-105541366D01*
X153731591Y-105545249D01*
X153733747Y-105547190D01*
X153770986Y-105607637D01*
X153769633Y-105678621D01*
X153758554Y-105703825D01*
X153726767Y-105758882D01*
X153715473Y-105778444D01*
X153656458Y-105960072D01*
X153655768Y-105966633D01*
X153655768Y-105966635D01*
X153640058Y-106116109D01*
X153636496Y-106150000D01*
X153637186Y-106156565D01*
X153655129Y-106327279D01*
X153656458Y-106339928D01*
X153715473Y-106521556D01*
X153718776Y-106527278D01*
X153718777Y-106527279D01*
X153728105Y-106543435D01*
X153810960Y-106686944D01*
X153815378Y-106691851D01*
X153815379Y-106691852D01*
X153929678Y-106818794D01*
X153938747Y-106828866D01*
X153994391Y-106869294D01*
X154049042Y-106909000D01*
X154093248Y-106941118D01*
X154099276Y-106943802D01*
X154099278Y-106943803D01*
X154150560Y-106966635D01*
X154267712Y-107018794D01*
X154336263Y-107033365D01*
X154448056Y-107057128D01*
X154448061Y-107057128D01*
X154454513Y-107058500D01*
X154645487Y-107058500D01*
X154651939Y-107057128D01*
X154651944Y-107057128D01*
X154685478Y-107050000D01*
X155936496Y-107050000D01*
X155937186Y-107056565D01*
X155955129Y-107227279D01*
X155956458Y-107239928D01*
X156015473Y-107421556D01*
X156018776Y-107427278D01*
X156018777Y-107427279D01*
X156036803Y-107458500D01*
X156110960Y-107586944D01*
X156115378Y-107591851D01*
X156115379Y-107591852D01*
X156229678Y-107718794D01*
X156238747Y-107728866D01*
X156285402Y-107762763D01*
X156376385Y-107828866D01*
X156393248Y-107841118D01*
X156399276Y-107843802D01*
X156399278Y-107843803D01*
X156520037Y-107897568D01*
X156567712Y-107918794D01*
X156661113Y-107938647D01*
X156748056Y-107957128D01*
X156748061Y-107957128D01*
X156754513Y-107958500D01*
X156881262Y-107958500D01*
X156949383Y-107978502D01*
X156995876Y-108032158D01*
X157005980Y-108102432D01*
X156976486Y-108167012D01*
X156955323Y-108186436D01*
X156913024Y-108217168D01*
X156838747Y-108271134D01*
X156834326Y-108276044D01*
X156834325Y-108276045D01*
X156752758Y-108366635D01*
X156710960Y-108413056D01*
X156615473Y-108578444D01*
X156556458Y-108760072D01*
X156555768Y-108766633D01*
X156555768Y-108766635D01*
X156540146Y-108915271D01*
X156536496Y-108950000D01*
X156537186Y-108956565D01*
X156554391Y-109120257D01*
X156556458Y-109139928D01*
X156615473Y-109321556D01*
X156710960Y-109486944D01*
X156715378Y-109491851D01*
X156715379Y-109491852D01*
X156824116Y-109612617D01*
X156838747Y-109628866D01*
X156993248Y-109741118D01*
X156999276Y-109743802D01*
X156999278Y-109743803D01*
X157091200Y-109784729D01*
X157167712Y-109818794D01*
X157261113Y-109838647D01*
X157348056Y-109857128D01*
X157348061Y-109857128D01*
X157354513Y-109858500D01*
X157375133Y-109858500D01*
X157443254Y-109878502D01*
X157489747Y-109932158D01*
X157499851Y-110002432D01*
X157470357Y-110067012D01*
X157426382Y-110099607D01*
X157299278Y-110156197D01*
X157299276Y-110156198D01*
X157293248Y-110158882D01*
X157138747Y-110271134D01*
X157134326Y-110276044D01*
X157134325Y-110276045D01*
X157127261Y-110283891D01*
X157010960Y-110413056D01*
X156915473Y-110578444D01*
X156856458Y-110760072D01*
X156855768Y-110766633D01*
X156855768Y-110766635D01*
X156848819Y-110832749D01*
X156836496Y-110950000D01*
X156837186Y-110956565D01*
X156849228Y-111071134D01*
X156856458Y-111139928D01*
X156915473Y-111321556D01*
X157010960Y-111486944D01*
X157138747Y-111628866D01*
X157293248Y-111741118D01*
X157299276Y-111743802D01*
X157299278Y-111743803D01*
X157461681Y-111816109D01*
X157467712Y-111818794D01*
X157533365Y-111832749D01*
X157648056Y-111857128D01*
X157648061Y-111857128D01*
X157654513Y-111858500D01*
X157845487Y-111858500D01*
X157851939Y-111857128D01*
X157851944Y-111857128D01*
X157966635Y-111832749D01*
X158032288Y-111818794D01*
X158038319Y-111816109D01*
X158186803Y-111750000D01*
X164136496Y-111750000D01*
X164137186Y-111756565D01*
X164147872Y-111858233D01*
X164156458Y-111939928D01*
X164215473Y-112121556D01*
X164310960Y-112286944D01*
X164315378Y-112291851D01*
X164315379Y-112291852D01*
X164328730Y-112306680D01*
X164438747Y-112428866D01*
X164593248Y-112541118D01*
X164599276Y-112543802D01*
X164599278Y-112543803D01*
X164689318Y-112583891D01*
X164767712Y-112618794D01*
X164831314Y-112632313D01*
X164948056Y-112657128D01*
X164948061Y-112657128D01*
X164954513Y-112658500D01*
X165145487Y-112658500D01*
X165151940Y-112657128D01*
X165151953Y-112657127D01*
X165294098Y-112626912D01*
X165364888Y-112632313D01*
X165421521Y-112675130D01*
X165446015Y-112741767D01*
X165445605Y-112763328D01*
X165437186Y-112843435D01*
X165436496Y-112850000D01*
X165437186Y-112856565D01*
X165442608Y-112908148D01*
X165456458Y-113039928D01*
X165515473Y-113221556D01*
X165518776Y-113227278D01*
X165518777Y-113227279D01*
X165541499Y-113266635D01*
X165610960Y-113386944D01*
X165615378Y-113391851D01*
X165615379Y-113391852D01*
X165717764Y-113505562D01*
X165738747Y-113528866D01*
X165893248Y-113641118D01*
X165899276Y-113643802D01*
X165899278Y-113643803D01*
X166054824Y-113713056D01*
X166067712Y-113718794D01*
X166161112Y-113738647D01*
X166248056Y-113757128D01*
X166248061Y-113757128D01*
X166254513Y-113758500D01*
X166445487Y-113758500D01*
X166451939Y-113757128D01*
X166451944Y-113757128D01*
X166538888Y-113738647D01*
X166632288Y-113718794D01*
X166645176Y-113713056D01*
X166800722Y-113643803D01*
X166800724Y-113643802D01*
X166806752Y-113641118D01*
X166961253Y-113528866D01*
X166982236Y-113505562D01*
X167084621Y-113391852D01*
X167084622Y-113391851D01*
X167089040Y-113386944D01*
X167158501Y-113266635D01*
X167181223Y-113227279D01*
X167181224Y-113227278D01*
X167184527Y-113221556D01*
X167243542Y-113039928D01*
X167257393Y-112908148D01*
X167262814Y-112856565D01*
X167263504Y-112850000D01*
X167253240Y-112752342D01*
X167244232Y-112666635D01*
X167244232Y-112666633D01*
X167243542Y-112660072D01*
X167184527Y-112478444D01*
X167089040Y-112313056D01*
X166961253Y-112171134D01*
X166806752Y-112058882D01*
X166800724Y-112056198D01*
X166800722Y-112056197D01*
X166638319Y-111983891D01*
X166638318Y-111983891D01*
X166632288Y-111981206D01*
X166520902Y-111957530D01*
X166451944Y-111942872D01*
X166451939Y-111942872D01*
X166445487Y-111941500D01*
X166254513Y-111941500D01*
X166248060Y-111942872D01*
X166248047Y-111942873D01*
X166105902Y-111973088D01*
X166035112Y-111967687D01*
X165978479Y-111924870D01*
X165953985Y-111858233D01*
X165954395Y-111836672D01*
X165962814Y-111756565D01*
X165963504Y-111750000D01*
X165958451Y-111701921D01*
X165944232Y-111566635D01*
X165944232Y-111566633D01*
X165943542Y-111560072D01*
X165884527Y-111378444D01*
X165789040Y-111213056D01*
X165732264Y-111150000D01*
X169736496Y-111150000D01*
X169737186Y-111156565D01*
X169755129Y-111327279D01*
X169756458Y-111339928D01*
X169815473Y-111521556D01*
X169910960Y-111686944D01*
X169915378Y-111691851D01*
X169915379Y-111691852D01*
X170029678Y-111818794D01*
X170038747Y-111828866D01*
X170077646Y-111857128D01*
X170170885Y-111924870D01*
X170193248Y-111941118D01*
X170199276Y-111943802D01*
X170199278Y-111943803D01*
X170289318Y-111983891D01*
X170367712Y-112018794D01*
X170461113Y-112038647D01*
X170548056Y-112057128D01*
X170548061Y-112057128D01*
X170554513Y-112058500D01*
X170745487Y-112058500D01*
X170751939Y-112057128D01*
X170751944Y-112057128D01*
X170838888Y-112038647D01*
X170932288Y-112018794D01*
X171010682Y-111983891D01*
X171100722Y-111943803D01*
X171100724Y-111943802D01*
X171106752Y-111941118D01*
X171129116Y-111924870D01*
X171222354Y-111857128D01*
X171261253Y-111828866D01*
X171270322Y-111818794D01*
X171384621Y-111691852D01*
X171384622Y-111691851D01*
X171389040Y-111686944D01*
X171484527Y-111521556D01*
X171543542Y-111339928D01*
X171544872Y-111327279D01*
X171562814Y-111156565D01*
X171563504Y-111150000D01*
X171543542Y-110960072D01*
X171484527Y-110778444D01*
X171389040Y-110613056D01*
X171261253Y-110471134D01*
X171106752Y-110358882D01*
X171100724Y-110356198D01*
X171100722Y-110356197D01*
X170938319Y-110283891D01*
X170938318Y-110283891D01*
X170932288Y-110281206D01*
X170838887Y-110261353D01*
X170751944Y-110242872D01*
X170751939Y-110242872D01*
X170745487Y-110241500D01*
X170554513Y-110241500D01*
X170548061Y-110242872D01*
X170548056Y-110242872D01*
X170461113Y-110261353D01*
X170367712Y-110281206D01*
X170361682Y-110283891D01*
X170361681Y-110283891D01*
X170199278Y-110356197D01*
X170199276Y-110356198D01*
X170193248Y-110358882D01*
X170038747Y-110471134D01*
X169910960Y-110613056D01*
X169815473Y-110778444D01*
X169756458Y-110960072D01*
X169736496Y-111150000D01*
X165732264Y-111150000D01*
X165661253Y-111071134D01*
X165506752Y-110958882D01*
X165500724Y-110956198D01*
X165500722Y-110956197D01*
X165338319Y-110883891D01*
X165338318Y-110883891D01*
X165332288Y-110881206D01*
X165238887Y-110861353D01*
X165151944Y-110842872D01*
X165151939Y-110842872D01*
X165145487Y-110841500D01*
X164954513Y-110841500D01*
X164948061Y-110842872D01*
X164948056Y-110842872D01*
X164861113Y-110861353D01*
X164767712Y-110881206D01*
X164761682Y-110883891D01*
X164761681Y-110883891D01*
X164599278Y-110956197D01*
X164599276Y-110956198D01*
X164593248Y-110958882D01*
X164438747Y-111071134D01*
X164310960Y-111213056D01*
X164215473Y-111378444D01*
X164156458Y-111560072D01*
X164155768Y-111566633D01*
X164155768Y-111566635D01*
X164141549Y-111701921D01*
X164136496Y-111750000D01*
X158186803Y-111750000D01*
X158200722Y-111743803D01*
X158200724Y-111743802D01*
X158206752Y-111741118D01*
X158361253Y-111628866D01*
X158489040Y-111486944D01*
X158584527Y-111321556D01*
X158643542Y-111139928D01*
X158650773Y-111071134D01*
X158662814Y-110956565D01*
X158663504Y-110950000D01*
X158651181Y-110832749D01*
X158644232Y-110766635D01*
X158644232Y-110766633D01*
X158643542Y-110760072D01*
X158584527Y-110578444D01*
X158489040Y-110413056D01*
X158372740Y-110283891D01*
X158365675Y-110276045D01*
X158365674Y-110276044D01*
X158361253Y-110271134D01*
X158206752Y-110158882D01*
X158200724Y-110156198D01*
X158200722Y-110156197D01*
X158038319Y-110083891D01*
X158038318Y-110083891D01*
X158032288Y-110081206D01*
X157938888Y-110061353D01*
X157851944Y-110042872D01*
X157851939Y-110042872D01*
X157845487Y-110041500D01*
X157824867Y-110041500D01*
X157756746Y-110021498D01*
X157710253Y-109967842D01*
X157700149Y-109897568D01*
X157721874Y-109850000D01*
X165436496Y-109850000D01*
X165437186Y-109856565D01*
X165452863Y-110005720D01*
X165456458Y-110039928D01*
X165515473Y-110221556D01*
X165610960Y-110386944D01*
X165615378Y-110391851D01*
X165615379Y-110391852D01*
X165721677Y-110509908D01*
X165738747Y-110528866D01*
X165799108Y-110572721D01*
X165884507Y-110634767D01*
X165893248Y-110641118D01*
X165899276Y-110643802D01*
X165899278Y-110643803D01*
X165983332Y-110681226D01*
X166067712Y-110718794D01*
X166161113Y-110738647D01*
X166248056Y-110757128D01*
X166248061Y-110757128D01*
X166254513Y-110758500D01*
X166445487Y-110758500D01*
X166451939Y-110757128D01*
X166451944Y-110757128D01*
X166538888Y-110738647D01*
X166632288Y-110718794D01*
X166716668Y-110681226D01*
X166800722Y-110643803D01*
X166800724Y-110643802D01*
X166806752Y-110641118D01*
X166815494Y-110634767D01*
X166900892Y-110572721D01*
X166961253Y-110528866D01*
X166978323Y-110509908D01*
X167084621Y-110391852D01*
X167084622Y-110391851D01*
X167089040Y-110386944D01*
X167184527Y-110221556D01*
X167243542Y-110039928D01*
X167247138Y-110005720D01*
X167262814Y-109856565D01*
X167263504Y-109850000D01*
X167243542Y-109660072D01*
X167184527Y-109478444D01*
X167089040Y-109313056D01*
X167084308Y-109307800D01*
X166965675Y-109176045D01*
X166965674Y-109176044D01*
X166961253Y-109171134D01*
X166837506Y-109081226D01*
X166812094Y-109062763D01*
X166812093Y-109062762D01*
X166806752Y-109058882D01*
X166800724Y-109056198D01*
X166800722Y-109056197D01*
X166638319Y-108983891D01*
X166638318Y-108983891D01*
X166632288Y-108981206D01*
X166538887Y-108961353D01*
X166451944Y-108942872D01*
X166451939Y-108942872D01*
X166445487Y-108941500D01*
X166254513Y-108941500D01*
X166248061Y-108942872D01*
X166248056Y-108942872D01*
X166161113Y-108961353D01*
X166067712Y-108981206D01*
X166061682Y-108983891D01*
X166061681Y-108983891D01*
X165899278Y-109056197D01*
X165899276Y-109056198D01*
X165893248Y-109058882D01*
X165887907Y-109062762D01*
X165887906Y-109062763D01*
X165862494Y-109081226D01*
X165738747Y-109171134D01*
X165734326Y-109176044D01*
X165734325Y-109176045D01*
X165615693Y-109307800D01*
X165610960Y-109313056D01*
X165515473Y-109478444D01*
X165456458Y-109660072D01*
X165436496Y-109850000D01*
X157721874Y-109850000D01*
X157729643Y-109832988D01*
X157773618Y-109800393D01*
X157900722Y-109743803D01*
X157900724Y-109743802D01*
X157906752Y-109741118D01*
X158061253Y-109628866D01*
X158075884Y-109612617D01*
X158184621Y-109491852D01*
X158184622Y-109491851D01*
X158189040Y-109486944D01*
X158284527Y-109321556D01*
X158343542Y-109139928D01*
X158345610Y-109120257D01*
X158362814Y-108956565D01*
X158363504Y-108950000D01*
X158359854Y-108915271D01*
X158344232Y-108766635D01*
X158344232Y-108766633D01*
X158343542Y-108760072D01*
X158284527Y-108578444D01*
X158268105Y-108550000D01*
X162236496Y-108550000D01*
X162237186Y-108556565D01*
X162255129Y-108727279D01*
X162256458Y-108739928D01*
X162315473Y-108921556D01*
X162318776Y-108927278D01*
X162318777Y-108927279D01*
X162336803Y-108958500D01*
X162410960Y-109086944D01*
X162415378Y-109091851D01*
X162415379Y-109091852D01*
X162529678Y-109218794D01*
X162538747Y-109228866D01*
X162693248Y-109341118D01*
X162699276Y-109343802D01*
X162699278Y-109343803D01*
X162861681Y-109416109D01*
X162867712Y-109418794D01*
X162961113Y-109438647D01*
X163048056Y-109457128D01*
X163048061Y-109457128D01*
X163054513Y-109458500D01*
X163245487Y-109458500D01*
X163251939Y-109457128D01*
X163251944Y-109457128D01*
X163338888Y-109438647D01*
X163432288Y-109418794D01*
X163438319Y-109416109D01*
X163600722Y-109343803D01*
X163600724Y-109343802D01*
X163606752Y-109341118D01*
X163761253Y-109228866D01*
X163770322Y-109218794D01*
X163884621Y-109091852D01*
X163884622Y-109091851D01*
X163889040Y-109086944D01*
X163963197Y-108958500D01*
X163981223Y-108927279D01*
X163981224Y-108927278D01*
X163984527Y-108921556D01*
X164043542Y-108739928D01*
X164044872Y-108727279D01*
X164062814Y-108556565D01*
X164063504Y-108550000D01*
X164043542Y-108360072D01*
X163984527Y-108178444D01*
X163972596Y-108157778D01*
X163929937Y-108083891D01*
X163910370Y-108050000D01*
X169736496Y-108050000D01*
X169737186Y-108056565D01*
X169750458Y-108182837D01*
X169756458Y-108239928D01*
X169815473Y-108421556D01*
X169910960Y-108586944D01*
X169915378Y-108591851D01*
X169915379Y-108591852D01*
X170026506Y-108715271D01*
X170038747Y-108728866D01*
X170107702Y-108778965D01*
X170176385Y-108828866D01*
X170193248Y-108841118D01*
X170199276Y-108843802D01*
X170199278Y-108843803D01*
X170283332Y-108881226D01*
X170367712Y-108918794D01*
X170454018Y-108937139D01*
X170548056Y-108957128D01*
X170548061Y-108957128D01*
X170554513Y-108958500D01*
X170745487Y-108958500D01*
X170751939Y-108957128D01*
X170751944Y-108957128D01*
X170845982Y-108937139D01*
X170932288Y-108918794D01*
X171016668Y-108881226D01*
X171100722Y-108843803D01*
X171100724Y-108843802D01*
X171106752Y-108841118D01*
X171123616Y-108828866D01*
X171192298Y-108778965D01*
X171261253Y-108728866D01*
X171273494Y-108715271D01*
X171384621Y-108591852D01*
X171384622Y-108591851D01*
X171389040Y-108586944D01*
X171484527Y-108421556D01*
X171543542Y-108239928D01*
X171549543Y-108182837D01*
X171562814Y-108056565D01*
X171563504Y-108050000D01*
X171553743Y-107957128D01*
X171544232Y-107866635D01*
X171544232Y-107866633D01*
X171543542Y-107860072D01*
X171484527Y-107678444D01*
X171465796Y-107646000D01*
X171446775Y-107613056D01*
X171389040Y-107513056D01*
X171261253Y-107371134D01*
X171106752Y-107258882D01*
X171100724Y-107256198D01*
X171100722Y-107256197D01*
X170938319Y-107183891D01*
X170938318Y-107183891D01*
X170932288Y-107181206D01*
X170816362Y-107156565D01*
X170751944Y-107142872D01*
X170751939Y-107142872D01*
X170745487Y-107141500D01*
X170554513Y-107141500D01*
X170548061Y-107142872D01*
X170548056Y-107142872D01*
X170483638Y-107156565D01*
X170367712Y-107181206D01*
X170361682Y-107183891D01*
X170361681Y-107183891D01*
X170199278Y-107256197D01*
X170199276Y-107256198D01*
X170193248Y-107258882D01*
X170038747Y-107371134D01*
X169910960Y-107513056D01*
X169853225Y-107613056D01*
X169834205Y-107646000D01*
X169815473Y-107678444D01*
X169756458Y-107860072D01*
X169755768Y-107866633D01*
X169755768Y-107866635D01*
X169746257Y-107957128D01*
X169736496Y-108050000D01*
X163910370Y-108050000D01*
X163889040Y-108013056D01*
X163857928Y-107978502D01*
X163765675Y-107876045D01*
X163765674Y-107876044D01*
X163761253Y-107871134D01*
X163606752Y-107758882D01*
X163600724Y-107756198D01*
X163600722Y-107756197D01*
X163438319Y-107683891D01*
X163438318Y-107683891D01*
X163432288Y-107681206D01*
X163338888Y-107661353D01*
X163251944Y-107642872D01*
X163251939Y-107642872D01*
X163245487Y-107641500D01*
X163054513Y-107641500D01*
X163048061Y-107642872D01*
X163048056Y-107642872D01*
X162961113Y-107661353D01*
X162867712Y-107681206D01*
X162861682Y-107683891D01*
X162861681Y-107683891D01*
X162699278Y-107756197D01*
X162699276Y-107756198D01*
X162693248Y-107758882D01*
X162538747Y-107871134D01*
X162534326Y-107876044D01*
X162534325Y-107876045D01*
X162442073Y-107978502D01*
X162410960Y-108013056D01*
X162370063Y-108083891D01*
X162327405Y-108157778D01*
X162315473Y-108178444D01*
X162256458Y-108360072D01*
X162236496Y-108550000D01*
X158268105Y-108550000D01*
X158189040Y-108413056D01*
X158147243Y-108366635D01*
X158065675Y-108276045D01*
X158065674Y-108276044D01*
X158061253Y-108271134D01*
X157906752Y-108158882D01*
X157900724Y-108156198D01*
X157900722Y-108156197D01*
X157738319Y-108083891D01*
X157738318Y-108083891D01*
X157732288Y-108081206D01*
X157638888Y-108061353D01*
X157551944Y-108042872D01*
X157551939Y-108042872D01*
X157545487Y-108041500D01*
X157418738Y-108041500D01*
X157350617Y-108021498D01*
X157304124Y-107967842D01*
X157294020Y-107897568D01*
X157323514Y-107832988D01*
X157344677Y-107813564D01*
X157414598Y-107762763D01*
X157461253Y-107728866D01*
X157470322Y-107718794D01*
X157584621Y-107591852D01*
X157584622Y-107591851D01*
X157589040Y-107586944D01*
X157663197Y-107458500D01*
X157681223Y-107427279D01*
X157681224Y-107427278D01*
X157684527Y-107421556D01*
X157743542Y-107239928D01*
X157744872Y-107227279D01*
X157762814Y-107056565D01*
X157763504Y-107050000D01*
X157754052Y-106960072D01*
X157744232Y-106866635D01*
X157744232Y-106866633D01*
X157743542Y-106860072D01*
X157684527Y-106678444D01*
X157589040Y-106513056D01*
X157461253Y-106371134D01*
X157306752Y-106258882D01*
X157300724Y-106256198D01*
X157300722Y-106256197D01*
X157138319Y-106183891D01*
X157138318Y-106183891D01*
X157132288Y-106181206D01*
X157035764Y-106160689D01*
X156951944Y-106142872D01*
X156951939Y-106142872D01*
X156945487Y-106141500D01*
X156754513Y-106141500D01*
X156748061Y-106142872D01*
X156748056Y-106142872D01*
X156664236Y-106160689D01*
X156567712Y-106181206D01*
X156561682Y-106183891D01*
X156561681Y-106183891D01*
X156399278Y-106256197D01*
X156399276Y-106256198D01*
X156393248Y-106258882D01*
X156238747Y-106371134D01*
X156110960Y-106513056D01*
X156015473Y-106678444D01*
X155956458Y-106860072D01*
X155955768Y-106866633D01*
X155955768Y-106866635D01*
X155945948Y-106960072D01*
X155936496Y-107050000D01*
X154685478Y-107050000D01*
X154763737Y-107033365D01*
X154832288Y-107018794D01*
X154949440Y-106966635D01*
X155000722Y-106943803D01*
X155000724Y-106943802D01*
X155006752Y-106941118D01*
X155050959Y-106909000D01*
X155105609Y-106869294D01*
X155161253Y-106828866D01*
X155170322Y-106818794D01*
X155284621Y-106691852D01*
X155284622Y-106691851D01*
X155289040Y-106686944D01*
X155371895Y-106543435D01*
X155381223Y-106527279D01*
X155381224Y-106527278D01*
X155384527Y-106521556D01*
X155443542Y-106339928D01*
X155444872Y-106327279D01*
X155462814Y-106156565D01*
X155463504Y-106150000D01*
X155459942Y-106116109D01*
X155444232Y-105966635D01*
X155444232Y-105966633D01*
X155443542Y-105960072D01*
X155440269Y-105950000D01*
X158136496Y-105950000D01*
X158137186Y-105956565D01*
X158153955Y-106116109D01*
X158156458Y-106139928D01*
X158215473Y-106321556D01*
X158310960Y-106486944D01*
X158315378Y-106491851D01*
X158315379Y-106491852D01*
X158361825Y-106543435D01*
X158438747Y-106628866D01*
X158593248Y-106741118D01*
X158599276Y-106743802D01*
X158599278Y-106743803D01*
X158691200Y-106784729D01*
X158767712Y-106818794D01*
X158833365Y-106832749D01*
X158948056Y-106857128D01*
X158948061Y-106857128D01*
X158954513Y-106858500D01*
X159145487Y-106858500D01*
X159151939Y-106857128D01*
X159151944Y-106857128D01*
X159266635Y-106832749D01*
X159332288Y-106818794D01*
X159408800Y-106784729D01*
X159500722Y-106743803D01*
X159500724Y-106743802D01*
X159506752Y-106741118D01*
X159661253Y-106628866D01*
X159738175Y-106543435D01*
X159784621Y-106491852D01*
X159784622Y-106491851D01*
X159789040Y-106486944D01*
X159884527Y-106321556D01*
X159943542Y-106139928D01*
X159946046Y-106116109D01*
X159958196Y-106000500D01*
X160936496Y-106000500D01*
X160937186Y-106007065D01*
X160955345Y-106179834D01*
X160956458Y-106190428D01*
X161015473Y-106372056D01*
X161110960Y-106537444D01*
X161115378Y-106542351D01*
X161115379Y-106542352D01*
X161227284Y-106666635D01*
X161238747Y-106679366D01*
X161313070Y-106733365D01*
X161375116Y-106778444D01*
X161393248Y-106791618D01*
X161399276Y-106794302D01*
X161399278Y-106794303D01*
X161543468Y-106858500D01*
X161567712Y-106869294D01*
X161640417Y-106884748D01*
X161748056Y-106907628D01*
X161748061Y-106907628D01*
X161754513Y-106909000D01*
X161945487Y-106909000D01*
X161951939Y-106907628D01*
X161951944Y-106907628D01*
X162059583Y-106884748D01*
X162132288Y-106869294D01*
X162156532Y-106858500D01*
X162175623Y-106850000D01*
X165436496Y-106850000D01*
X165437186Y-106856565D01*
X165453955Y-107016109D01*
X165456458Y-107039928D01*
X165515473Y-107221556D01*
X165518776Y-107227278D01*
X165518777Y-107227279D01*
X165529705Y-107246206D01*
X165610960Y-107386944D01*
X165615378Y-107391851D01*
X165615379Y-107391852D01*
X165660082Y-107441500D01*
X165738747Y-107528866D01*
X165837843Y-107600864D01*
X165882002Y-107632947D01*
X165893248Y-107641118D01*
X165899276Y-107643802D01*
X165899278Y-107643803D01*
X165983332Y-107681226D01*
X166067712Y-107718794D01*
X166133365Y-107732749D01*
X166248056Y-107757128D01*
X166248061Y-107757128D01*
X166254513Y-107758500D01*
X166445487Y-107758500D01*
X166451939Y-107757128D01*
X166451944Y-107757128D01*
X166566635Y-107732749D01*
X166632288Y-107718794D01*
X166716668Y-107681226D01*
X166800722Y-107643803D01*
X166800724Y-107643802D01*
X166806752Y-107641118D01*
X166817999Y-107632947D01*
X166862157Y-107600864D01*
X166961253Y-107528866D01*
X167039918Y-107441500D01*
X167084621Y-107391852D01*
X167084622Y-107391851D01*
X167089040Y-107386944D01*
X167170295Y-107246206D01*
X167181223Y-107227279D01*
X167181224Y-107227278D01*
X167184527Y-107221556D01*
X167243542Y-107039928D01*
X167246046Y-107016109D01*
X167262814Y-106856565D01*
X167263504Y-106850000D01*
X167254310Y-106762520D01*
X167244232Y-106666635D01*
X167244232Y-106666633D01*
X167243542Y-106660072D01*
X167184527Y-106478444D01*
X167089040Y-106313056D01*
X166978626Y-106190428D01*
X166965675Y-106176045D01*
X166965674Y-106176044D01*
X166961253Y-106171134D01*
X166862157Y-106099136D01*
X166812094Y-106062763D01*
X166812093Y-106062762D01*
X166806752Y-106058882D01*
X166800724Y-106056198D01*
X166800722Y-106056197D01*
X166638319Y-105983891D01*
X166638318Y-105983891D01*
X166632288Y-105981206D01*
X166516362Y-105956565D01*
X166451944Y-105942872D01*
X166451939Y-105942872D01*
X166445487Y-105941500D01*
X166254513Y-105941500D01*
X166248061Y-105942872D01*
X166248056Y-105942872D01*
X166183638Y-105956565D01*
X166067712Y-105981206D01*
X166061682Y-105983891D01*
X166061681Y-105983891D01*
X165899278Y-106056197D01*
X165899276Y-106056198D01*
X165893248Y-106058882D01*
X165887907Y-106062762D01*
X165887906Y-106062763D01*
X165837843Y-106099136D01*
X165738747Y-106171134D01*
X165734326Y-106176044D01*
X165734325Y-106176045D01*
X165721375Y-106190428D01*
X165610960Y-106313056D01*
X165515473Y-106478444D01*
X165456458Y-106660072D01*
X165455768Y-106666633D01*
X165455768Y-106666635D01*
X165445690Y-106762520D01*
X165436496Y-106850000D01*
X162175623Y-106850000D01*
X162300722Y-106794303D01*
X162300724Y-106794302D01*
X162306752Y-106791618D01*
X162324885Y-106778444D01*
X162386930Y-106733365D01*
X162461253Y-106679366D01*
X162472716Y-106666635D01*
X162584621Y-106542352D01*
X162584622Y-106542351D01*
X162589040Y-106537444D01*
X162684527Y-106372056D01*
X162743542Y-106190428D01*
X162744656Y-106179834D01*
X162762814Y-106007065D01*
X162763504Y-106000500D01*
X162757263Y-105941118D01*
X162744232Y-105817135D01*
X162744232Y-105817133D01*
X162743542Y-105810572D01*
X162684527Y-105628944D01*
X162678656Y-105618774D01*
X162626747Y-105528866D01*
X162589040Y-105463556D01*
X162552740Y-105423240D01*
X162465675Y-105326545D01*
X162465674Y-105326544D01*
X162461253Y-105321634D01*
X162321595Y-105220166D01*
X162312094Y-105213263D01*
X162312093Y-105213262D01*
X162306752Y-105209382D01*
X162300724Y-105206698D01*
X162300722Y-105206697D01*
X162138319Y-105134391D01*
X162138318Y-105134391D01*
X162132288Y-105131706D01*
X162038888Y-105111853D01*
X161951944Y-105093372D01*
X161951939Y-105093372D01*
X161945487Y-105092000D01*
X161754513Y-105092000D01*
X161748061Y-105093372D01*
X161748056Y-105093372D01*
X161661112Y-105111853D01*
X161567712Y-105131706D01*
X161561682Y-105134391D01*
X161561681Y-105134391D01*
X161399278Y-105206697D01*
X161399276Y-105206698D01*
X161393248Y-105209382D01*
X161387907Y-105213262D01*
X161387906Y-105213263D01*
X161378405Y-105220166D01*
X161238747Y-105321634D01*
X161234326Y-105326544D01*
X161234325Y-105326545D01*
X161147261Y-105423240D01*
X161110960Y-105463556D01*
X161073253Y-105528866D01*
X161021345Y-105618774D01*
X161015473Y-105628944D01*
X160956458Y-105810572D01*
X160955768Y-105817133D01*
X160955768Y-105817135D01*
X160942737Y-105941118D01*
X160936496Y-106000500D01*
X159958196Y-106000500D01*
X159962814Y-105956565D01*
X159963504Y-105950000D01*
X159951181Y-105832749D01*
X159944232Y-105766635D01*
X159944232Y-105766633D01*
X159943542Y-105760072D01*
X159884527Y-105578444D01*
X159866483Y-105547190D01*
X159822571Y-105471134D01*
X159789040Y-105413056D01*
X159661253Y-105271134D01*
X159506752Y-105158882D01*
X159500724Y-105156198D01*
X159500722Y-105156197D01*
X159338319Y-105083891D01*
X159338318Y-105083891D01*
X159332288Y-105081206D01*
X159232861Y-105060072D01*
X159151944Y-105042872D01*
X159151939Y-105042872D01*
X159145487Y-105041500D01*
X158954513Y-105041500D01*
X158948061Y-105042872D01*
X158948056Y-105042872D01*
X158867139Y-105060072D01*
X158767712Y-105081206D01*
X158761682Y-105083891D01*
X158761681Y-105083891D01*
X158599278Y-105156197D01*
X158599276Y-105156198D01*
X158593248Y-105158882D01*
X158438747Y-105271134D01*
X158310960Y-105413056D01*
X158277429Y-105471134D01*
X158233518Y-105547190D01*
X158215473Y-105578444D01*
X158156458Y-105760072D01*
X158155768Y-105766633D01*
X158155768Y-105766635D01*
X158148819Y-105832749D01*
X158136496Y-105950000D01*
X155440269Y-105950000D01*
X155384527Y-105778444D01*
X155371775Y-105756356D01*
X155328398Y-105681226D01*
X155289040Y-105613056D01*
X155236557Y-105554767D01*
X155165675Y-105476045D01*
X155165674Y-105476044D01*
X155161253Y-105471134D01*
X155155909Y-105467251D01*
X155153753Y-105465310D01*
X155116514Y-105404863D01*
X155117867Y-105333879D01*
X155128946Y-105308675D01*
X155168723Y-105239779D01*
X155168724Y-105239778D01*
X155172027Y-105234056D01*
X155231042Y-105052428D01*
X155232047Y-105042872D01*
X155250314Y-104869065D01*
X155251004Y-104862500D01*
X155249690Y-104850000D01*
X164236496Y-104850000D01*
X164256458Y-105039928D01*
X164315473Y-105221556D01*
X164318776Y-105227278D01*
X164318777Y-105227279D01*
X164336803Y-105258500D01*
X164410960Y-105386944D01*
X164415378Y-105391851D01*
X164415379Y-105391852D01*
X164458667Y-105439928D01*
X164538747Y-105528866D01*
X164555952Y-105541366D01*
X164685143Y-105635229D01*
X164693248Y-105641118D01*
X164699276Y-105643802D01*
X164699278Y-105643803D01*
X164783332Y-105681226D01*
X164867712Y-105718794D01*
X164954479Y-105737237D01*
X165048056Y-105757128D01*
X165048061Y-105757128D01*
X165054513Y-105758500D01*
X165245487Y-105758500D01*
X165251939Y-105757128D01*
X165251944Y-105757128D01*
X165345521Y-105737237D01*
X165432288Y-105718794D01*
X165516668Y-105681226D01*
X165600722Y-105643803D01*
X165600724Y-105643802D01*
X165606752Y-105641118D01*
X165614858Y-105635229D01*
X165744048Y-105541366D01*
X165761253Y-105528866D01*
X165841333Y-105439928D01*
X165884621Y-105391852D01*
X165884622Y-105391851D01*
X165889040Y-105386944D01*
X165963197Y-105258500D01*
X165981223Y-105227279D01*
X165981224Y-105227278D01*
X165984527Y-105221556D01*
X166007777Y-105150000D01*
X169736496Y-105150000D01*
X169737186Y-105156565D01*
X169755129Y-105327279D01*
X169756458Y-105339928D01*
X169815473Y-105521556D01*
X169910960Y-105686944D01*
X169915378Y-105691851D01*
X169915379Y-105691852D01*
X170028184Y-105817135D01*
X170038747Y-105828866D01*
X170047066Y-105834910D01*
X170176385Y-105928866D01*
X170193248Y-105941118D01*
X170199276Y-105943802D01*
X170199278Y-105943803D01*
X170354824Y-106013056D01*
X170367712Y-106018794D01*
X170444703Y-106035159D01*
X170548056Y-106057128D01*
X170548061Y-106057128D01*
X170554513Y-106058500D01*
X170745487Y-106058500D01*
X170751939Y-106057128D01*
X170751944Y-106057128D01*
X170855297Y-106035159D01*
X170932288Y-106018794D01*
X170945176Y-106013056D01*
X171100722Y-105943803D01*
X171100724Y-105943802D01*
X171106752Y-105941118D01*
X171123616Y-105928866D01*
X171252934Y-105834910D01*
X171261253Y-105828866D01*
X171271816Y-105817135D01*
X171384621Y-105691852D01*
X171384622Y-105691851D01*
X171389040Y-105686944D01*
X171484527Y-105521556D01*
X171543542Y-105339928D01*
X171544872Y-105327279D01*
X171544933Y-105326695D01*
X174399823Y-105326695D01*
X174400120Y-105331848D01*
X174400120Y-105331851D01*
X174405583Y-105426590D01*
X174412682Y-105549715D01*
X174413819Y-105554761D01*
X174413820Y-105554767D01*
X174429413Y-105623955D01*
X174461794Y-105767639D01*
X174498689Y-105858500D01*
X174535843Y-105950000D01*
X174545838Y-105974616D01*
X174662559Y-106165088D01*
X174808822Y-106333938D01*
X174861629Y-106377779D01*
X174969399Y-106467251D01*
X174980698Y-106476632D01*
X175046821Y-106515271D01*
X175054527Y-106519774D01*
X175103251Y-106571412D01*
X175116322Y-106641195D01*
X175089591Y-106706967D01*
X175049134Y-106740327D01*
X175041029Y-106744546D01*
X175032310Y-106750036D01*
X174862005Y-106877905D01*
X174854298Y-106884748D01*
X174707162Y-107038717D01*
X174700676Y-107046727D01*
X174580670Y-107222649D01*
X174575572Y-107231623D01*
X174485910Y-107424783D01*
X174482347Y-107434470D01*
X174426961Y-107634183D01*
X174428484Y-107642607D01*
X174440864Y-107646000D01*
X177080916Y-107646000D01*
X177094447Y-107642027D01*
X177095752Y-107632947D01*
X177053786Y-107465875D01*
X177050466Y-107456124D01*
X176965544Y-107260814D01*
X176960677Y-107251739D01*
X176844998Y-107072926D01*
X176838708Y-107064757D01*
X176695378Y-106907240D01*
X176687845Y-106900215D01*
X176520711Y-106768222D01*
X176512128Y-106762520D01*
X176475174Y-106742120D01*
X176425203Y-106691687D01*
X176410431Y-106622245D01*
X176435547Y-106555839D01*
X176462899Y-106529232D01*
X176530201Y-106481226D01*
X176642432Y-106401173D01*
X176680977Y-106362763D01*
X176735783Y-106308148D01*
X176800668Y-106243489D01*
X176846409Y-106179834D01*
X176928007Y-106066277D01*
X176931025Y-106062077D01*
X176958214Y-106007065D01*
X177027708Y-105866453D01*
X177027709Y-105866451D01*
X177030002Y-105861811D01*
X177083131Y-105686944D01*
X177093437Y-105653023D01*
X177093437Y-105653021D01*
X177094942Y-105648069D01*
X177124101Y-105426590D01*
X177124552Y-105408148D01*
X177125646Y-105363365D01*
X177125646Y-105363361D01*
X177125728Y-105360000D01*
X177107424Y-105137361D01*
X177053003Y-104920702D01*
X176963926Y-104715840D01*
X176879213Y-104584894D01*
X176845394Y-104532617D01*
X176845392Y-104532614D01*
X176842586Y-104528277D01*
X176692242Y-104363051D01*
X176688191Y-104359852D01*
X176688187Y-104359848D01*
X176520986Y-104227800D01*
X176520982Y-104227798D01*
X176516931Y-104224598D01*
X176475625Y-104201796D01*
X176425656Y-104151364D01*
X176410884Y-104081921D01*
X176436000Y-104015516D01*
X176463352Y-103988909D01*
X176526588Y-103943803D01*
X176642432Y-103861173D01*
X176684980Y-103818774D01*
X176760326Y-103743690D01*
X176800668Y-103703489D01*
X176814149Y-103684729D01*
X176928007Y-103526277D01*
X176931025Y-103522077D01*
X176949484Y-103484729D01*
X177027708Y-103326453D01*
X177027709Y-103326451D01*
X177030002Y-103321811D01*
X177094942Y-103108069D01*
X177124101Y-102886590D01*
X177124183Y-102883240D01*
X177125646Y-102823365D01*
X177125646Y-102823361D01*
X177125728Y-102820000D01*
X177107424Y-102597361D01*
X177053003Y-102380702D01*
X176963926Y-102175840D01*
X176868844Y-102028866D01*
X176845394Y-101992617D01*
X176845392Y-101992614D01*
X176842586Y-101988277D01*
X176692242Y-101823051D01*
X176688191Y-101819852D01*
X176688187Y-101819848D01*
X176520986Y-101687800D01*
X176520982Y-101687798D01*
X176516931Y-101684598D01*
X176475625Y-101661796D01*
X176425656Y-101611364D01*
X176410884Y-101541921D01*
X176436000Y-101475516D01*
X176463352Y-101448909D01*
X176520497Y-101408148D01*
X176642432Y-101321173D01*
X176800668Y-101163489D01*
X176803979Y-101158882D01*
X176928007Y-100986277D01*
X176931025Y-100982077D01*
X177007531Y-100827279D01*
X177027708Y-100786453D01*
X177027709Y-100786451D01*
X177030002Y-100781811D01*
X177072044Y-100643435D01*
X177093437Y-100573023D01*
X177093437Y-100573021D01*
X177094942Y-100568069D01*
X177124101Y-100346590D01*
X177124781Y-100318774D01*
X177125646Y-100283365D01*
X177125646Y-100283361D01*
X177125728Y-100280000D01*
X177107424Y-100057361D01*
X177053003Y-99840702D01*
X176963926Y-99635840D01*
X176889992Y-99521556D01*
X176845394Y-99452617D01*
X176845392Y-99452614D01*
X176842586Y-99448277D01*
X176692242Y-99283051D01*
X176688191Y-99279852D01*
X176688187Y-99279848D01*
X176520986Y-99147800D01*
X176520982Y-99147798D01*
X176516931Y-99144598D01*
X176475625Y-99121796D01*
X176425656Y-99071364D01*
X176410884Y-99001921D01*
X176436000Y-98935516D01*
X176463352Y-98908909D01*
X176507175Y-98877650D01*
X176642432Y-98781173D01*
X176665185Y-98758500D01*
X176797007Y-98627137D01*
X176800668Y-98623489D01*
X176860166Y-98540689D01*
X176928007Y-98446277D01*
X176931025Y-98442077D01*
X176944274Y-98415271D01*
X177027708Y-98246453D01*
X177027709Y-98246451D01*
X177030002Y-98241811D01*
X177089432Y-98046206D01*
X177093437Y-98033023D01*
X177093437Y-98033021D01*
X177094942Y-98028069D01*
X177124101Y-97806590D01*
X177125728Y-97740000D01*
X177107424Y-97517361D01*
X177053003Y-97300702D01*
X176963926Y-97095840D01*
X176842586Y-96908277D01*
X176839104Y-96904450D01*
X176695370Y-96746488D01*
X176664318Y-96682642D01*
X176672713Y-96612143D01*
X176717889Y-96557375D01*
X176744333Y-96543706D01*
X176850869Y-96503767D01*
X176859277Y-96500615D01*
X176975833Y-96413261D01*
X177063187Y-96296705D01*
X177114317Y-96160316D01*
X177121072Y-96098134D01*
X177121072Y-94301866D01*
X177114317Y-94239684D01*
X177063187Y-94103295D01*
X176975833Y-93986739D01*
X176859277Y-93899385D01*
X176722888Y-93848255D01*
X176660706Y-93841500D01*
X174864438Y-93841500D01*
X174802256Y-93848255D01*
X174665867Y-93899385D01*
X174549311Y-93986739D01*
X174461957Y-94103295D01*
X174410827Y-94239684D01*
X174404072Y-94301866D01*
X174404072Y-96098134D01*
X174410827Y-96160316D01*
X174461957Y-96296705D01*
X174549311Y-96413261D01*
X174665867Y-96500615D01*
X174674276Y-96503767D01*
X174674277Y-96503768D01*
X174783023Y-96544535D01*
X174839788Y-96587176D01*
X174864488Y-96653738D01*
X174849281Y-96723087D01*
X174829888Y-96749568D01*
X174703201Y-96882138D01*
X174700287Y-96886410D01*
X174700286Y-96886411D01*
X174662707Y-96941500D01*
X174577315Y-97066680D01*
X174561575Y-97100590D01*
X174486297Y-97262763D01*
X174483260Y-97269305D01*
X174423561Y-97484570D01*
X174399823Y-97706695D01*
X174400120Y-97711848D01*
X174400120Y-97711851D01*
X174408464Y-97856565D01*
X174412682Y-97929715D01*
X174413819Y-97934761D01*
X174413820Y-97934767D01*
X174425579Y-97986944D01*
X174461794Y-98147639D01*
X174545838Y-98354616D01*
X174562145Y-98381226D01*
X174654998Y-98532749D01*
X174662559Y-98545088D01*
X174808822Y-98713938D01*
X174980698Y-98856632D01*
X175051167Y-98897811D01*
X175054017Y-98899476D01*
X175102741Y-98951114D01*
X175115812Y-99020897D01*
X175089081Y-99086669D01*
X175048627Y-99120027D01*
X175036179Y-99126507D01*
X175032046Y-99129610D01*
X175032043Y-99129612D01*
X174993568Y-99158500D01*
X174857537Y-99260635D01*
X174703201Y-99422138D01*
X174577315Y-99606680D01*
X174561575Y-99640590D01*
X174495057Y-99783891D01*
X174483260Y-99809305D01*
X174423561Y-100024570D01*
X174399823Y-100246695D01*
X174400120Y-100251848D01*
X174400120Y-100251851D01*
X174406515Y-100362763D01*
X174412682Y-100469715D01*
X174413819Y-100474761D01*
X174413820Y-100474767D01*
X174433691Y-100562939D01*
X174461794Y-100687639D01*
X174545838Y-100894616D01*
X174662559Y-101085088D01*
X174808822Y-101253938D01*
X174980698Y-101396632D01*
X175018590Y-101418774D01*
X175054017Y-101439476D01*
X175102741Y-101491114D01*
X175115812Y-101560897D01*
X175089081Y-101626669D01*
X175048627Y-101660027D01*
X175036179Y-101666507D01*
X175032046Y-101669610D01*
X175032043Y-101669612D01*
X174861672Y-101797530D01*
X174857537Y-101800635D01*
X174703201Y-101962138D01*
X174700287Y-101966410D01*
X174700286Y-101966411D01*
X174615128Y-102091249D01*
X174577315Y-102146680D01*
X174561575Y-102180590D01*
X174487613Y-102339928D01*
X174483260Y-102349305D01*
X174423561Y-102564570D01*
X174399823Y-102786695D01*
X174400120Y-102791848D01*
X174400120Y-102791851D01*
X174405583Y-102886590D01*
X174412682Y-103009715D01*
X174413819Y-103014761D01*
X174413820Y-103014767D01*
X174423157Y-103056197D01*
X174461794Y-103227639D01*
X174545838Y-103434616D01*
X174548537Y-103439020D01*
X174650858Y-103605993D01*
X174662559Y-103625088D01*
X174808822Y-103793938D01*
X174980698Y-103936632D01*
X175004651Y-103950629D01*
X175054017Y-103979476D01*
X175102741Y-104031114D01*
X175115812Y-104100897D01*
X175089081Y-104166669D01*
X175048627Y-104200027D01*
X175036179Y-104206507D01*
X175032046Y-104209610D01*
X175032043Y-104209612D01*
X174861672Y-104337530D01*
X174857537Y-104340635D01*
X174853965Y-104344373D01*
X174725844Y-104478444D01*
X174703201Y-104502138D01*
X174700287Y-104506410D01*
X174700286Y-104506411D01*
X174681899Y-104533365D01*
X174577315Y-104686680D01*
X174543248Y-104760072D01*
X174501505Y-104850000D01*
X174483260Y-104889305D01*
X174423561Y-105104570D01*
X174423012Y-105109707D01*
X174406176Y-105267251D01*
X174399823Y-105326695D01*
X171544933Y-105326695D01*
X171562814Y-105156565D01*
X171563504Y-105150000D01*
X171553909Y-105058706D01*
X171544232Y-104966635D01*
X171544232Y-104966633D01*
X171543542Y-104960072D01*
X171484527Y-104778444D01*
X171389040Y-104613056D01*
X171342098Y-104560921D01*
X171265675Y-104476045D01*
X171265674Y-104476044D01*
X171261253Y-104471134D01*
X171135590Y-104379834D01*
X171112094Y-104362763D01*
X171112093Y-104362762D01*
X171106752Y-104358882D01*
X171100724Y-104356198D01*
X171100722Y-104356197D01*
X170938319Y-104283891D01*
X170938318Y-104283891D01*
X170932288Y-104281206D01*
X170832861Y-104260072D01*
X170751944Y-104242872D01*
X170751939Y-104242872D01*
X170745487Y-104241500D01*
X170554513Y-104241500D01*
X170548061Y-104242872D01*
X170548056Y-104242872D01*
X170467139Y-104260072D01*
X170367712Y-104281206D01*
X170361682Y-104283891D01*
X170361681Y-104283891D01*
X170199278Y-104356197D01*
X170199276Y-104356198D01*
X170193248Y-104358882D01*
X170187907Y-104362762D01*
X170187906Y-104362763D01*
X170164410Y-104379834D01*
X170038747Y-104471134D01*
X170034326Y-104476044D01*
X170034325Y-104476045D01*
X169957903Y-104560921D01*
X169910960Y-104613056D01*
X169815473Y-104778444D01*
X169756458Y-104960072D01*
X169755768Y-104966633D01*
X169755768Y-104966635D01*
X169746091Y-105058706D01*
X169736496Y-105150000D01*
X166007777Y-105150000D01*
X166043542Y-105039928D01*
X166062458Y-104859957D01*
X166089470Y-104794301D01*
X166147691Y-104753671D01*
X166213964Y-104749881D01*
X166248056Y-104757128D01*
X166248061Y-104757128D01*
X166254513Y-104758500D01*
X166445487Y-104758500D01*
X166451939Y-104757128D01*
X166451944Y-104757128D01*
X166538887Y-104738647D01*
X166632288Y-104718794D01*
X166651171Y-104710387D01*
X166800722Y-104643803D01*
X166800724Y-104643802D01*
X166806752Y-104641118D01*
X166961253Y-104528866D01*
X167026353Y-104456565D01*
X167084621Y-104391852D01*
X167084622Y-104391851D01*
X167089040Y-104386944D01*
X167184527Y-104221556D01*
X167243542Y-104039928D01*
X167244469Y-104031114D01*
X167262814Y-103856565D01*
X167263504Y-103850000D01*
X167246882Y-103691846D01*
X167244232Y-103666635D01*
X167244232Y-103666633D01*
X167243542Y-103660072D01*
X167184527Y-103478444D01*
X167163990Y-103442872D01*
X167108179Y-103346206D01*
X167089040Y-103313056D01*
X166961253Y-103171134D01*
X166806752Y-103058882D01*
X166800724Y-103056198D01*
X166800722Y-103056197D01*
X166638319Y-102983891D01*
X166638318Y-102983891D01*
X166632288Y-102981206D01*
X166532861Y-102960072D01*
X166451944Y-102942872D01*
X166451939Y-102942872D01*
X166445487Y-102941500D01*
X166254513Y-102941500D01*
X166248061Y-102942872D01*
X166248056Y-102942872D01*
X166167139Y-102960072D01*
X166067712Y-102981206D01*
X166061682Y-102983891D01*
X166061681Y-102983891D01*
X165899278Y-103056197D01*
X165899276Y-103056198D01*
X165893248Y-103058882D01*
X165738747Y-103171134D01*
X165610960Y-103313056D01*
X165591821Y-103346206D01*
X165536011Y-103442872D01*
X165515473Y-103478444D01*
X165456458Y-103660072D01*
X165455768Y-103666633D01*
X165455768Y-103666635D01*
X165453867Y-103684726D01*
X165438718Y-103828866D01*
X165437543Y-103840042D01*
X165410530Y-103905699D01*
X165352309Y-103946329D01*
X165286036Y-103950119D01*
X165251944Y-103942872D01*
X165251939Y-103942872D01*
X165245487Y-103941500D01*
X165054513Y-103941500D01*
X165048061Y-103942872D01*
X165048056Y-103942872D01*
X164961113Y-103961353D01*
X164867712Y-103981206D01*
X164861682Y-103983891D01*
X164861681Y-103983891D01*
X164699278Y-104056197D01*
X164699276Y-104056198D01*
X164693248Y-104058882D01*
X164687907Y-104062762D01*
X164687906Y-104062763D01*
X164666323Y-104078444D01*
X164538747Y-104171134D01*
X164534326Y-104176044D01*
X164534325Y-104176045D01*
X164452758Y-104266635D01*
X164410960Y-104313056D01*
X164315473Y-104478444D01*
X164256458Y-104660072D01*
X164255768Y-104666633D01*
X164255768Y-104666635D01*
X164246257Y-104757128D01*
X164236496Y-104850000D01*
X155249690Y-104850000D01*
X155242830Y-104784729D01*
X155231732Y-104679135D01*
X155231732Y-104679133D01*
X155231042Y-104672572D01*
X155172027Y-104490944D01*
X155076540Y-104325556D01*
X155070434Y-104318774D01*
X154953175Y-104188545D01*
X154953174Y-104188544D01*
X154948753Y-104183634D01*
X154822351Y-104091797D01*
X154799594Y-104075263D01*
X154799593Y-104075262D01*
X154794252Y-104071382D01*
X154788224Y-104068698D01*
X154788222Y-104068697D01*
X154625819Y-103996391D01*
X154625818Y-103996391D01*
X154619788Y-103993706D01*
X154521062Y-103972721D01*
X154439444Y-103955372D01*
X154439439Y-103955372D01*
X154432987Y-103954000D01*
X154426385Y-103954000D01*
X154419818Y-103953310D01*
X154420100Y-103950629D01*
X154363461Y-103933998D01*
X154316968Y-103880342D01*
X154306864Y-103810068D01*
X154337944Y-103743692D01*
X154389040Y-103686944D01*
X154484527Y-103521556D01*
X154543542Y-103339928D01*
X154545766Y-103318774D01*
X154562814Y-103156565D01*
X154563504Y-103150000D01*
X154548760Y-103009715D01*
X154544232Y-102966635D01*
X154544232Y-102966633D01*
X154543542Y-102960072D01*
X154484527Y-102778444D01*
X154389040Y-102613056D01*
X154350009Y-102569707D01*
X154265675Y-102476045D01*
X154265674Y-102476044D01*
X154261253Y-102471134D01*
X154136785Y-102380702D01*
X154112094Y-102362763D01*
X154112093Y-102362762D01*
X154106752Y-102358882D01*
X154100724Y-102356198D01*
X154100722Y-102356197D01*
X153938319Y-102283891D01*
X153938318Y-102283891D01*
X153932288Y-102281206D01*
X153838887Y-102261353D01*
X153751944Y-102242872D01*
X153751939Y-102242872D01*
X153745487Y-102241500D01*
X153554513Y-102241500D01*
X153548061Y-102242872D01*
X153548056Y-102242872D01*
X153461113Y-102261353D01*
X153367712Y-102281206D01*
X153361682Y-102283891D01*
X153361681Y-102283891D01*
X153199278Y-102356197D01*
X153199276Y-102356198D01*
X153193248Y-102358882D01*
X153187907Y-102362762D01*
X153187906Y-102362763D01*
X153163215Y-102380702D01*
X153038747Y-102471134D01*
X153034326Y-102476044D01*
X153034325Y-102476045D01*
X152949992Y-102569707D01*
X152910960Y-102613056D01*
X152815473Y-102778444D01*
X152756458Y-102960072D01*
X152755768Y-102966633D01*
X152755768Y-102966635D01*
X152751240Y-103009715D01*
X152736496Y-103150000D01*
X137063504Y-103150000D01*
X137048760Y-103009715D01*
X137044232Y-102966635D01*
X137044232Y-102966633D01*
X137043542Y-102960072D01*
X136984527Y-102778444D01*
X136889040Y-102613056D01*
X136850009Y-102569707D01*
X136765675Y-102476045D01*
X136765674Y-102476044D01*
X136761253Y-102471134D01*
X136636785Y-102380702D01*
X136612094Y-102362763D01*
X136612093Y-102362762D01*
X136606752Y-102358882D01*
X136600724Y-102356198D01*
X136600722Y-102356197D01*
X136438319Y-102283891D01*
X136438318Y-102283891D01*
X136432288Y-102281206D01*
X136338887Y-102261353D01*
X136251944Y-102242872D01*
X136251939Y-102242872D01*
X136245487Y-102241500D01*
X136054513Y-102241500D01*
X136048061Y-102242872D01*
X136048056Y-102242872D01*
X135961113Y-102261353D01*
X135867712Y-102281206D01*
X135861682Y-102283891D01*
X135861681Y-102283891D01*
X135699278Y-102356197D01*
X135699276Y-102356198D01*
X135693248Y-102358882D01*
X135687907Y-102362762D01*
X135687906Y-102362763D01*
X135663215Y-102380702D01*
X135538747Y-102471134D01*
X135534326Y-102476044D01*
X135534325Y-102476045D01*
X135449992Y-102569707D01*
X135410960Y-102613056D01*
X135315473Y-102778444D01*
X135256458Y-102960072D01*
X135255768Y-102966633D01*
X135255768Y-102966635D01*
X135251240Y-103009715D01*
X135236496Y-103150000D01*
X135237186Y-103156565D01*
X135254235Y-103318774D01*
X135256458Y-103339928D01*
X135315473Y-103521556D01*
X135321936Y-103532749D01*
X135324389Y-103536998D01*
X135341128Y-103605993D01*
X135324390Y-103663000D01*
X135315473Y-103678444D01*
X135256458Y-103860072D01*
X135255768Y-103866633D01*
X135255768Y-103866635D01*
X135251662Y-103905699D01*
X135236496Y-104050000D01*
X135237186Y-104056565D01*
X135255129Y-104227279D01*
X135256458Y-104239928D01*
X135315473Y-104421556D01*
X135318776Y-104427277D01*
X135324389Y-104436998D01*
X135341128Y-104505993D01*
X135324390Y-104563000D01*
X135315473Y-104578444D01*
X135256458Y-104760072D01*
X135255768Y-104766633D01*
X135255768Y-104766635D01*
X135240074Y-104915954D01*
X135236496Y-104950000D01*
X133032264Y-104950000D01*
X133062919Y-104915954D01*
X133084621Y-104891852D01*
X133084622Y-104891851D01*
X133089040Y-104886944D01*
X133163197Y-104758500D01*
X133181223Y-104727279D01*
X133181224Y-104727278D01*
X133184527Y-104721556D01*
X133243542Y-104539928D01*
X133244311Y-104532617D01*
X133262814Y-104356565D01*
X133263504Y-104350000D01*
X133254052Y-104260072D01*
X133244232Y-104166635D01*
X133244232Y-104166633D01*
X133243542Y-104160072D01*
X133184527Y-103978444D01*
X133163990Y-103942872D01*
X133144631Y-103909343D01*
X133089040Y-103813056D01*
X132961253Y-103671134D01*
X132806752Y-103558882D01*
X132800724Y-103556198D01*
X132800722Y-103556197D01*
X132638319Y-103483891D01*
X132638318Y-103483891D01*
X132632288Y-103481206D01*
X132538887Y-103461353D01*
X132451944Y-103442872D01*
X132451939Y-103442872D01*
X132445487Y-103441500D01*
X132254513Y-103441500D01*
X132248061Y-103442872D01*
X132248056Y-103442872D01*
X132161113Y-103461353D01*
X132067712Y-103481206D01*
X132061682Y-103483891D01*
X132061681Y-103483891D01*
X131899278Y-103556197D01*
X131899276Y-103556198D01*
X131893248Y-103558882D01*
X131738747Y-103671134D01*
X131610960Y-103813056D01*
X131555369Y-103909343D01*
X131536011Y-103942872D01*
X131515473Y-103978444D01*
X131456458Y-104160072D01*
X131455768Y-104166633D01*
X131455768Y-104166635D01*
X131445948Y-104260072D01*
X131436496Y-104350000D01*
X131437186Y-104356565D01*
X131446566Y-104445815D01*
X131433794Y-104515653D01*
X131385291Y-104567500D01*
X131316458Y-104584894D01*
X131247198Y-104560922D01*
X131106752Y-104458882D01*
X131100724Y-104456198D01*
X131100722Y-104456197D01*
X130938319Y-104383891D01*
X130938318Y-104383891D01*
X130932288Y-104381206D01*
X130831807Y-104359848D01*
X130751944Y-104342872D01*
X130751939Y-104342872D01*
X130745487Y-104341500D01*
X130554513Y-104341500D01*
X130548061Y-104342872D01*
X130548056Y-104342872D01*
X130468193Y-104359848D01*
X130367712Y-104381206D01*
X130361682Y-104383891D01*
X130361681Y-104383891D01*
X130199278Y-104456197D01*
X130199276Y-104456198D01*
X130193248Y-104458882D01*
X130187907Y-104462762D01*
X130187906Y-104462763D01*
X130174200Y-104472721D01*
X130038747Y-104571134D01*
X130034326Y-104576044D01*
X130034325Y-104576045D01*
X129930482Y-104691375D01*
X129910960Y-104713056D01*
X129864053Y-104794301D01*
X129828469Y-104855935D01*
X129815473Y-104878444D01*
X129756458Y-105060072D01*
X129755768Y-105066633D01*
X129755768Y-105066635D01*
X129748647Y-105134391D01*
X129736496Y-105250000D01*
X115650000Y-105250000D01*
X115650000Y-101950000D01*
X137036496Y-101950000D01*
X137037186Y-101956565D01*
X137040118Y-101984457D01*
X137056458Y-102139928D01*
X137115473Y-102321556D01*
X137210960Y-102486944D01*
X137338747Y-102628866D01*
X137493248Y-102741118D01*
X137499276Y-102743802D01*
X137499278Y-102743803D01*
X137661681Y-102816109D01*
X137667712Y-102818794D01*
X137733365Y-102832749D01*
X137848056Y-102857128D01*
X137848061Y-102857128D01*
X137854513Y-102858500D01*
X138045487Y-102858500D01*
X138051939Y-102857128D01*
X138051944Y-102857128D01*
X138166635Y-102832749D01*
X138232288Y-102818794D01*
X138238319Y-102816109D01*
X138400722Y-102743803D01*
X138400724Y-102743802D01*
X138406752Y-102741118D01*
X138561253Y-102628866D01*
X138689040Y-102486944D01*
X138784527Y-102321556D01*
X138843542Y-102139928D01*
X138859883Y-101984457D01*
X138862814Y-101956565D01*
X138863504Y-101950000D01*
X138862163Y-101937237D01*
X138844232Y-101766635D01*
X138844232Y-101766633D01*
X138843542Y-101760072D01*
X138784527Y-101578444D01*
X138775817Y-101563357D01*
X138722571Y-101471134D01*
X138689040Y-101413056D01*
X138658553Y-101379196D01*
X138565675Y-101276045D01*
X138565674Y-101276044D01*
X138561253Y-101271134D01*
X138406752Y-101158882D01*
X138400724Y-101156198D01*
X138400722Y-101156197D01*
X138238319Y-101083891D01*
X138238318Y-101083891D01*
X138232288Y-101081206D01*
X138138887Y-101061353D01*
X138051944Y-101042872D01*
X138051939Y-101042872D01*
X138045487Y-101041500D01*
X137854513Y-101041500D01*
X137848061Y-101042872D01*
X137848056Y-101042872D01*
X137761113Y-101061353D01*
X137667712Y-101081206D01*
X137661682Y-101083891D01*
X137661681Y-101083891D01*
X137499278Y-101156197D01*
X137499276Y-101156198D01*
X137493248Y-101158882D01*
X137338747Y-101271134D01*
X137334326Y-101276044D01*
X137334325Y-101276045D01*
X137241448Y-101379196D01*
X137210960Y-101413056D01*
X137177429Y-101471134D01*
X137124184Y-101563357D01*
X137115473Y-101578444D01*
X137056458Y-101760072D01*
X137055768Y-101766633D01*
X137055768Y-101766635D01*
X137037837Y-101937237D01*
X137036496Y-101950000D01*
X115650000Y-101950000D01*
X115650000Y-100450000D01*
X121136496Y-100450000D01*
X121137186Y-100456565D01*
X121154235Y-100618774D01*
X121156458Y-100639928D01*
X121215473Y-100821556D01*
X121310960Y-100986944D01*
X121315378Y-100991851D01*
X121315379Y-100991852D01*
X121407963Y-101094677D01*
X121438747Y-101128866D01*
X121593248Y-101241118D01*
X121599276Y-101243802D01*
X121599278Y-101243803D01*
X121689318Y-101283891D01*
X121767712Y-101318794D01*
X121833365Y-101332749D01*
X121948056Y-101357128D01*
X121948061Y-101357128D01*
X121954513Y-101358500D01*
X122145487Y-101358500D01*
X122151939Y-101357128D01*
X122151944Y-101357128D01*
X122266635Y-101332749D01*
X122332288Y-101318794D01*
X122410682Y-101283891D01*
X122500722Y-101243803D01*
X122500724Y-101243802D01*
X122506752Y-101241118D01*
X122661253Y-101128866D01*
X122692037Y-101094677D01*
X122784621Y-100991852D01*
X122784622Y-100991851D01*
X122789040Y-100986944D01*
X122884527Y-100821556D01*
X122940269Y-100650000D01*
X159536496Y-100650000D01*
X159537186Y-100656565D01*
X159555129Y-100827279D01*
X159556458Y-100839928D01*
X159615473Y-101021556D01*
X159710960Y-101186944D01*
X159715378Y-101191851D01*
X159715379Y-101191852D01*
X159828539Y-101317529D01*
X159838747Y-101328866D01*
X159993248Y-101441118D01*
X159999276Y-101443802D01*
X159999278Y-101443803D01*
X160105541Y-101491114D01*
X160167712Y-101518794D01*
X160233365Y-101532749D01*
X160348056Y-101557128D01*
X160348061Y-101557128D01*
X160354513Y-101558500D01*
X160545487Y-101558500D01*
X160551939Y-101557128D01*
X160551944Y-101557128D01*
X160666635Y-101532749D01*
X160732288Y-101518794D01*
X160794459Y-101491114D01*
X160900722Y-101443803D01*
X160900724Y-101443802D01*
X160906752Y-101441118D01*
X160964389Y-101399242D01*
X161055909Y-101332749D01*
X161055911Y-101332747D01*
X161061253Y-101328866D01*
X161065273Y-101324402D01*
X161129080Y-101293780D01*
X161199533Y-101302543D01*
X161254065Y-101348005D01*
X161269217Y-101379196D01*
X161315473Y-101521556D01*
X161318776Y-101527278D01*
X161318777Y-101527279D01*
X161336803Y-101558500D01*
X161410960Y-101686944D01*
X161538747Y-101828866D01*
X161693248Y-101941118D01*
X161699276Y-101943802D01*
X161699278Y-101943803D01*
X161750057Y-101966411D01*
X161867712Y-102018794D01*
X161933365Y-102032749D01*
X162048056Y-102057128D01*
X162048061Y-102057128D01*
X162054513Y-102058500D01*
X162245487Y-102058500D01*
X162251939Y-102057128D01*
X162251944Y-102057128D01*
X162366635Y-102032749D01*
X162432288Y-102018794D01*
X162549943Y-101966411D01*
X162600722Y-101943803D01*
X162600724Y-101943802D01*
X162606752Y-101941118D01*
X162761253Y-101828866D01*
X162773660Y-101815087D01*
X162776929Y-101811457D01*
X162837375Y-101774218D01*
X162908359Y-101775571D01*
X162967343Y-101815087D01*
X162979682Y-101832769D01*
X163010960Y-101886944D01*
X163015378Y-101891851D01*
X163015379Y-101891852D01*
X163129678Y-102018794D01*
X163138747Y-102028866D01*
X163157744Y-102042668D01*
X163163428Y-102046798D01*
X163206782Y-102103021D01*
X163212857Y-102173757D01*
X163183003Y-102233044D01*
X163110960Y-102313056D01*
X163015473Y-102478444D01*
X162956458Y-102660072D01*
X162955768Y-102666633D01*
X162955768Y-102666635D01*
X162942608Y-102791851D01*
X162936496Y-102850000D01*
X162937186Y-102856565D01*
X162953955Y-103016109D01*
X162956458Y-103039928D01*
X163015473Y-103221556D01*
X163110960Y-103386944D01*
X163238747Y-103528866D01*
X163285402Y-103562763D01*
X163371185Y-103625088D01*
X163393248Y-103641118D01*
X163399276Y-103643802D01*
X163399278Y-103643803D01*
X163561681Y-103716109D01*
X163567712Y-103718794D01*
X163661112Y-103738647D01*
X163748056Y-103757128D01*
X163748061Y-103757128D01*
X163754513Y-103758500D01*
X163945487Y-103758500D01*
X163951939Y-103757128D01*
X163951944Y-103757128D01*
X164038888Y-103738647D01*
X164132288Y-103718794D01*
X164138319Y-103716109D01*
X164300722Y-103643803D01*
X164300724Y-103643802D01*
X164306752Y-103641118D01*
X164328816Y-103625088D01*
X164414598Y-103562763D01*
X164461253Y-103528866D01*
X164589040Y-103386944D01*
X164684527Y-103221556D01*
X164743542Y-103039928D01*
X164746046Y-103016109D01*
X164762814Y-102856565D01*
X164763504Y-102850000D01*
X164757392Y-102791851D01*
X164744232Y-102666635D01*
X164744232Y-102666633D01*
X164743542Y-102660072D01*
X164684527Y-102478444D01*
X164589040Y-102313056D01*
X164461253Y-102171134D01*
X164436572Y-102153202D01*
X164434103Y-102150000D01*
X169736496Y-102150000D01*
X169737186Y-102156565D01*
X169755129Y-102327279D01*
X169756458Y-102339928D01*
X169815473Y-102521556D01*
X169910960Y-102686944D01*
X169915378Y-102691851D01*
X169915379Y-102691852D01*
X170027744Y-102816646D01*
X170038747Y-102828866D01*
X170193248Y-102941118D01*
X170199276Y-102943802D01*
X170199278Y-102943803D01*
X170347320Y-103009715D01*
X170367712Y-103018794D01*
X170436263Y-103033365D01*
X170548056Y-103057128D01*
X170548061Y-103057128D01*
X170554513Y-103058500D01*
X170745487Y-103058500D01*
X170751939Y-103057128D01*
X170751944Y-103057128D01*
X170863737Y-103033365D01*
X170932288Y-103018794D01*
X170952680Y-103009715D01*
X171100722Y-102943803D01*
X171100724Y-102943802D01*
X171106752Y-102941118D01*
X171261253Y-102828866D01*
X171272256Y-102816646D01*
X171384621Y-102691852D01*
X171384622Y-102691851D01*
X171389040Y-102686944D01*
X171484527Y-102521556D01*
X171543542Y-102339928D01*
X171544872Y-102327279D01*
X171562814Y-102156565D01*
X171563504Y-102150000D01*
X171551181Y-102032749D01*
X171544232Y-101966635D01*
X171544232Y-101966633D01*
X171543542Y-101960072D01*
X171484527Y-101778444D01*
X171389040Y-101613056D01*
X171331521Y-101549174D01*
X171265675Y-101476045D01*
X171265674Y-101476044D01*
X171261253Y-101471134D01*
X171106752Y-101358882D01*
X171100724Y-101356198D01*
X171100722Y-101356197D01*
X170938319Y-101283891D01*
X170938318Y-101283891D01*
X170932288Y-101281206D01*
X170838888Y-101261353D01*
X170751944Y-101242872D01*
X170751939Y-101242872D01*
X170745487Y-101241500D01*
X170554513Y-101241500D01*
X170548061Y-101242872D01*
X170548056Y-101242872D01*
X170461113Y-101261353D01*
X170367712Y-101281206D01*
X170361682Y-101283891D01*
X170361681Y-101283891D01*
X170199278Y-101356197D01*
X170199276Y-101356198D01*
X170193248Y-101358882D01*
X170038747Y-101471134D01*
X170034326Y-101476044D01*
X170034325Y-101476045D01*
X169968480Y-101549174D01*
X169910960Y-101613056D01*
X169815473Y-101778444D01*
X169756458Y-101960072D01*
X169755768Y-101966633D01*
X169755768Y-101966635D01*
X169748819Y-102032749D01*
X169736496Y-102150000D01*
X164434103Y-102150000D01*
X164393218Y-102096979D01*
X164387143Y-102026243D01*
X164416997Y-101966956D01*
X164484621Y-101891852D01*
X164484622Y-101891851D01*
X164489040Y-101886944D01*
X164563197Y-101758500D01*
X164581223Y-101727279D01*
X164581224Y-101727278D01*
X164584527Y-101721556D01*
X164643542Y-101539928D01*
X164644872Y-101527279D01*
X164662814Y-101356565D01*
X164663504Y-101350000D01*
X164646882Y-101191852D01*
X164644232Y-101166635D01*
X164644232Y-101166633D01*
X164643542Y-101160072D01*
X164584527Y-100978444D01*
X164510370Y-100850000D01*
X165436496Y-100850000D01*
X165437186Y-100856565D01*
X165455129Y-101027279D01*
X165456458Y-101039928D01*
X165515473Y-101221556D01*
X165610960Y-101386944D01*
X165615378Y-101391851D01*
X165615379Y-101391852D01*
X165729678Y-101518794D01*
X165738747Y-101528866D01*
X165893248Y-101641118D01*
X165899276Y-101643802D01*
X165899278Y-101643803D01*
X165990906Y-101684598D01*
X166067712Y-101718794D01*
X166161113Y-101738647D01*
X166248056Y-101757128D01*
X166248061Y-101757128D01*
X166254513Y-101758500D01*
X166445487Y-101758500D01*
X166451939Y-101757128D01*
X166451944Y-101757128D01*
X166538887Y-101738647D01*
X166632288Y-101718794D01*
X166709094Y-101684598D01*
X166800722Y-101643803D01*
X166800724Y-101643802D01*
X166806752Y-101641118D01*
X166961253Y-101528866D01*
X166970322Y-101518794D01*
X167084621Y-101391852D01*
X167084622Y-101391851D01*
X167089040Y-101386944D01*
X167184527Y-101221556D01*
X167243542Y-101039928D01*
X167244872Y-101027279D01*
X167262814Y-100856565D01*
X167263504Y-100850000D01*
X167255983Y-100778444D01*
X167244232Y-100666635D01*
X167244232Y-100666633D01*
X167243542Y-100660072D01*
X167184527Y-100478444D01*
X167163990Y-100442872D01*
X167115498Y-100358882D01*
X167089040Y-100313056D01*
X167047243Y-100266635D01*
X166965675Y-100176045D01*
X166965674Y-100176044D01*
X166961253Y-100171134D01*
X166806752Y-100058882D01*
X166800724Y-100056198D01*
X166800722Y-100056197D01*
X166638319Y-99983891D01*
X166638318Y-99983891D01*
X166632288Y-99981206D01*
X166538888Y-99961353D01*
X166451944Y-99942872D01*
X166451939Y-99942872D01*
X166445487Y-99941500D01*
X166254513Y-99941500D01*
X166248061Y-99942872D01*
X166248056Y-99942872D01*
X166161113Y-99961353D01*
X166067712Y-99981206D01*
X166061682Y-99983891D01*
X166061681Y-99983891D01*
X165899278Y-100056197D01*
X165899276Y-100056198D01*
X165893248Y-100058882D01*
X165738747Y-100171134D01*
X165734326Y-100176044D01*
X165734325Y-100176045D01*
X165652758Y-100266635D01*
X165610960Y-100313056D01*
X165584502Y-100358882D01*
X165536011Y-100442872D01*
X165515473Y-100478444D01*
X165456458Y-100660072D01*
X165455768Y-100666633D01*
X165455768Y-100666635D01*
X165444017Y-100778444D01*
X165436496Y-100850000D01*
X164510370Y-100850000D01*
X164489040Y-100813056D01*
X164380424Y-100692425D01*
X164365675Y-100676045D01*
X164365674Y-100676044D01*
X164361253Y-100671134D01*
X164262157Y-100599136D01*
X164212094Y-100562763D01*
X164212093Y-100562762D01*
X164206752Y-100558882D01*
X164200724Y-100556198D01*
X164200722Y-100556197D01*
X164038319Y-100483891D01*
X164038318Y-100483891D01*
X164032288Y-100481206D01*
X163916362Y-100456565D01*
X163851944Y-100442872D01*
X163851939Y-100442872D01*
X163845487Y-100441500D01*
X163654513Y-100441500D01*
X163648061Y-100442872D01*
X163648056Y-100442872D01*
X163583638Y-100456565D01*
X163467712Y-100481206D01*
X163461682Y-100483891D01*
X163461681Y-100483891D01*
X163299278Y-100556197D01*
X163299276Y-100556198D01*
X163293248Y-100558882D01*
X163287907Y-100562762D01*
X163287906Y-100562763D01*
X163237843Y-100599136D01*
X163138747Y-100671134D01*
X163134325Y-100676045D01*
X163134323Y-100676047D01*
X163123071Y-100688543D01*
X163062625Y-100725782D01*
X162991641Y-100724429D01*
X162932657Y-100684913D01*
X162920318Y-100667231D01*
X162906579Y-100643435D01*
X162889040Y-100613056D01*
X162772740Y-100483891D01*
X162765675Y-100476045D01*
X162765674Y-100476044D01*
X162761253Y-100471134D01*
X162606752Y-100358882D01*
X162600724Y-100356198D01*
X162600722Y-100356197D01*
X162438319Y-100283891D01*
X162438318Y-100283891D01*
X162432288Y-100281206D01*
X162332861Y-100260072D01*
X162251944Y-100242872D01*
X162251939Y-100242872D01*
X162245487Y-100241500D01*
X162054513Y-100241500D01*
X162048061Y-100242872D01*
X162048056Y-100242872D01*
X161967139Y-100260072D01*
X161867712Y-100281206D01*
X161861682Y-100283891D01*
X161861681Y-100283891D01*
X161699278Y-100356197D01*
X161699276Y-100356198D01*
X161693248Y-100358882D01*
X161687907Y-100362762D01*
X161687906Y-100362763D01*
X161579535Y-100441500D01*
X161538747Y-100471134D01*
X161534727Y-100475598D01*
X161470920Y-100506220D01*
X161400467Y-100497457D01*
X161345935Y-100451995D01*
X161330783Y-100420804D01*
X161286568Y-100284726D01*
X161284527Y-100278444D01*
X161269174Y-100251851D01*
X161222571Y-100171134D01*
X161189040Y-100113056D01*
X161072740Y-99983891D01*
X161065675Y-99976045D01*
X161065674Y-99976044D01*
X161061253Y-99971134D01*
X160906752Y-99858882D01*
X160900724Y-99856198D01*
X160900722Y-99856197D01*
X160738319Y-99783891D01*
X160738318Y-99783891D01*
X160732288Y-99781206D01*
X160638888Y-99761353D01*
X160551944Y-99742872D01*
X160551939Y-99742872D01*
X160545487Y-99741500D01*
X160354513Y-99741500D01*
X160348061Y-99742872D01*
X160348056Y-99742872D01*
X160261112Y-99761353D01*
X160167712Y-99781206D01*
X160161682Y-99783891D01*
X160161681Y-99783891D01*
X159999278Y-99856197D01*
X159999276Y-99856198D01*
X159993248Y-99858882D01*
X159838747Y-99971134D01*
X159834326Y-99976044D01*
X159834325Y-99976045D01*
X159827261Y-99983891D01*
X159710960Y-100113056D01*
X159677429Y-100171134D01*
X159630827Y-100251851D01*
X159615473Y-100278444D01*
X159556458Y-100460072D01*
X159555768Y-100466633D01*
X159555768Y-100466635D01*
X159540895Y-100608148D01*
X159536496Y-100650000D01*
X122940269Y-100650000D01*
X122943542Y-100639928D01*
X122945766Y-100618774D01*
X122962814Y-100456565D01*
X122963504Y-100450000D01*
X122946133Y-100284726D01*
X122944232Y-100266635D01*
X122944232Y-100266633D01*
X122943542Y-100260072D01*
X122884527Y-100078444D01*
X122875335Y-100062522D01*
X122829937Y-99983891D01*
X122789040Y-99913056D01*
X122728411Y-99845720D01*
X122665675Y-99776045D01*
X122665674Y-99776044D01*
X122661253Y-99771134D01*
X122506752Y-99658882D01*
X122500724Y-99656198D01*
X122500722Y-99656197D01*
X122338319Y-99583891D01*
X122338318Y-99583891D01*
X122332288Y-99581206D01*
X122238888Y-99561353D01*
X122151944Y-99542872D01*
X122151939Y-99542872D01*
X122145487Y-99541500D01*
X121954513Y-99541500D01*
X121948061Y-99542872D01*
X121948056Y-99542872D01*
X121861112Y-99561353D01*
X121767712Y-99581206D01*
X121761682Y-99583891D01*
X121761681Y-99583891D01*
X121599278Y-99656197D01*
X121599276Y-99656198D01*
X121593248Y-99658882D01*
X121438747Y-99771134D01*
X121434326Y-99776044D01*
X121434325Y-99776045D01*
X121371590Y-99845720D01*
X121310960Y-99913056D01*
X121270063Y-99983891D01*
X121224666Y-100062522D01*
X121215473Y-100078444D01*
X121156458Y-100260072D01*
X121155768Y-100266633D01*
X121155768Y-100266635D01*
X121153867Y-100284726D01*
X121136496Y-100450000D01*
X115650000Y-100450000D01*
X115650000Y-98250000D01*
X135936496Y-98250000D01*
X135937186Y-98256565D01*
X135955129Y-98427279D01*
X135956458Y-98439928D01*
X136015473Y-98621556D01*
X136110960Y-98786944D01*
X136115378Y-98791851D01*
X136115379Y-98791852D01*
X136229678Y-98918794D01*
X136238747Y-98928866D01*
X136393248Y-99041118D01*
X136399276Y-99043802D01*
X136399278Y-99043803D01*
X136561681Y-99116109D01*
X136567712Y-99118794D01*
X136661112Y-99138647D01*
X136748056Y-99157128D01*
X136748061Y-99157128D01*
X136754513Y-99158500D01*
X136945487Y-99158500D01*
X136951939Y-99157128D01*
X136951944Y-99157128D01*
X136985477Y-99150000D01*
X169736496Y-99150000D01*
X169756458Y-99339928D01*
X169815473Y-99521556D01*
X169910960Y-99686944D01*
X170038747Y-99828866D01*
X170193248Y-99941118D01*
X170199276Y-99943802D01*
X170199278Y-99943803D01*
X170289318Y-99983891D01*
X170367712Y-100018794D01*
X170461113Y-100038647D01*
X170548056Y-100057128D01*
X170548061Y-100057128D01*
X170554513Y-100058500D01*
X170745487Y-100058500D01*
X170751939Y-100057128D01*
X170751944Y-100057128D01*
X170838887Y-100038647D01*
X170932288Y-100018794D01*
X171010682Y-99983891D01*
X171100722Y-99943803D01*
X171100724Y-99943802D01*
X171106752Y-99941118D01*
X171261253Y-99828866D01*
X171389040Y-99686944D01*
X171484527Y-99521556D01*
X171543542Y-99339928D01*
X171563504Y-99150000D01*
X171551589Y-99036638D01*
X171544232Y-98966635D01*
X171544232Y-98966633D01*
X171543542Y-98960072D01*
X171484527Y-98778444D01*
X171389040Y-98613056D01*
X171327842Y-98545088D01*
X171265675Y-98476045D01*
X171265674Y-98476044D01*
X171261253Y-98471134D01*
X171106752Y-98358882D01*
X171100724Y-98356198D01*
X171100722Y-98356197D01*
X170938319Y-98283891D01*
X170938318Y-98283891D01*
X170932288Y-98281206D01*
X170816362Y-98256565D01*
X170751944Y-98242872D01*
X170751939Y-98242872D01*
X170745487Y-98241500D01*
X170554513Y-98241500D01*
X170548061Y-98242872D01*
X170548056Y-98242872D01*
X170483638Y-98256565D01*
X170367712Y-98281206D01*
X170361682Y-98283891D01*
X170361681Y-98283891D01*
X170199278Y-98356197D01*
X170199276Y-98356198D01*
X170193248Y-98358882D01*
X170038747Y-98471134D01*
X170034326Y-98476044D01*
X170034325Y-98476045D01*
X169972159Y-98545088D01*
X169910960Y-98613056D01*
X169815473Y-98778444D01*
X169756458Y-98960072D01*
X169755768Y-98966633D01*
X169755768Y-98966635D01*
X169748411Y-99036638D01*
X169736496Y-99150000D01*
X136985477Y-99150000D01*
X137038887Y-99138647D01*
X137132288Y-99118794D01*
X137138319Y-99116109D01*
X137300722Y-99043803D01*
X137300724Y-99043802D01*
X137306752Y-99041118D01*
X137461253Y-98928866D01*
X137470322Y-98918794D01*
X137584621Y-98791852D01*
X137584622Y-98791851D01*
X137589040Y-98786944D01*
X137684527Y-98621556D01*
X137741711Y-98445563D01*
X137781785Y-98386958D01*
X137847182Y-98359321D01*
X137861544Y-98358500D01*
X137945487Y-98358500D01*
X137951939Y-98357128D01*
X137951944Y-98357128D01*
X138038888Y-98338647D01*
X138132288Y-98318794D01*
X138210682Y-98283891D01*
X138300722Y-98243803D01*
X138300724Y-98243802D01*
X138306752Y-98241118D01*
X138461253Y-98128866D01*
X138532264Y-98050000D01*
X157236496Y-98050000D01*
X157237186Y-98056565D01*
X157255129Y-98227279D01*
X157256458Y-98239928D01*
X157315473Y-98421556D01*
X157410960Y-98586944D01*
X157415378Y-98591851D01*
X157415379Y-98591852D01*
X157528279Y-98717240D01*
X157538747Y-98728866D01*
X157693248Y-98841118D01*
X157699276Y-98843802D01*
X157699278Y-98843803D01*
X157861681Y-98916109D01*
X157867712Y-98918794D01*
X157961113Y-98938647D01*
X158048056Y-98957128D01*
X158048061Y-98957128D01*
X158054513Y-98958500D01*
X158245487Y-98958500D01*
X158251939Y-98957128D01*
X158251944Y-98957128D01*
X158338887Y-98938647D01*
X158432288Y-98918794D01*
X158438319Y-98916109D01*
X158600722Y-98843803D01*
X158600724Y-98843802D01*
X158606752Y-98841118D01*
X158761253Y-98728866D01*
X158772740Y-98716109D01*
X158837844Y-98643803D01*
X158856365Y-98623233D01*
X158916810Y-98585994D01*
X158987793Y-98587346D01*
X159043635Y-98623233D01*
X159062156Y-98643803D01*
X159127261Y-98716109D01*
X159138747Y-98728866D01*
X159293248Y-98841118D01*
X159299276Y-98843802D01*
X159299278Y-98843803D01*
X159461681Y-98916109D01*
X159467712Y-98918794D01*
X159561113Y-98938647D01*
X159648056Y-98957128D01*
X159648061Y-98957128D01*
X159654513Y-98958500D01*
X159845487Y-98958500D01*
X159851939Y-98957128D01*
X159851944Y-98957128D01*
X159938887Y-98938647D01*
X160032288Y-98918794D01*
X160038319Y-98916109D01*
X160200722Y-98843803D01*
X160200724Y-98843802D01*
X160206752Y-98841118D01*
X160361253Y-98728866D01*
X160371721Y-98717240D01*
X160484621Y-98591852D01*
X160484622Y-98591851D01*
X160489040Y-98586944D01*
X160584527Y-98421556D01*
X160643542Y-98239928D01*
X160644872Y-98227279D01*
X160662814Y-98056565D01*
X160663504Y-98050000D01*
X160660660Y-98022939D01*
X160644232Y-97866635D01*
X160644232Y-97866633D01*
X160643542Y-97860072D01*
X160640269Y-97850000D01*
X165436496Y-97850000D01*
X165437186Y-97856565D01*
X165455212Y-98028069D01*
X165456458Y-98039928D01*
X165515473Y-98221556D01*
X165610960Y-98386944D01*
X165615378Y-98391851D01*
X165615379Y-98391852D01*
X165683269Y-98467251D01*
X165738747Y-98528866D01*
X165893248Y-98641118D01*
X165899276Y-98643802D01*
X165899278Y-98643803D01*
X166056805Y-98713938D01*
X166067712Y-98718794D01*
X166133365Y-98732749D01*
X166248056Y-98757128D01*
X166248061Y-98757128D01*
X166254513Y-98758500D01*
X166445487Y-98758500D01*
X166451939Y-98757128D01*
X166451944Y-98757128D01*
X166566635Y-98732749D01*
X166632288Y-98718794D01*
X166643195Y-98713938D01*
X166800722Y-98643803D01*
X166800724Y-98643802D01*
X166806752Y-98641118D01*
X166961253Y-98528866D01*
X167016731Y-98467251D01*
X167084621Y-98391852D01*
X167084622Y-98391851D01*
X167089040Y-98386944D01*
X167184527Y-98221556D01*
X167243542Y-98039928D01*
X167244789Y-98028069D01*
X167262814Y-97856565D01*
X167263504Y-97850000D01*
X167259290Y-97809908D01*
X167244232Y-97666635D01*
X167244232Y-97666633D01*
X167243542Y-97660072D01*
X167184527Y-97478444D01*
X167089040Y-97313056D01*
X167077917Y-97300702D01*
X166965675Y-97176045D01*
X166965674Y-97176044D01*
X166961253Y-97171134D01*
X166806752Y-97058882D01*
X166800724Y-97056198D01*
X166800722Y-97056197D01*
X166638319Y-96983891D01*
X166638318Y-96983891D01*
X166632288Y-96981206D01*
X166538887Y-96961353D01*
X166451944Y-96942872D01*
X166451939Y-96942872D01*
X166445487Y-96941500D01*
X166254513Y-96941500D01*
X166248061Y-96942872D01*
X166248056Y-96942872D01*
X166161112Y-96961353D01*
X166067712Y-96981206D01*
X166061682Y-96983891D01*
X166061681Y-96983891D01*
X165899278Y-97056197D01*
X165899276Y-97056198D01*
X165893248Y-97058882D01*
X165738747Y-97171134D01*
X165734326Y-97176044D01*
X165734325Y-97176045D01*
X165622084Y-97300702D01*
X165610960Y-97313056D01*
X165515473Y-97478444D01*
X165456458Y-97660072D01*
X165455768Y-97666633D01*
X165455768Y-97666635D01*
X165440710Y-97809908D01*
X165436496Y-97850000D01*
X160640269Y-97850000D01*
X160584527Y-97678444D01*
X160489040Y-97513056D01*
X160468017Y-97489707D01*
X160365675Y-97376045D01*
X160365674Y-97376044D01*
X160361253Y-97371134D01*
X160206752Y-97258882D01*
X160200724Y-97256198D01*
X160200722Y-97256197D01*
X160038319Y-97183891D01*
X160038318Y-97183891D01*
X160032288Y-97181206D01*
X159938888Y-97161353D01*
X159851944Y-97142872D01*
X159851939Y-97142872D01*
X159845487Y-97141500D01*
X159654513Y-97141500D01*
X159648061Y-97142872D01*
X159648056Y-97142872D01*
X159561112Y-97161353D01*
X159467712Y-97181206D01*
X159461682Y-97183891D01*
X159461681Y-97183891D01*
X159299278Y-97256197D01*
X159299276Y-97256198D01*
X159293248Y-97258882D01*
X159138747Y-97371134D01*
X159134326Y-97376044D01*
X159134325Y-97376045D01*
X159112189Y-97400629D01*
X159059739Y-97458882D01*
X159043636Y-97476766D01*
X158983190Y-97514006D01*
X158912207Y-97512654D01*
X158856364Y-97476766D01*
X158840262Y-97458882D01*
X158787811Y-97400629D01*
X158765675Y-97376045D01*
X158765674Y-97376044D01*
X158761253Y-97371134D01*
X158606752Y-97258882D01*
X158600724Y-97256198D01*
X158600722Y-97256197D01*
X158438319Y-97183891D01*
X158438318Y-97183891D01*
X158432288Y-97181206D01*
X158338888Y-97161353D01*
X158251944Y-97142872D01*
X158251939Y-97142872D01*
X158245487Y-97141500D01*
X158054513Y-97141500D01*
X158048061Y-97142872D01*
X158048056Y-97142872D01*
X157961112Y-97161353D01*
X157867712Y-97181206D01*
X157861682Y-97183891D01*
X157861681Y-97183891D01*
X157699278Y-97256197D01*
X157699276Y-97256198D01*
X157693248Y-97258882D01*
X157538747Y-97371134D01*
X157534326Y-97376044D01*
X157534325Y-97376045D01*
X157431984Y-97489707D01*
X157410960Y-97513056D01*
X157315473Y-97678444D01*
X157256458Y-97860072D01*
X157255768Y-97866633D01*
X157255768Y-97866635D01*
X157239340Y-98022939D01*
X157236496Y-98050000D01*
X138532264Y-98050000D01*
X138541333Y-98039928D01*
X138584621Y-97991852D01*
X138584622Y-97991851D01*
X138589040Y-97986944D01*
X138684527Y-97821556D01*
X138743542Y-97639928D01*
X138750773Y-97571134D01*
X138762814Y-97456565D01*
X138763504Y-97450000D01*
X138751181Y-97332749D01*
X138744232Y-97266635D01*
X138744232Y-97266633D01*
X138743542Y-97260072D01*
X138684527Y-97078444D01*
X138589040Y-96913056D01*
X138561202Y-96882138D01*
X138465675Y-96776045D01*
X138465674Y-96776044D01*
X138461253Y-96771134D01*
X138306752Y-96658882D01*
X138300724Y-96656198D01*
X138300722Y-96656197D01*
X138286803Y-96650000D01*
X161136496Y-96650000D01*
X161137186Y-96656565D01*
X161149228Y-96771134D01*
X161156458Y-96839928D01*
X161215473Y-97021556D01*
X161218776Y-97027278D01*
X161218777Y-97027279D01*
X161236803Y-97058500D01*
X161310960Y-97186944D01*
X161315378Y-97191851D01*
X161315379Y-97191852D01*
X161375733Y-97258882D01*
X161438747Y-97328866D01*
X161593248Y-97441118D01*
X161599276Y-97443802D01*
X161599278Y-97443803D01*
X161753921Y-97512654D01*
X161767712Y-97518794D01*
X161861112Y-97538647D01*
X161948056Y-97557128D01*
X161948061Y-97557128D01*
X161954513Y-97558500D01*
X162145487Y-97558500D01*
X162151939Y-97557128D01*
X162151944Y-97557128D01*
X162238888Y-97538647D01*
X162332288Y-97518794D01*
X162346079Y-97512654D01*
X162500722Y-97443803D01*
X162500724Y-97443802D01*
X162506752Y-97441118D01*
X162661253Y-97328866D01*
X162724267Y-97258882D01*
X162784621Y-97191852D01*
X162784622Y-97191851D01*
X162789040Y-97186944D01*
X162863197Y-97058500D01*
X162881223Y-97027279D01*
X162881224Y-97027278D01*
X162884527Y-97021556D01*
X162943542Y-96839928D01*
X162950773Y-96771134D01*
X162962814Y-96656565D01*
X162963504Y-96650000D01*
X162948135Y-96503768D01*
X162944232Y-96466635D01*
X162944232Y-96466633D01*
X162943542Y-96460072D01*
X162884527Y-96278444D01*
X162810370Y-96150000D01*
X169736496Y-96150000D01*
X169737186Y-96156565D01*
X169753955Y-96316109D01*
X169756458Y-96339928D01*
X169815473Y-96521556D01*
X169910960Y-96686944D01*
X169915378Y-96691851D01*
X169915379Y-96691852D01*
X169967347Y-96749568D01*
X170038747Y-96828866D01*
X170193248Y-96941118D01*
X170199276Y-96943802D01*
X170199278Y-96943803D01*
X170289318Y-96983891D01*
X170367712Y-97018794D01*
X170461112Y-97038647D01*
X170548056Y-97057128D01*
X170548061Y-97057128D01*
X170554513Y-97058500D01*
X170745487Y-97058500D01*
X170751939Y-97057128D01*
X170751944Y-97057128D01*
X170838888Y-97038647D01*
X170932288Y-97018794D01*
X171010682Y-96983891D01*
X171100722Y-96943803D01*
X171100724Y-96943802D01*
X171106752Y-96941118D01*
X171261253Y-96828866D01*
X171332653Y-96749568D01*
X171384621Y-96691852D01*
X171384622Y-96691851D01*
X171389040Y-96686944D01*
X171484527Y-96521556D01*
X171543542Y-96339928D01*
X171546046Y-96316109D01*
X171562814Y-96156565D01*
X171563504Y-96150000D01*
X171557694Y-96094717D01*
X171544232Y-95966635D01*
X171544232Y-95966633D01*
X171543542Y-95960072D01*
X171484527Y-95778444D01*
X171463990Y-95742872D01*
X171406792Y-95643803D01*
X171389040Y-95613056D01*
X171261253Y-95471134D01*
X171106752Y-95358882D01*
X171100724Y-95356198D01*
X171100722Y-95356197D01*
X170938319Y-95283891D01*
X170938318Y-95283891D01*
X170932288Y-95281206D01*
X170832861Y-95260072D01*
X170751944Y-95242872D01*
X170751939Y-95242872D01*
X170745487Y-95241500D01*
X170554513Y-95241500D01*
X170548061Y-95242872D01*
X170548056Y-95242872D01*
X170467139Y-95260072D01*
X170367712Y-95281206D01*
X170361682Y-95283891D01*
X170361681Y-95283891D01*
X170199278Y-95356197D01*
X170199276Y-95356198D01*
X170193248Y-95358882D01*
X170038747Y-95471134D01*
X169910960Y-95613056D01*
X169893208Y-95643803D01*
X169836011Y-95742872D01*
X169815473Y-95778444D01*
X169756458Y-95960072D01*
X169755768Y-95966633D01*
X169755768Y-95966635D01*
X169742306Y-96094717D01*
X169736496Y-96150000D01*
X162810370Y-96150000D01*
X162789040Y-96113056D01*
X162661253Y-95971134D01*
X162506752Y-95858882D01*
X162500724Y-95856198D01*
X162500722Y-95856197D01*
X162338319Y-95783891D01*
X162338318Y-95783891D01*
X162332288Y-95781206D01*
X162238888Y-95761353D01*
X162151944Y-95742872D01*
X162151939Y-95742872D01*
X162145487Y-95741500D01*
X161954513Y-95741500D01*
X161948061Y-95742872D01*
X161948056Y-95742872D01*
X161861112Y-95761353D01*
X161767712Y-95781206D01*
X161761682Y-95783891D01*
X161761681Y-95783891D01*
X161599278Y-95856197D01*
X161599276Y-95856198D01*
X161593248Y-95858882D01*
X161438747Y-95971134D01*
X161310960Y-96113056D01*
X161215473Y-96278444D01*
X161156458Y-96460072D01*
X161155768Y-96466633D01*
X161155768Y-96466635D01*
X161151865Y-96503768D01*
X161136496Y-96650000D01*
X138286803Y-96650000D01*
X138138319Y-96583891D01*
X138138318Y-96583891D01*
X138132288Y-96581206D01*
X138038888Y-96561353D01*
X137951944Y-96542872D01*
X137951939Y-96542872D01*
X137945487Y-96541500D01*
X137754513Y-96541500D01*
X137748061Y-96542872D01*
X137748056Y-96542872D01*
X137661113Y-96561353D01*
X137567712Y-96581206D01*
X137561682Y-96583891D01*
X137561681Y-96583891D01*
X137399278Y-96656197D01*
X137399276Y-96656198D01*
X137393248Y-96658882D01*
X137238747Y-96771134D01*
X137234326Y-96776044D01*
X137234325Y-96776045D01*
X137138799Y-96882138D01*
X137110960Y-96913056D01*
X137015473Y-97078444D01*
X137009821Y-97095840D01*
X136958289Y-97254437D01*
X136918215Y-97313042D01*
X136852818Y-97340679D01*
X136838456Y-97341500D01*
X136754513Y-97341500D01*
X136748061Y-97342872D01*
X136748056Y-97342872D01*
X136661112Y-97361353D01*
X136567712Y-97381206D01*
X136561682Y-97383891D01*
X136561681Y-97383891D01*
X136399278Y-97456197D01*
X136399276Y-97456198D01*
X136393248Y-97458882D01*
X136238747Y-97571134D01*
X136234326Y-97576044D01*
X136234325Y-97576045D01*
X136152758Y-97666635D01*
X136110960Y-97713056D01*
X136015473Y-97878444D01*
X135956458Y-98060072D01*
X135955768Y-98066633D01*
X135955768Y-98066635D01*
X135948819Y-98132749D01*
X135936496Y-98250000D01*
X115650000Y-98250000D01*
X115650000Y-95550000D01*
X141736496Y-95550000D01*
X141737186Y-95556565D01*
X141753955Y-95716109D01*
X141756458Y-95739928D01*
X141815473Y-95921556D01*
X141910960Y-96086944D01*
X141915378Y-96091851D01*
X141915379Y-96091852D01*
X141924094Y-96101531D01*
X142038747Y-96228866D01*
X142193248Y-96341118D01*
X142199276Y-96343802D01*
X142199278Y-96343803D01*
X142361681Y-96416109D01*
X142367712Y-96418794D01*
X142461112Y-96438647D01*
X142548056Y-96457128D01*
X142548061Y-96457128D01*
X142554513Y-96458500D01*
X142745487Y-96458500D01*
X142751939Y-96457128D01*
X142751944Y-96457128D01*
X142838888Y-96438647D01*
X142932288Y-96418794D01*
X142938319Y-96416109D01*
X143100722Y-96343803D01*
X143100724Y-96343802D01*
X143106752Y-96341118D01*
X143261253Y-96228866D01*
X143375906Y-96101531D01*
X143384621Y-96091852D01*
X143384622Y-96091851D01*
X143389040Y-96086944D01*
X143484527Y-95921556D01*
X143543542Y-95739928D01*
X143546046Y-95716109D01*
X143562814Y-95556565D01*
X143563504Y-95550000D01*
X143552994Y-95450000D01*
X151336496Y-95450000D01*
X151337186Y-95456565D01*
X151354235Y-95618774D01*
X151356458Y-95639928D01*
X151415473Y-95821556D01*
X151510960Y-95986944D01*
X151638747Y-96128866D01*
X151682034Y-96160316D01*
X151776385Y-96228866D01*
X151793248Y-96241118D01*
X151799276Y-96243802D01*
X151799278Y-96243803D01*
X151891200Y-96284729D01*
X151967712Y-96318794D01*
X152036263Y-96333365D01*
X152148056Y-96357128D01*
X152148061Y-96357128D01*
X152154513Y-96358500D01*
X152345487Y-96358500D01*
X152351939Y-96357128D01*
X152351944Y-96357128D01*
X152463737Y-96333365D01*
X152532288Y-96318794D01*
X152608800Y-96284729D01*
X152700722Y-96243803D01*
X152700724Y-96243802D01*
X152706752Y-96241118D01*
X152723616Y-96228866D01*
X152817966Y-96160316D01*
X152861253Y-96128866D01*
X152989040Y-95986944D01*
X153084527Y-95821556D01*
X153143542Y-95639928D01*
X153145766Y-95618774D01*
X153162814Y-95456565D01*
X153163504Y-95450000D01*
X153162814Y-95443435D01*
X153144232Y-95266635D01*
X153144232Y-95266633D01*
X153143542Y-95260072D01*
X153084527Y-95078444D01*
X152989040Y-94913056D01*
X152861253Y-94771134D01*
X152706752Y-94658882D01*
X152700724Y-94656198D01*
X152700722Y-94656197D01*
X152538319Y-94583891D01*
X152538318Y-94583891D01*
X152532288Y-94581206D01*
X152438888Y-94561353D01*
X152351944Y-94542872D01*
X152351939Y-94542872D01*
X152345487Y-94541500D01*
X152154513Y-94541500D01*
X152148061Y-94542872D01*
X152148056Y-94542872D01*
X152061113Y-94561353D01*
X151967712Y-94581206D01*
X151961682Y-94583891D01*
X151961681Y-94583891D01*
X151799278Y-94656197D01*
X151799276Y-94656198D01*
X151793248Y-94658882D01*
X151638747Y-94771134D01*
X151510960Y-94913056D01*
X151415473Y-95078444D01*
X151356458Y-95260072D01*
X151355768Y-95266633D01*
X151355768Y-95266635D01*
X151337186Y-95443435D01*
X151336496Y-95450000D01*
X143552994Y-95450000D01*
X143546882Y-95391852D01*
X143544232Y-95366635D01*
X143544232Y-95366633D01*
X143543542Y-95360072D01*
X143484527Y-95178444D01*
X143389040Y-95013056D01*
X143261253Y-94871134D01*
X143130375Y-94776045D01*
X143112094Y-94762763D01*
X143112093Y-94762762D01*
X143106752Y-94758882D01*
X143100724Y-94756198D01*
X143100722Y-94756197D01*
X142938319Y-94683891D01*
X142938318Y-94683891D01*
X142932288Y-94681206D01*
X142832861Y-94660072D01*
X142751944Y-94642872D01*
X142751939Y-94642872D01*
X142745487Y-94641500D01*
X142554513Y-94641500D01*
X142548061Y-94642872D01*
X142548056Y-94642872D01*
X142467139Y-94660072D01*
X142367712Y-94681206D01*
X142361682Y-94683891D01*
X142361681Y-94683891D01*
X142199278Y-94756197D01*
X142199276Y-94756198D01*
X142193248Y-94758882D01*
X142187907Y-94762762D01*
X142187906Y-94762763D01*
X142169625Y-94776045D01*
X142038747Y-94871134D01*
X141910960Y-95013056D01*
X141815473Y-95178444D01*
X141756458Y-95360072D01*
X141755768Y-95366633D01*
X141755768Y-95366635D01*
X141753118Y-95391852D01*
X141736496Y-95550000D01*
X115650000Y-95550000D01*
X115650000Y-94450000D01*
X160436496Y-94450000D01*
X160456458Y-94639928D01*
X160515473Y-94821556D01*
X160610960Y-94986944D01*
X160615378Y-94991851D01*
X160615379Y-94991852D01*
X160658667Y-95039928D01*
X160738747Y-95128866D01*
X160893248Y-95241118D01*
X160899276Y-95243802D01*
X160899278Y-95243803D01*
X160989318Y-95283891D01*
X161067712Y-95318794D01*
X161161113Y-95338647D01*
X161248056Y-95357128D01*
X161248061Y-95357128D01*
X161254513Y-95358500D01*
X161445487Y-95358500D01*
X161451939Y-95357128D01*
X161451944Y-95357128D01*
X161538888Y-95338647D01*
X161632288Y-95318794D01*
X161710682Y-95283891D01*
X161800722Y-95243803D01*
X161800724Y-95243802D01*
X161806752Y-95241118D01*
X161961253Y-95128866D01*
X162041333Y-95039928D01*
X162084621Y-94991852D01*
X162084622Y-94991851D01*
X162089040Y-94986944D01*
X162168105Y-94850000D01*
X165436496Y-94850000D01*
X165437186Y-94856565D01*
X165454235Y-95018774D01*
X165456458Y-95039928D01*
X165515473Y-95221556D01*
X165610960Y-95386944D01*
X165738747Y-95528866D01*
X165893248Y-95641118D01*
X165899276Y-95643802D01*
X165899278Y-95643803D01*
X166061681Y-95716109D01*
X166067712Y-95718794D01*
X166136263Y-95733365D01*
X166248056Y-95757128D01*
X166248061Y-95757128D01*
X166254513Y-95758500D01*
X166445487Y-95758500D01*
X166451939Y-95757128D01*
X166451944Y-95757128D01*
X166563737Y-95733365D01*
X166632288Y-95718794D01*
X166638319Y-95716109D01*
X166800722Y-95643803D01*
X166800724Y-95643802D01*
X166806752Y-95641118D01*
X166961253Y-95528866D01*
X167089040Y-95386944D01*
X167184527Y-95221556D01*
X167243542Y-95039928D01*
X167245766Y-95018774D01*
X167262814Y-94856565D01*
X167263504Y-94850000D01*
X167253645Y-94756197D01*
X167244232Y-94666635D01*
X167244232Y-94666633D01*
X167243542Y-94660072D01*
X167184527Y-94478444D01*
X167089040Y-94313056D01*
X167078965Y-94301866D01*
X166965675Y-94176045D01*
X166965674Y-94176044D01*
X166961253Y-94171134D01*
X166806752Y-94058882D01*
X166800724Y-94056198D01*
X166800722Y-94056197D01*
X166638319Y-93983891D01*
X166638318Y-93983891D01*
X166632288Y-93981206D01*
X166538888Y-93961353D01*
X166451944Y-93942872D01*
X166451939Y-93942872D01*
X166445487Y-93941500D01*
X166254513Y-93941500D01*
X166248061Y-93942872D01*
X166248056Y-93942872D01*
X166161113Y-93961353D01*
X166067712Y-93981206D01*
X166061682Y-93983891D01*
X166061681Y-93983891D01*
X165899278Y-94056197D01*
X165899276Y-94056198D01*
X165893248Y-94058882D01*
X165738747Y-94171134D01*
X165734326Y-94176044D01*
X165734325Y-94176045D01*
X165621036Y-94301866D01*
X165610960Y-94313056D01*
X165515473Y-94478444D01*
X165456458Y-94660072D01*
X165455768Y-94666633D01*
X165455768Y-94666635D01*
X165446355Y-94756197D01*
X165436496Y-94850000D01*
X162168105Y-94850000D01*
X162184527Y-94821556D01*
X162243542Y-94639928D01*
X162263504Y-94450000D01*
X162243542Y-94260072D01*
X162184527Y-94078444D01*
X162089040Y-93913056D01*
X161961253Y-93771134D01*
X161806752Y-93658882D01*
X161800724Y-93656198D01*
X161800722Y-93656197D01*
X161638319Y-93583891D01*
X161638318Y-93583891D01*
X161632288Y-93581206D01*
X161538888Y-93561353D01*
X161451944Y-93542872D01*
X161451939Y-93542872D01*
X161445487Y-93541500D01*
X161254513Y-93541500D01*
X161248061Y-93542872D01*
X161248056Y-93542872D01*
X161161113Y-93561353D01*
X161067712Y-93581206D01*
X161061682Y-93583891D01*
X161061681Y-93583891D01*
X160899278Y-93656197D01*
X160899276Y-93656198D01*
X160893248Y-93658882D01*
X160738747Y-93771134D01*
X160610960Y-93913056D01*
X160515473Y-94078444D01*
X160456458Y-94260072D01*
X160436496Y-94450000D01*
X115650000Y-94450000D01*
X115650000Y-90850000D01*
X132036496Y-90850000D01*
X132037186Y-90856565D01*
X132055129Y-91027279D01*
X132056458Y-91039928D01*
X132115473Y-91221556D01*
X132210960Y-91386944D01*
X132215378Y-91391851D01*
X132215379Y-91391852D01*
X132329678Y-91518794D01*
X132338747Y-91528866D01*
X132493248Y-91641118D01*
X132499276Y-91643802D01*
X132499278Y-91643803D01*
X132661681Y-91716109D01*
X132667712Y-91718794D01*
X132761113Y-91738647D01*
X132848056Y-91757128D01*
X132848061Y-91757128D01*
X132854513Y-91758500D01*
X133045487Y-91758500D01*
X133051939Y-91757128D01*
X133051944Y-91757128D01*
X133138887Y-91738647D01*
X133232288Y-91718794D01*
X133238319Y-91716109D01*
X133400722Y-91643803D01*
X133400724Y-91643802D01*
X133406752Y-91641118D01*
X133561253Y-91528866D01*
X133570322Y-91518794D01*
X133684621Y-91391852D01*
X133684622Y-91391851D01*
X133689040Y-91386944D01*
X133784527Y-91221556D01*
X133843542Y-91039928D01*
X133844872Y-91027279D01*
X133862814Y-90856565D01*
X133863504Y-90850000D01*
X133849585Y-90717564D01*
X133844232Y-90666635D01*
X133844232Y-90666633D01*
X133843542Y-90660072D01*
X133840269Y-90650000D01*
X136636496Y-90650000D01*
X136637186Y-90656565D01*
X136655129Y-90827279D01*
X136656458Y-90839928D01*
X136715473Y-91021556D01*
X136810960Y-91186944D01*
X136815378Y-91191851D01*
X136815379Y-91191852D01*
X136929678Y-91318794D01*
X136938747Y-91328866D01*
X137093248Y-91441118D01*
X137099276Y-91443802D01*
X137099278Y-91443803D01*
X137261681Y-91516109D01*
X137267712Y-91518794D01*
X137333365Y-91532749D01*
X137448056Y-91557128D01*
X137448061Y-91557128D01*
X137454513Y-91558500D01*
X137645487Y-91558500D01*
X137651939Y-91557128D01*
X137651944Y-91557128D01*
X137766635Y-91532749D01*
X137832288Y-91518794D01*
X137838319Y-91516109D01*
X138000722Y-91443803D01*
X138000724Y-91443802D01*
X138006752Y-91441118D01*
X138161253Y-91328866D01*
X138170322Y-91318794D01*
X138284621Y-91191852D01*
X138284622Y-91191851D01*
X138289040Y-91186944D01*
X138384527Y-91021556D01*
X138443542Y-90839928D01*
X138444872Y-90827279D01*
X138462814Y-90656565D01*
X138463504Y-90650000D01*
X141636496Y-90650000D01*
X141637186Y-90656565D01*
X141655129Y-90827279D01*
X141656458Y-90839928D01*
X141715473Y-91021556D01*
X141810960Y-91186944D01*
X141815378Y-91191851D01*
X141815379Y-91191852D01*
X141929678Y-91318794D01*
X141938747Y-91328866D01*
X142093248Y-91441118D01*
X142099276Y-91443802D01*
X142099278Y-91443803D01*
X142261681Y-91516109D01*
X142267712Y-91518794D01*
X142333365Y-91532749D01*
X142448056Y-91557128D01*
X142448061Y-91557128D01*
X142454513Y-91558500D01*
X142645487Y-91558500D01*
X142651939Y-91557128D01*
X142651944Y-91557128D01*
X142766635Y-91532749D01*
X142832288Y-91518794D01*
X142838319Y-91516109D01*
X143000722Y-91443803D01*
X143000724Y-91443802D01*
X143006752Y-91441118D01*
X143161253Y-91328866D01*
X143170322Y-91318794D01*
X143284621Y-91191852D01*
X143284622Y-91191851D01*
X143289040Y-91186944D01*
X143384527Y-91021556D01*
X143443542Y-90839928D01*
X143444872Y-90827279D01*
X143449502Y-90783221D01*
X143476515Y-90717564D01*
X143534737Y-90676934D01*
X143605682Y-90674231D01*
X143666826Y-90710313D01*
X143694645Y-90757453D01*
X143715473Y-90821556D01*
X143810960Y-90986944D01*
X143815378Y-90991851D01*
X143815379Y-90991852D01*
X143858667Y-91039928D01*
X143938747Y-91128866D01*
X144093248Y-91241118D01*
X144099276Y-91243802D01*
X144099278Y-91243803D01*
X144261681Y-91316109D01*
X144267712Y-91318794D01*
X144333365Y-91332749D01*
X144448056Y-91357128D01*
X144448061Y-91357128D01*
X144454513Y-91358500D01*
X144645487Y-91358500D01*
X144651939Y-91357128D01*
X144651944Y-91357128D01*
X144766635Y-91332749D01*
X144832288Y-91318794D01*
X144838319Y-91316109D01*
X145000722Y-91243803D01*
X145000724Y-91243802D01*
X145006752Y-91241118D01*
X145161253Y-91128866D01*
X145241333Y-91039928D01*
X145284621Y-90991852D01*
X145284622Y-90991851D01*
X145289040Y-90986944D01*
X145384527Y-90821556D01*
X145443542Y-90639928D01*
X145463504Y-90450000D01*
X145445473Y-90278444D01*
X145444232Y-90266635D01*
X145444232Y-90266633D01*
X145443542Y-90260072D01*
X145384527Y-90078444D01*
X145289040Y-89913056D01*
X145172740Y-89783891D01*
X145165675Y-89776045D01*
X145165674Y-89776044D01*
X145161253Y-89771134D01*
X145006752Y-89658882D01*
X145000724Y-89656198D01*
X145000722Y-89656197D01*
X144838319Y-89583891D01*
X144838318Y-89583891D01*
X144832288Y-89581206D01*
X144738888Y-89561353D01*
X144651944Y-89542872D01*
X144651939Y-89542872D01*
X144645487Y-89541500D01*
X144454513Y-89541500D01*
X144448061Y-89542872D01*
X144448056Y-89542872D01*
X144361112Y-89561353D01*
X144267712Y-89581206D01*
X144261682Y-89583891D01*
X144261681Y-89583891D01*
X144099278Y-89656197D01*
X144099276Y-89656198D01*
X144093248Y-89658882D01*
X143938747Y-89771134D01*
X143934326Y-89776044D01*
X143934325Y-89776045D01*
X143927261Y-89783891D01*
X143810960Y-89913056D01*
X143715473Y-90078444D01*
X143656458Y-90260072D01*
X143655768Y-90266633D01*
X143655768Y-90266635D01*
X143650498Y-90316779D01*
X143623485Y-90382436D01*
X143565263Y-90423066D01*
X143494318Y-90425769D01*
X143433174Y-90389687D01*
X143405355Y-90342546D01*
X143386568Y-90284726D01*
X143384527Y-90278444D01*
X143289040Y-90113056D01*
X143172740Y-89983891D01*
X143165675Y-89976045D01*
X143165674Y-89976044D01*
X143161253Y-89971134D01*
X143006752Y-89858882D01*
X143000724Y-89856198D01*
X143000722Y-89856197D01*
X142838319Y-89783891D01*
X142838318Y-89783891D01*
X142832288Y-89781206D01*
X142738888Y-89761353D01*
X142651944Y-89742872D01*
X142651939Y-89742872D01*
X142645487Y-89741500D01*
X142454513Y-89741500D01*
X142448061Y-89742872D01*
X142448056Y-89742872D01*
X142361112Y-89761353D01*
X142267712Y-89781206D01*
X142261682Y-89783891D01*
X142261681Y-89783891D01*
X142099278Y-89856197D01*
X142099276Y-89856198D01*
X142093248Y-89858882D01*
X141938747Y-89971134D01*
X141934326Y-89976044D01*
X141934325Y-89976045D01*
X141927261Y-89983891D01*
X141810960Y-90113056D01*
X141715473Y-90278444D01*
X141656458Y-90460072D01*
X141655768Y-90466633D01*
X141655768Y-90466635D01*
X141654527Y-90478444D01*
X141636496Y-90650000D01*
X138463504Y-90650000D01*
X138445473Y-90478444D01*
X138444232Y-90466635D01*
X138444232Y-90466633D01*
X138443542Y-90460072D01*
X138384527Y-90278444D01*
X138289040Y-90113056D01*
X138172740Y-89983891D01*
X138165675Y-89976045D01*
X138165674Y-89976044D01*
X138161253Y-89971134D01*
X138006752Y-89858882D01*
X138000724Y-89856198D01*
X138000722Y-89856197D01*
X137838319Y-89783891D01*
X137838318Y-89783891D01*
X137832288Y-89781206D01*
X137738888Y-89761353D01*
X137651944Y-89742872D01*
X137651939Y-89742872D01*
X137645487Y-89741500D01*
X137454513Y-89741500D01*
X137448061Y-89742872D01*
X137448056Y-89742872D01*
X137361112Y-89761353D01*
X137267712Y-89781206D01*
X137261682Y-89783891D01*
X137261681Y-89783891D01*
X137099278Y-89856197D01*
X137099276Y-89856198D01*
X137093248Y-89858882D01*
X136938747Y-89971134D01*
X136934326Y-89976044D01*
X136934325Y-89976045D01*
X136927261Y-89983891D01*
X136810960Y-90113056D01*
X136715473Y-90278444D01*
X136656458Y-90460072D01*
X136655768Y-90466633D01*
X136655768Y-90466635D01*
X136654527Y-90478444D01*
X136636496Y-90650000D01*
X133840269Y-90650000D01*
X133784527Y-90478444D01*
X133689040Y-90313056D01*
X133647243Y-90266635D01*
X133565675Y-90176045D01*
X133565674Y-90176044D01*
X133561253Y-90171134D01*
X133406752Y-90058882D01*
X133400724Y-90056198D01*
X133400722Y-90056197D01*
X133238319Y-89983891D01*
X133238318Y-89983891D01*
X133232288Y-89981206D01*
X133138887Y-89961353D01*
X133051944Y-89942872D01*
X133051939Y-89942872D01*
X133045487Y-89941500D01*
X132854513Y-89941500D01*
X132848061Y-89942872D01*
X132848056Y-89942872D01*
X132761113Y-89961353D01*
X132667712Y-89981206D01*
X132661682Y-89983891D01*
X132661681Y-89983891D01*
X132499278Y-90056197D01*
X132499276Y-90056198D01*
X132493248Y-90058882D01*
X132338747Y-90171134D01*
X132334326Y-90176044D01*
X132334325Y-90176045D01*
X132252758Y-90266635D01*
X132210960Y-90313056D01*
X132115473Y-90478444D01*
X132056458Y-90660072D01*
X132055768Y-90666633D01*
X132055768Y-90666635D01*
X132050415Y-90717564D01*
X132036496Y-90850000D01*
X115650000Y-90850000D01*
X115650000Y-88248134D01*
X174391500Y-88248134D01*
X174398255Y-88310316D01*
X174449385Y-88446705D01*
X174536739Y-88563261D01*
X174653295Y-88650615D01*
X174789684Y-88701745D01*
X174851866Y-88708500D01*
X176648134Y-88708500D01*
X176710316Y-88701745D01*
X176846705Y-88650615D01*
X176963261Y-88563261D01*
X177050615Y-88446705D01*
X177101745Y-88310316D01*
X177108500Y-88248134D01*
X177108500Y-86451866D01*
X177101745Y-86389684D01*
X177050615Y-86253295D01*
X176963261Y-86136739D01*
X176846705Y-86049385D01*
X176710316Y-85998255D01*
X176648134Y-85991500D01*
X174851866Y-85991500D01*
X174789684Y-85998255D01*
X174653295Y-86049385D01*
X174536739Y-86136739D01*
X174449385Y-86253295D01*
X174398255Y-86389684D01*
X174391500Y-86451866D01*
X174391500Y-88248134D01*
X115650000Y-88248134D01*
X115650000Y-86750000D01*
X160436496Y-86750000D01*
X160456458Y-86939928D01*
X160515473Y-87121556D01*
X160518776Y-87127278D01*
X160518777Y-87127279D01*
X160524526Y-87137237D01*
X160610960Y-87286944D01*
X160738747Y-87428866D01*
X160893248Y-87541118D01*
X160899276Y-87543802D01*
X160899278Y-87543803D01*
X161061681Y-87616109D01*
X161067712Y-87618794D01*
X161161113Y-87638647D01*
X161248056Y-87657128D01*
X161248061Y-87657128D01*
X161254513Y-87658500D01*
X161445487Y-87658500D01*
X161451939Y-87657128D01*
X161451944Y-87657128D01*
X161538888Y-87638647D01*
X161632288Y-87618794D01*
X161638319Y-87616109D01*
X161800722Y-87543803D01*
X161800724Y-87543802D01*
X161806752Y-87541118D01*
X161961253Y-87428866D01*
X162089040Y-87286944D01*
X162141049Y-87196862D01*
X162192432Y-87147869D01*
X162262145Y-87134433D01*
X162301417Y-87144755D01*
X162418452Y-87196862D01*
X162467712Y-87218794D01*
X162561113Y-87238647D01*
X162648056Y-87257128D01*
X162648061Y-87257128D01*
X162654513Y-87258500D01*
X162845487Y-87258500D01*
X162851939Y-87257128D01*
X162851944Y-87257128D01*
X162938887Y-87238647D01*
X163032288Y-87218794D01*
X163038319Y-87216109D01*
X163200722Y-87143803D01*
X163200724Y-87143802D01*
X163206752Y-87141118D01*
X163361253Y-87028866D01*
X163441333Y-86939928D01*
X163484621Y-86891852D01*
X163484622Y-86891851D01*
X163489040Y-86886944D01*
X163584527Y-86721556D01*
X163641711Y-86545563D01*
X163681785Y-86486958D01*
X163747182Y-86459321D01*
X163761544Y-86458500D01*
X163945487Y-86458500D01*
X163951939Y-86457128D01*
X163951944Y-86457128D01*
X164045662Y-86437207D01*
X164132288Y-86418794D01*
X164138319Y-86416109D01*
X164300722Y-86343803D01*
X164300724Y-86343802D01*
X164306752Y-86341118D01*
X164461253Y-86228866D01*
X164537740Y-86143919D01*
X164584621Y-86091852D01*
X164584622Y-86091851D01*
X164589040Y-86086944D01*
X164665077Y-85955245D01*
X164681223Y-85927279D01*
X164681224Y-85927278D01*
X164684527Y-85921556D01*
X164709219Y-85845563D01*
X164749291Y-85786958D01*
X164814688Y-85759321D01*
X164829051Y-85758500D01*
X164945487Y-85758500D01*
X164951939Y-85757128D01*
X164951944Y-85757128D01*
X165038887Y-85738647D01*
X165132288Y-85718794D01*
X165138319Y-85716109D01*
X165300722Y-85643803D01*
X165300724Y-85643802D01*
X165306752Y-85641118D01*
X165461253Y-85528866D01*
X165589040Y-85386944D01*
X165684527Y-85221556D01*
X165743542Y-85039928D01*
X165745766Y-85018774D01*
X165762814Y-84856565D01*
X165763504Y-84850000D01*
X165753645Y-84756197D01*
X165744232Y-84666635D01*
X165744232Y-84666633D01*
X165743542Y-84660072D01*
X165684527Y-84478444D01*
X165589040Y-84313056D01*
X165461253Y-84171134D01*
X165306752Y-84058882D01*
X165300724Y-84056198D01*
X165300722Y-84056197D01*
X165138319Y-83983891D01*
X165138318Y-83983891D01*
X165132288Y-83981206D01*
X165038887Y-83961353D01*
X164951944Y-83942872D01*
X164951939Y-83942872D01*
X164945487Y-83941500D01*
X164754513Y-83941500D01*
X164748061Y-83942872D01*
X164748056Y-83942872D01*
X164661113Y-83961353D01*
X164567712Y-83981206D01*
X164561682Y-83983891D01*
X164561681Y-83983891D01*
X164399278Y-84056197D01*
X164399276Y-84056198D01*
X164393248Y-84058882D01*
X164238747Y-84171134D01*
X164110960Y-84313056D01*
X164015473Y-84478444D01*
X164013432Y-84484726D01*
X164013431Y-84484728D01*
X163990782Y-84554436D01*
X163950709Y-84613042D01*
X163885312Y-84640679D01*
X163870949Y-84641500D01*
X163754513Y-84641500D01*
X163748061Y-84642872D01*
X163748056Y-84642872D01*
X163667139Y-84660072D01*
X163567712Y-84681206D01*
X163561682Y-84683891D01*
X163561681Y-84683891D01*
X163399278Y-84756197D01*
X163399276Y-84756198D01*
X163393248Y-84758882D01*
X163238747Y-84871134D01*
X163110960Y-85013056D01*
X163015473Y-85178444D01*
X162958289Y-85354437D01*
X162918215Y-85413042D01*
X162852818Y-85440679D01*
X162838456Y-85441500D01*
X162654513Y-85441500D01*
X162648061Y-85442872D01*
X162648056Y-85442872D01*
X162561112Y-85461353D01*
X162467712Y-85481206D01*
X162461682Y-85483891D01*
X162461681Y-85483891D01*
X162299278Y-85556197D01*
X162299276Y-85556198D01*
X162293248Y-85558882D01*
X162138747Y-85671134D01*
X162134326Y-85676044D01*
X162134325Y-85676045D01*
X162063127Y-85755119D01*
X162010960Y-85813056D01*
X161970063Y-85883891D01*
X161958951Y-85903138D01*
X161907568Y-85952131D01*
X161837855Y-85965567D01*
X161798583Y-85955245D01*
X161638319Y-85883891D01*
X161638318Y-85883891D01*
X161632288Y-85881206D01*
X161538888Y-85861353D01*
X161451944Y-85842872D01*
X161451939Y-85842872D01*
X161445487Y-85841500D01*
X161254513Y-85841500D01*
X161248061Y-85842872D01*
X161248056Y-85842872D01*
X161161112Y-85861353D01*
X161067712Y-85881206D01*
X161061682Y-85883891D01*
X161061681Y-85883891D01*
X160899278Y-85956197D01*
X160899276Y-85956198D01*
X160893248Y-85958882D01*
X160738747Y-86071134D01*
X160610960Y-86213056D01*
X160515473Y-86378444D01*
X160456458Y-86560072D01*
X160436496Y-86750000D01*
X115650000Y-86750000D01*
X115650000Y-64449020D01*
X120123898Y-64449020D01*
X120143467Y-64672697D01*
X120201580Y-64889577D01*
X120203902Y-64894558D01*
X120203903Y-64894559D01*
X120294145Y-65088084D01*
X120294148Y-65088089D01*
X120296471Y-65093071D01*
X120425257Y-65276996D01*
X120584024Y-65435763D01*
X120588532Y-65438920D01*
X120588535Y-65438922D01*
X120665152Y-65492569D01*
X120767949Y-65564549D01*
X120772931Y-65566872D01*
X120772936Y-65566875D01*
X120966461Y-65657117D01*
X120971443Y-65659440D01*
X120976751Y-65660862D01*
X120976753Y-65660863D01*
X121183008Y-65716129D01*
X121183010Y-65716129D01*
X121188323Y-65717553D01*
X121285915Y-65726091D01*
X121353245Y-65731982D01*
X121353252Y-65731982D01*
X121355969Y-65732220D01*
X121468031Y-65732220D01*
X121470748Y-65731982D01*
X121470755Y-65731982D01*
X121538085Y-65726091D01*
X121635677Y-65717553D01*
X121640990Y-65716129D01*
X121640992Y-65716129D01*
X121847247Y-65660863D01*
X121847249Y-65660862D01*
X121852557Y-65659440D01*
X121857539Y-65657117D01*
X122051064Y-65566875D01*
X122051069Y-65566872D01*
X122056051Y-65564549D01*
X122158848Y-65492569D01*
X122235465Y-65438922D01*
X122235468Y-65438920D01*
X122239976Y-65435763D01*
X122398743Y-65276996D01*
X122527529Y-65093071D01*
X122529852Y-65088089D01*
X122529855Y-65088084D01*
X122620097Y-64894559D01*
X122620098Y-64894558D01*
X122622420Y-64889577D01*
X122680533Y-64672697D01*
X122700102Y-64449020D01*
X144380898Y-64449020D01*
X144400467Y-64672697D01*
X144458580Y-64889577D01*
X144460902Y-64894558D01*
X144460903Y-64894559D01*
X144551145Y-65088084D01*
X144551148Y-65088089D01*
X144553471Y-65093071D01*
X144682257Y-65276996D01*
X144841024Y-65435763D01*
X144845532Y-65438920D01*
X144845535Y-65438922D01*
X144922152Y-65492569D01*
X145024949Y-65564549D01*
X145029931Y-65566872D01*
X145029936Y-65566875D01*
X145223461Y-65657117D01*
X145228443Y-65659440D01*
X145233751Y-65660862D01*
X145233753Y-65660863D01*
X145440008Y-65716129D01*
X145440010Y-65716129D01*
X145445323Y-65717553D01*
X145542915Y-65726091D01*
X145610245Y-65731982D01*
X145610252Y-65731982D01*
X145612969Y-65732220D01*
X145725031Y-65732220D01*
X145727748Y-65731982D01*
X145727755Y-65731982D01*
X145795085Y-65726091D01*
X145892677Y-65717553D01*
X145897990Y-65716129D01*
X145897992Y-65716129D01*
X146104247Y-65660863D01*
X146104249Y-65660862D01*
X146109557Y-65659440D01*
X146114539Y-65657117D01*
X146308064Y-65566875D01*
X146308069Y-65566872D01*
X146313051Y-65564549D01*
X146415848Y-65492569D01*
X146492465Y-65438922D01*
X146492468Y-65438920D01*
X146496976Y-65435763D01*
X146655743Y-65276996D01*
X146784529Y-65093071D01*
X146786852Y-65088089D01*
X146786855Y-65088084D01*
X146877097Y-64894559D01*
X146877098Y-64894558D01*
X146879420Y-64889577D01*
X146937533Y-64672697D01*
X146957102Y-64449020D01*
X146937533Y-64225343D01*
X146879420Y-64008463D01*
X146877097Y-64003481D01*
X146786855Y-63809956D01*
X146786852Y-63809951D01*
X146784529Y-63804969D01*
X146655743Y-63621044D01*
X146496976Y-63462277D01*
X146492468Y-63459120D01*
X146492465Y-63459118D01*
X146415848Y-63405471D01*
X146313051Y-63333491D01*
X146308069Y-63331168D01*
X146308064Y-63331165D01*
X146114539Y-63240923D01*
X146114538Y-63240922D01*
X146109557Y-63238600D01*
X146104249Y-63237178D01*
X146104247Y-63237177D01*
X145897992Y-63181911D01*
X145897990Y-63181911D01*
X145892677Y-63180487D01*
X145795085Y-63171949D01*
X145727755Y-63166058D01*
X145727748Y-63166058D01*
X145725031Y-63165820D01*
X145612969Y-63165820D01*
X145610252Y-63166058D01*
X145610245Y-63166058D01*
X145542915Y-63171949D01*
X145445323Y-63180487D01*
X145440010Y-63181911D01*
X145440008Y-63181911D01*
X145233753Y-63237177D01*
X145233751Y-63237178D01*
X145228443Y-63238600D01*
X145223462Y-63240922D01*
X145223461Y-63240923D01*
X145029936Y-63331165D01*
X145029931Y-63331168D01*
X145024949Y-63333491D01*
X144922152Y-63405471D01*
X144845535Y-63459118D01*
X144845532Y-63459120D01*
X144841024Y-63462277D01*
X144682257Y-63621044D01*
X144553471Y-63804969D01*
X144551148Y-63809951D01*
X144551145Y-63809956D01*
X144460903Y-64003481D01*
X144458580Y-64008463D01*
X144400467Y-64225343D01*
X144380898Y-64449020D01*
X122700102Y-64449020D01*
X122680533Y-64225343D01*
X122622420Y-64008463D01*
X122620097Y-64003481D01*
X122529855Y-63809956D01*
X122529852Y-63809951D01*
X122527529Y-63804969D01*
X122398743Y-63621044D01*
X122239976Y-63462277D01*
X122235468Y-63459120D01*
X122235465Y-63459118D01*
X122158848Y-63405471D01*
X122056051Y-63333491D01*
X122051069Y-63331168D01*
X122051064Y-63331165D01*
X121857539Y-63240923D01*
X121857538Y-63240922D01*
X121852557Y-63238600D01*
X121847249Y-63237178D01*
X121847247Y-63237177D01*
X121640992Y-63181911D01*
X121640990Y-63181911D01*
X121635677Y-63180487D01*
X121538085Y-63171949D01*
X121470755Y-63166058D01*
X121470748Y-63166058D01*
X121468031Y-63165820D01*
X121355969Y-63165820D01*
X121353252Y-63166058D01*
X121353245Y-63166058D01*
X121285915Y-63171949D01*
X121188323Y-63180487D01*
X121183010Y-63181911D01*
X121183008Y-63181911D01*
X120976753Y-63237177D01*
X120976751Y-63237178D01*
X120971443Y-63238600D01*
X120966462Y-63240922D01*
X120966461Y-63240923D01*
X120772936Y-63331165D01*
X120772931Y-63331168D01*
X120767949Y-63333491D01*
X120665152Y-63405471D01*
X120588535Y-63459118D01*
X120588532Y-63459120D01*
X120584024Y-63462277D01*
X120425257Y-63621044D01*
X120296471Y-63804969D01*
X120294148Y-63809951D01*
X120294145Y-63809956D01*
X120203903Y-64003481D01*
X120201580Y-64008463D01*
X120143467Y-64225343D01*
X120123898Y-64449020D01*
X115650000Y-64449020D01*
X115650000Y-59776000D01*
X115670002Y-59707879D01*
X115723658Y-59661386D01*
X115776000Y-59650000D01*
X179524000Y-59650000D01*
X179592121Y-59670002D01*
G37*
%TD.AperFunction*%
%TD*%
M02*
